<svg width="184" height="154" viewBox="0 0 184 154" fill="none" xmlns="http://www.w3.org/2000/svg">
<style>
    #graph{
        transform-origin: center;
        transform-box: fill-box;
        animation: sideClip 2s linear infinite alternate-reverse;
    }
    @keyframes sideClip {
        0% {
            clip-path: polygon(0 0, 100% 0, 0 0, 0 100%);
        }
        25% {
            clip-path: polygon(0 0, 100% 0, 0 100%, 0 100%);
        }
        50% {
            clip-path: polygon(0 0, 100% 0, 100% 100%, 0 100%);
        }
        75%{
            transform: scale(0.84);
            animation-timing-function: ease-out;
        }

        100%{
            transform: scale(1);
            animation-timing-function: ease-in;
        }
    }
</style>
<g id="sand01 1" clip-path="url(#clip0_309_320)">
<g id="graph" opacity="0.4">
<path id="Path 587" opacity="0.4" d="M154.528 124.851C154.404 124.663 154.7 124.428 154.843 124.607C157.8 128.33 161.734 130.583 165.709 133.037C165.792 132.837 165.879 132.632 165.953 132.429C164.661 128.551 162.191 125.173 158.888 122.766C158.847 122.741 158.818 122.701 158.806 122.655C158.795 122.609 158.802 122.56 158.826 122.519C158.85 122.478 158.889 122.447 158.935 122.435C158.981 122.423 159.03 122.429 159.072 122.452C161.286 123.606 163.018 125.981 164.386 128.01C165.148 129.057 165.788 130.187 166.292 131.38C166.881 129.14 167.158 126.828 167.114 124.512C167.114 124.462 167.134 124.414 167.169 124.379C167.205 124.343 167.252 124.324 167.302 124.324C167.352 124.324 167.4 124.343 167.436 124.379C167.471 124.414 167.491 124.462 167.491 124.512C167.593 127.055 167.255 129.596 166.491 132.023C166.55 132.263 166.583 132.508 166.591 132.754C166.64 132.73 166.691 132.711 166.738 132.687C166.931 132.587 167.101 132.874 166.909 132.979C166.797 133.04 166.684 133.092 166.571 133.148C166.545 133.336 166.49 133.519 166.408 133.691C166.426 133.699 166.441 133.712 166.451 133.729C166.462 133.745 166.467 133.764 166.467 133.784C166.518 135.404 166.932 136.978 166.487 138.578C166.475 138.613 166.45 138.642 166.417 138.659C166.385 138.676 166.347 138.68 166.311 138.671C166.276 138.661 166.245 138.638 166.226 138.606C166.207 138.575 166.2 138.537 166.208 138.501C166.662 136.934 166.262 135.376 166.229 133.785C166.228 133.762 166.235 133.74 166.249 133.722C166.262 133.704 166.281 133.691 166.303 133.685C166.274 133.563 166.241 133.442 166.209 133.322C166.114 133.363 166.019 133.399 165.925 133.436C165.919 133.439 165.912 133.442 165.905 133.444L165.814 133.482C165.79 133.525 165.768 133.568 165.744 133.61C165.732 133.631 165.715 133.648 165.694 133.658C165.673 133.669 165.649 133.674 165.626 133.671C165.602 133.669 165.58 133.659 165.562 133.644C165.544 133.629 165.531 133.609 165.524 133.586C162.608 134.577 159.39 133.962 156.537 132.826C156.256 132.713 156.379 132.252 156.664 132.366C159.41 133.466 162.541 134.096 165.397 133.221C161.44 131.132 157.034 128.65 154.528 124.851ZM166.106 132.92L166.076 132.984L166.121 132.967L166.106 132.92Z" fill="#3F0366"/>
<path id="Path 588" opacity="0.4" d="M158.743 136.338C158.518 136.331 158.517 135.978 158.743 135.986C161.051 136.07 164.283 136.038 165.779 133.965C165.789 133.951 165.803 133.939 165.818 133.931C165.834 133.922 165.851 133.918 165.869 133.917C165.886 133.917 165.904 133.92 165.92 133.927C165.936 133.935 165.95 133.945 165.961 133.959C165.979 133.891 166.001 133.825 166.017 133.759C166.043 133.651 166.229 133.672 166.217 133.786C165.814 136.362 164.474 138.699 162.454 140.347C162.254 140.509 161.971 140.23 162.17 140.063C163.98 138.52 165.281 136.467 165.904 134.172C164.352 136.294 161.131 136.408 158.743 136.338Z" fill="#3F0366"/>
<path id="Path 589" opacity="0.4" d="M167.065 133.09C167.05 133.09 167.039 133.069 167.052 133.058C167.838 132.529 168.574 131.93 169.252 131.268C170.012 130.395 170.572 129.368 170.894 128.256C170.91 128.198 170.948 128.149 171 128.119C171.052 128.09 171.114 128.082 171.172 128.098C171.23 128.114 171.279 128.152 171.309 128.204C171.338 128.256 171.346 128.318 171.33 128.376C170.815 130.133 169.187 133.018 167.065 133.09Z" fill="#3F0366"/>
<path id="Path 590" opacity="0.4" d="M170.108 136.769C170.262 137.006 169.878 137.232 169.729 136.991C168.843 135.856 167.848 134.811 166.758 133.87C166.687 133.801 166.704 133.661 166.827 133.67C168.066 133.768 169.299 133.415 170.298 132.676C170.498 132.536 170.684 132.862 170.489 133.001C169.522 133.693 168.343 134.023 167.157 133.933C168.273 134.73 169.267 135.685 170.108 136.769V136.769Z" fill="#3F0366"/>
<path id="Path 591" opacity="0.4" d="M147.867 128.927C149.812 130.101 151.881 131.058 153.795 132.282C153.814 132.294 153.827 132.313 153.832 132.335C153.837 132.357 153.833 132.38 153.822 132.399C153.811 132.419 153.793 132.433 153.771 132.439C153.75 132.446 153.727 132.444 153.707 132.434C151.743 131.304 149.559 130.51 147.747 129.134C147.629 129.043 147.732 128.845 147.867 128.927Z" fill="#3F0366"/>
<path id="Path 592" opacity="0.4" d="M0.400041 35.037C0.854041 31.018 2.56901 22.631 7.53401 21.637C7.46611 21.5002 7.43964 21.3466 7.45784 21.195C7.47604 21.0433 7.53814 20.9003 7.63649 20.7835C7.73484 20.6667 7.86513 20.5811 8.01143 20.5373C8.15773 20.4935 8.31368 20.4934 8.46004 20.537C8.80804 20.637 9.16002 20.725 9.51302 20.817C10.2691 20.4828 11.0687 20.2572 11.888 20.147C12.6147 19.9387 13.3819 19.915 14.12 20.078C14.1293 19.904 14.137 19.732 14.143 19.562C14.0876 19.5567 14.0339 19.5394 13.9857 19.5114C13.9376 19.4833 13.8961 19.4452 13.864 19.3996C13.832 19.354 13.8103 19.302 13.8002 19.2471C13.7902 19.1923 13.7922 19.136 13.806 19.082C15.093 13.547 17.2811 7.939 23.5611 6.985C28.6901 6.205 35.57 7.985 37.68 13.164C37.7627 13.0906 37.8694 13.0501 37.98 13.0501C38.0906 13.0501 38.1973 13.0906 38.28 13.164C38.606 13.44 38.925 13.723 39.244 14.006C39.0468 12.4856 39.2139 10.9401 39.7315 9.49697C40.2491 8.05385 41.1024 6.75446 42.221 5.706C42.1303 5.52724 42.1129 5.32015 42.1724 5.12875C42.232 4.93734 42.3639 4.77671 42.54 4.681C50.04 0.181002 58.44 -1.919 66.658 2.253C75.402 6.689 81.258 15.453 88.543 21.731C97.195 29.187 106.59 35.685 115.596 42.7C124.473 49.616 132.996 56.865 142.661 62.689C147.583 65.654 152.896 68.078 157.51 71.525C161.274 74.337 166.065 76.977 168.648 81.013C168.696 81.0892 168.716 81.1797 168.705 81.269C168.841 81.2144 168.99 81.1973 169.135 81.2197C169.28 81.242 169.416 81.3029 169.53 81.396C176.654 87.056 181.964 93.467 182.849 102.848C183.317 107.498 182.9 112.195 181.618 116.689C180.945 118.864 180.064 120.969 178.988 122.976C178.046 124.747 176.737 126.276 175.662 127.956C175.586 130.256 175.047 132.518 174.079 134.606C173.111 136.694 171.732 138.565 170.026 140.11C168.32 141.654 166.32 142.84 164.146 143.596C161.972 144.352 159.669 144.663 157.372 144.51C156.433 144.474 155.498 144.359 154.578 144.165C151.06 145.657 147.913 147.879 144.503 149.589C141.018 151.217 137.28 152.236 133.451 152.602C125.351 153.675 116.851 154.616 108.707 153.492C101.327 152.446 94.2431 149.885 87.901 145.969C81.254 141.887 76.421 136.183 70.694 131.023C67.263 127.932 63.451 125.316 60.133 122.098C56.6 118.672 53.239 114.998 49.982 111.308C49.8364 111.151 49.7574 110.943 49.7614 110.729C49.7655 110.515 49.8524 110.31 50.0039 110.159C50.1553 110.007 50.3596 109.92 50.5738 109.916C50.7881 109.912 50.9957 109.991 51.153 110.136C54.119 112.836 56.687 115.953 59.471 118.836C62.1934 121.569 65.0883 124.125 68.138 126.487C74.305 131.425 79.189 137.733 85.631 142.333C91.6394 146.653 98.4795 149.679 105.718 151.218C113.669 152.876 121.818 152.15 129.829 151.335C134.798 150.835 139.553 150.301 144.062 148.035C147.135 146.487 149.995 144.807 153.262 143.835C148.127 142.294 144.326 138.327 141.362 133.61C141.3 133.517 141.268 133.407 141.27 133.295C140.76 132.633 140.196 132.014 139.584 131.445C139.042 130.798 138.532 130.145 138.051 129.454C136.287 126.648 134.36 123.947 132.281 121.365C130.461 119.307 127.97 117.872 125.974 115.965C123.58 113.696 120.946 111.695 118.118 109.998C115.686 108.581 113.348 107.008 111.118 105.29C108.484 103.181 106.162 100.652 103.385 98.73C100.785 96.93 97.952 95.537 95.385 93.669C93.0004 91.9775 90.7047 90.1641 88.507 88.236C88.096 87.866 88.623 87.216 89.089 87.482C92.129 89.219 94.789 91.544 97.668 93.521C99.651 94.881 101.79 95.995 103.783 97.331C105.349 96.6702 106.798 95.7619 108.075 94.641C109.365 93.457 110.48 92.074 111.81 90.936C111.951 90.815 112.21 90.975 112.086 91.149C110.348 93.636 107.664 96.912 104.537 97.849C104.799 98.037 105.058 98.226 105.312 98.425C108.127 100.633 110.57 103.266 113.446 105.41C114.446 106.154 115.484 106.832 116.537 107.491C116.837 104.836 116.399 101.309 118.403 99.355C118.42 99.3376 118.441 99.3255 118.465 99.3202C118.489 99.3149 118.514 99.3167 118.536 99.3253C118.559 99.3339 118.579 99.349 118.593 99.3687C118.607 99.3884 118.615 99.4118 118.616 99.436C118.626 99.4413 118.635 99.4473 118.643 99.454C119.318 100.162 119.923 100.931 120.613 101.63C121.011 102.024 121.377 102.449 121.706 102.902C122.641 102.527 123.652 102.377 124.656 102.465C126.77 102.451 128.837 102.015 130.943 101.94C130.914 101.881 130.886 101.82 130.856 101.761C130.856 101.757 130.856 101.752 130.856 101.748C129.995 99.986 129.078 98.048 127.268 97.113C124.549 97.6531 121.887 98.4504 119.318 99.494C119.118 99.565 118.975 99.288 119.118 99.148C120.19 98.088 121.798 98.038 123.184 97.622C124.47 97.1291 125.815 96.8057 127.184 96.66C127.229 96.6156 127.29 96.5908 127.354 96.591C127.505 96.5955 127.655 96.6235 127.798 96.674C127.918 96.683 128.036 96.686 128.158 96.703C128.28 96.72 128.284 96.816 128.25 96.903C128.801 97.3246 129.27 97.8439 129.633 98.435C130.252 99.3003 130.73 100.258 131.05 101.273C131.124 101.236 131.21 101.23 131.289 101.256C131.368 101.282 131.434 101.338 131.472 101.411C132.883 103.757 134.019 106.257 134.859 108.862C134.87 108.906 134.865 108.952 134.844 108.992C134.824 109.032 134.79 109.064 134.749 109.081C134.707 109.099 134.661 109.101 134.618 109.087C134.575 109.074 134.539 109.045 134.515 109.007C133.276 106.926 132.273 104.642 131.201 102.453C131.19 102.453 131.181 102.461 131.17 102.462C129.341 102.673 127.517 103.077 125.676 103.174C124.474 103.186 123.276 103.3 122.094 103.516C122.129 103.58 122.169 103.639 122.201 103.706C122.205 103.714 122.205 103.724 122.202 103.733C122.199 103.741 122.193 103.749 122.185 103.753C122.177 103.758 122.168 103.76 122.159 103.758C122.15 103.756 122.142 103.751 122.136 103.744C122.088 103.674 122.036 103.607 121.984 103.544C121.865 103.572 121.745 103.605 121.625 103.639C121.535 104.629 121.351 105.604 121.354 106.606C121.354 107.742 121.683 108.857 121.613 109.985C121.602 110.17 121.319 110.292 121.228 110.085C120.445 108.007 120.466 105.712 121.286 103.648C121.249 103.63 121.217 103.603 121.192 103.57C121.168 103.537 121.152 103.499 121.145 103.458C121.139 103.418 121.142 103.376 121.155 103.337C121.168 103.298 121.191 103.263 121.22 103.234C121.315 103.155 121.415 103.084 121.52 103.019C120.5 101.993 119.12 101.202 118.447 99.951C117.905 101.39 117.622 102.913 117.609 104.451C117.631 105.627 117.518 106.801 117.271 107.951C119.042 109.043 120.831 110.107 122.507 111.343C124.865 113.085 126.802 115.276 129.08 117.097C131.27 118.707 133.212 120.63 134.844 122.803C136.712 125.424 138.278 128.256 140.238 130.803C140.803 131.406 141.299 132.069 141.716 132.782C141.838 132.741 141.97 132.742 142.091 132.785C142.212 132.828 142.315 132.91 142.383 133.019C146.337 138.957 151.216 143.628 158.82 143.366C161.781 143.303 164.668 142.43 167.167 140.84C169.665 139.25 171.68 137.005 172.991 134.349C174.323 131.686 174.843 128.69 174.487 125.734C174.132 122.777 172.916 119.991 170.991 117.719C168.122 114.102 164.353 110.87 163.171 106.24C163.14 106.119 163.318 106.04 163.378 106.153C164.509 108.306 165.859 110.337 167.407 112.213C167.391 112.18 167.385 112.143 167.391 112.107C167.861 109.441 168.917 106.793 168.857 104.04C168.791 101.066 167.057 98.384 165.472 95.959C162.134 90.837 157.863 86.472 153.496 82.234C153.134 81.883 153.676 81.349 154.046 81.684C159.244 86.2209 163.718 91.5255 167.314 97.414C168.597 99.614 169.763 101.826 169.658 104.444C169.558 106.876 169.11 110.223 167.712 112.244C167.699 112.264 167.683 112.282 167.663 112.295C167.643 112.308 167.62 112.317 167.597 112.321C167.573 112.325 167.549 112.323 167.526 112.317C167.503 112.311 167.481 112.299 167.463 112.284C168.021 112.968 168.601 113.643 169.204 114.308C171.091 116.209 172.73 118.339 174.084 120.65C175.005 122.432 175.539 124.389 175.651 126.392C176.022 125.661 176.451 124.952 176.879 124.215C180.335 118.141 181.913 111.179 181.414 104.209C181.21 99.5713 179.733 95.0794 177.144 91.226C174.786 87.834 171.544 85.18 168.428 82.518C168.303 82.4272 168.215 82.2947 168.18 82.1446C168.145 81.9945 168.165 81.8368 168.236 81.7C168.182 81.6981 168.13 81.6851 168.081 81.6619C168.033 81.6386 167.99 81.6057 167.955 81.565C165.062 78.323 161.363 76.185 157.934 73.589C153.821 70.476 149.3 68.189 144.834 65.647C136.174 60.714 128.397 54.812 120.616 48.624C112.153 41.894 103.316 35.674 94.783 29.051C90.6925 25.9734 86.7857 22.6587 83.083 19.124C79.61 15.705 76.398 12.069 72.75 8.824C68.505 5.049 63.916 2.163 58.11 1.781C53.054 1.448 48.777 3.288 44.448 5.557C49.781 5.795 54.54 9.912 58.281 13.367C58.432 13.506 58.212 13.716 58.059 13.589C54.051 10.257 48.959 5.951 43.429 6.189C43.3738 6.19182 43.3189 6.17863 43.271 6.151C43.1713 6.19358 43.0638 6.2147 42.9555 6.21298C42.8471 6.21125 42.7403 6.18673 42.642 6.141C41.5872 7.29771 40.8355 8.69776 40.454 10.216C40.134 11.564 40.247 12.944 39.97 14.286C39.9599 14.3327 39.9387 14.3763 39.9082 14.4132C39.8778 14.4501 39.839 14.4792 39.795 14.498C40.417 15.061 41.027 15.633 41.635 16.209C41.899 15.3 42.198 14.59 43.235 14.474C44.094 14.374 44.947 14.96 45.843 14.687C46.833 14.387 47.258 13.364 48.185 13.012C49.333 12.577 49.932 13.121 50.814 13.732C51.866 14.46 51.035 15.065 53.493 14.897C53.757 14.879 54.02 14.583 54.293 14.586C54.6564 14.5312 55.0271 14.5502 55.383 14.642C55.9519 14.9054 56.4255 15.3381 56.739 15.881C56.923 16.154 57.004 16.511 57.194 16.768C58.1085 17.8509 59.3509 18.6063 60.733 18.92C62.189 19.089 63.205 18.561 64.458 19.756C66.34 21.556 65.665 25.095 64.213 26.947C64.113 27.075 63.888 26.937 63.94 26.789C64.5664 25.4924 64.9104 24.0775 64.9491 22.638C64.959 22.0671 64.8184 21.5037 64.5414 21.0044C64.2644 20.5051 63.8607 20.0877 63.371 19.794C61.061 18.516 61.581 19.794 60.149 19.704C59.6404 19.7524 59.1274 19.6879 58.6467 19.5151C58.1659 19.3422 57.7293 19.0652 57.368 18.704C56.322 17.504 56.634 15.146 54.281 15.322C53.348 15.391 52.931 15.922 51.948 15.549C50.574 15.03 50.484 13.711 48.807 13.919C47.567 14.073 47.172 15.019 46.031 15.359C44.657 15.772 42.885 14.424 42.238 16.611C42.2258 16.6513 42.2062 16.689 42.18 16.722C44.2689 18.8048 46.4724 20.7695 48.78 22.607C52.109 25.139 55.315 27.76 58.38 30.607C59.111 29.886 59.212 30.219 60.172 30.215C63.185 30.207 62.12 30.338 63.328 28.797C63.5568 28.4554 63.8434 28.1562 64.175 27.913C64.589 27.6662 65.0591 27.5291 65.5408 27.5146C66.0225 27.5 66.4999 27.6086 66.928 27.83C68.906 28.556 70.09 29.28 72.268 28.661C74.783 27.948 76.351 28.08 78.493 29.726C79.62 30.591 81.38 32.303 80.93 33.856C80.9577 33.815 80.9971 33.7833 81.043 33.765C81.075 33.753 81.111 33.747 81.143 33.738C81.1635 33.7121 81.1923 33.694 81.2246 33.6869C81.2568 33.6798 81.2906 33.6841 81.32 33.699C81.8824 33.6668 82.4458 33.7422 82.98 33.921C83.2965 34.0009 83.6039 34.1135 83.897 34.257C83.9311 34.2452 83.9669 34.2394 84.003 34.24C86.882 34.42 90.682 34.528 93.103 36.268C93.1365 36.2991 93.1583 36.3408 93.1648 36.3861C93.1713 36.4313 93.1621 36.4775 93.1387 36.5167C93.1153 36.556 93.0791 36.5861 93.0363 36.602C92.9934 36.6179 92.9464 36.6186 92.903 36.604C90.347 35.515 87.694 35.428 85.003 35.104C85.5633 37.5777 85.661 40.1338 85.291 42.643C85.2771 42.7106 85.2446 42.773 85.197 42.823C85.9087 44.0807 86.8644 45.1836 88.008 46.067C88.6553 46.4156 89.3768 46.604 90.1119 46.6163C90.847 46.6287 91.5744 46.4647 92.233 46.138C92.941 43.118 91.719 39.964 92.784 36.987C92.8026 36.9346 92.8404 36.8911 92.8898 36.8655C92.9391 36.8398 92.9964 36.8337 93.05 36.8486C93.1036 36.8634 93.1497 36.898 93.1788 36.9454C93.2079 36.9928 93.218 37.0495 93.207 37.104C92.826 39.734 93.752 42.604 93.446 45.25C93.7424 45.4057 94.05 45.5394 94.366 45.65C95.776 46.028 96.615 45.58 97.82 44.962C98.3359 44.5664 98.9799 44.3758 99.628 44.427C101.146 44.617 101.508 45.916 101.901 47.195C102.423 48.895 103.075 49.658 104.901 49.928C105.59 49.9466 106.27 50.0988 106.901 50.376C107.439 50.6893 107.859 51.1711 108.096 51.747C108.263 52.3248 108.363 52.9196 108.396 53.52C108.857 55.594 110.119 55.935 111.617 55.884C111.578 55.8523 111.548 55.8107 111.531 55.7636C111.514 55.7164 111.509 55.6655 111.518 55.6161C111.528 55.5668 111.55 55.5207 111.583 55.4829C111.616 55.445 111.658 55.4167 111.706 55.401C112.176 55.2069 112.684 55.1212 113.192 55.1505C113.7 55.1798 114.194 55.3232 114.639 55.57C115.579 56.0288 116.643 56.1723 117.671 55.979C118.125 55.9295 118.585 55.9923 119.009 56.162C119.753 56.541 119.721 57.081 120.134 57.691C120.326 58.0986 120.653 58.4269 121.06 58.6196C121.467 58.8122 121.928 58.8573 122.365 58.747C122.339 59.196 122.359 59.826 121.842 59.784C121.387 59.747 121.218 59.919 120.742 59.684C119.956 59.295 120.054 58.345 119.542 57.851L117.099 56.684C116.799 56.809 116.499 56.934 116.199 57.055C116.022 57.022 115.812 57.084 115.624 57.055C113.805 56.737 114.957 55.22 112.113 55.873C112.134 55.8813 112.153 55.896 112.165 55.9151C112.178 55.9342 112.184 55.9567 112.184 55.9796C112.183 56.0025 112.175 56.0246 112.162 56.043C112.148 56.0613 112.129 56.0749 112.107 56.082C110.296 56.53 108.369 56.79 107.748 54.569C107.575 53.948 107.788 53.218 107.607 52.598C107.074 50.773 106.128 50.827 104.676 50.641C103.9 50.6306 103.142 50.4089 102.483 50C100.915 48.779 101.21 43.578 98.122 45.654C97.385 46.154 97.042 46.9 96.075 47.018C95.04 47.146 94.222 46.395 93.344 45.948C93.2355 46.4925 93.0549 47.0202 92.807 47.517C92.566 47.99 91.733 47.656 91.935 47.149C91.973 47.049 92 46.957 92.035 46.861C91.0558 47.3432 89.9459 47.4924 88.874 47.286C86.788 46.808 85.605 44.897 84.485 43.225C83.1128 43.553 81.6743 43.4685 80.35 42.982C80.3194 43.044 80.2713 43.0956 80.2115 43.1303C80.1517 43.165 80.083 43.1813 80.0141 43.1771C79.9451 43.173 79.8788 43.1485 79.8237 43.1069C79.7685 43.0652 79.7269 43.0082 79.704 42.943C79.13 41.569 79.804 40.099 79.973 38.701C80.044 37.1465 80.3658 35.6137 80.926 34.162C80.9039 34.1343 80.8891 34.1014 80.883 34.0665C80.8769 34.0315 80.8796 33.9956 80.891 33.962C80.8218 34.1627 80.7205 34.3508 80.591 34.519C80.533 34.595 80.366 34.588 80.381 34.462C80.657 31.947 78.071 29.635 75.757 28.987C73.557 28.372 71.62 30.151 69.39 29.632C68.445 29.412 67.632 28.738 66.7 28.539C66.0723 28.494 65.4431 28.6053 64.869 28.8631C64.2948 29.1209 63.7936 29.517 63.41 30.016C63.197 30.272 63.163 30.636 62.894 30.865C61.657 31.915 59.769 30.298 58.767 31.198C58.7131 31.247 58.645 31.2779 58.5725 31.2862C58.5001 31.2945 58.4268 31.2798 58.3632 31.2442C58.2995 31.2086 58.2487 31.1539 58.2178 31.0878C58.1869 31.0218 58.1775 30.9477 58.191 30.876C50.8937 25.7965 44.0436 20.1031 37.715 13.858C37.6906 13.861 37.6659 13.8562 37.6444 13.8444C37.6228 13.8325 37.6056 13.8142 37.595 13.792C35.217 8.809 28.77 7.009 23.639 7.816C17.575 8.77 16.073 14.092 14.591 19.208C14.6259 19.2315 14.6544 19.2634 14.6736 19.3008C14.6928 19.3383 14.7022 19.3799 14.701 19.422C14.6526 20.3421 14.6757 21.2645 14.77 22.181C16.7261 22.713 18.5928 23.5308 20.31 24.608C21.0104 25.0789 21.6785 25.5961 22.31 26.156C23.117 25.424 24.285 25.931 25.61 26.145C27.684 26.478 28.936 24.454 30.957 26.251C31.3577 26.7045 31.7081 27.2001 32.002 27.729C32.7482 28.644 33.6321 29.4375 34.622 30.081C35.6846 30.8022 36.5482 31.7797 37.133 32.923C38.22 35.085 38.594 36.783 41.368 37.482C42.429 37.749 43.426 37.719 44.302 38.469C44.708 38.817 44.845 39.356 45.185 39.693C47.311 41.793 47.024 40.023 48.529 40.409C49.2308 40.5028 49.8685 40.8661 50.307 41.422C50.648 42.055 50.32 42.679 50.126 43.295C49.7809 44.0014 49.6001 44.7768 49.597 45.563C49.773 47.179 50.425 46.916 51.51 47.341C55.571 48.932 55.481 53.591 51.883 55.604C53.7374 57.67 55.7795 59.5594 57.983 61.248C61.447 63.87 65.158 66.139 68.695 68.659C72.2145 71.2834 75.5782 74.1105 78.769 77.126C81.988 80.034 85.379 82.826 87.5 86.661C87.5058 86.6804 87.5056 86.7011 87.4994 86.7204C87.4932 86.7396 87.4813 86.7566 87.4652 86.7689C87.4492 86.7813 87.4298 86.7885 87.4096 86.7896C87.3893 86.7907 87.3693 86.7856 87.352 86.775C80.711 80.94 74.386 74.61 67.082 69.583C59.965 64.683 53.208 60.269 47.772 53.431C45.3112 50.1093 42.5838 46.9937 39.617 44.115C36.405 41.198 32.877 38.659 29.592 35.83C26.503 33.168 24.04 29.858 20.929 27.246C17.185 24.101 12.609 23.879 8.24904 22.199C2.91904 23.922 1.66703 31.999 1.43703 36.82C1.20125 41.5828 1.26037 46.3555 1.61403 51.111C1.99303 56.064 3.847 59.761 6.144 64.059C6.1788 64.1238 6.20218 64.1942 6.21303 64.267C6.37924 64.2421 6.54912 64.2634 6.704 64.3287C6.85888 64.394 6.99277 64.5006 7.09102 64.637C8.7116 66.7011 10.5193 68.6112 12.491 70.343C14.722 72.572 16.678 74.991 18.728 77.383C22.8393 82.3128 27.2308 87.0019 31.881 91.427C35.303 94.596 38.91 97.555 42.389 100.66C44.123 102.207 48.12 105.13 47.814 107.869C47.8054 108.015 47.7411 108.153 47.6344 108.254C47.5277 108.354 47.3866 108.41 47.24 108.41C47.0934 108.41 46.9523 108.354 46.8456 108.254C46.7389 108.153 46.6747 108.015 46.666 107.869C46.594 106.339 44.384 104.683 43.366 103.713C42.066 102.471 40.68 101.313 39.293 100.164C35.242 96.813 31.2 93.422 27.487 89.694C23.166 85.356 19.063 80.74 15.161 76.023C13.3326 73.8547 11.3885 71.7867 9.33705 69.828C7.92205 68.451 6.25803 67.179 5.51003 65.302C5.4606 65.1839 5.44071 65.0555 5.45204 64.928C5.38131 64.9076 5.31526 64.8734 5.25777 64.8274C5.20028 64.7814 5.15246 64.7245 5.11702 64.66C2.63602 60.46 0.801994 56.528 0.401994 51.612C-0.127175 46.0997 -0.127798 40.5494 0.400041 35.037V35.037ZM80.295 42.11C81.0522 42.4574 81.8705 42.6525 82.703 42.684C83.203 42.704 83.709 42.697 84.209 42.747C84.2026 42.6965 84.2067 42.6453 84.221 42.5964C84.2352 42.5476 84.2593 42.5022 84.2919 42.4631C84.3244 42.424 84.3647 42.392 84.4101 42.3691C84.4555 42.3462 84.5052 42.3329 84.556 42.33C84.944 39.886 84.311 37.47 84.566 35.047C84.348 35.019 84.13 34.993 83.913 34.96C83.8637 34.9493 83.8173 34.9277 83.7775 34.8966C83.7377 34.8655 83.7055 34.8259 83.6832 34.7806C83.6609 34.7353 83.6491 34.6855 83.6487 34.635C83.6483 34.5845 83.6594 34.5346 83.681 34.489C83.3483 34.3868 83.0063 34.3178 82.66 34.283C82.227 34.238 81.782 34.289 81.35 34.26C81.035 35.811 80.873 37.333 80.704 38.91C80.4839 39.9643 80.3472 41.0343 80.295 42.11V42.11ZM29.081 33.062C32.26 36.015 35.781 38.562 39.081 41.362C42.4277 44.3188 45.4672 47.6061 48.153 51.174C49.283 52.609 50.429 53.997 51.626 55.327C54.478 53.051 55.126 49.485 51.096 47.843C50.096 47.436 49.327 47.412 49.032 46.243C48.9142 45.5398 48.9594 44.819 49.164 44.136C49.254 43.787 49.664 43.222 49.616 42.898C49.541 42.382 47.533 41.428 46.94 41.244C46.247 41.03 45.918 41.38 45.256 40.866C43.878 39.794 45.147 39.154 42.477 38.29C40.708 37.718 39.223 37.831 37.998 36.207C37.4429 35.2621 36.9689 34.2719 36.581 33.247C35.7915 31.9288 34.6985 30.8183 33.393 30.008C32.7475 29.5083 32.1565 28.9419 31.63 28.318C31.078 27.692 30.367 26.389 29.486 26.197C26.8 25.613 28.742 26.332 27.886 26.561C27.3777 26.7905 26.831 26.9227 26.274 26.951C25.207 26.903 23.86 25.926 22.849 26.631C25.037 28.653 26.906 31.039 29.081 33.062ZM14.094 20.537C13.386 20.685 12.665 20.766 11.955 20.927C11.6538 21.0007 11.3575 21.0935 11.068 21.205C12.081 21.456 13.1 21.705 14.11 21.991C14.0644 21.5076 14.0591 21.0213 14.094 20.537V20.537Z" fill="#3F0366"/>
<path id="Path 593" opacity="0.4" d="M103.959 82.413C102.426 81.6923 100.83 81.1149 99.191 80.688C97.6211 81.5696 96.2061 82.7023 95.002 84.041C93.802 85.399 92.802 87.254 91.381 88.361C91.3318 88.4074 91.2677 88.4348 91.2001 88.4381C91.1325 88.4415 91.066 88.4206 91.0125 88.3792C90.9589 88.3379 90.9219 88.2788 90.9081 88.2125C90.8943 88.1463 90.9045 88.0773 90.937 88.018C91.9917 86.2213 93.3014 84.5869 94.825 83.166C95.9423 81.9384 97.3185 80.9745 98.854 80.344C98.8631 80.2807 98.8941 80.2227 98.9416 80.1799C98.9891 80.1371 99.0502 80.1124 99.114 80.11C99.2829 80.0998 99.4522 80.0998 99.6211 80.11C99.6441 80.11 99.665 80.097 99.688 80.091C99.7065 80.0873 99.7257 80.0875 99.7441 80.0917C99.7625 80.0958 99.7798 80.1037 99.795 80.115C101.397 80.378 102.928 80.965 104.295 81.84C105.748 82.5645 107.006 83.6277 107.962 84.94C109.115 85.6976 110.13 86.647 110.962 87.747C111.593 88.478 112.822 89.721 112.684 90.794C112.683 90.8611 112.657 90.9256 112.612 90.9756C112.568 91.0257 112.507 91.0582 112.44 91.0673C112.374 91.0763 112.306 91.0613 112.249 91.025C112.193 90.9886 112.151 90.9333 112.132 90.869C111.581 88.953 109.595 87.286 107.975 86.031C106.881 87.1368 105.598 88.0365 104.185 88.687C102.559 89.768 100.834 90.6911 99.032 91.444C98.9802 91.4572 98.9255 91.4532 98.8761 91.4325C98.8268 91.4118 98.7855 91.3756 98.7586 91.3294C98.7317 91.2831 98.7206 91.2294 98.727 91.1762C98.7334 91.1231 98.7569 91.0735 98.794 91.035C100.281 89.9361 101.881 88.9994 103.567 88.241C104.894 87.3551 106.268 86.5426 107.683 85.807L107.448 85.627C107.399 85.5928 107.358 85.5492 107.326 85.4987C107.295 85.4482 107.274 85.392 107.265 85.3332C107.255 85.2744 107.258 85.2144 107.272 85.1566C107.287 85.0989 107.312 85.0446 107.348 84.997C106.351 83.9744 105.209 83.1038 103.959 82.413V82.413Z" fill="#3F0366"/>
<path id="Path 594" opacity="0.4" d="M124.536 111.717C124.491 111.703 124.451 111.675 124.423 111.637C124.395 111.598 124.38 111.552 124.38 111.505C124.38 111.458 124.395 111.411 124.423 111.373C124.451 111.335 124.491 111.307 124.536 111.293C125.846 111.142 127.162 111.059 128.48 111.044C130.332 110.911 132.09 110.177 133.486 108.953C133.612 108.842 133.837 108.988 133.732 109.144C132.001 111.72 127.361 112.339 124.536 111.717Z" fill="#3F0366"/>
<path id="Path 595" opacity="0.4" d="M129.88 68.738C132.634 67.493 135.724 67.1965 138.665 67.895C138.782 67.927 138.799 68.129 138.665 68.15L138.584 68.16C138.664 70.541 137.8 72.76 137.627 75.122C137.51 76.722 137.747 78.352 136.999 79.822C136.959 79.8837 136.903 79.9338 136.837 79.9675C136.772 80.0012 136.699 80.0173 136.625 80.0142C136.552 80.011 136.48 79.9888 136.418 79.9497C136.355 79.9106 136.304 79.8559 136.269 79.791C136.065 79.9295 135.85 80.0519 135.627 80.157C136.754 80.434 137.165 81.534 138.027 82.207C141.084 84.59 141.6 81.533 143.973 81.572C144.808 81.585 145.056 81.921 145.401 82.632C145.433 82.698 145.348 82.778 145.293 82.716C143.909 81.181 140.818 84.33 138.864 83.568C138.025 83.242 137.676 82.537 137.014 82.005C135.565 80.839 133.997 81.479 132.373 81.52C132.319 81.5185 132.268 81.4979 132.228 81.4619C132.188 81.4259 132.162 81.3768 132.154 81.3235C132.147 81.2701 132.159 81.2159 132.188 81.1706C132.217 81.1253 132.262 81.0917 132.313 81.076C132.503 81.01 132.698 80.924 132.897 80.833C132.072 80.9127 131.239 80.8197 130.451 80.56C130.378 80.5366 130.315 80.489 130.272 80.4251C130.229 80.3612 130.209 80.2847 130.215 80.208C130.194 80.2094 130.172 80.204 130.154 80.1924C130.136 80.1809 130.123 80.1639 130.115 80.144C128.852 77.244 127.915 72.205 129.732 69.272C129.702 69.2284 129.683 69.1788 129.674 69.1268C129.666 69.0748 129.669 69.0216 129.683 68.9708C129.697 68.9201 129.722 68.8729 129.756 68.8327C129.79 68.7925 129.832 68.7602 129.88 68.738V68.738ZM129.733 75.153C130.099 76.7235 130.316 78.3248 130.382 79.936C130.459 79.8919 130.549 79.8773 130.636 79.895C131.811 80.1253 133.022 80.0957 134.184 79.808C134.872 79.5713 135.585 79.413 136.309 79.336C136.66 77.8307 136.852 76.2925 136.882 74.747C137.171 72.515 138.091 70.436 138.348 68.191C135.698 68.521 132.766 68.167 130.332 69.424C129.72 71.2678 129.516 73.2225 129.733 75.153V75.153Z" fill="#3F0366"/>
<path id="Path 596" opacity="0.4" d="M85.207 60.757C83.39 60.847 81.42 62.001 79.588 61.573C79.063 61.4434 78.5703 61.207 78.1406 60.8785C77.711 60.55 77.3536 60.1365 77.0909 59.6638C76.8282 59.191 76.6657 58.6692 76.6136 58.1309C76.5615 57.5926 76.6209 57.0493 76.788 56.535C75.834 56.693 74.877 56.849 73.913 56.978C68.3 57.727 61.766 55.4 61.246 49.088C60.961 45.632 62.046 41.693 60.054 38.559C59.3716 37.4443 58.298 36.6241 57.043 36.259C57.1574 37.2176 57.1574 38.1864 57.043 39.145C56.976 40.78 56.9741 42.377 58.5711 43.325C59.5141 43.884 60.4461 43.892 61.1961 44.762C61.2152 44.7788 61.2272 44.8022 61.2297 44.8275C61.2322 44.8529 61.2249 44.8782 61.2093 44.8984C61.1937 44.9185 61.1711 44.932 61.1459 44.936C61.1208 44.94 61.0951 44.9343 61.074 44.92C59.251 44.146 57.244 44.02 56.517 41.875C56.043 40.481 56.902 37.546 56.202 36.065C53.274 35.58 49.715 36.78 46.962 36.995C45.162 37.1134 43.3606 36.7839 41.7191 36.036C40.0775 35.2881 38.6469 34.145 37.5551 32.709C36.5806 31.3811 36.0833 29.763 36.1441 28.117C36.0741 26.01 35.785 24.353 33.421 23.509C32.2755 23.1868 31.0875 23.0408 29.898 23.076C24.615 22.89 16.539 19.521 22.152 13.602C22.598 13.132 23.307 13.843 22.862 14.312C18.44 18.978 24.541 21.784 28.786 22.035C31.644 22.204 35.319 22.015 36.786 25.098C37.1367 26.1773 37.2594 27.3178 37.1461 28.447C37.2801 31.368 39.131 33.339 41.546 34.801C46.008 37.501 50.704 34.58 55.436 35.001C55.451 34.9476 55.4774 34.898 55.5134 34.8558C55.5495 34.8136 55.5943 34.7798 55.6448 34.7568C55.6953 34.7337 55.7502 34.722 55.8057 34.7224C55.8612 34.7228 55.9159 34.7353 55.966 34.759C56.1722 34.8553 56.3574 34.9912 56.5111 35.159C62.5421 36.375 62.18 42.716 62.211 47.795C62.236 52.623 65.281 55.378 70.031 56.027C74.406 56.627 78.8931 54.792 83.2951 54.647C88.7181 54.468 97.2441 56.233 94.1021 63.43C92.0801 68.062 87.102 73.769 93.329 77.808C97.198 80.316 103.346 78.091 106.704 75.564C108.994 73.841 110.063 70.253 113.48 70.481C116.48 70.681 117.05 73.381 116.38 75.83C115.446 79.248 113.931 82.917 115.059 86.489C116.485 90.999 122.587 93.106 126.89 92.97C127.602 92.9413 128.306 92.8065 128.978 92.57C129.005 92.5239 129.048 92.4892 129.099 92.4724C129.15 92.4557 129.205 92.458 129.254 92.479C132.543 91.238 134.983 88.087 138.833 88.279C140.298 88.3914 141.699 88.9211 142.872 89.8055C144.045 90.6899 144.94 91.8918 145.451 93.269C146.728 96.337 146.438 100.141 146.209 103.387C145.999 106.356 145.503 109.64 143.279 111.776C143.432 112.36 143.801 112.864 144.312 113.186C144.823 113.509 145.437 113.625 146.03 113.511C146.741 113.304 147.402 112.955 147.974 112.485C148.546 112.015 149.017 111.434 149.357 110.777C150.52 108.643 150.301 105.92 150.289 103.568C150.267 99.068 149.953 94.704 147.818 90.679C147.284 90.164 146.75 89.657 146.207 89.169C145.968 88.978 145.732 88.784 145.486 88.602C145.429 88.5585 145.385 88.5005 145.358 88.434C142.668 86.168 139.729 84.495 135.85 84.722C132.316 84.929 128.911 87.395 125.33 86.822C122.498 86.373 121.309 83.671 121.466 81.022C121.739 76.438 125.049 70.722 119.837 67.515C115.177 64.648 110.983 67.726 107.35 70.515C104.985 72.331 101.387 74.54 98.59 72.346C95.659 70.046 98.112 67.44 99.185 64.852C101.551 59.152 98.585 54.56 92.78 53.199C88.1742 52.2546 83.4593 51.9557 78.7711 52.311C75.1711 52.503 71.101 52.722 68.561 49.696C68.201 49.267 68.812 48.644 69.182 49.075C69.3629 49.287 69.5569 49.4874 69.763 49.675C68.687 45.952 69.305 41.762 67.418 38.317C65.461 34.745 61.267 33.629 57.479 33.385C52.444 33.06 44.259 35.98 40.887 30.54C39.142 27.725 41.345 23.34 37.345 22.021C34.925 21.221 32.245 21.399 29.783 20.565C28.138 20.007 25.94 19.165 25.205 17.433C25.04 17.0797 24.9684 16.69 24.9971 16.3011C25.0259 15.9122 25.1539 15.5372 25.369 15.212C25.52 14.963 26.016 14.688 26.099 14.454C26.799 12.474 25.1331 12.112 23.6311 12.831C23.2421 13.017 22.899 12.452 23.289 12.245C24.452 11.628 26.7951 11.069 27.5031 12.651C27.611 12.9269 27.6462 13.226 27.6054 13.5194C27.5646 13.8129 27.4491 14.091 27.27 14.327C26.52 15.576 24.711 15.343 26.419 17.886C26.964 18.699 28.5251 19.292 29.3701 19.616C32.0341 20.636 34.8561 20.516 37.5471 21.288C40.1171 22.027 40.6921 24.03 40.8421 26.476C41.0301 29.548 41.997 31.69 45.156 32.686C47.414 33.398 49.856 33.094 52.156 32.886C55.3229 32.4575 58.5417 32.6186 61.65 33.361C63.0661 33.7431 64.399 34.3846 65.5811 35.253C66.6551 34.877 67.6991 34.125 68.8701 34.521C69.3991 34.701 69.819 35.375 70.319 35.507C71.213 35.742 71.892 35.023 72.613 34.723C72.9563 34.5834 73.3346 34.5548 73.6949 34.6414C74.0552 34.728 74.3793 34.9254 74.6215 35.2057C74.8638 35.4861 75.0121 35.8354 75.0455 36.2044C75.079 36.5734 74.996 36.9436 74.8081 37.263C74.7817 37.3047 74.7414 37.3356 74.6943 37.3504C74.6473 37.3651 74.5966 37.3626 74.5512 37.3434C74.5058 37.3242 74.4687 37.2895 74.4465 37.2454C74.4243 37.2014 74.4185 37.1509 74.4301 37.103C74.8301 36.197 74.5081 35.8043 73.4641 35.925C72.9181 35.4877 72.4774 35.4787 72.142 35.898C72.001 35.943 71.886 36.098 71.749 36.166C71.3362 36.3858 70.8535 36.4346 70.405 36.302C69.827 36.128 69.485 35.572 68.957 35.328C68.082 34.923 67.101 35.472 66.177 35.737C66.995 36.4575 67.6649 37.3304 68.1491 38.307C68.8867 39.9424 69.3269 41.6961 69.449 43.486C72.022 43.079 75.581 42.209 77.398 44.722C78.745 46.585 78.4791 49.488 77.5581 51.475C77.5484 51.4935 77.533 51.5083 77.514 51.517C78.867 51.447 80.2141 51.322 81.4561 51.317C85.2091 51.228 88.9605 51.5513 92.643 52.281C95.921 52.995 99.243 54.571 100.491 57.918C100.792 58.7259 100.956 59.5782 100.976 60.44C101.548 60.79 101.937 61.319 102.476 61.669C103.976 62.641 104.919 61.708 106.299 61.039C106.764 60.7232 107.318 60.5621 107.88 60.5784C108.442 60.5947 108.985 60.7877 109.431 61.13C110.779 62.304 109.322 62.437 112.241 62.281C113.163 62.7297 113.826 62.6847 114.231 62.146C114.335 62.0094 114.455 61.8856 114.588 61.777C114.631 61.768 114.663 61.711 114.713 61.704C115.248 61.5934 115.803 61.6503 116.304 61.867C116.805 62.0837 117.228 62.4497 117.513 62.915C117.536 62.9401 117.548 62.9732 117.547 63.0072C117.547 63.0412 117.533 63.0735 117.509 63.0975C117.484 63.1215 117.452 63.1353 117.418 63.1359C117.384 63.1366 117.351 63.1241 117.326 63.101C115.349 61.472 114.298 63.765 112.357 63.941C110.645 64.096 110.657 63.209 109.578 62.448C108.461 61.8656 107.175 61.6922 105.943 61.958C105.598 62.081 105.285 62.37 104.943 62.517C104.482 62.767 103.967 62.9024 103.443 62.912C102.367 62.825 101.711 61.758 100.968 61.019C100.755 63.2436 100.063 65.3958 98.94 67.328C98.5743 67.8778 98.2847 68.4745 98.079 69.102C97.538 72.192 100.573 72.645 102.301 72.271C103.502 71.9326 104.636 71.3915 105.655 70.671C107.467 69.484 108.966 67.848 110.855 66.771C112.167 66.0414 113.63 65.626 115.13 65.5574C116.629 65.4889 118.124 65.7691 119.497 66.376C120.701 66.9527 121.726 67.8436 122.465 68.9548C123.205 70.0659 123.63 71.3561 123.697 72.689C123.71 72.836 123.714 72.989 123.714 73.154C124.604 73.223 125.463 73.521 125.692 74.517C125.852 75.217 125.883 75.731 126.492 76.181C127.155 76.676 127.992 76.981 128.466 76.081C128.478 76.0611 128.497 76.0458 128.518 76.0372C128.54 76.0285 128.564 76.0272 128.586 76.0333C128.609 76.0393 128.629 76.0525 128.643 76.0709C128.657 76.0892 128.665 76.1117 128.666 76.135C128.62 77.435 127.307 77.352 126.429 76.857C125.898 76.5966 125.476 76.1576 125.236 75.617C125.197 75.4905 125.167 75.3615 125.145 75.231C125.004 74.616 125.162 74.644 124.506 74.206C124.255 74.0465 123.976 73.9337 123.685 73.873C123.285 78.299 119.801 86.226 126.494 86.104C128.786 86.061 130.889 84.915 133.077 84.393C135.362 83.7804 137.77 83.7976 140.047 84.4426C142.323 85.0877 144.382 86.3366 146.006 88.057C149.38 90.589 152.178 93.857 155.07 96.907C156.37 98.284 157.704 99.494 159.107 100.751C160.046 101.404 160.7 102.391 160.934 103.511C160.933 103.548 160.92 103.583 160.897 103.612C160.874 103.64 160.843 103.661 160.808 103.671C160.772 103.68 160.735 103.678 160.7 103.665C160.666 103.651 160.637 103.627 160.618 103.596C159.967 102.096 158.697 101.354 157.494 100.357C156.212 99.2141 154.994 98.0013 153.846 96.724C152.025 94.842 150.276 92.863 148.373 91.058C150.042 93.141 150.498 96.112 150.773 98.681C151.125 101.981 151.494 105.924 150.742 109.207C152.755 110.914 155.594 110.537 157.689 112.049C158.522 112.671 159.129 113.549 159.414 114.549C159.631 115.599 159.912 116.634 160.256 117.649C160.582 118.58 161.224 119.366 162.071 119.872C164.398 120.286 165.703 119.412 165.987 117.249C166.059 113.663 161.707 112.195 160.634 109.139C159.751 106.626 160.644 103.822 157.108 102.89C155.408 102.441 153.782 102.142 152.125 101.544C151.956 101.573 151.783 101.559 151.62 101.504C151.458 101.448 151.313 101.353 151.197 101.226C151.071 101.1 151.262 100.911 151.392 101.026C151.475 101.1 151.569 101.161 151.671 101.207C151.684 101.19 151.701 101.176 151.721 101.168C151.741 101.16 151.763 101.158 151.784 101.161C153.892 101.447 157.124 101.787 158.937 102.961C160.971 104.278 160.593 106.167 161.08 108.247C161.887 111.702 168.218 114.32 166.416 118.567C164.83 122.306 160.83 120.814 159.516 117.853C158.922 116.515 159.086 114.893 158.265 113.64C157.422 112.563 156.201 111.846 154.85 111.634C153.317 111.361 151.853 110.788 150.542 109.947C149.831 112.098 148.042 114.226 145.675 114.414C143.416 114.594 142.329 112.726 142.227 110.714C142.23 110.631 142.262 110.551 142.318 110.489C142.374 110.427 142.45 110.387 142.533 110.376C142.615 110.364 142.699 110.383 142.77 110.428C142.84 110.473 142.892 110.541 142.917 110.621C142.967 110.837 143.027 111.055 143.097 111.271C145.422 108.428 145.522 104.156 145.552 100.657C145.585 96.77 145.519 92.164 141.721 89.915C137.109 87.184 134.121 91.382 130.311 93.043C133.287 94.19 136.536 91.402 139.533 92.929C141.007 93.679 141.384 95.229 141.306 96.762C141.228 98.295 140.667 99.801 141.074 101.332C141.327 102.282 141.775 103.169 142.389 103.937C143.003 104.705 143.769 105.337 144.64 105.793C144.695 105.81 144.741 105.847 144.769 105.897C144.796 105.948 144.803 106.007 144.788 106.062C144.773 106.117 144.737 106.164 144.687 106.193C144.638 106.222 144.579 106.231 144.523 106.217C142.651 105.773 141.28 103.795 140.603 102.092C139.633 99.653 141.887 94.624 138.803 93.529C136.434 92.687 131.147 95.885 129.252 93.418C126.069 94.341 122.452 93.474 119.529 92.13C113.666 89.437 113.107 84.12 114.612 78.423C114.863 77.473 115.263 76.523 115.466 75.562C115.79 74.037 117.404 71.676 113.147 71.386C112.361 71.4569 111.613 71.7589 110.998 72.254C109.506 73.294 108.786 75.199 107.298 76.311C104.534 78.312 101.278 79.5245 97.8781 79.819C96.4088 79.941 94.9342 79.6592 93.6136 79.0039C92.293 78.3486 91.1765 77.3448 90.385 76.101C88.467 73.062 89.4471 69.975 91.0321 67.04C91.3141 66.518 91.632 65.992 91.942 65.459C91.852 62.315 87.996 60.619 85.207 60.757ZM76.744 44.851C74.944 42.8 71.8331 44.299 69.5161 44.065C69.6152 46.073 69.8571 48.0714 70.2401 50.045C72.2401 51.531 74.832 51.634 77.406 51.508C77.3791 51.494 77.357 51.4722 77.3427 51.4454C77.3284 51.4186 77.3227 51.3882 77.3261 51.358C77.6451 49.266 78.3191 46.643 76.7431 44.85L76.744 44.851ZM92.312 64.844C92.9665 63.7927 93.4524 62.6455 93.752 61.444C94.492 57.888 90.852 56.398 88.013 55.907C84.44 55.29 80.998 55.833 77.526 56.407C77.211 59.037 78.626 61.307 81.72 60.707C82.605 60.536 83.447 60.245 84.35 60.145C86.0377 59.9026 87.7587 60.2023 89.265 61.001C90.585 61.761 92.152 63.252 92.311 64.843L92.312 64.844Z" fill="#3F0366"/>
<path id="Path 597" opacity="0.4" d="M142.157 73.695C142.689 73.9345 143.133 74.3332 143.429 74.836C144.357 76.172 144.409 76.68 146.286 76.767C146.945 76.7162 147.607 76.8161 148.222 77.059C148.517 77.2407 148.759 77.4968 148.923 77.8015C149.088 78.1062 149.17 78.4488 149.16 78.795C149.553 78.9483 149.919 79.1648 150.243 79.436C150.425 79.546 150.613 79.622 150.802 79.715C150.882 79.754 151.002 79.888 151.08 79.899C151.136 79.908 151.132 79.999 151.08 80.009C150.939 80.043 150.893 80.142 150.737 80.137C150.534 80.1094 150.338 80.0457 150.157 79.949C149.921 79.849 149.694 79.728 149.464 79.614C149.354 79.56 149.24 79.514 149.133 79.459C149.088 79.7802 149.004 80.0948 148.884 80.396C148.587 81.0529 148.073 81.5881 147.429 81.9124C146.785 82.2366 146.05 82.3304 145.345 82.178C145.225 82.164 145.168 81.966 145.313 81.944C146.239 81.9189 147.127 81.5708 147.824 80.96C148.3 80.479 148.977 79.019 148.536 78.315C148.07 77.798 147.437 77.4617 146.748 77.365C145.765 77.19 144.731 77.536 143.912 76.798C143.674 76.5059 143.475 76.1838 143.32 75.84C143.027 75.3342 142.601 74.9183 142.088 74.6375C141.576 74.3567 140.996 74.2216 140.412 74.247C139.49 74.234 138.944 74.347 138.426 73.483C138.399 73.4329 138.391 73.375 138.403 73.3194C138.415 73.2639 138.446 73.2144 138.491 73.1797C138.536 73.1451 138.592 73.1275 138.649 73.1301C138.705 73.1327 138.759 73.1553 138.801 73.194C139.809 74.187 141.02 73.269 142.157 73.695Z" fill="#3F0366"/>
<path id="Path 598" opacity="0.4" d="M123.862 58.695C124.726 59.034 124.812 59.754 125.128 60.526C125.385 61.152 125.201 61.265 125.803 61.853C126.89 62.912 125.993 62.147 126.893 62.271C127.255 62.321 127.677 62.178 128.07 62.24C129.235 62.4323 130.292 63.0388 131.045 63.948C131.787 65.107 131.075 66.775 131.032 68.022C131.032 68.0703 131.013 68.1166 130.979 68.1507C130.945 68.1848 130.898 68.204 130.85 68.204C130.802 68.204 130.755 68.1848 130.721 68.1507C130.687 68.1166 130.668 68.0703 130.668 68.022C130.441 66.005 130.711 63.362 128.134 62.867C127.32 62.71 126.46 63.294 125.707 62.984C125.288 62.811 125.043 62.226 124.868 61.851C124.702 61.495 124.704 60.729 124.483 60.434C124.034 59.8035 123.545 59.2023 123.02 58.634C123.3 58.5601 123.596 58.5816 123.862 58.695V58.695Z" fill="#3F0366"/>
<path id="Path 599" opacity="0.4" d="M123.021 58.639C122.836 58.6851 122.648 58.7185 122.459 58.739L122.366 58.745C122.39 58.332 122.457 58.074 123.021 58.639Z" fill="#3F0366"/>
<path id="Path 600" opacity="0.4" d="M78.024 63.539C78.062 63.353 78.383 63.339 78.412 63.539C78.559 64.591 78.729 65.615 78.964 66.652C79.2347 67.4971 79.3006 68.3945 79.156 69.27C79.1424 69.3145 79.1176 69.3549 79.084 69.3872C79.0504 69.4195 79.0092 69.4427 78.9641 69.4546C78.9191 69.4665 78.8717 69.4667 78.8265 69.4553C78.7814 69.4438 78.7399 69.421 78.706 69.389C77.9676 69.9558 77.1218 70.3668 76.2199 70.5971C75.318 70.8275 74.3787 70.8723 73.459 70.729C73.4207 70.7148 73.3877 70.6892 73.3644 70.6557C73.3411 70.6222 73.3286 70.5823 73.3286 70.5415C73.3286 70.5007 73.3411 70.4608 73.3644 70.4273C73.3877 70.3938 73.4207 70.3682 73.459 70.354C74.303 70.144 75.178 70.181 76.029 69.995C76.911 69.7745 77.765 69.4538 78.574 69.039V69.039C78.354 68.088 78.286 67.072 78.12 66.109C77.9265 65.266 77.8939 64.3941 78.024 63.539V63.539Z" fill="#3F0366"/>
<path id="Path 601" opacity="0.4" d="M67.56 62.852C67.5345 62.832 67.5142 62.806 67.501 62.7764C67.4877 62.7468 67.4819 62.7144 67.4839 62.682C67.486 62.6496 67.4959 62.6182 67.5128 62.5905C67.5297 62.5628 67.5531 62.5396 67.581 62.523C69.0212 61.9606 70.5692 61.7286 72.111 61.844C72.1037 61.7971 72.1082 61.749 72.124 61.7042C72.1399 61.6595 72.1666 61.6193 72.2018 61.5874C72.237 61.5555 72.2795 61.5328 72.3256 61.5214C72.3717 61.51 72.42 61.5102 72.466 61.522C73.4808 61.9095 74.4602 62.3843 75.393 62.941C76.0788 63.1656 76.739 63.4615 77.363 63.824C77.405 63.816 77.445 63.805 77.487 63.799C77.5604 63.7807 77.6381 63.7918 77.7034 63.83C77.7688 63.8682 77.8166 63.9304 77.8367 64.0034C77.8568 64.0763 77.8476 64.1543 77.811 64.2205C77.7745 64.2868 77.7134 64.3361 77.641 64.358C77.026 64.541 76.412 64.753 75.817 64.992C75.3621 65.2575 74.8787 65.4709 74.376 65.628C74.376 65.6529 74.371 65.6775 74.3612 65.7004C74.3514 65.7233 74.337 65.7439 74.3189 65.7611C74.3008 65.7782 74.2795 65.7915 74.2561 65.8C74.2327 65.8086 74.2078 65.8124 74.183 65.811C74.069 65.811 73.956 65.794 73.844 65.781C74.001 66.974 74.431 68.768 73.788 69.84C73.7949 69.8515 73.7976 69.865 73.7958 69.8783C73.794 69.8915 73.7877 69.9038 73.778 69.913C73.753 69.938 73.726 69.956 73.7 69.979C73.6769 70.0093 73.6471 70.034 73.613 70.051C71.493 71.644 67.544 65.496 67.656 63.478L67.594 63.464C67.257 63.402 67.31 62.971 67.56 62.852ZM76.423 64.052C76.134 63.941 75.856 63.795 75.648 63.701C74.602 63.231 73.523 62.738 72.51 62.19C71.627 62.265 70.738 62.358 69.865 62.514C69.228 62.627 68.6 62.814 67.956 62.872C70.066 63.362 71.87 64.672 73.934 65.317C74.134 64.771 74.934 64.594 75.441 64.399C75.765 64.273 76.092 64.155 76.423 64.053V64.052ZM69.949 67.076C70.657 68.141 71.836 69.891 73.297 69.86C73.2954 69.8434 73.2954 69.8266 73.297 69.81C73.53 68.455 73.518 67.12 73.635 65.753C71.747 65.465 70.123 64.222 68.303 63.653C68.7608 64.8355 69.3112 65.9801 69.949 67.076Z" fill="#3F0366"/>
<path id="Path 602" opacity="0.4" d="M73.707 26.204C70.6872 24.687 67.9049 22.7375 65.448 20.417C62.684 18.017 59.885 15.774 56.994 13.535C56.787 13.375 57.05 13.084 57.26 13.19C60.112 14.622 62.56 17.048 64.895 19.172C67.6206 21.7645 70.5908 24.087 73.764 26.107C73.827 26.149 73.772 26.238 73.707 26.204Z" fill="#3F0366"/>
<path id="Path 603" opacity="0.4" d="M147.508 117.806C148.425 118.538 149.4 119.194 150.3 119.949C150.948 120.493 151.9 121.205 151.99 122.115C151.989 122.172 151.97 122.227 151.936 122.272C151.902 122.317 151.854 122.35 151.799 122.366C151.767 122.376 151.732 122.379 151.699 122.372C151.454 122.338 151.321 121.899 151.191 121.721C150.821 121.257 150.394 120.84 149.921 120.481C149.005 119.73 148.01 119.089 147.073 118.368C147.033 118.341 146.999 118.305 146.973 118.264C146.947 118.223 146.929 118.177 146.922 118.129C146.914 118.081 146.916 118.032 146.929 117.985C146.941 117.938 146.962 117.894 146.992 117.856C147.022 117.817 147.059 117.786 147.101 117.762C147.144 117.739 147.191 117.724 147.239 117.719C147.287 117.715 147.336 117.72 147.383 117.735C147.429 117.75 147.471 117.774 147.508 117.806Z" fill="#3F0366"/>
</g>
</g>
<defs>
<clipPath id="clip0_309_320">
<rect width="183.02" height="154" fill="white"/>
</clipPath>
</defs>
</svg>
