<svg width="423" height="350" viewBox="0 0 423 350" fill="none" xmlns="http://www.w3.org/2000/svg">
<style>
#translate_1 , #translate_2 , #translate_3 , #translate_4 , #man , #rotate {
  transform-origin: center;
  transform-box: fill-box;
}
#man{
  animation: translateY 4s linear infinite reverse;
}
#translate_1 , #translate_4 {
  animation: translate 4s linear infinite reverse;
}
#translate_2 , #translate_3 , #rotate  {
  animation: rotation 4s linear infinite reverse;
}
@keyframes rotation {
  0% {
    transform: rotate(0deg);
  }

  50% {
    transform: rotate(10deg);
  }

  100% {
    transform: rotate(0deg);
  }
}

@keyframes translate {
  0%,
  100% {
    transform: translateY(2px);
  }

  50% {
    transform: translateY(-2px);
  }
}
@keyframes translateY {
    0%,
    100% {
        transform: translateY(0px) translateX(5px);
    }

    50% {
        transform: translateY(-4px) translateX(-5px);
    }
}
</style>
<g id="undraw_growth_curve_re_t5s7 1" clip-path="url(#clip0_429_2)">
<g id="undraw_growth_curve_re_t5s7">
<path id="Path 438" d="M257.565 3.87201C258.649 3.87333 259.688 4.30445 260.454 5.07082C261.221 5.83718 261.652 6.87621 261.653 7.96001V180.838C261.652 181.922 261.221 182.961 260.454 183.727C259.688 184.494 258.649 184.925 257.565 184.926H4.08798C3.00418 184.925 1.96518 184.494 1.19882 183.727C0.43246 182.961 0.00129264 181.922 -3.05176e-05 180.838V7.96001C0.00129264 6.87621 0.43246 5.83718 1.19882 5.07082C1.96518 4.30445 3.00418 3.87333 4.08798 3.87201H257.565Z" fill="#E6E6E6"/>
<path id="Path 439" d="M252.065 10C253.149 10.0013 254.188 10.4324 254.954 11.1988C255.721 11.9652 256.152 13.0042 256.153 14.088V175.288C256.152 176.372 255.721 177.411 254.954 178.177C254.188 178.944 253.149 179.375 252.065 179.376H10.265C9.18122 179.375 8.14216 178.944 7.37579 178.177C6.60943 177.411 6.17833 176.372 6.177 175.288V14.088C6.17833 13.0042 6.60943 11.9652 7.37579 11.1988C8.14216 10.4324 9.18122 10.0013 10.265 10H252.065Z" fill="white"/>
<g id="man">
<path id="Path 441" d="M342.368 193.408C342.734 192.445 342.884 191.413 342.807 190.386C342.731 189.358 342.431 188.36 341.927 187.461C341.423 186.562 340.728 185.785 339.892 185.184C339.055 184.582 338.097 184.172 337.084 183.981L333.396 159.209L323.707 167.898L328.695 190.09C328.487 191.812 328.919 193.551 329.907 194.976C330.896 196.402 332.373 197.415 334.058 197.824C335.744 198.234 337.521 198.01 339.053 197.197C340.586 196.383 341.766 195.036 342.371 193.41L342.368 193.408Z" fill="#FFB9B9"/>
<path id="Path 442" d="M409.884 197.165C409.255 196.349 408.812 195.405 408.587 194.4C408.362 193.395 408.36 192.352 408.581 191.346C408.803 190.34 409.242 189.394 409.868 188.576C410.495 187.758 411.292 187.087 412.206 186.611L408.547 161.835L420.347 167.335L422.013 190.02C422.711 191.608 422.802 193.396 422.27 195.047C421.737 196.697 420.618 198.095 419.124 198.976C417.629 199.857 415.864 200.159 414.162 199.825C412.46 199.491 410.94 198.545 409.889 197.165H409.884Z" fill="#FFB9B9"/>
<path id="Path 443" d="M358.039 339.392H347.096L341.89 297.181H358.041L358.039 339.392Z" fill="#FFB9B9"/>
<path id="Path 444" d="M360.831 335.824H339.278C335.636 335.824 332.143 337.271 329.567 339.847C326.992 342.422 325.545 345.915 325.544 349.557V350.004H360.83L360.831 335.824Z" fill="#EBA40C"/>
<path id="Path 445" d="M416.444 339.392H405.501L400.295 297.181H416.446L416.444 339.392Z" fill="#FFB9B9"/>
<path id="Path 446" d="M419.235 335.824H397.682C394.04 335.824 390.547 337.271 387.971 339.847C385.396 342.422 383.949 345.915 383.948 349.557V350.004H419.234L419.235 335.824Z" fill="#EBA40C"/>
<path id="Ellipse 8" d="M364.944 51.738C375.862 51.738 384.713 42.8871 384.713 31.969C384.713 21.0509 375.862 12.2 364.944 12.2C354.026 12.2 345.175 21.0509 345.175 31.969C345.175 42.8871 354.026 51.738 364.944 51.738Z" fill="#FFB9B9"/>
<path id="Path 447" d="M411.739 174.017C411.739 174.017 411.448 262.479 412.86 263.891C414.272 265.303 419.284 318.207 419.284 318.207H401.763C400.595 318.207 370.789 202.963 370.789 202.963C370.789 202.963 358.081 265.093 360.199 268.623C362.317 272.153 360.666 318.43 359.493 322.281C359.493 322.281 344.77 326.993 343.358 323.462C341.946 319.931 339.858 272.062 339.858 272.062L335.77 192.632L335.681 171.893L411.739 174.017Z" fill="#3F0366"/>
<path id="Path 448" d="M330.669 72.679H322.803C322.225 72.6788 321.664 72.8753 321.213 73.2362C320.761 73.5972 320.446 74.1011 320.319 74.665C319.105 80.04 315.977 95.276 316.549 107.275C317.255 122.102 318.667 145.4 318.667 147.519C318.667 149.638 325.727 182.119 325.727 182.119C325.727 182.119 330.581 174.141 335.92 175.659L334.905 146.818L333.493 134.818L335.611 113.637L330.669 72.679Z" fill="#EBA40C"/>
<path id="Path 449" d="M380.674 59.77C380.674 59.77 405.738 68.107 408.562 75.17C411.386 82.233 397.675 133.414 397.675 133.414C397.675 133.414 402.931 156.776 409.975 178.956C413.18 189.05 382.594 180.408 368.475 175.466C359.725 172.431 343.542 177.092 334.432 175.426C334.432 175.426 333.02 156.363 334.432 152.833C335.844 149.303 339.374 151.421 337.256 146.479C335.138 141.537 335.844 140.831 336.55 138.713C337.256 136.595 335.138 133.771 335.138 130.947C335.138 128.123 335.844 121.769 335.844 121.769C335.844 121.769 316.781 77.289 321.017 73.053C325.253 68.817 346.817 60.653 346.817 60.653C346.817 60.653 346.279 60.99 380.674 59.77Z" fill="#EBA40C"/>
<path id="Path 450" d="M403.973 72.679L406.48 73.933C407.456 74.4211 408.306 75.1284 408.963 75.9996C409.62 76.8709 410.067 77.8824 410.268 78.955L420.214 131.985L422.332 182.113C422.332 182.113 410.332 178.583 406.799 182.113C406.799 182.113 410.329 171.523 408.211 167.992C406.093 164.461 406.093 159.52 406.093 159.52C406.093 159.52 407.505 159.52 403.975 155.99C400.445 152.46 399.739 151.048 400.445 150.342C401.151 149.636 401.857 143.282 401.857 142.576C401.857 141.87 394.797 94.566 394.797 94.566L403.973 72.679Z" fill="#EBA40C"/>
<path id="Path 453" d="M383.575 38.628C384.479 36.4102 384.624 33.9559 383.988 31.647C382.373 35.93 379.165 34.623 377.53 32.614C375.48 30.095 376.07 24.278 372.83 24.014C369.58 23.9 366.33 24.2236 363.166 24.976L364.751 22.261L357.829 22.691L359.89 19.3C356.753 20.4023 353.884 22.153 351.469 24.4383C349.055 26.7235 347.148 29.4919 345.875 32.563C344.678 30.6258 343.933 28.4442 343.694 26.1798C343.455 23.9155 343.729 21.6264 344.494 19.4821C345.26 17.3378 346.499 15.3933 348.118 13.7926C349.737 12.1918 351.696 10.976 353.849 10.235L351.119 6.653L369.646 4.82499C369.692 3.93196 369.52 3.04111 369.144 2.22962C368.769 1.41814 368.201 0.710488 367.49 0.167994C368.718 -0.0435261 369.977 -0.00509949 371.19 0.280986C372.403 0.567071 373.546 1.09493 374.551 1.83299C376.549 3.31784 378.337 5.06717 379.864 7.033C382.433 9.79298 384.622 12.8832 386.373 16.222C388.012 19.8519 388.618 23.8637 388.124 27.8159C387.63 31.768 386.055 35.5073 383.573 38.622L383.575 38.628ZM383.351 29.928H383.332H383.351Z" fill="#3F3D56"/>
</g>
<g id="translate_3">
<path id="Ellipse 9" opacity="0.15" d="M220.181 350C242.825 350 261.181 331.644 261.181 309C261.181 286.356 242.825 268 220.181 268C197.537 268 179.181 286.356 179.181 309C179.181 331.644 197.537 350 220.181 350Z" fill="#EBA40C"/>
<path id="Path 1184" d="M216.388 312.329V314.473H211.156C210.612 314.482 210.069 314.444 209.532 314.361C209.165 314.306 208.813 314.174 208.5 313.973C208.156 314.174 207.775 314.305 207.38 314.357C206.797 314.441 206.209 314.48 205.62 314.473H204.208V314.697C204.246 315.463 204.134 316.229 203.88 316.953C203.765 317.207 203.596 317.433 203.384 317.616C203.173 317.798 202.924 317.932 202.656 318.009C201.759 318.247 200.831 318.348 199.904 318.309C199.034 318.347 198.164 318.241 197.328 317.997C197.066 317.91 196.826 317.767 196.625 317.577C196.425 317.386 196.269 317.154 196.168 316.897C195.927 316.135 195.823 315.336 195.86 314.537C195.836 313.368 195.992 312.202 196.324 311.081L198.224 311.381C197.949 312.281 197.795 313.213 197.764 314.153C197.752 314.831 197.811 315.508 197.94 316.173H200.452C200.939 316.2 201.426 316.141 201.892 315.997C202.025 315.944 202.137 315.85 202.212 315.728C202.287 315.606 202.321 315.463 202.308 315.321V308.393H204.208V312.329H206.336C206.655 312.352 206.975 312.291 207.264 312.153C207.367 312.077 207.448 311.974 207.499 311.856C207.55 311.738 207.568 311.609 207.552 311.481V308.393H209.452V311.481C209.436 311.609 209.454 311.738 209.505 311.856C209.556 311.974 209.637 312.077 209.74 312.153C210.029 312.291 210.349 312.352 210.668 312.329H212.628C212.761 311.682 212.821 311.022 212.808 310.361C212.779 309.315 212.634 308.275 212.376 307.261L214.26 306.973C214.413 307.487 214.522 308.013 214.588 308.545C214.666 309.115 214.706 309.69 214.708 310.265C214.723 310.959 214.653 311.652 214.5 312.329H216.388ZM221.828 312.329V314.473H215.748V312.329H218.228V306.953H220.128V312.329H221.828ZM217.828 317.993C217.655 317.98 217.49 317.913 217.356 317.801C217.181 317.674 217.027 317.52 216.9 317.345C216.788 317.211 216.721 317.046 216.708 316.873C216.743 316.592 216.886 316.337 217.108 316.161C217.292 315.944 217.547 315.799 217.828 315.753C218.107 315.799 218.36 315.944 218.54 316.161C218.758 316.339 218.899 316.594 218.932 316.873C218.916 317.043 218.849 317.205 218.74 317.337C218.615 317.516 218.461 317.673 218.284 317.801C218.155 317.91 217.996 317.977 217.828 317.993ZM220.5 317.993C220.327 317.98 220.162 317.913 220.028 317.801C219.853 317.674 219.699 317.52 219.572 317.345C219.46 317.211 219.393 317.046 219.38 316.873C219.415 316.592 219.558 316.337 219.78 316.161C219.964 315.944 220.219 315.799 220.5 315.753C220.777 315.8 221.029 315.944 221.208 316.161C221.429 316.337 221.572 316.593 221.608 316.873C221.589 317.044 221.52 317.206 221.408 317.337C221.283 317.516 221.129 317.673 220.952 317.801C220.824 317.909 220.667 317.976 220.5 317.993V317.993ZM235.62 306.973C235.773 307.488 235.883 308.015 235.948 308.549C236.026 309.119 236.066 309.694 236.068 310.269C236.102 311.131 235.983 311.992 235.716 312.813C235.525 313.372 235.123 313.834 234.596 314.101C233.939 314.378 233.228 314.505 232.516 314.473C231.972 314.482 231.429 314.444 230.892 314.361C230.525 314.306 230.173 314.174 229.86 313.973C229.516 314.174 229.135 314.305 228.74 314.357C228.157 314.441 227.569 314.48 226.98 314.473H221.188V312.329H223.668V308.393H225.568V312.329H227.7C228.019 312.352 228.339 312.291 228.628 312.153C228.731 312.077 228.812 311.974 228.863 311.856C228.914 311.738 228.932 311.609 228.916 311.481V308.393H230.816V311.481C230.8 311.609 230.819 311.739 230.871 311.857C230.922 311.975 231.004 312.077 231.108 312.153C231.397 312.291 231.717 312.352 232.036 312.329H233.988C234.119 311.682 234.178 311.022 234.164 310.361C234.135 309.315 233.99 308.275 233.732 307.261L235.62 306.973ZM238.676 306.957H240.576V312.333H242.276V314.473H238.676V306.957ZM241.492 303.309V304.253L237.78 305.245V304.317L238.42 304.141C238.314 303.821 238.265 303.486 238.276 303.149C238.244 302.825 238.292 302.497 238.416 302.196C238.54 301.895 238.736 301.628 238.988 301.421C239.61 301.036 240.329 300.836 241.06 300.845V301.945C240.537 301.972 240.022 302.091 239.54 302.297V303.353C239.532 303.451 239.555 303.548 239.604 303.633C239.631 303.665 239.666 303.689 239.705 303.705C239.744 303.72 239.786 303.726 239.828 303.721C239.947 303.708 240.064 303.687 240.18 303.657L241.492 303.309ZM241.636 312.333H244.116V306.953H246.016V314.473H241.636V312.333ZM243.748 305.081C243.575 305.068 243.41 305.001 243.276 304.889C243.101 304.762 242.947 304.608 242.82 304.433C242.708 304.299 242.641 304.134 242.628 303.961C242.663 303.68 242.806 303.425 243.028 303.249C243.212 303.032 243.467 302.887 243.748 302.841C244.027 302.887 244.28 303.032 244.46 303.249C244.678 303.427 244.819 303.682 244.852 303.961C244.836 304.131 244.769 304.293 244.66 304.425C244.535 304.604 244.381 304.761 244.204 304.889C244.075 304.998 243.916 305.065 243.748 305.081ZM246.42 305.081C246.247 305.068 246.082 305.001 245.948 304.889C245.773 304.762 245.619 304.608 245.492 304.433C245.38 304.299 245.313 304.134 245.3 303.961C245.335 303.68 245.478 303.425 245.7 303.249C245.884 303.032 246.139 302.887 246.42 302.841C246.699 302.887 246.952 303.032 247.132 303.249C247.35 303.427 247.491 303.682 247.524 303.961C247.508 304.131 247.441 304.293 247.332 304.425C247.207 304.604 247.053 304.761 246.876 304.889C246.747 304.998 246.588 305.065 246.42 305.081Z" fill="#3F0366"/>
</g>
<g id="translate_1">
<path id="Ellipse 9_2" opacity="0.15" d="M131.181 316C153.825 316 172.181 297.644 172.181 275C172.181 252.356 153.825 234 131.181 234C108.537 234 90.181 252.356 90.181 275C90.181 297.644 108.537 316 131.181 316Z" fill="#EBA40C"/>
<path id="Path 1183" d="M117.125 280.473H115.477C115.503 281.417 115.271 282.351 114.805 283.173C114.29 283.916 113.566 284.49 112.725 284.821L111.993 283.113C112.353 282.965 112.683 282.753 112.969 282.489C113.201 282.251 113.364 281.956 113.441 281.633C113.542 281.179 113.586 280.714 113.573 280.249V272.949H115.473V278.325H117.121L117.125 280.473ZM116.501 278.329H118.981V272.953H120.881V280.473H116.497L116.501 278.329ZM117.637 283.785C117.464 283.772 117.299 283.705 117.165 283.593C116.99 283.466 116.836 283.312 116.709 283.137C116.597 283.003 116.53 282.838 116.517 282.665C116.552 282.384 116.695 282.129 116.917 281.953C117.101 281.736 117.356 281.591 117.637 281.545C117.916 281.591 118.169 281.736 118.349 281.953C118.567 282.131 118.708 282.386 118.741 282.665C118.725 282.835 118.658 282.997 118.549 283.129C118.424 283.308 118.27 283.464 118.093 283.593C117.964 283.702 117.805 283.769 117.637 283.785V283.785ZM120.309 283.785C120.136 283.772 119.971 283.705 119.837 283.593C119.662 283.466 119.508 283.312 119.381 283.137C119.269 283.003 119.202 282.838 119.189 282.665C119.224 282.384 119.367 282.129 119.589 281.953C119.773 281.736 120.028 281.591 120.309 281.545C120.588 281.591 120.841 281.736 121.021 281.953C121.239 282.131 121.38 282.386 121.413 282.665C121.397 282.835 121.33 282.997 121.221 283.129C121.096 283.308 120.942 283.464 120.765 283.593C120.636 283.702 120.477 283.769 120.309 283.785V283.785ZM132.533 280.473H130.293C129.997 281.319 129.582 282.119 129.061 282.849C128.535 283.603 127.911 284.284 127.205 284.873L125.957 283.433C126.446 283.03 126.888 282.573 127.277 282.073C127.665 281.582 127.99 281.044 128.245 280.473H126.261C125.667 280.504 125.076 280.374 124.549 280.097C124.107 279.813 123.783 279.378 123.637 278.873C123.42 278.12 123.323 277.337 123.349 276.553C123.315 275.779 123.438 275.007 123.709 274.281C123.932 273.755 124.351 273.336 124.877 273.113C125.59 272.849 126.349 272.729 127.109 272.761C127.762 272.754 128.415 272.797 129.061 272.889C129.618 272.978 130.165 273.123 130.693 273.321V278.329H132.533V280.473ZM128.085 278.329C128.277 278.348 128.469 278.292 128.621 278.173C128.74 278.015 128.794 277.818 128.773 277.621V274.901H126.193C125.964 274.877 125.733 274.931 125.537 275.053C125.469 275.133 125.418 275.226 125.387 275.326C125.357 275.427 125.348 275.533 125.361 275.637V278.325L128.085 278.329ZM145.845 278.329V280.473H131.893V278.329H134.373V270.393H136.273V275.449C136.629 274.6 137.282 273.909 138.109 273.505C139.071 273.013 140.141 272.769 141.221 272.793C141.819 272.771 142.416 272.847 142.989 273.017C143.181 273.076 143.36 273.173 143.515 273.302C143.669 273.431 143.797 273.59 143.889 273.769C144.088 274.239 144.178 274.747 144.153 275.257V278.329H145.845ZM142.245 278.329V275.113C141.638 274.971 141.015 274.911 140.393 274.937C139.362 274.871 138.34 275.168 137.505 275.777C137.146 276.101 136.855 276.494 136.649 276.932C136.444 277.371 136.328 277.845 136.309 278.329H142.245ZM145.205 278.329H147.685V272.953H149.585V280.473H145.205V278.329ZM147.317 271.081C147.144 271.068 146.979 271.001 146.845 270.889C146.67 270.762 146.516 270.608 146.389 270.433C146.277 270.299 146.21 270.134 146.197 269.961C146.232 269.68 146.375 269.425 146.597 269.249C146.781 269.032 147.036 268.887 147.317 268.841C147.596 268.887 147.849 269.032 148.029 269.249C148.247 269.427 148.388 269.682 148.421 269.961C148.405 270.131 148.338 270.293 148.229 270.425C148.104 270.604 147.95 270.76 147.773 270.889C147.644 270.998 147.485 271.065 147.317 271.081V271.081ZM149.989 271.081C149.816 271.068 149.651 271.001 149.517 270.889C149.342 270.762 149.188 270.608 149.061 270.433C148.949 270.299 148.882 270.134 148.869 269.961C148.904 269.68 149.047 269.425 149.269 269.249C149.453 269.032 149.708 268.887 149.989 268.841C150.268 268.887 150.521 269.032 150.701 269.249C150.919 269.427 151.06 269.682 151.093 269.961C151.077 270.131 151.01 270.293 150.901 270.425C150.776 270.604 150.622 270.76 150.445 270.889C150.317 270.997 150.16 271.064 149.993 271.081H149.989Z" fill="#3F0366"/>
</g>
<g id="translate_2">
<path id="Ellipse 9_3" opacity="0.15" d="M41.181 350C63.8247 350 82.181 331.644 82.181 309C82.181 286.356 63.8247 268 41.181 268C18.5373 268 0.181 286.356 0.181 309C0.181 331.644 18.5373 350 41.181 350Z" fill="#EBA40C"/>
<path id="Path 1185" d="M28.347 312.329V314.473H26.667V314.697C26.7048 315.463 26.5934 316.229 26.339 316.953C26.2237 317.207 26.0546 317.433 25.8432 317.616C25.6319 317.798 25.3834 317.932 25.115 318.009C24.218 318.247 23.2902 318.348 22.363 318.309C21.503 318.347 20.6429 318.238 19.819 317.989C19.5563 317.899 19.3156 317.755 19.1128 317.565C18.9101 317.376 18.7499 317.145 18.643 316.889C18.3882 316.132 18.2769 315.335 18.315 314.537C18.3159 313.852 18.3613 313.168 18.451 312.489C18.5305 311.851 18.6561 311.22 18.827 310.601L20.619 310.901C20.3679 311.966 20.2338 313.055 20.219 314.149C20.2049 314.82 20.2639 315.491 20.395 316.149H22.907C23.3936 316.176 23.8813 316.117 24.347 315.973C24.4778 315.92 24.5884 315.827 24.6625 315.707C24.7366 315.586 24.7704 315.446 24.759 315.305V304.329H26.659V312.329H28.347ZM33.787 312.329V314.473H27.707V312.329H30.187V306.953H32.087V312.329H33.787ZM29.787 317.993C29.6135 317.98 29.4485 317.913 29.315 317.801C29.1399 317.674 28.9861 317.52 28.859 317.345C28.7474 317.211 28.6803 317.046 28.667 316.873C28.7018 316.592 28.8454 316.337 29.067 316.161C29.251 315.944 29.5062 315.799 29.787 315.753C30.0658 315.799 30.3187 315.944 30.499 316.161C30.717 316.339 30.8575 316.594 30.891 316.873C30.8746 317.043 30.8078 317.205 30.699 317.337C30.5736 317.516 30.4195 317.672 30.243 317.801C30.1143 317.91 29.9551 317.977 29.787 317.993ZM32.459 317.993C32.2855 317.98 32.1205 317.913 31.987 317.801C31.8119 317.674 31.6581 317.52 31.531 317.345C31.4194 317.211 31.3523 317.046 31.339 316.873C31.3738 316.592 31.5174 316.337 31.739 316.161C31.923 315.944 32.1782 315.799 32.459 315.753C32.7378 315.799 32.9907 315.944 33.171 316.161C33.3875 316.339 33.5265 316.594 33.559 316.873C33.5426 317.043 33.4758 317.205 33.367 317.337C33.2416 317.516 33.0875 317.672 32.911 317.801C32.7833 317.909 32.6257 317.976 32.459 317.993V317.993ZM44.587 312.329V314.473H41.947C40.9003 314.475 39.8611 314.296 38.875 313.945C37.8845 314.3 36.8393 314.479 35.787 314.473H33.147V312.329H36.247C35.719 311.826 35.2937 311.226 34.995 310.561C34.7051 309.914 34.5565 309.214 34.559 308.505C34.5503 308.314 34.5834 308.123 34.6559 307.947C34.7285 307.77 34.8387 307.611 34.979 307.481C35.3738 307.177 35.844 306.986 36.339 306.929C37.1781 306.802 38.0264 306.745 38.875 306.761C39.7262 306.745 40.5773 306.801 41.419 306.929C41.9064 306.987 42.3694 307.175 42.759 307.473C42.9 307.604 43.0106 307.764 43.0831 307.943C43.1557 308.121 43.1884 308.313 43.179 308.505C43.1826 309.213 43.0353 309.914 42.747 310.561C42.4487 311.221 42.031 311.821 41.515 312.329H44.587ZM36.459 308.905C36.4331 309.591 36.6419 310.266 37.051 310.817C37.5273 311.376 38.164 311.776 38.875 311.961C39.5803 311.773 40.2112 311.374 40.683 310.817C41.0921 310.266 41.3009 309.591 41.275 308.905H36.459ZM38.875 305.081C38.7015 305.068 38.5365 305.001 38.403 304.889C38.2279 304.762 38.0741 304.608 37.947 304.433C37.8354 304.299 37.7683 304.134 37.755 303.961C37.7898 303.68 37.9334 303.425 38.155 303.249C38.339 303.032 38.5942 302.887 38.875 302.841C39.1538 302.887 39.4066 303.032 39.587 303.249C39.805 303.427 39.9455 303.682 39.979 303.961C39.9626 304.131 39.8958 304.293 39.787 304.425C39.6616 304.604 39.5075 304.76 39.331 304.889C39.2023 304.998 39.0431 305.065 38.875 305.081V305.081ZM60.507 312.329V314.473H55.195C54.6648 314.481 54.1348 314.444 53.611 314.361C53.2507 314.307 52.9066 314.175 52.603 313.973C52.2667 314.175 51.8922 314.306 51.503 314.357C50.9189 314.442 50.3291 314.48 49.739 314.473H43.947V312.329H46.427V308.393H48.327V312.329H50.459C50.7784 312.352 51.0981 312.291 51.387 312.153C51.4903 312.077 51.5714 311.974 51.6221 311.856C51.6727 311.738 51.6909 311.608 51.675 311.481V308.393H53.575V311.481C53.5591 311.608 53.5773 311.738 53.6279 311.856C53.6786 311.974 53.7597 312.077 53.863 312.153C54.1519 312.291 54.4716 312.352 54.791 312.329H56.743C56.8743 311.682 56.9334 311.021 56.919 310.361C56.89 309.315 56.7451 308.275 56.487 307.261L58.379 306.973C58.5319 307.488 58.6416 308.015 58.707 308.549C58.7848 309.119 58.8248 309.694 58.827 310.269C58.8417 310.963 58.7719 311.656 58.619 312.333L60.507 312.329ZM51.387 305.081C51.2135 305.068 51.0485 305.001 50.915 304.889C50.7399 304.762 50.5861 304.608 50.459 304.433C50.3474 304.299 50.2803 304.134 50.267 303.961C50.3018 303.68 50.4454 303.425 50.667 303.249C50.851 303.032 51.1062 302.887 51.387 302.841C51.6658 302.887 51.9186 303.032 52.099 303.249C52.317 303.427 52.4575 303.682 52.491 303.961C52.4746 304.131 52.4078 304.293 52.299 304.425C52.1736 304.604 52.0195 304.76 51.843 304.889C51.7143 304.998 51.5551 305.065 51.387 305.081ZM54.059 305.081C53.8855 305.068 53.7205 305.001 53.587 304.889C53.4119 304.762 53.2581 304.608 53.131 304.433C53.0194 304.299 52.9523 304.134 52.939 303.961C52.9738 303.68 53.1174 303.425 53.339 303.249C53.523 303.032 53.7782 302.887 54.059 302.841C54.3378 302.887 54.5906 303.032 54.771 303.249C54.989 303.427 55.1295 303.682 55.163 303.961C55.1466 304.131 55.0798 304.293 54.971 304.425C54.8456 304.604 54.6915 304.76 54.515 304.889C54.3863 304.998 54.2271 305.065 54.059 305.081V305.081ZM52.715 302.249C52.5415 302.236 52.3765 302.169 52.243 302.057C52.0679 301.93 51.9141 301.776 51.787 301.601C51.6754 301.467 51.6083 301.302 51.595 301.129C51.6298 300.848 51.7734 300.593 51.995 300.417C52.179 300.2 52.4342 300.055 52.715 300.009C52.9938 300.055 53.2466 300.2 53.427 300.417C53.645 300.595 53.7855 300.85 53.819 301.129C53.8026 301.299 53.7358 301.461 53.627 301.593C53.5016 301.772 53.3475 301.928 53.171 302.057C53.0423 302.166 52.8831 302.233 52.715 302.249V302.249ZM59.883 312.329H62.359V306.953H64.259V314.473H59.883V312.329ZM61.995 305.081C61.8215 305.068 61.6565 305.001 61.523 304.889C61.3479 304.762 61.1941 304.608 61.067 304.433C60.9554 304.299 60.8883 304.134 60.875 303.961C60.9098 303.68 61.0534 303.425 61.275 303.249C61.459 303.032 61.7142 302.887 61.995 302.841C62.2738 302.887 62.5266 303.032 62.707 303.249C62.925 303.427 63.0655 303.682 63.099 303.961C63.0826 304.131 63.0158 304.293 62.907 304.425C62.7816 304.604 62.6275 304.76 62.451 304.889C62.3223 304.998 62.1631 305.065 61.995 305.081ZM64.667 305.081C64.4935 305.068 64.3285 305.001 64.195 304.889C64.0199 304.762 63.8661 304.608 63.739 304.433C63.6274 304.299 63.5603 304.134 63.547 303.961C63.5818 303.68 63.7254 303.425 63.947 303.249C64.131 303.032 64.3862 302.887 64.667 302.841C64.9458 302.887 65.1986 303.032 65.379 303.249C65.597 303.427 65.7375 303.682 65.771 303.961C65.7546 304.131 65.6878 304.293 65.579 304.425C65.4536 304.604 65.2995 304.76 65.123 304.889C64.9943 304.998 64.8351 305.065 64.667 305.081V305.081Z" fill="#3F0366"/>
</g>
<g id="food">
<g id="translate_4">
<g id="Group 4325">
<path id="Path 1094" d="M99.641 45.623H111.741V58.971H118.368V40.84C118.366 40.3528 118.172 39.886 117.828 39.5414C117.484 39.1967 117.017 39.0021 116.53 39H99.641C99.1531 39.0011 98.6855 39.1952 98.3404 39.54C97.9952 39.8847 97.8006 40.3521 97.799 40.84V43.783C97.8006 44.2709 97.9952 44.7383 98.3404 45.083C98.6855 45.4278 99.1531 45.6219 99.641 45.623V45.623Z" fill="#E6E9ED"/>
<g id="Group 4323">
<path id="Path 1095" d="M123.51 78.717H87.901L91.141 113.988L123.51 78.717Z" fill="#3F0366"/>
<path id="Path 1096" d="M93.145 135.677L94.27 147.9C94.3034 148.199 94.4443 148.475 94.6664 148.677C94.8885 148.88 95.1766 148.994 95.477 149H133.998C134.298 148.994 134.586 148.879 134.808 148.677C135.03 148.475 135.171 148.199 135.205 147.9L141.141 83.371L93.145 135.677Z" fill="#3F0366"/>
</g>
</g>
<path id="Path 1097" d="M123.51 78.717L91.146 113.988L93.146 135.678L141.146 83.372L141.574 78.718L123.51 78.717Z" fill="#E6E9ED"/>
<path id="Path 1098" opacity="0.1" d="M100.341 147.9L93.977 78.717H87.901L94.265 147.9C94.2984 148.199 94.4393 148.475 94.6614 148.677C94.8835 148.88 95.1716 148.994 95.472 149H101.551C101.25 148.995 100.961 148.881 100.739 148.678C100.516 148.476 100.374 148.199 100.341 147.9V147.9Z" fill="black"/>
<path id="Path 1099" opacity="0.7" d="M139.757 69.251V59.019C139.755 58.7269 139.637 58.4474 139.43 58.2414C139.223 58.0354 138.943 57.9195 138.651 57.919H91.019C90.7269 57.9195 90.4468 58.0354 90.2396 58.2414C90.0325 58.4474 89.9151 58.7269 89.913 59.019V69.251H139.757Z" fill="#EBA40C"/>
<path id="Path 1100" opacity="0.1" d="M97.085 69.251V59.019C97.0871 58.7271 97.2044 58.4477 97.4113 58.2418C97.6182 58.0358 97.898 57.9198 98.19 57.919H91.019C90.7269 57.9195 90.4468 58.0354 90.2396 58.2414C90.0325 58.4474 89.9151 58.7269 89.913 59.019V69.251H97.085Z" fill="black"/>
<path id="Path 1101" d="M148.49 77.464C148.488 77.7561 148.37 78.0356 148.163 78.2416C147.956 78.4476 147.676 78.5635 147.384 78.564H82.284C81.9919 78.5635 81.7118 78.4476 81.5046 78.2416C81.2975 78.0356 81.1801 77.7561 81.178 77.464V69.141C81.1801 68.8489 81.2975 68.5694 81.5046 68.3634C81.7118 68.1574 81.9919 68.0415 82.284 68.041H147.384C147.676 68.0415 147.956 68.1574 148.163 68.3634C148.37 68.5694 148.488 68.8489 148.49 69.141V77.464Z" fill="#EBA40C"/>
<path id="Path 1102" opacity="0.1" d="M88.461 77.464V69.141C88.4631 68.849 88.5804 68.5697 88.7873 68.3637C88.9942 68.1578 89.274 68.0418 89.566 68.041H82.287C81.9949 68.0415 81.7148 68.1574 81.5076 68.3634C81.3005 68.5694 81.1831 68.8489 81.181 69.141V77.464C81.1831 77.7561 81.3005 78.0356 81.5076 78.2416C81.7148 78.4476 81.9949 78.5635 82.287 78.564H89.568C89.2757 78.5637 88.9953 78.448 88.788 78.2419C88.5806 78.0359 88.4631 77.7563 88.461 77.464Z" fill="black"/>
</g>
<g id="rotate">
<path id="Path 1103" d="M136.815 149C133.119 149.001 129.569 147.558 126.922 144.978C124.275 142.398 122.741 138.886 122.648 135.191C122.643 135.001 122.677 134.813 122.746 134.636C122.815 134.46 122.919 134.299 123.052 134.163C123.185 134.027 123.343 133.92 123.518 133.846C123.693 133.773 123.88 133.735 124.07 133.735H176.663C176.853 133.735 177.04 133.773 177.215 133.846C177.39 133.92 177.548 134.028 177.681 134.163C177.813 134.299 177.917 134.46 177.987 134.636C178.056 134.813 178.09 135.001 178.085 135.191C177.992 138.886 176.458 142.398 173.811 144.978C171.164 147.558 167.613 149.001 163.917 149H136.815Z" fill="#FFAF68"/>
<path id="Path 1104" d="M179.96 131.678C179.958 132.264 179.724 132.825 179.31 133.238C178.896 133.652 178.335 133.885 177.749 133.887H122.993C122.407 133.885 121.846 133.652 121.432 133.238C121.018 132.825 120.784 132.264 120.782 131.678V127.237C120.784 126.651 121.018 126.091 121.432 125.677C121.846 125.263 122.407 125.03 122.993 125.028H177.746C178.332 125.029 178.894 125.261 179.309 125.675C179.724 126.089 179.958 126.651 179.96 127.237V131.683V131.678Z" fill="#AB5436"/>
<path id="Path 1105" d="M124 117.97C123.803 117.97 123.609 117.927 123.431 117.844C123.253 117.761 123.095 117.64 122.968 117.49C122.842 117.339 122.749 117.163 122.698 116.973C122.647 116.783 122.637 116.585 122.671 116.391C123.814 109.874 127.218 103.97 132.284 99.7148C137.351 95.4599 143.755 93.1273 150.371 93.1273C156.987 93.1273 163.391 95.4599 168.458 99.7148C173.524 103.97 176.928 109.874 178.071 116.391C178.105 116.585 178.096 116.784 178.044 116.973C177.993 117.163 177.901 117.34 177.774 117.49C177.648 117.64 177.49 117.761 177.311 117.844C177.133 117.927 176.939 117.97 176.742 117.97H124Z" fill="#FFAF68"/>
<path id="Path 1106" d="M179.96 118.929C179.958 118.637 179.841 118.358 179.634 118.152C179.427 117.946 179.147 117.83 178.855 117.829H121.887C121.595 117.83 121.315 117.946 121.108 118.152C120.901 118.358 120.784 118.637 120.782 118.929V123.922C120.784 124.214 120.901 124.493 121.108 124.699C121.315 124.905 121.595 125.021 121.887 125.022H157.587C158.296 125.057 158.981 125.295 159.559 125.708L162.749 128.236C163 128.42 163.304 128.519 163.615 128.519C163.926 128.519 164.23 128.42 164.481 128.236L167.671 125.708C168.249 125.295 168.934 125.057 169.643 125.022H178.848C179.14 125.021 179.42 124.905 179.627 124.699C179.834 124.493 179.951 124.214 179.953 123.922V118.929H179.96Z" fill="#EBA40C"/>
<path id="Path 1107" opacity="0.1" d="M129.464 135.191C129.457 134.922 129.528 134.657 129.667 134.426C129.806 134.196 130.008 134.01 130.249 133.891H129.806C129.22 133.889 128.659 133.656 128.245 133.242C127.831 132.829 127.597 132.268 127.595 131.682V127.232C127.597 126.724 127.773 126.232 128.094 125.838C128.415 125.445 128.862 125.173 129.359 125.069H128.7C128.408 125.068 128.128 124.952 127.921 124.746C127.714 124.54 127.597 124.261 127.595 123.969V118.972C127.597 118.68 127.714 118.401 127.921 118.195C128.128 117.989 128.408 117.873 128.7 117.872H130.144C129.903 117.735 129.71 117.527 129.592 117.277C129.474 117.026 129.436 116.745 129.484 116.472C130.511 110.533 133.425 105.084 137.795 100.932C142.164 96.7809 147.755 94.1489 153.739 93.427C152.596 93.2876 151.446 93.2174 150.295 93.217C143.676 93.1996 137.264 95.5248 132.194 99.7809C127.124 104.037 123.724 109.95 122.595 116.472C122.547 116.745 122.585 117.026 122.703 117.277C122.821 117.527 123.014 117.735 123.255 117.872H121.811C121.519 117.873 121.239 117.989 121.032 118.195C120.825 118.401 120.708 118.68 120.706 118.972V123.965C120.708 124.257 120.825 124.536 121.032 124.742C121.239 124.948 121.519 125.064 121.811 125.065H122.47C121.973 125.169 121.526 125.44 121.204 125.834C120.883 126.228 120.707 126.72 120.705 127.228V131.674C120.707 132.26 120.941 132.821 121.355 133.234C121.769 133.648 122.33 133.881 122.916 133.883H123.359C123.118 134.002 122.915 134.188 122.776 134.418C122.637 134.649 122.566 134.914 122.573 135.183C122.666 138.878 124.2 142.39 126.847 144.97C129.494 147.55 133.044 148.993 136.74 148.992H143.628C139.932 148.993 136.382 147.55 133.735 144.97C131.088 142.39 129.554 138.878 129.461 135.183L129.464 135.191Z" fill="black"/>
<g id="Group 4324">
<path id="Path 1108" d="M156.065 102.588H154.91C154.483 102.588 154.074 102.419 153.773 102.117C153.471 101.815 153.301 101.406 153.301 100.98C153.301 100.553 153.471 100.144 153.773 99.8421C154.074 99.5405 154.483 99.371 154.91 99.371H156.065C156.492 99.371 156.901 99.5405 157.202 99.8421C157.504 100.144 157.673 100.553 157.673 100.98C157.673 101.406 157.504 101.815 157.202 102.117C156.901 102.419 156.492 102.588 156.065 102.588V102.588Z" fill="white"/>
<path id="Path 1109" d="M139.247 106.633H138.09C137.663 106.633 137.254 106.464 136.953 106.162C136.651 105.86 136.482 105.451 136.482 105.025C136.482 104.598 136.651 104.189 136.953 103.887C137.254 103.585 137.663 103.416 138.09 103.416H139.246C139.673 103.416 140.082 103.585 140.383 103.887C140.685 104.189 140.854 104.598 140.854 105.025C140.854 105.451 140.685 105.86 140.383 106.162C140.082 106.464 139.673 106.633 139.246 106.633H139.247Z" fill="white"/>
</g>
<path id="Path 1110" d="M163.373 106.636H162.218C161.791 106.636 161.382 106.467 161.081 106.165C160.779 105.863 160.609 105.454 160.609 105.027C160.609 104.601 160.779 104.192 161.081 103.89C161.382 103.588 161.791 103.419 162.218 103.419H163.373C163.8 103.419 164.209 103.588 164.51 103.89C164.812 104.192 164.982 104.601 164.982 105.027C164.982 105.454 164.812 105.863 164.51 106.165C164.209 106.467 163.8 106.636 163.373 106.636V106.636Z" fill="#FFCFAB"/>
<path id="Path 1111" d="M150.588 107.883H149.434C149.007 107.883 148.598 107.714 148.297 107.412C147.995 107.11 147.826 106.701 147.826 106.275C147.826 105.848 147.995 105.439 148.297 105.137C148.598 104.835 149.007 104.666 149.434 104.666H150.589C151.016 104.666 151.425 104.835 151.726 105.137C152.028 105.439 152.198 105.848 152.198 106.275C152.198 106.701 152.028 107.11 151.726 107.412C151.425 107.714 151.016 107.883 150.589 107.883H150.588Z" fill="white"/>
<path id="Path 1112" d="M145.867 101.494H144.711C144.284 101.494 143.875 101.325 143.574 101.023C143.272 100.721 143.102 100.312 143.102 99.8855C143.102 99.4589 143.272 99.0498 143.574 98.7481C143.875 98.4465 144.284 98.277 144.711 98.277H145.867C146.294 98.277 146.703 98.4465 147.004 98.7481C147.306 99.0498 147.475 99.4589 147.475 99.8855C147.475 100.312 147.306 100.721 147.004 101.023C146.703 101.325 146.294 101.494 145.867 101.494Z" fill="#FFCFAB"/>
</g>
</g>
</g>
</g>
<defs>
<clipPath id="clip0_429_2">
<rect width="422.609" height="350" fill="white"/>
</clipPath>
</defs>
</svg>
