<svg id="Iconly_Bulk_Calling" data-name="Iconly/Bulk/Calling" xmlns="http://www.w3.org/2000/svg" width="18" height="18" viewBox="0 0 18 18">
  <g id="Calling">
    <path id="Fill_1" data-name="Fill 1" d="M3.7.014A.775.775,0,0,1,4,1.534,3.116,3.116,0,0,0,1.529,4.01h0a.773.773,0,0,1-.756.626.84.84,0,0,1-.149-.013.778.778,0,0,1-.609-.91A4.657,4.657,0,0,1,3.7.014" transform="translate(3.119 3.127)" fill="#3f0366" opacity="0.4"/>
    <path id="Fill_3" data-name="Fill 3" d="M6.88.007a.736.736,0,0,1,.563.158.777.777,0,0,1-.391,1.381A6.221,6.221,0,0,0,1.539,7.071a.771.771,0,0,1-.765.688.72.72,0,0,1-.088-.005.763.763,0,0,1-.517-.286A.771.771,0,0,1,.005,6.9,7.755,7.755,0,0,1,6.88.007" transform="translate(0 0)" fill="#3f0366" opacity="0.4"/>
    <path id="Fill_6" data-name="Fill 6" d="M3.329,10.71a1.99,1.99,0,0,1,1.454.381c.419.243,1.215.886,1.671.72a10.344,10.344,0,0,0,5.484-5.329c.168-.465-.475-1.263-.716-1.684a2.012,2.012,0,0,1-.38-1.458A11.858,11.858,0,0,1,12.865.533,1.672,1.672,0,0,1,13.879,0c1.3-.055,2.761,1.678,3.016,2.093.641.884.636,2.06-.011,3.487-1.56,3.831-7.458,9.613-11.32,11.225a4.678,4.678,0,0,1-1.949.5,2.542,2.542,0,0,1-1.521-.475C1.765,16.64-.047,15.117,0,13.783a1.671,1.671,0,0,1,.527-1.009,12.035,12.035,0,0,1,2.8-2.064" transform="translate(0.627 0.696)" fill="#3f0366"/>
  </g>
</svg>
