<svg id="Iconly_Bulk_Category" data-name="Iconly/Bulk/Category" xmlns="http://www.w3.org/2000/svg" width="18" height="18" viewBox="0 0 18 18">
  <g id="Category">
    <path id="Fill_1" data-name="Fill 1" d="M2.285,0H5.332A2.294,2.294,0,0,1,7.617,2.3V5.377a2.294,2.294,0,0,1-2.285,2.3H2.285A2.294,2.294,0,0,1,0,5.377V2.3A2.294,2.294,0,0,1,2.285,0" transform="translate(10.383)" fill="#3f0366" opacity="0.4"/>
    <path id="Combined_Shape" data-name="Combined Shape" d="M12.668,18a2.294,2.294,0,0,1-2.284-2.3V12.623a2.294,2.294,0,0,1,2.284-2.3h3.048A2.294,2.294,0,0,1,18,12.623V15.7A2.294,2.294,0,0,1,15.716,18ZM2.285,18A2.3,2.3,0,0,1,0,15.7V12.623a2.3,2.3,0,0,1,2.285-2.3H5.332a2.294,2.294,0,0,1,2.284,2.3V15.7A2.294,2.294,0,0,1,5.332,18Zm0-10.319A2.294,2.294,0,0,1,0,5.377V2.3A2.294,2.294,0,0,1,2.285,0H5.332A2.294,2.294,0,0,1,7.617,2.3V5.377a2.294,2.294,0,0,1-2.284,2.3Z" fill="#3f0366"/>
  </g>
</svg>
