<svg xmlns="http://www.w3.org/2000/svg" width="218.935" height="215" viewBox="0 0 218.935 215">
<style>
    #contact{
      transform-origin: center;
      transform-box: fill-box;
      animation: sideClip 2s linear infinite alternate-reverse;
    }
    @keyframes sideClip {
        0% {
            clip-path: polygon(0 0, 100% 0, 0 0, 0 100%);
        }
        25% {
            clip-path: polygon(0 0, 100% 0, 0 100%, 0 100%);
        }
        50% {
            clip-path: polygon(0 0, 100% 0, 100% 100%, 0 100%);
        }
        75%{
            transform: scale(0.84);
            animation-timing-function: ease-out;
        }

        100%{
            transform: scale(1);
            animation-timing-function: ease-in;
        }
    }
</style>
  <g id="contact">
    <g id="Group_3965" data-name="Group 3965" transform="translate(12.611 -272.441)" opacity="0.2">
    <path id="Path_843" data-name="Path 843" d="M206.381,389.319c-.508-3.615-4.464-2.755-7.128-3.565-4.562-3.543-7.933-8.41-11.7-12.8.574-.243.563-1.235-.116-1.319-.131.007-2.493-.105-2.053.037-1.2-.387-.815-.77-.844-1.543-.037-1.031.521-1.622.007-2.685-.79-1.631-2.893-2.127-4.5-2.327a7.1,7.1,0,0,1-1.81-.158c-.873-.473-1.1-1.751-1.534-2.528a4.829,4.829,0,0,0-1.553-1.914,6.641,6.641,0,0,0-3.038-.785c-2.1-.226-2.165-1.92-2.65-3.683-1.274-4.628-7.23-2.727-9.762-.368-.112.1-.218.216-.328.323a.97.97,0,0,0-.354-.131c-2.478-.412-4.795-1.824-7.24-2.5-3.258-.9-6.488-1.871-9.726-2.848q-10-3.013-20.143-5.5-9.847-2.434-19.786-4.469c-6.715-1.389-13.616-3.079-20.472-3.593a.807.807,0,0,0-.38-.174c-11.072-2.008-22.368-3.867-33.666-3.065-.529.038-.517.8-.034.913a35.624,35.624,0,0,0,7.082.847,4.347,4.347,0,0,0-2.008,2.725,3.119,3.119,0,0,0,.7,2.829c.772.923,2.757,1.341,3.285,2.276,2.02,3.567-3.33,2.67-4.464,3.01a3.235,3.235,0,0,0-2.175,2.029c-.754,1.959.228,4.82,2.564,4.6a.356.356,0,0,0,.19-.617c-1.807-1.271-1.884-3.786.364-4.495a8.706,8.706,0,0,1,1.911,0,5.485,5.485,0,0,0,3.222-.917,2.748,2.748,0,0,0,.353-3.994,8.015,8.015,0,0,0-2.469-1.948,2.857,2.857,0,0,1-1.342-3.331c.3-.869,1.827-1.233,2.616-1.379,4.136-.765,6.378,1.791,8.167,5.12,1.358,2.526,2.88,4.146,5.687,4.864,3.728.952,5.427,1.81,7.171,5.336,1.763,3.567,3.759,7.926,8.5,6.819a.847.847,0,0,0-.159-1.684c-6.892.092-5.887-9.03-11.6-11.357a13.136,13.136,0,0,0-1.9-.583c1.718-2.24,2.795-4.536,6.163-5.066,3.541-.556,7.967.033,10.771,2.409,1.852,1.57,3.38,3.557,5.993,3.662,2.309.093,6.082-2.312,8.04-.485a11.612,11.612,0,0,1-2.293,1.386,26.072,26.072,0,0,1-2.715.326,9.165,9.165,0,0,0-3.649,1.331c-2.5,1.743-4.241,7.926-1.963,10.345.175.186.4-.09.3-.28-.82-1.541.566-5.565,1.31-7,1.725-3.324,5.271-2.174,8.12-3.262,1.28-.489,2.432-1.734,4-1.4,1.079.233,2.2,1.8,3.038,2.473,2.4,1.938,5.3,1.87,6.672,5.067,3.741,8.719,13.083,15.853,22.477,16.866a.836.836,0,0,0,.283-1.645c-7.163-1.535-13.835-5.084-18.413-11.048a24.007,24.007,0,0,1-2.873-5.219,7.212,7.212,0,0,0-1.684-2.633c-1.231-1.094-2.871-1.161-4.259-1.926-1.266-.7-2.225-1.942-3.39-2.789a4.756,4.756,0,0,0-3.318-1.154l-.008-.013c-1.839-2.558-4.766-1.617-7.36-.981s-4.176.042-6.191-1.8a22.523,22.523,0,0,0-2.215-1.872c3.712.724,7.45,1.35,11.117,2.115q10.221,2.134,20.361,4.651,9.84,2.463,19.561,5.389c3.256.985,6.5,1.975,9.773,2.906,2.326.663,4.549,1.929,6.907,2.458-.183.2-.362.412-.542.619-2.259-1.209-4.35-.181-7.078-.838-3.644-.879-7.692-3.236-11.544-2.372-2.2.493-3.681,2.123-6.12,1.388-1.7-.514-3.031-2.029-4.676-2.745a10.524,10.524,0,0,0-8.593,0,.494.494,0,0,0,.339.927c4.283-1.156,7.288.184,10.844,2.507a6.112,6.112,0,0,0,6.3.479c4.046-1.686,7.155-.29,11.124.971a17.4,17.4,0,0,0,4.711,1.051c1.551.037,2.346-.48,3.512.007a31.012,31.012,0,0,1-3.478,3.6c-3.428,2.889-6.931,2.149-10.944,1.44a.453.453,0,0,0-.265.851c5.09,2.559,9.888,1.365,13.916-2.428a36.558,36.558,0,0,0,2.614-2.889,1,1,0,0,0,.444-.519,13.741,13.741,0,0,1,4.869-4.057c2.717-1.091,4.053.408,4.6,2.907a4.005,4.005,0,0,0,1.035,2.2,3.628,3.628,0,0,0,1.953.858c2.117.406,3.277.471,4.462,2.655.96,1.77,1.336,2.464,3.436,2.726.569.072,1.144.068,1.71.176,1.866.36,1.856,1.838,1.807,3.4-.02.655-.309,1.017.007,1.687.593,1.26,2.023,1.438,3.362,1.245.01.021.016.043.029.065,1.778,3.3,4.472,5.784,7.061,8.407,1.305,1.323,2.664,3.439,4.447,4.261a.961.961,0,0,0,.524,1.145,12.2,12.2,0,0,0,4.364.99c.991.1,1.845-.033,2.315,1.169.491,1.249-.423,3.662-1.385,4.472-1.2,1.015-2.763,1.267-3.876,2.489a21.3,21.3,0,0,0-1.266,2c-1.511,2.057-2.686,1.014-4.425.126a5.35,5.35,0,0,0-3.943-.352c-2.018.439-4.049,1.2-5.034-1.445-.319-.854.2-2.338.284-3.23.2-2.082-.108-4.2-2.657-3.9-2.166.261-4.741,3.6-5.9.267-.538-1.551-.484-2.634-2.022-3.636-1.331-.866-3.733-.891-4.124-2.684-.24-1.1.285-2.731.405-3.853.209-1.974.76-4.912-.329-6.727-.979-1.632-3.074-1.41-4.3-.116a4.569,4.569,0,0,0-.936,3.319c-.015,1.869.6,3.588-2.052,4.292-.771.2-1.646-.091-2.443.216a3.852,3.852,0,0,0-2.4,3.179c-.248,1.712.875,3.862-2.1,4.635-1.216.315-2.724-.314-3.9-.552a9.631,9.631,0,0,0-4.812.376l-1.475.408-1.641-1.61c.018-.218.487-.509.612-.7a16.766,16.766,0,0,1,1.632-1.527c1.418-1.567,1.645-4.238-.9-4.923a3.112,3.112,0,0,0-1.358.011,4.789,4.789,0,0,1-3.5-.406c-1.947-.978-3.482-1.871-5.752-1.656-3.689.349-4.131,3.476-6.427,5.8-1.9,1.929-3.7,1.669-5.882.448a6.9,6.9,0,0,0-1.732-.948,6.749,6.749,0,0,0-2.249.031c-2.519.206-3.841-.719-4.407-3.2-.276-1.212-.316-2.089-1.329-2.935-.582-.487-1.269-.444-1.819-.842-1.056-.763-.43-.8-.9-1.743-.631-1.266-2-2.669-3.506-2.651a2.229,2.229,0,0,0-1.674.712c-.186.172-.264.488-.452.65l-.6.955-3.21-.515c-.716-.627-.737-2.783-1.215-3.693a4,4,0,0,0-.925-1.262c-.924-.776-2.151-.767-3.26-1.065-2.337-.629-3.531-2.755-5.712-3.51-1.8-.624-3.549.129-5.249.745-3.477,1.261-5.454.144-7.692-2.593-.283-.346-.51-.644-.736-.878a.643.643,0,0,0,.214-.779c-.568-1.292-1.754-1.061-2.8-.451a34.964,34.964,0,0,0-2.789,2.267,6.106,6.106,0,0,1-1.272.8l-1.691-1.222c-.106-.423.556-1.681.69-2.136.57-1.924.456-3.5-1.214-4.761a5.3,5.3,0,0,0-.849-.518,8.711,8.711,0,0,0-4.216-2.08c-1.606-1.406-2.658-3.616.333-4.767.365-.14.251-.772-.159-.7-2.418.428-3.488,2.674-2.533,4.984l-.224-.041a1.022,1.022,0,0,0-.345,2.012c1.911.357,5.4.687,6.288,2.809,1.669,3.99-3.451,3.867-5.334,5.26-2.355,1.744-.67,3.99-1.657,6.317-2.1,4.953-7.205.444-10.512.355a4.066,4.066,0,0,0-3.8,2c-1.113,1.586-1.889,2.465-3.847,2.616-1.536.119-3.08-.185-4.619-.022-2.238.237-3.593,1.492-5.439,2.624a6.336,6.336,0,0,1-1.72.888c-3.187.689-2.5-1.517-2.624-3.294-.087-1.258.07-2.195-.634-3.361a5.284,5.284,0,0,0-1.555-1.589c-1.182-.847-4.891-1.882-3.119-3.914.549-.63,1.987-.817,2.752-1.25a9.939,9.939,0,0,0,2.661-2.216c2.246-2.657,2.839-6.438-.362-8.546-3.741-2.466-9.52-2.288-12.881.789a33.17,33.17,0,0,0-2.188,2.627c-2.026,2.271-3.585,1.178-5.711-.462-.566-.436-1.243-.873-1.934-1.327.072-.5-.513-.951-.88-.588C-.8,352.035-3.04,349.9.419,346.565c1.448-1.4,1.377-2.111,1.06-3.951-.527-3.055-.056-3.031,2.008-4.652a6.059,6.059,0,0,0,1.749-1.788c.811-1.514.244-2.965-.759-4.2-1.341-1.647-3.089-3.6-.549-5.468a4.272,4.272,0,0,1,2.91-.722.374.374,0,0,0,.5.053,11.089,11.089,0,0,1,2.819.857.2.2,0,0,0,.166-.357,11.608,11.608,0,0,0-2.749-1.076c1.111-4.481,1.875-9.031,3.653-13.311,1.876-4.519,3.986-7.915,7.862-10.907,6.615-5.106,12.965-10.884,19.89-15.534,6.672-4.479,14.693-7.249,22.378-9.342,4.062-1.107,8.289-1.015,12.455-1.336A70.014,70.014,0,0,1,88,275.082c8.857,1.105,17.649,2.934,26.467,4.315a91.724,91.724,0,0,1,25.862,7.715,111.368,111.368,0,0,1,10.989,5.695c4.022,2.531,7.728,5.54,11.518,8.408a56.464,56.464,0,0,1,9.458,8.4,75.536,75.536,0,0,1,7.195,10.818c2.367,4.076,5.071,8.009,7.107,12.274a43.822,43.822,0,0,1,3.656,14.018c.518,4.4,1.095,8.779,1.643,13.171.539,4.326.981,9.856-2.893,12.751-1.221.913.129,2.873,1.353,1.96,6.061-4.53,4.028-13.19,3.081-19.607-1.3-8.778-1.612-17.169-5.881-25.139-2.119-3.955-4.592-7.724-6.86-11.592a66.041,66.041,0,0,0-7.556-10.9c-3.15-3.509-6.964-6.267-10.7-9.082-3.521-2.651-6.971-5.371-10.725-7.684A86.921,86.921,0,0,0,125.6,279.737c-9.855-2.237-19.793-3.821-29.751-5.541a102.573,102.573,0,0,0-14.48-1.738c-4.537-.127-9.094.457-13.621.7A46.491,46.491,0,0,0,54.815,276.2a86.676,86.676,0,0,0-12.233,4.832c-8.831,4.659-16.318,12.067-24.164,18.213a23.539,23.539,0,0,0-7.874,10.087,52.082,52.082,0,0,0-3.767,15.8,4.852,4.852,0,0,0-2.667.374,3.926,3.926,0,0,0-2.286,4.517,8.125,8.125,0,0,0,1.666,2.316c1.592,2.043.707,3.654-1.173,5.018-1.411,1.025-3.437,2.28-2.939,4.393.113.482.534.766.662,1.19.507,1.673-.151,2.1-1.162,3.084a4.733,4.733,0,0,0-1.592,2.514c-.554,2.529,1.039,4.973,3.024,6.384-1.87.464-4.529-.791-6.249.706-1.372,1.2-2.381,3.521-1.6,5.306.447,1.017,1.266,1.221,2.017,1.9,2.194,1.984.231,3.284-1.35,4.845-1.777,1.755-2.638,3.594-1.439,5.991a7.62,7.62,0,0,0,4.851,3.894c2.227.5,3.359-.5,4.547-2.189l.049-.157q.3-2.37,2.974-2.525c-1.141,2.018-1.471,5.487.772,6.691C2.589,381.933.325,383.6-.7,387.25c-.689,2.46-.766,6.091,1.62,7.741,1.337.924,2.559.374,3.627-.537.007.013.008.025.014.038.83,1.52,3.713,1.936,5.221,1.738a.5.5,0,0,0,.162-.939,12.975,12.975,0,0,0-2.34-.668,15.921,15.921,0,0,1-2.315-.878c.136-.141.27-.285.4-.432a.144.144,0,0,0,.047.087,3.976,3.976,0,0,0,1.648.739c.777.219,1.56.434,2.354.583a.561.561,0,0,0,.189-1.1c-.8-.115-1.581-.317-2.371-.485a2.836,2.836,0,0,0-1.676-.034,16.739,16.739,0,0,1,1.549-1.631c1.453,1.189,3.791,1.444,5.526,1.639a.659.659,0,0,0,.224-1.3,32.713,32.713,0,0,1-4.688-1.079c.075-.04.144-.085.223-.122a7.445,7.445,0,0,1,2.509-.663c-.07.012-.142.013-.211.031-.362.094-.252.624.063.693,1.377.3,2.551,1.228,3.943,1.516a.507.507,0,0,0,.639-.4,13.348,13.348,0,0,0,1.4,1.215c3.043,2.141,6.614,1.477,9.938,2.758,4.144,1.6,5.461,5.714,9,7.919,2.694,1.678,6.056,2.875,9.172,1.761,3.477-1.243,5.558-4.841,8.488-6.927a13.66,13.66,0,0,1,7.571-2.71,14.762,14.762,0,0,0,5.356-.9,7.312,7.312,0,0,0,1.31-.728c2.219,1.01,4.758,1.452,7.012,2.38a46.482,46.482,0,0,1,7.635,4.057c3.129,2.028,5.935,4.954,9.173,6.859a1.327,1.327,0,0,0-.719.166l-.028,0c-.363.02-.5.624-.129.751l.04.014a1.364,1.364,0,0,0,.829.329,9.258,9.258,0,0,0,1.238.2.69.69,0,0,0,.753-.464,11.532,11.532,0,0,0,3.686.89c5.929.388,11.212-2.7,16.907-3.715a32.239,32.239,0,0,1,18.35,2.683.81.81,0,0,0,.635,0c.112.076.223.156.335.232,3.826,2.6,7.165,5.661,10.809,8.482,2.24,1.734,5.84,4.013,8.779,2.691,2.393-1.078,2.019-3.671,3.042-5.677,1.767-3.464,5.982.906,8.36,1.666,2.051.657,4.475-.127,4.618-2.624a2.708,2.708,0,0,0-.169-1,14.953,14.953,0,0,1,3.064,1.993,2.394,2.394,0,0,0-.462-.03,13.4,13.4,0,0,0-1.562.14.378.378,0,0,0-.122.709,4.909,4.909,0,0,0,1.35.248,10.2,10.2,0,0,0,1.232.143.427.427,0,0,0,.392-.313,5.526,5.526,0,0,1,.709,1.242,7.244,7.244,0,0,1,.482,2.561.419.419,0,0,0-.073-.044,3.119,3.119,0,0,0-2.9.436.289.289,0,0,0,.166.465,10.257,10.257,0,0,0,1.2.063c.45.032.894.14,1.343.141a.431.431,0,0,0,.251-.087c-.028.584-.083,1.167-.147,1.741a7.609,7.609,0,0,0-1.436-.1,1.6,1.6,0,0,0-1.345.4.338.338,0,0,0,.109.51,2.923,2.923,0,0,0,1.272.248c.412.044.842.153,1.26.163,0,.037-.01.075-.013.112-.071.671-.162,1.339-.246,2.009-.01,0-.014-.009-.024-.012a3.461,3.461,0,0,0-1.671.019.418.418,0,0,0-.337.534.574.574,0,0,0-.307-.171,4.129,4.129,0,0,0-2.3.27c-.293.123-.3.646.061.675a17.231,17.231,0,0,1,2.026.287.61.61,0,0,0,.646-.864.666.666,0,0,0,.073.061,3.481,3.481,0,0,0,1.565.6.755.755,0,0,0,.1-.009c-.071.523-.15,1.043-.225,1.565l-.01-.011a1.451,1.451,0,0,0-1.474-.1,1.328,1.328,0,0,0-.635.409.4.4,0,0,0-.089-.106c-.312-.218-.576-.12-.921-.1-.308.021-.626.031-.935.023-.393-.01-.434.576-.126.73a3.349,3.349,0,0,0,1.021.314c.354.053.77.129,1.025-.187a.552.552,0,0,0,.084-.162c.212.223.483.169.771.191a2.009,2.009,0,0,0,1.106,0c.015-.007.028-.018.043-.027-.039.262-.074.525-.113.787-.093.626-.222,1.244-.363,1.86a5.847,5.847,0,0,0-1.764.218.484.484,0,0,0,.083.917,8.492,8.492,0,0,0,1.339.26l-.068.272a1.541,1.541,0,0,0-1.5.551c-.22.25,0,.734.343.668a1.99,1.99,0,0,1,.841.051,23.317,23.317,0,0,0-.5,2.665,1.377,1.377,0,1,0,2.1.353c.557-3.4,1.553-6.635,1.95-10.083a54.8,54.8,0,0,0,.565-8.166c-.166-4.541-3.259-7.508-7.407-8.7a7.751,7.751,0,0,1,.535-1.085c1.006-2.012.289-.568,1.3-1.241,1.055-.7,1.545-.937,1.932-2.2a12.077,12.077,0,0,0,5.962-.485.464.464,0,0,0,.042-.853c2.96-2.971,3.726-8.049,3.514-12.063a.661.661,0,0,0-.181-.435.773.773,0,0,1,.952.465c.279.572-.206,2.334-.234,3.021-.2,5.032,2.961,5.524,7.037,4.858a6.467,6.467,0,0,1,4.562,1.006,3.967,3.967,0,0,0,2.305.607c2.1-.157,2.686-1.738,3.7-3.287,1.271-1.951,3.556-2.146,4.974-3.832A7.751,7.751,0,0,0,206.381,389.319ZM72.364,344.588a6.558,6.558,0,0,1-4.419-2.559c-1.116-1.583-1.638-3.57-2.933-5.038a6.622,6.622,0,0,0-1.509-1.251c.382.027.763.058,1.142.1,5.056.5,10.051,1.461,15.046,2.385a13.146,13.146,0,0,0-1.412.292C74.7,339.482,73.976,341.877,72.364,344.588Zm17.214,21.562a16.433,16.433,0,0,1,2.12,1.569c-.8-.106-1.6-.167-2.372-.271-1.639-.22-3.266-.528-4.894-.836C86.136,365.96,87.81,365.12,89.578,366.149Zm-15.54-4.429a.274.274,0,0,0,.146.027c1.113-.115,2.178,2.573,3.076,3.722-2.237-.317-4.5-.653-6.777-.937.222-.125.441-.261.656-.411A22.3,22.3,0,0,1,74.038,361.72ZM62.98,363.125a6.627,6.627,0,0,0,3-1.518l.015-.016a3.086,3.086,0,0,0,.212,2.5c-1.653-.136-3.3-.217-4.929-.219A4.288,4.288,0,0,1,62.98,363.125Zm-13.1,8.405c.106.044.209.091.314.136a38.836,38.836,0,0,0-1.626,11.775c-.845-.158-1.675-.308-2.477-.424-.676-.1-1.353-.2-2.03-.3.141-3.138.282-6.235.676-9.362a9.63,9.63,0,0,1,.711-1.128C46.684,370.9,48.187,370.817,49.883,371.53Zm-5.531,2.29a37.228,37.228,0,0,0-.892,8.81q-2.658-.393-5.319-.774a.286.286,0,0,0,.05-.126c.283-2.112-.393-4.2.034-6.279C40.465,375.5,42.687,375.543,44.352,373.82ZM37.2,375.431c.205,0,.411.006.616.01-.635,1.983-.337,4.209-.223,6.266a.3.3,0,0,0,.019.074q-1.982-.28-3.97-.531c-.059-.816-.211-1.63-.2-2.462.01-.806.074-1.605.138-2.407A7.369,7.369,0,0,1,37.2,375.431Zm-4.133,1.234a9.518,9.518,0,0,0-.251,4.478l-.251-.032c-1.318-.159-2.638-.308-3.957-.461a10.234,10.234,0,0,1-.07-1.236c0-.143.013-.285.025-.429.035-.01.07-.016.107-.026A19.778,19.778,0,0,0,33.065,376.665Zm-5.089,2.442a5.93,5.93,0,0,0-.111,1.457q-1.578-.181-3.155-.361c-.013-.1-.026-.2-.029-.3-.023-.616.053-1.242-.01-1.858,0-.007-.006-.011-.008-.016A3.762,3.762,0,0,0,27.975,379.107ZM.826,372.482c-1.07,1.522-1.071,4.134-3.5,3.979a6.13,6.13,0,0,1-4.073-2.552c-2.681-3.67,1.5-5.233,3.081-7.921.781-1.328.935-2.488-.19-3.558-.6-.568-1.592-.674-2.136-1.316-1.347-1.591-.079-4.511,1.647-5.146a5.784,5.784,0,0,1,2.688.11,4.71,4.71,0,0,0,3.238-.356c1.285.8,2.42,1.644,3.671,2.553a4.364,4.364,0,0,0,2.952,1.038c2.99-.271,4.162-3.965,6.458-5.372,2.808-1.721,11.475-2.078,11.428,2.886-.037,3.966-4.3,4.964-6.951,6.494-1.6.928-2.285,2.258-1.154,3.908.83,1.21,2.192,1.665,3.279,2.517a6.224,6.224,0,0,1,2.314,4.495,9.241,9.241,0,0,0,.15,2.181,4.106,4.106,0,0,0,.883,1.552.092.092,0,0,0-.108.04,4.255,4.255,0,0,0-.5,1.973l-.008.14c-.582-.066-1.164-.129-1.748-.193a7.457,7.457,0,0,1,.16-3.214c.024-.088-.1-.119-.143-.046a5.548,5.548,0,0,0-.692,3.186l-1.524-.167a22.493,22.493,0,0,1-.185-7.676.13.13,0,0,0-.255-.045,20.408,20.408,0,0,0-.26,7.644q-2.95-.318-5.9-.625a23.491,23.491,0,0,1,.193-8.867c0-.01,0-.015-.006-.024a3.112,3.112,0,0,1,3.126-2.673c.4-.033.321-.6-.058-.612a4.334,4.334,0,0,0-4.449,3.095c-.613,1.745-.341,3.637-2.794,3.227-1.643-.274-2.534-1.567-4.009-2.117A3.978,3.978,0,0,0,.826,372.482Zm9.716,6.2c.04-1.424-.127-2.845-.049-4.269a4.8,4.8,0,0,0,.572-.05,2.272,2.272,0,0,0,1.836-1.307,17.291,17.291,0,0,0-.037,5.868Zm-4.406-5.857c.061.02,1.368.937,1.439.972a6.474,6.474,0,0,0,2.646.622,15.538,15.538,0,0,0-.162,4.213l-1.3-.134a15.917,15.917,0,0,1,.024-3.418.1.1,0,0,0-.191-.034,7.5,7.5,0,0,0-.253,3.408L7.19,378.34a25.573,25.573,0,0,1,.183-2.719.173.173,0,0,0-.341-.06,8.243,8.243,0,0,0-.165,2.746l-.974-.1a.825.825,0,0,0-.127-.165c-1.592-1.568-.373-3.45-.659-5.338C5.43,372.727,5.773,372.768,6.135,372.829Zm6.085,17.125a4.593,4.593,0,0,1,1.438.343,4.215,4.215,0,0,1,.611.34A9.805,9.805,0,0,0,12.22,389.954Zm107.764,13.261c-6.841-.227-12.58,3.1-19.194,4.052a12.282,12.282,0,0,1-10.523-3.158,63.968,63.968,0,0,0-7.835-5.656c-3.482-2.156-8.752-4.99-13.262-5.287.607-.535,1.2-1.1,1.879-1.619,1.877-1.439,4.065-1.542,6.285-2,.864-.179.783-1.533-.134-1.422-3.523.428-5.773,1.123-8.43,3.53-3.855,3.49-8.607,1.921-13,3.977a20.992,20.992,0,0,0-5.39,3.8c-1.459,1.372-2.664,3.113-4.406,4.139-2.961,1.744-6.246.808-9.022-.839-2.267-1.346-3.278-3.657-5.131-5.416-3.453-3.278-7.1-2.956-11.34-4.151-3.982-1.124-5.707-5.336-10.3-4.437a8.049,8.049,0,0,0-3.862,1.921c-.6.534-1.069,1.2-1.613,1.78-1.088,1.167-1.105,1.542-2.639,1.057-3.336-1.055-1.626-6.316-.489-8.573,1.039-2.063,2.821-3.577,4.073-5.5,9.075,2.158,18.6,2.24,27.819,3.418,4.713.6,9.4,1.366,14.106,2.04,3.423.49,7.149,1.549,10.614,1.2a.751.751,0,0,0,.505-.253c3.492.639,7.165.525,10.684.771,3.837.268,7.685.373,11.505.853,4.547.572,9.1,1.2,13.643,1.913l-.389-.031c-2.684-.2-5.363-.484-8.048-.669-2.03-.14-4.425.343-6.327-.439a.351.351,0,0,0-.3.635,7.457,7.457,0,0,0,3.72.892c2.642.148,5.258.441,7.891.71,4.992.51,9.95.759,14.822,2.079a50.27,50.27,0,0,1,15.468,7.079c2.376,1.644,4.671,3.4,6.984,5.14A35.121,35.121,0,0,0,119.984,403.215Zm47.519,3.836a3.143,3.143,0,0,0-1.092,2.46c0,1.333,1.046,2.377.49,3.661-.837,1.934-3.434-.13-4.8-.925-1.761-1.026-3.8-2.278-5.8-1.13-1.843,1.057-1.9,3.156-2.539,4.972-1.876,5.339-8.591-.734-11.008-2.845a109.554,109.554,0,0,0-11.176-8.122c-3.514-2.367-6.709-5.182-10.253-7.491a50.29,50.29,0,0,0-10.953-5.306c8.49,1.92,16.863,4.375,25.281,6.607a.486.486,0,0,0,.619.164c6.057,1.6,12.142,3.066,18.314,4.117a.715.715,0,0,0,.738-.3c4.1,1.154,8.513,1.527,12.693,2.262.784.138,1.594.3,2.417.44C169.786,406.462,168.284,406.406,167.5,407.051Zm12.2-8a30.862,30.862,0,0,1-2.341,5.406c-1.817-.076-3.59-.18-5.355-.339.381-1.54.666-3.1,1.178-4.61.111-.327-.361-.568-.488-.235-.593,1.553-.963,3.173-1.416,4.77q-1.357-.135-2.731-.321c.662-3.313,1.29-6.65,1.812-9.985a.162.162,0,0,0-.319-.057c-.65,3.326-1.611,6.6-2.2,9.939-.444-.065-.884-.118-1.333-.193q-.718-.12-1.439-.248a37.238,37.238,0,0,0,1.221-6.072.227.227,0,0,0-.447-.079,35.43,35.43,0,0,1-1.411,6.04q-.938-.165-1.882-.329c.477-2.219,1.525-4.394,1.465-6.692,0-.12-.165-.106-.193-.008-.621,2.2-1.511,4.338-2.015,6.573a61.73,61.73,0,0,0-6.6-.818.792.792,0,0,0-.342-.154c-6.141-1.186-12.2-2.687-18.249-4.269.152-1.767.646-3.463.755-5.249a.324.324,0,0,0-.638-.113,28.889,28.889,0,0,0-1.177,5.083c-9.838-2.591-19.634-5.366-29.626-7.332-8.01-1.577-16.119-2.7-24.209-3.767-7.693-1.011-15.626-.4-23.278-1.5a.768.768,0,0,0-.4-.061h-.013c-.1-.015-.194-.026-.29-.042a.555.555,0,0,0-.429.1,35.2,35.2,0,0,1-8.017-.909,89.691,89.691,0,0,1,1.083-11.836,9.24,9.24,0,0,0,4.073,1.154,6.1,6.1,0,0,0,6.05-5.314c.1-1.06-.205-1.832.235-2.864.032-.075.066-.133.1-.2,5.324,1.878,11.411,1.917,16.966,2.641,5.642.736,11.716,1.44,17.125,3.2a.7.7,0,0,0,.94-.651,2.873,2.873,0,0,1,2.333,2.237c.54,1.585.7,3.709,2.235,4.711a3.363,3.363,0,0,0,3.624-.205c.637-.423.867-1.219,1.423-1.639.2-.149,1.788-.778,2.1-.6,2.28,1.272.345,1.367.777,2.264.835,1.733,2.014.883,3.282,2.058,1.317,1.219.818,3.787,2.1,5.21a5.167,5.167,0,0,0,4.112,1.471,7.156,7.156,0,0,1,4.308,1.165,4.954,4.954,0,0,0,2.351,1c4.385.382,5.646-4.1,8.374-6.42,2.541-2.157,5.176-.037,7.552,1.076,1.237.579,5.032-.255,4.582,1.537-.221.88-2.14,1.887-2.628,2.761a2.644,2.644,0,0,0-.1,2.679,2.988,2.988,0,0,0,.635.824,24.3,24.3,0,0,0-.937,6.778.184.184,0,0,0,.348.062,27.239,27.239,0,0,0,.968-6.544,4.03,4.03,0,0,0,2.566.6,5.817,5.817,0,0,0,1-.187c-.5,2.821-1.131,5.68-1.387,8.531a.281.281,0,0,0,.554.1,75.16,75.16,0,0,0,1.272-8.75v-.008a9.993,9.993,0,0,1,2.652-.636,5.714,5.714,0,0,1,1.011.069,41,41,0,0,0-2.163,9.187.368.368,0,0,0,.724.129c.635-2.986,1.551-6.215,1.622-9.286.8.138,1.583.387,2.41.529a10.581,10.581,0,0,0,1.457.154,15.713,15.713,0,0,0-1.5,4.456c-.274,1.338-.785,3.322-.179,4.639a.249.249,0,0,0,.478-.044c.208-1.48.072-2.991.317-4.485a19.676,19.676,0,0,1,1.214-4.559,4.627,4.627,0,0,0,2.87-.913c1.625-1.263,1.427-2.682,1.711-4.5.631-4.049,3.5-1.6,5.617-3.444a4.848,4.848,0,0,0,1.285-3.792c.02-.981-.448-3.059.522-3.757.862-.62,1.026-.143,1.3.584.493,1.331.028,3.323-.12,4.7-.207,1.932-1.086,4.546.254,6.216,1.05,1.307,2.661,1.307,3.946,2.171,2.178,1.465.7,4.143,2.834,5.57,1.48.992,2.8.391,4.206-.353.212-.112.437-.25.663-.386A26.5,26.5,0,0,1,179.7,399.046Z" transform="translate(-0.121 0)" fill="#3f0366"/>
    <path id="Path_844" data-name="Path 844" d="M51.281,347.159c-2.4-.844-2.984-3.6-5.273-4.433-3.088-1.122-5.336,2.008-8.153,2.428a.656.656,0,0,0-.88-.466c-4.2,1.388-9.059.979-11.983-2.714a31.8,31.8,0,0,1-3.152-5.4c3.483.555,7.229-.432,10.717-.443,2.386-.009,4.763.392,7.146.484a37.572,37.572,0,0,1,6.466.544c1.217.258,1.55-1.651.333-1.9-4.133-.86-8.735-.84-12.945-.969a52.116,52.116,0,0,0-12.338,1.1c-.141-.264-.284-.527-.432-.785-2.174-3.8-5.248-7.349-9.989-5.815-.2.064-.113.346.078.34,7.439-.238,9.109,8.51,12.642,13.358a11.564,11.564,0,0,0,13.937,3.5.726.726,0,0,0,.31-.26c3.012.973,5.943-3.444,8.627-1.174,1.731,1.465,2.086,3.453,4.747,3.4A.42.42,0,0,0,51.281,347.159Z" transform="translate(-0.753 -2.799)" fill="#3f0366"/>
    <path id="Path_845" data-name="Path 845" d="M197.464,374.95l.015,0C197.492,374.954,197.492,374.953,197.464,374.95Z" transform="translate(-10.496 -4.964)" fill="#3f0366"/>
    <path id="Path_846" data-name="Path 846" d="M175.356,463.191c.39-3.168,1.233-7.065.162-10.162a.581.581,0,0,0-.253-.5c-2.213-1.388-5.2-1.6-7.731-2.085-1.5-.288-3.059-.652-4.616-.87,3.21-.823,6.321-1.977,8.745-4.385.963-.956-.623-2.265-1.579-1.362-3.442,3.249-8.681,3.986-13.106,4.9a55.179,55.179,0,0,1-16.343.477c-11.248-1.047-22.1-3.815-33.057-6.5s-22.116-4.572-32.923-7.865c-5.242-1.6-10.048-4.255-15.32-5.742a161.66,161.66,0,0,0-16.674-4.21c-6.211-1.052-12.537-1.094-18.713-2.4-6.31-1.334-12.546-3.025-18.92-4.009a.84.84,0,0,0-.189-.24,4.892,4.892,0,0,1-1.26-1.8c1.17.47,2.379.83,3.526,1.386.652.316,1.332-.674.705-1.118a7.2,7.2,0,0,0-4.518-1.078,14.745,14.745,0,0,1-.5-3.335s0,.007.009.01a13.394,13.394,0,0,0,4.366,1.179.692.692,0,0,0,.234-1.362,13.34,13.34,0,0,0-4.5-.4.284.284,0,0,0-.134.067c-.029-.723-.038-1.421-.06-2.05-.006-.169,0-.332,0-.5a8.912,8.912,0,0,0,1.008.474,3.4,3.4,0,0,0,1.741.4.467.467,0,0,0,.326-.724,2.135,2.135,0,0,0-1.468-.821c-.528-.109-1.075-.2-1.615-.266.007-.539.032-1.068.069-1.594.986.376,1.952.843,2.952,1.15.591.182.9-.695.485-1.056a4.668,4.668,0,0,0-3.378-.787,26.924,26.924,0,0,1,.74-4.212,7.471,7.471,0,0,0,2.7.862.593.593,0,0,0,.2-1.168,17.663,17.663,0,0,1-2.642-.6c.177-.606.367-1.214.587-1.831.028-.076-.053-.167-.127-.109a7,7,0,0,0-1.618,1.791.506.506,0,0,0-.029.048C.942,403.473.857,407.184.873,410.25c.017,3.117.06,7.69,3,9.533a.719.719,0,0,0,.894-.065,149.654,149.654,0,0,0,25,5.6c6.827,2.043,13.634,4.1,20.435,6.244,3.324,1.049,6.673,2.032,10.077,2.772,3.332.725,6.718.918,10.092,1.322.744.27,1.494.53,2.252.772,11.51,3.676,23.46,5.654,35.168,8.536,11.459,2.821,22.837,5.671,34.632,6.546a57.508,57.508,0,0,0,16.828-1.087l.948-.207a49.211,49.211,0,0,0,7.093,1.664c2.443.543,5.019,1.593,7.528,1.586-.766,2.631-.773,5.572-1.174,8.275-.53,3.561-.99,7.131-1.5,10.695-.491,3.439-1.05,6.868-1.73,10.273a14.286,14.286,0,0,1-1.98,5.493c-.7,1.024-1.594,1.878-2.374,2.829-5.4,3.213-11.091,2.418-16.862.826-6.133-1.692-12.147-3.427-18.471-4.229-11.985-1.522-24.076-1.052-36.011-3.152-12.17-2.141-24.1-5.719-36.1-8.684-6.137-1.517-12.309-2.5-18.5-3.7-5.77-1.122-11.357-3.025-17.2-3.786a.684.684,0,0,0-.27.015c-2.031-2.133-7.074-1.369-9.718-1.827-5.886-1.02-12.621-2.818-17.051-7.176-4.588-4.514-6.825-11.176-6.813-17.556a91.141,91.141,0,0,1,.809-9.577c.311-2.892-.224-5.375-.5-8.232a.21.21,0,0,0-.044-.093.664.664,0,0,0,.028-.748c-.732-1.07-.233-1.962.52-2.932a14.379,14.379,0,0,1,1.535-1.69.486.486,0,0,0,.524.272,13,13,0,0,1,6.18.7c1.486.43,3.293,1.245,4.841.8.281-.082.235-.462.025-.586A26.168,26.168,0,0,0-3.1,417.476c-1.81-.5-3.685-.839-5.342.228l0,0c-2.285.666-5.906,4.67-2.986,6.361a.546.546,0,0,0,.237.073c-.858,2.387-.057,5.242-.428,7.775a78.591,78.591,0,0,0-.978,9.467,27.092,27.092,0,0,0,5.014,16.631c3.125,4.436,7.968,6.95,12.975,8.555a50.174,50.174,0,0,0,9.4,2.1c1.922.225,5.222-.341,6.747,1a.856.856,0,0,0,1.185-.089c4.579,1.092,9.109,2.378,13.68,3.491,4.734,1.153,9.575,1.733,14.344,2.7,10.258,2.085,20.377,5.094,30.532,7.641a151.855,151.855,0,0,0,29.293,4.686c9.97.507,19.991.74,29.732,3.188,8.345,2.1,17.829,6.525,25.956,1.714a.85.85,0,0,0,.2-.077c5.982-3.514,6.375-11.68,7.312-17.856C174.366,471.123,174.867,467.156,175.356,463.191ZM61.1,432.939c-3.6-.736-7.142-1.751-10.656-2.841-3.592-1.115-7.23-2.416-10.912-3.492a133.238,133.238,0,0,1,16.57,3.816,74.2,74.2,0,0,1,8.558,3.006A33.35,33.35,0,0,1,61.1,432.939Z" transform="translate(0 -7.727)" fill="#3f0366"/>
    <path id="Path_847" data-name="Path 847" d="M78.157,304.79a7.723,7.723,0,0,0,1.105-1.116c.223-.277.581-.656.524-1.038a.415.415,0,0,0-.1-.211.174.174,0,0,0-.073-.212c-.8-.434-2.089.174-2.776.591-.759.461-1.668,1.414-.949,2.316C76.513,305.909,77.562,305.282,78.157,304.79Zm-1.555-.175c-.6-.315.833-1.182,1.007-1.28a8.941,8.941,0,0,1,1.255-.581c-.035.055-.071.109-.109.163a7.171,7.171,0,0,1-.694.791C77.841,303.927,76.983,304.816,76.6,304.615Z" transform="translate(-4.3 -0.958)" fill="#3f0366"/>
    <path id="Path_848" data-name="Path 848" d="M86.591,287.175a3.255,3.255,0,0,0-2.217-1.126c-.6,0-1.424.509-1.193,1.211.18.549.925.7,1.417.774a3.914,3.914,0,0,0,1.812-.044.4.4,0,0,0,.2-.594A.188.188,0,0,0,86.591,287.175Zm-2.614-.205c-.007-.013-.007-.017,0,0Zm.525.191c-.145-.031-.325-.14-.468-.158a.13.13,0,0,1,.049-.044,1,1,0,0,1,.762-.041c.346.091.679.223,1.015.344a4.059,4.059,0,0,1-.77-.017A4.8,4.8,0,0,1,84.5,287.161Z" transform="translate(-4.662 -0.44)" fill="#3f0366"/>
    <path id="Path_849" data-name="Path 849" d="M62.655,292.457a3.668,3.668,0,0,0-2.92-.872c-.678.143-1.739.9-1.425,1.731.257.682,1.276.577,1.838.5a4.267,4.267,0,0,0,2.229-.693.319.319,0,0,0,.1-.351C62.655,292.816,62.829,292.6,62.655,292.457Zm-3.5.54a.328.328,0,0,0-.035-.016c.05-.067.149-.229.181-.264a1.343,1.343,0,0,1,.99-.368,4.807,4.807,0,0,1,1.409.2c-.345.1-.684.241-1.04.32A2.9,2.9,0,0,1,59.153,293Z" transform="translate(-3.455 -0.617)" fill="#3f0366"/>
    <path id="Path_850" data-name="Path 850" d="M75.522,290.63a.862.862,0,0,0-.225.036c-1.065-.516-3.269-.786-3.337.641a1.325,1.325,0,0,0,1.679,1.342,4.132,4.132,0,0,0,1.26-.656,5.767,5.767,0,0,0,.964-.714C76.118,291.007,75.841,290.626,75.522,290.63Zm-1.459.822c-.21.13-.563.376-.828.339-.164-.023-.435-.252-.382-.447.095-.349.954-.325,1.65-.212C74.348,291.25,74.2,291.366,74.063,291.452Z" transform="translate(-4.12 -0.576)" fill="#3f0366"/>
    <path id="Path_851" data-name="Path 851" d="M102.927,300.285a3.646,3.646,0,0,0-2.13-1.179c-.695-.014-1.447.742-1.144,1.466.268.643,1.172.663,1.756.666.415,0,1.533.091,1.809-.3a.394.394,0,0,0-.045-.537A.479.479,0,0,0,102.927,300.285Zm-2.354.014c-.183-.062-.15-.01-.084-.153.151-.327.472-.257.76-.167.308.1.608.238.913.357-.051.008-.1.014-.143.017A3.777,3.777,0,0,1,100.573,300.3Z" transform="translate(-5.464 -0.862)" fill="#3f0366"/>
    <path id="Path_852" data-name="Path 852" d="M116.342,304.36c.687-.842.235-1.738.181-2.692a.32.32,0,0,0-.233-.3,1.955,1.955,0,0,0,.036-.224.242.242,0,0,0-.476-.083c-.21.964-2.145,2.515-1.2,3.547A1.1,1.1,0,0,0,116.342,304.36Zm-1.037-.932c.159-.354.383-.7.582-1.058a1.956,1.956,0,0,1,0,1.332c-.106.2-.6.711-.752.3C115.083,303.851,115.251,303.548,115.3,303.428Z" transform="translate(-6.172 -0.919)" fill="#3f0366"/>
    <path id="Path_853" data-name="Path 853" d="M180.154,334.027a.331.331,0,0,0-.393.056,2.2,2.2,0,0,0-.225-.171c-.236-.149-.463.23-.26.4a7.979,7.979,0,0,1,1.14,1.84c.3.456.734,1.046,1.353.927.8-.153.909-1.023.627-1.654C181.958,334.45,181,334.446,180.154,334.027Zm1.453,2.355c-.148.014-.313-.209-.392-.3a9.421,9.421,0,0,1-.774-1.167,1.852,1.852,0,0,1,1.212.691C181.751,335.777,181.979,336.347,181.607,336.382Z" transform="translate(-9.905 -2.99)" fill="#3f0366"/>
    <path id="Path_854" data-name="Path 854" d="M134.428,300.632a.266.266,0,0,0-.112-.062c-.21-.181-.622-.074-.57.273.159,1.041,1.1,4.409,2.747,3.183C137.936,302.951,135.077,301.223,134.428,300.632Zm1.73,2.806c-.41.66-1.077-.588-1.19-.846a7.412,7.412,0,0,1-.385-1.1c.248.206.5.409.734.629S136.4,303.049,136.158,303.438Z" transform="translate(-7.121 -0.907)" fill="#3f0366"/>
    <path id="Path_855" data-name="Path 855" d="M173.608,306.353c-.21-.182-.622-.074-.57.272.159,1.041,1.1,4.409,2.747,3.183,1.443-1.075-1.416-2.8-2.065-3.394A.259.259,0,0,0,173.608,306.353Zm1.843,2.867c-.411.66-1.077-.588-1.191-.845a7.534,7.534,0,0,1-.385-1.105c.248.206.5.41.733.629S175.692,308.831,175.451,309.22Z" transform="translate(-9.706 -1.094)" fill="#3f0366"/>
    <path id="Path_856" data-name="Path 856" d="M113.674,289.484a5.125,5.125,0,0,0-1.648.331c-.475.171-1.17.483-1.235,1.063-.085.763.842.809,1.379.756a1.925,1.925,0,0,0,1.513-1.48.393.393,0,0,0-.177-.468l.194-.088A.059.059,0,0,0,113.674,289.484ZM112.1,290.89a1.714,1.714,0,0,1-.612.018c.037-.011.05-.08.141-.163a5.453,5.453,0,0,1,1.343-.812C112.817,290.361,112.584,290.832,112.1,290.89Z" transform="translate(-6.003 -0.551)" fill="#3f0366"/>
    <path id="Path_857" data-name="Path 857" d="M128.285,325.576c-.8-.433-2.088.175-2.776.592-.758.46-1.668,1.414-.949,2.315.629.79,1.678.162,2.273-.329a7.82,7.82,0,0,0,1.105-1.116c.223-.277.581-.656.524-1.038a.415.415,0,0,0-.1-.211A.175.175,0,0,0,128.285,325.576Zm-1.547,1.494c-.222.221-1.08,1.11-1.46.909-.6-.315.833-1.182,1.007-1.28a8.843,8.843,0,0,1,1.256-.581c-.036.054-.072.109-.11.162A7.086,7.086,0,0,1,126.737,327.07Z" transform="translate(-6.672 -2.58)" fill="#3f0366"/>
    <path id="Path_858" data-name="Path 858" d="M135.267,310.539a3.255,3.255,0,0,0-2.218-1.126c-.6,0-1.423.509-1.193,1.211.18.548.925.7,1.417.773a3.9,3.9,0,0,0,1.812-.043.394.394,0,0,0,.2-.594A.186.186,0,0,0,135.267,310.539Zm-2.615-.205c-.007-.013-.007-.018,0,0Zm.526.191c-.146-.031-.326-.14-.469-.158a.122.122,0,0,1,.049-.044,1,1,0,0,1,.762-.041c.346.091.679.223,1.015.344a3.908,3.908,0,0,1-.77-.017A4.939,4.939,0,0,1,133.178,310.525Z" transform="translate(-7.032 -1.195)" fill="#3f0366"/>
    <path id="Path_859" data-name="Path 859" d="M168.251,304.253a3.257,3.257,0,0,0-2.217-1.126c-.6,0-1.424.509-1.193,1.211.18.549.924.7,1.417.774a3.9,3.9,0,0,0,1.812-.044.4.4,0,0,0,.2-.594A.188.188,0,0,0,168.251,304.253Zm-2.614-.205c-.007-.013-.008-.017,0,0Zm.525.191c-.145-.031-.325-.14-.469-.158a.137.137,0,0,1,.049-.044,1,1,0,0,1,.763-.04c.345.091.678.222,1.015.344a3.989,3.989,0,0,1-.771-.017A4.814,4.814,0,0,1,166.163,304.239Z" transform="translate(-8.638 -0.992)" fill="#3f0366"/>
    <path id="Path_860" data-name="Path 860" d="M111.415,321.556a3.668,3.668,0,0,0-2.92-.872c-.678.143-1.739.9-1.425,1.73.258.683,1.276.578,1.839.5a4.267,4.267,0,0,0,2.228-.693.32.32,0,0,0,.1-.351C111.415,321.915,111.589,321.7,111.415,321.556Zm-3.5.54a.328.328,0,0,0-.035-.016c.051-.067.149-.229.181-.264a1.339,1.339,0,0,1,.99-.368,4.807,4.807,0,0,1,1.409.2c-.345.1-.684.241-1.039.32C109.037,322.05,108.287,322.279,107.913,322.1Z" transform="translate(-5.833 -2.342)" fill="#3f0366"/>
    <path id="Path_861" data-name="Path 861" d="M124.2,313.993a.87.87,0,0,0-.225.037c-1.065-.516-3.269-.786-3.337.641a1.324,1.324,0,0,0,1.679,1.341,4.125,4.125,0,0,0,1.261-.655,5.813,5.813,0,0,0,.963-.714C124.793,314.371,124.517,313.99,124.2,313.993Zm-1.46.822c-.21.131-.563.377-.828.34-.164-.023-.435-.252-.382-.447.095-.35.954-.325,1.65-.212C123.023,314.614,122.876,314.73,122.738,314.815Z" transform="translate(-6.492 -1.331)" fill="#3f0366"/>
    <path id="Path_862" data-name="Path 862" d="M151.6,323.648a3.644,3.644,0,0,0-2.13-1.178c-.695-.014-1.447.742-1.144,1.466.268.644,1.173.663,1.756.666.416,0,1.534.091,1.81-.3a.393.393,0,0,0-.045-.536A.48.48,0,0,0,151.6,323.648Zm-2.354.015c-.183-.062-.149-.01-.083-.153.15-.327.471-.257.759-.167.308.1.608.238.913.357-.051.008-.1.014-.143.017A3.8,3.8,0,0,1,149.248,323.663Z" transform="translate(-7.835 -2.431)" fill="#3f0366"/>
    <path id="Path_863" data-name="Path 863" d="M163.329,327.967a1.1,1.1,0,0,0,1.688-.244c.687-.841.235-1.738.181-2.691a.321.321,0,0,0-.233-.306A1.9,1.9,0,0,0,165,324.5a.242.242,0,0,0-.476-.084C164.314,325.384,162.38,326.935,163.329,327.967Zm.651-1.175c.158-.354.382-.7.582-1.058a1.961,1.961,0,0,1,0,1.332c-.106.2-.6.71-.752.3C163.758,327.214,163.926,326.911,163.981,326.792Z" transform="translate(-8.538 -2.524)" fill="#3f0366"/>
    <path id="Path_864" data-name="Path 864" d="M185.168,327.389c1.443-1.074-1.416-2.8-2.065-3.393a.256.256,0,0,0-.112-.062c-.21-.182-.622-.074-.57.273C182.58,325.248,183.521,328.616,185.168,327.389Zm-1.525-1.432a7.522,7.522,0,0,1-.385-1.1c.248.206.5.409.734.629s1.084.931.842,1.32C184.423,327.462,183.756,326.214,183.643,325.957Z" transform="translate(-10.009 -2.504)" fill="#3f0366"/>
    <path id="Path_865" data-name="Path 865" d="M162.349,312.848a5.124,5.124,0,0,0-1.648.331c-.475.171-1.17.482-1.235,1.063-.084.763.842.809,1.38.756a1.923,1.923,0,0,0,1.512-1.481.392.392,0,0,0-.176-.467l.193-.088A.059.059,0,0,0,162.349,312.848Zm-1.574,1.406a1.707,1.707,0,0,1-.611.018c.036-.012.049-.08.14-.163a5.423,5.423,0,0,1,1.343-.812C161.492,313.725,161.259,314.2,160.774,314.254Z" transform="translate(-8.37 -1.306)" fill="#3f0366"/>
    <path id="Path_866" data-name="Path 866" d="M52.666,314.191c-.8-.433-2.088.175-2.775.592-.759.46-1.668,1.414-.949,2.315.629.789,1.678.162,2.273-.329a7.775,7.775,0,0,0,1.105-1.117c.223-.276.58-.655.524-1.037a.422.422,0,0,0-.1-.212A.176.176,0,0,0,52.666,314.191Zm-1.547,1.494c-.221.221-1.08,1.11-1.459.909-.6-.315.833-1.181,1.007-1.281a8.824,8.824,0,0,1,1.255-.58c-.035.054-.071.108-.109.162A7,7,0,0,1,51.119,315.685Z" transform="translate(-2.987 -1.345)" fill="#3f0366"/>
    <path id="Path_867" data-name="Path 867" d="M57.654,300.012a3.9,3.9,0,0,0,1.812-.043.4.4,0,0,0,.2-.594.189.189,0,0,0-.015-.222,3.254,3.254,0,0,0-2.217-1.125c-.6,0-1.424.508-1.193,1.211C56.418,299.786,57.162,299.938,57.654,300.012Zm-.62-1.062c-.007-.013-.007-.018,0,0Zm.056.033a.126.126,0,0,1,.05-.044,1,1,0,0,1,.762-.041c.345.091.679.223,1.015.344a3.915,3.915,0,0,1-.771-.017,4.814,4.814,0,0,1-.586-.085C57.414,299.108,57.234,299,57.09,298.982Z" transform="translate(-3.35 -0.827)" fill="#3f0366"/>
    <path id="Path_868" data-name="Path 868" d="M46.98,286.617a3.259,3.259,0,0,0-2.217-1.126c-.6,0-1.424.509-1.193,1.212.18.548.924.7,1.417.773a3.9,3.9,0,0,0,1.812-.043.4.4,0,0,0,.2-.594A.189.189,0,0,0,46.98,286.617Zm-2.614-.2c-.007-.014-.007-.018,0,0Zm.525.19c-.145-.031-.325-.14-.468-.157a.119.119,0,0,1,.048-.044,1,1,0,0,1,.763-.041c.345.091.679.223,1.015.344a3.908,3.908,0,0,1-.77-.017A4.8,4.8,0,0,1,44.892,286.6Z" transform="translate(-2.733 -0.422)" fill="#3f0366"/>
    <path id="Path_869" data-name="Path 869" d="M35.712,304.436a3.661,3.661,0,0,0-2.92-.872c-.678.142-1.739.9-1.425,1.73.257.682,1.275.577,1.838.5a4.259,4.259,0,0,0,2.229-.693.318.318,0,0,0,.1-.35C35.712,304.8,35.886,304.575,35.712,304.436Zm-3.5.539-.035-.015c.05-.066.149-.228.181-.263a1.343,1.343,0,0,1,.989-.369,4.846,4.846,0,0,1,1.41.2c-.345.1-.685.241-1.04.32A2.9,2.9,0,0,1,32.21,304.975Z" transform="translate(-2.141 -1.004)" fill="#3f0366"/>
    <path id="Path_870" data-name="Path 870" d="M46.7,304.627a4.112,4.112,0,0,0,1.26-.656,5.715,5.715,0,0,0,.963-.713c.256-.272-.02-.652-.34-.649a.864.864,0,0,0-.225.037c-1.065-.516-3.27-.787-3.338.64A1.325,1.325,0,0,0,46.7,304.627Zm.863-1.516c-.154.118-.3.234-.439.319-.21.131-.563.377-.828.34-.165-.024-.435-.252-.382-.448C46,302.972,46.863,303,47.559,303.111Z" transform="translate(-2.808 -0.963)" fill="#3f0366"/>
    <path id="Path_871" data-name="Path 871" d="M75.984,312.263a3.651,3.651,0,0,0-2.13-1.179c-.695-.014-1.447.743-1.145,1.467.269.644,1.173.663,1.756.665.416,0,1.534.091,1.81-.3a.392.392,0,0,0-.045-.536A.481.481,0,0,0,75.984,312.263Zm-2.354.015c-.183-.062-.15-.01-.084-.154.151-.326.472-.257.76-.167.308.1.607.239.913.358-.051.008-.1.014-.143.016A3.777,3.777,0,0,1,73.63,312.278Z" transform="translate(-4.152 -1.249)" fill="#3f0366"/>
    <path id="Path_872" data-name="Path 872" d="M89.347,313.341a1.887,1.887,0,0,0,.035-.224.241.241,0,0,0-.475-.083c-.211.964-2.145,2.515-1.2,3.547a1.1,1.1,0,0,0,1.689-.243c.687-.841.235-1.738.181-2.692A.321.321,0,0,0,89.347,313.341Zm-.4,2.34c-.106.2-.606.711-.752.3-.052-.147.116-.45.169-.569.159-.354.383-.7.582-1.059A1.956,1.956,0,0,1,88.944,315.681Z" transform="translate(-4.863 -1.306)" fill="#3f0366"/>
    <path id="Path_873" data-name="Path 873" d="M106.8,312.821c.159,1.041,1.1,4.409,2.747,3.183,1.443-1.075-1.416-2.8-2.065-3.394a.264.264,0,0,0-.112-.061C107.163,312.367,106.75,312.476,106.8,312.821Zm2.412,2.6c-.41.661-1.077-.588-1.19-.845a7.536,7.536,0,0,1-.386-1.105c.249.206.5.41.733.63S109.457,315.027,109.215,315.416Z" transform="translate(-5.81 -1.294)" fill="#3f0366"/>
    <path id="Path_874" data-name="Path 874" d="M85.227,303.612a1.924,1.924,0,0,0,1.512-1.481.391.391,0,0,0-.176-.467c.064-.029.132-.059.193-.089a.059.059,0,0,0-.025-.113,5.152,5.152,0,0,0-1.648.332c-.475.17-1.17.482-1.235,1.063C83.763,303.618,84.69,303.665,85.227,303.612Zm-.542-.887a5.43,5.43,0,0,1,1.343-.812c-.154.427-.388.9-.873.956a1.707,1.707,0,0,1-.611.017C84.581,302.876,84.595,302.807,84.685,302.725Z" transform="translate(-4.692 -0.938)" fill="#3f0366"/>
    <path id="Path_875" data-name="Path 875" d="M41.7,363.663c-.292,0-.613-.1-.9-.122a9.884,9.884,0,0,0-3.039.268,8.419,8.419,0,0,0-6.449,6.824c-.014.07.091.086.108.018a8.57,8.57,0,0,1,5.3-6.16c2.3-.849,4.262-.17,6.591-.285,3.435-.167,3.162-3.066,4.815-5.089.6-.32,1.194-.672,1.776-1.028.266-.164-.014-.557-.278-.4s-.553.331-.83.491a.15.15,0,0,0-.215-.019,3.036,3.036,0,0,0-.386.352c-2.995,1.6-6.111,2.336-9.034-.5-1.438-1.393-2.093-3.334-4.038-4.141-1.607-.666-3.625-.564-5.318-.978-3.207-.786-4.662-2.683-7.031-4.761-3.294-2.889-13.747-5.9-15.793.045-.01.026.029.046.04.019,1.791-4.757,10.269-3.136,13.528-1.252,2.118,1.224,3.323,3.356,5.28,4.748a11.326,11.326,0,0,0,3.894,1.676c2.974.744,5.267.352,7.533,3.009a12.333,12.333,0,0,0,3.368,3.324c2.418,1.344,4.765.775,6.99-.327a11.052,11.052,0,0,1-1.181,2.514C45.589,362.935,42.969,363.663,41.7,363.663Z" transform="translate(-0.633 -3.659)" fill="#3f0366"/>
    <path id="Path_876" data-name="Path 876" d="M23.428,358.491c.1.019.122-.13.026-.152-5.871-1.349-6.914,6.281-11.92,7.6-4.64,1.223-10.5.477-11.8,6.318-.018.083.109.1.13.022,1.581-6.512,8.559-4.39,13.233-6.539C17.222,363.845,17.9,357.386,23.428,358.491Z" transform="translate(-0.399 -4.248)" fill="#3f0366"/>
    <path id="Path_877" data-name="Path 877" d="M79.285,360.267c3.216,3.208,8.5,5.109,12.97,3.867.285-.079.163-.5-.112-.489-6.709.352-11.652-1.93-15.166-7.739-2.031-3.357-3.867-5.794-7.973-6.329a.165.165,0,0,0-.056.324C74.935,351.2,75.486,356.478,79.285,360.267Z" transform="translate(-4.099 -3.827)" fill="#3f0366"/>
    <path id="Path_878" data-name="Path 878" d="M143.553,378.4c-3-.978-3.8-4.122-6.635-5.243-3.1-1.228-6.569-.828-9.658-2.321a11,11,0,0,1-6-7.9c-.443-2.065-.4-4.235-2.195-5.692-1.578-1.282-3.736-1.216-5.658-1.23-.043,0-.035.065.007.066,2.814.092,5.74.334,6.911,3.469.5,1.333.41,2.886.778,4.261a11.9,11.9,0,0,0,2.529,4.831,12.107,12.107,0,0,0,5.327,3.236c3.433,1.147,7.832.543,10.329,3.537,1.252,1.5,2.189,2.789,4.164,3.386,2.619.791,5.526.259,8.2.193,1.9-.046,3.646-.426,5.12.938s.621,1.461.944,2.943c.244,1.117.71,1.411,1.862,1.575a.121.121,0,0,0,.042-.238c-2.832-.667-.648-3.265-1.908-4.787-.947-1.143-3.068-.852-4.345-.821C150.22,378.676,146.567,379.385,143.553,378.4Z" transform="translate(-6.634 -4.248)" fill="#3f0366"/>
    <path id="Path_879" data-name="Path 879" d="M190.908,384.613c.945,1.368,2.787,2,4.3,2.47,4.185,1.285,12.208,1.137,11.623,7.347-.023.238.344.3.368.064.395-4.2-3.008-5.718-6.58-6.565-2.637-.624-5.768-.807-8.057-2.379-2.558-1.755-1.569-3.523-2.076-5.822a6.6,6.6,0,0,0-2.02-3.233c-2.524-2.461-5.878-2.926-7.646-6.247-1.255-2.359-2.747-4.663-5.5-5.391-2.281-.6-3.964.33-5.913,1.4a49.233,49.233,0,0,0-5.223,2.946c-1.905,1.363-3.345,2.71-5.823,2.985a.033.033,0,0,0,.006.066c2.439-.212,4-1.54,5.948-2.865,2.586-1.754,7.735-4.929,10.866-4.147,3.8.95,4.332,4.443,6.455,7.076,1.556,1.93,4.17,2.37,6.026,3.932a7.345,7.345,0,0,1,2.546,5.741A4.7,4.7,0,0,0,190.908,384.613Z" transform="translate(-9.23 -4.702)" fill="#3f0366"/>
    <path id="Path_880" data-name="Path 880" d="M189.791,379.443c0-.025-.041-.026-.044,0-.235,2.224-8.391,7.079-3,8.943.209.073.359-.217.151-.317C182.332,385.854,189.707,382.122,189.791,379.443Z" transform="translate(-10.09 -5.255)" fill="#3f0366"/>
    <path id="Path_881" data-name="Path 881" d="M-4.146,445.161a.275.275,0,0,0-.095.541A.275.275,0,0,0-4.146,445.161Z" transform="translate(-0.264 -8.371)" fill="#3f0366"/>
    <path id="Path_882" data-name="Path 882" d="M-3.345,449.437a.435.435,0,0,0,.351-.3.636.636,0,0,0-.832-.9.64.64,0,0,0-.27.868A.668.668,0,0,0-3.345,449.437Z" transform="translate(-0.273 -8.526)" fill="#3f0366"/>
    <path id="Path_883" data-name="Path 883" d="M-1.4,446a.813.813,0,0,0,.28-1.6A.813.813,0,0,0-1.4,446Z" transform="translate(-0.341 -8.348)" fill="#3f0366"/>
    <path id="Path_884" data-name="Path 884" d="M-2.565,440.25c-.009.115-.017.231-.027.347a.67.67,0,0,0,1.32.23l.092-.336C-.939,439.616-2.493,439.344-2.565,440.25Z" transform="translate(-0.324 -8.12)" fill="#3f0366"/>
    <path id="Path_885" data-name="Path 885" d="M-1.036,447.019a.767.767,0,0,0-.884.819l.014.167a.719.719,0,0,0,1.356.236l.07-.152A.767.767,0,0,0-1.036,447.019Z" transform="translate(-0.346 -8.475)" fill="#3f0366"/>
    <path id="Path_886" data-name="Path 886" d="M1.3,450.371a.549.549,0,0,0-.189,1.082A.549.549,0,0,0,1.3,450.371Z" transform="translate(-0.429 -8.631)" fill="#3f0366"/>
    <path id="Path_887" data-name="Path 887" d="M1.14,453.706a.683.683,0,1,0-.128,1.359c.272.016.614-.123.636-.446a.232.232,0,0,1,.017-.1l-.011.022A.653.653,0,0,0,1.14,453.706Z" transform="translate(-0.419 -9.497)" fill="#3f0366"/>
    <path id="Path_888" data-name="Path 888" d="M-3.76,453.135a1.142,1.142,0,0,0,.973.035.733.733,0,0,0,.369-.866c-.131-.505-.657-.584-1.093-.587A.752.752,0,0,0-3.76,453.135Z" transform="translate(-0.273 -8.703)" fill="#3f0366"/>
    <path id="Path_889" data-name="Path 889" d="M-6.743,442.094a.8.8,0,0,0-.643-.616.973.973,0,0,0-1.1.821.807.807,0,0,0,1.368.687.226.226,0,0,1,.053-.049A.807.807,0,0,0-6.743,442.094Z" transform="translate(-0.133 -8.208)" fill="#3f0366"/>
    <path id="Path_890" data-name="Path 890" d="M-7.034,443c-.01.014-.022.019-.033.032S-7.078,443.065-7.034,443Z" transform="translate(-0.179 -8.261)" fill="#3f0366"/>
    <path id="Path_891" data-name="Path 891" d="M-5.883,454.993a.769.769,0,0,0,.264-1.514A.769.769,0,0,0-5.883,454.993Z" transform="translate(-0.198 -9.49)" fill="#3f0366"/>
    <path id="Path_892" data-name="Path 892" d="M-2.9,459.715l.331-.049a.521.521,0,0,0,.171-.981l-.294-.159a.631.631,0,0,0-.884.459A.631.631,0,0,0-2.9,459.715Z" transform="translate(-0.292 -9.651)" fill="#3f0366"/>
    <path id="Path_893" data-name="Path 893" d="M2.429,459.5a.528.528,0,0,0-.182,1.039A.528.528,0,0,0,2.429,459.5Z" transform="translate(-0.467 -9.685)" fill="#3f0366"/>
    <path id="Path_894" data-name="Path 894" d="M8.228,453.308a.813.813,0,0,0-.281,1.6A.813.813,0,0,0,8.228,453.308Z" transform="translate(-0.644 -9.484)" fill="#3f0366"/>
    <path id="Path_895" data-name="Path 895" d="M9.133,446.057a.769.769,0,0,0-.264,1.514A.769.769,0,0,0,9.133,446.057Z" transform="translate(-0.675 -8.427)" fill="#3f0366"/>
    <path id="Path_896" data-name="Path 896" d="M4.616,461.859a.637.637,0,0,0,.134-.645.692.692,0,1,0-.134.645Z" transform="translate(-0.518 -9.724)" fill="#3f0366"/>
    <path id="Path_897" data-name="Path 897" d="M6.919,465.044a.4.4,0,0,0,.136-.778A.4.4,0,0,0,6.919,465.044Z" transform="translate(-0.621 -9.839)" fill="#3f0366"/>
    <path id="Path_898" data-name="Path 898" d="M12.9,465.14a.363.363,0,0,0-.125.714A.363.363,0,0,0,12.9,465.14Z" transform="translate(-0.812 -9.867)" fill="#3f0366"/>
    <path id="Path_899" data-name="Path 899" d="M2.85,465.375a.714.714,0,0,0,.246-1.406A.714.714,0,0,0,2.85,465.375Z" transform="translate(-0.481 -9.829)" fill="#3f0366"/>
    <path id="Path_900" data-name="Path 900" d="M142.452,485.336a.791.791,0,0,0-.272,1.557A.791.791,0,0,0,142.452,485.336Z" transform="translate(-7.483 -10.52)" fill="#3f0366"/>
    <path id="Path_901" data-name="Path 901" d="M146.367,487.918a.714.714,0,0,0-.246,1.406A.714.714,0,0,0,146.367,487.918Z" transform="translate(-7.675 -10.603)" fill="#3f0366"/>
    <path id="Path_902" data-name="Path 902" d="M139.268,489.013a.692.692,0,0,0,.238-1.362A.692.692,0,0,0,139.268,489.013Z" transform="translate(-7.343 -10.595)" fill="#3f0366"/>
    <path id="Path_903" data-name="Path 903" d="M148.3,490.334a.634.634,0,0,0-.037-1.265.636.636,0,0,0-.658.692A.646.646,0,0,0,148.3,490.334Z" transform="translate(-7.774 -10.641)" fill="#3f0366"/>
    <path id="Path_904" data-name="Path 904" d="M153.963,490.258a.615.615,0,0,0-.212,1.212A.615.615,0,0,0,153.963,490.258Z" transform="translate(-8.047 -10.679)" fill="#3f0366"/>
    <path id="Path_905" data-name="Path 905" d="M157.443,485.846a.889.889,0,1,0-1.03.723A.9.9,0,0,0,157.443,485.846Z" transform="translate(-8.172 -10.503)" fill="#3f0366"/>
    <path id="Path_906" data-name="Path 906" d="M151.814,488.008a.494.494,0,0,0-.17.973A.494.494,0,0,0,151.814,488.008Z" transform="translate(-7.947 -10.606)" fill="#3f0366"/>
    <path id="Path_907" data-name="Path 907" d="M160.235,490.845a.308.308,0,0,0,.106-.606A.308.308,0,0,0,160.235,490.845Z" transform="translate(-8.366 -10.678)" fill="#3f0366"/>
    <path id="Path_908" data-name="Path 908" d="M165.332,492.779a.813.813,0,0,0,.28-1.6A.813.813,0,0,0,165.332,492.779Z" transform="translate(-8.606 -10.709)" fill="#3f0366"/>
    <path id="Path_909" data-name="Path 909" d="M170.055,487.6a.8.8,0,0,0-.276,1.579A.8.8,0,0,0,170.055,487.6Z" transform="translate(-8.822 -10.593)" fill="#3f0366"/>
    <path id="Path_910" data-name="Path 910" d="M175.388,478.9a.977.977,0,1,0,.794,1.131A.989.989,0,0,0,175.388,478.9Z" transform="translate(-9.745 -10.312)" fill="#3f0366"/>
    <path id="Path_911" data-name="Path 911" d="M165.872,485.508a.89.89,0,1,0,.723,1.03A.9.9,0,0,0,165.872,485.508Z" transform="translate(-8.616 -10.525)" fill="#3f0366"/>
    <path id="Path_912" data-name="Path 912" d="M162.036,486.953l.166-.014a.83.83,0,0,0,.273-1.565l-.151-.07a.868.868,0,1,0-.288,1.648Z" transform="translate(-8.435 -10.517)" fill="#3f0366"/>
    <path id="Path_913" data-name="Path 913" d="M175.03,488.268a.824.824,0,0,0-.284,1.622A.824.824,0,0,0,175.03,488.268Z" transform="translate(-9.74 -10.614)" fill="#3f0366"/>
    <path id="Path_914" data-name="Path 914" d="M173.563,491.5a.637.637,0,0,0,.219-1.255A.637.637,0,0,0,173.563,491.5Z" transform="translate(-9.706 -10.678)" fill="#3f0366"/>
    <path id="Path_915" data-name="Path 915" d="M8.373,402.169c-.049.72,1.031.914,1.557,1.073a20.118,20.118,0,0,0,3.334.66.692.692,0,0,0,.238-1.362c-1.1-.24-2.255-.284-3.372-.435C9.852,402.067,8.413,401.567,8.373,402.169Z" transform="translate(-0.678 -6.288)" fill="#3f0366"/>
    <path id="Path_916" data-name="Path 916" d="M6.765,404.7a12.289,12.289,0,0,0,4.669,1.369.637.637,0,0,0,.219-1.255,23.8,23.8,0,0,0-4.718-.655A.31.31,0,0,0,6.765,404.7Z" transform="translate(-0.623 -6.398)" fill="#3f0366"/>
    <path id="Path_917" data-name="Path 917" d="M12.763,409.5c1.379.9,3.165,1.016,4.747,1.3a.67.67,0,0,0,.231-1.32c-1.543-.241-3.081-.5-4.62-.749C12.727,408.669,12.378,409.251,12.763,409.5Z" transform="translate(-0.815 -6.621)" fill="#3f0366"/>
    <path id="Path_918" data-name="Path 918" d="M21.528,407.951c-.494-.085-.993-.144-1.485-.238a7.154,7.154,0,0,0-1.379-.21.477.477,0,0,0-.259.831,6.2,6.2,0,0,0,2.889.958A.681.681,0,0,0,21.528,407.951Z" transform="translate(-0.998 -6.559)" fill="#3f0366"/>
    <path id="Path_919" data-name="Path 919" d="M10.108,411.8c.984.445,2.092.552,3.112.913a.682.682,0,0,0,.584-1.232,6.85,6.85,0,0,0-3.553-.494A.432.432,0,0,0,10.108,411.8Z" transform="translate(-0.727 -6.726)" fill="#3f0366"/>
    <path id="Path_920" data-name="Path 920" d="M10.889,408.663a3.954,3.954,0,0,0-2.129-.074.427.427,0,0,0-.126.721,3.953,3.953,0,0,0,2.028.652A.66.66,0,0,0,10.889,408.663Z" transform="translate(-0.682 -6.603)" fill="#3f0366"/>
    <path id="Path_921" data-name="Path 921" d="M15.609,414.556a9.614,9.614,0,0,0-2.44-.164,3.314,3.314,0,0,0-1.868.213.353.353,0,0,0-.085.49,2.6,2.6,0,0,0,1.788.582,19.883,19.883,0,0,0,2.552.251C16.4,415.908,16.3,414.758,15.609,414.556Z" transform="translate(-0.768 -6.889)" fill="#3f0366"/>
    <path id="Path_922" data-name="Path 922" d="M9,416.465a11.34,11.34,0,0,0,2.391.7c.7.154,1.645.58,2.268.1a.506.506,0,0,0,.12-.688c-.425-.671-1.452-.585-2.166-.679a11.244,11.244,0,0,0-2.489-.147A.379.379,0,0,0,9,416.465Z" transform="translate(-0.692 -6.958)" fill="#3f0366"/>
    <path id="Path_923" data-name="Path 923" d="M14.686,420.023a15.771,15.771,0,0,0,2.858.317c1.039.081,2.062.267,3.1.363.761.07,1.283-1.107.441-1.391a15.313,15.313,0,0,0-6.35-.47A.6.6,0,0,0,14.686,420.023Z" transform="translate(-0.867 -7.105)" fill="#3f0366"/>
    <path id="Path_924" data-name="Path 924" d="M21.821,405.029a5.517,5.517,0,0,0-1.773-.332,10.506,10.506,0,0,0-1.761-.081.388.388,0,0,0-.128.731,10.522,10.522,0,0,0,1.684.521,5.513,5.513,0,0,0,1.781.289A.6.6,0,0,0,21.821,405.029Z" transform="translate(-0.988 -6.416)" fill="#3f0366"/>
    <path id="Path_925" data-name="Path 925" d="M12.022,400.979a4.661,4.661,0,0,0,1.389.716c.465.19.942.58,1.464.509a.569.569,0,0,0,.472-.753c-.194-.637-.99-.8-1.562-.933a2.484,2.484,0,0,0-1.75.147A.2.2,0,0,0,12.022,400.979Z" transform="translate(-0.794 -6.215)" fill="#3f0366"/>
    <path id="Path_926" data-name="Path 926" d="M167.676,422.523a3.611,3.611,0,0,0,1.418.254.532.532,0,0,0,.175-1,3.616,3.616,0,0,0-1.42-.243,7.869,7.869,0,0,0-1.4-.056.332.332,0,0,0-.109.626A7.924,7.924,0,0,0,167.676,422.523Z" transform="translate(-8.702 -7.231)" fill="#3f0366"/>
    <path id="Path_927" data-name="Path 927" d="M165.612,424.673a21.228,21.228,0,0,0,3.42.566c.791.089.993-1.155.211-1.212-1.157-.081-2.31-.222-3.468-.285A.473.473,0,0,0,165.612,424.673Z" transform="translate(-8.672 -7.344)" fill="#3f0366"/>
    <path id="Path_928" data-name="Path 928" d="M177.219,423.136c-1.175-.086-2.355.169-3.524.034a.429.429,0,0,0-.148.844,26.5,26.5,0,0,0,3.484.2C177.736,424.3,177.918,423.188,177.219,423.136Z" transform="translate(-9.711 -7.309)" fill="#3f0366"/>
    <path id="Path_929" data-name="Path 929" d="M179.589,422.271a8.426,8.426,0,0,1,2.147.226c.687.187.916-.993.193-1.1a6.133,6.133,0,0,0-2.505.155C178.983,421.662,179.2,422.267,179.589,422.271Z" transform="translate(-9.904 -7.223)" fill="#3f0366"/>
    <path id="Path_930" data-name="Path 930" d="M176.913,425.709a.311.311,0,0,0,.054.591,5.105,5.105,0,0,0,.825.164,3.874,3.874,0,0,0,.883.073.616.616,0,0,0-.118-1.225,4.158,4.158,0,0,0-.848.167A5.474,5.474,0,0,0,176.913,425.709Z" transform="translate(-9.825 -7.417)" fill="#3f0366"/>
    <path id="Path_931" data-name="Path 931" d="M177.153,427.75a7.851,7.851,0,0,0-3.343-.089c-.338.1-.307.7.067.718a16.532,16.532,0,0,1,3.057.626C177.728,429.2,177.972,427.852,177.153,427.75Z" transform="translate(-9.723 -7.527)" fill="#3f0366"/>
    <path id="Path_932" data-name="Path 932" d="M168.892,434.507a.637.637,0,0,0,.219-1.255,6.909,6.909,0,0,0-3.038-.153.277.277,0,0,0-.091.521A6.9,6.9,0,0,0,168.892,434.507Z" transform="translate(-8.691 -7.793)" fill="#3f0366"/>
    <path id="Path_933" data-name="Path 933" d="M169.771,430a7.363,7.363,0,0,1-1.036.209.354.354,0,0,0-.117.667,2.86,2.86,0,0,0,1.266.348.637.637,0,1,0-.112-1.224Z" transform="translate(-8.796 -7.643)" fill="#3f0366"/>
    <path id="Path_934" data-name="Path 934" d="M169.957,439.609a4.861,4.861,0,0,0,1.651.24,1.873,1.873,0,0,0,1.518-.376.632.632,0,0,0-.21-.971,2.436,2.436,0,0,0-1.356.044c-.479.061-.961.067-1.44.125C169.669,438.725,169.475,439.432,169.957,439.609Z" transform="translate(-8.876 -8.055)" fill="#3f0366"/>
    <path id="Path_935" data-name="Path 935" d="M178.974,437.281a4.909,4.909,0,0,0-2.237-.043c-.682.159-.392,1.219.268,1.168a6.8,6.8,0,0,1,1.731.238A.692.692,0,0,0,178.974,437.281Z" transform="translate(-9.813 -7.994)" fill="#3f0366"/>
    <path id="Path_936" data-name="Path 936" d="M178.986,439.4a16.68,16.68,0,0,0-2.119.351.408.408,0,0,0-.031.8,11.213,11.213,0,0,0,2.266.047C179.858,440.629,179.783,439.328,178.986,439.4Z" transform="translate(-9.818 -8.101)" fill="#3f0366"/>
    <path id="Path_937" data-name="Path 937" d="M177.9,442.773c-.565-.437-1.248-.128-1.86.071a15.9,15.9,0,0,0-1.813.7.474.474,0,0,0,.21.913,13.88,13.88,0,0,0,1.727-.354c.526-.119,1.284-.078,1.7-.447A.568.568,0,0,0,177.9,442.773Z" transform="translate(-9.735 -8.262)" fill="#3f0366"/>
    <path id="Path_938" data-name="Path 938" d="M173.215,447.745c1.207.3,2.458-.614,3.651-.743a.656.656,0,1,0-.293-1.274,8.978,8.978,0,0,0-1.837.741,17.73,17.73,0,0,0-1.627.8A.266.266,0,0,0,173.215,447.745Z" transform="translate(-9.705 -8.418)" fill="#3f0366"/>
    <path id="Path_939" data-name="Path 939" d="M168.365,442.974c.312.012.627.023.938.052.282.025.548.11.826.145.668.085,1.2-.813.593-1.267a2.642,2.642,0,0,0-2.582.093A.508.508,0,0,0,168.365,442.974Z" transform="translate(-8.78 -8.212)" fill="#3f0366"/>
    <path id="Path_940" data-name="Path 940" d="M164.1,444.766a.6.6,0,0,0-.208,1.19,8.2,8.2,0,0,0,1.181.3.692.692,0,0,0,.238-1.362A8.292,8.292,0,0,0,164.1,444.766Z" transform="translate(-8.556 -8.364)" fill="#3f0366"/>
    <path id="Path_941" data-name="Path 941" d="M159.3,429.765c.669.135,1.326.4,1.979.6.908.274,1.21-1.388.254-1.45a5.555,5.555,0,0,0-2.309.024A.433.433,0,0,0,159.3,429.765Z" transform="translate(-8.348 -7.591)" fill="#3f0366"/>
    <path id="Path_942" data-name="Path 942" d="M158.08,436.134a3.161,3.161,0,0,0,1.634.394.854.854,0,0,0,.281-1.606,3.154,3.154,0,0,0-1.671-.185A.741.741,0,0,0,158.08,436.134Z" transform="translate(-8.281 -7.881)" fill="#3f0366"/>
    <path id="Path_943" data-name="Path 943" d="M21.42,415.409a4.461,4.461,0,0,0,1.868.412.709.709,0,0,0,.233-1.335,4.449,4.449,0,0,0-1.9-.246A.62.62,0,0,0,21.42,415.409Z" transform="translate(-1.089 -6.884)" fill="#3f0366"/>
    <path id="Path_944" data-name="Path 944" d="M25.038,403.756a.692.692,0,1,0,.23-1.315,11.152,11.152,0,0,0-1.192.079.4.4,0,0,0-.132.757A10.874,10.874,0,0,0,25.038,403.756Z" transform="translate(-1.175 -6.309)" fill="#3f0366"/>
    <path id="Path_945" data-name="Path 945" d="M14.553,399.556a.878.878,0,1,0-.138-1.751.878.878,0,0,0,.138,1.751Z" transform="translate(-0.848 -6.087)" fill="#3f0366"/>
    <path id="Path_946" data-name="Path 946" d="M100.224,415.8a.928.928,0,0,0-.908-.569c-1.106-.018-2.215-.488-3.325-.31a.607.607,0,0,0-.2,1.142c.983.544,2.186.479,3.233.836a.929.929,0,0,0,1.046-.226l.071-.072a.7.7,0,0,0,.124-.71Z" transform="translate(-5.273 -6.92)" fill="#3f0366"/>
    <path id="Path_947" data-name="Path 947" d="M103.977,416.692a4.466,4.466,0,0,0-.875-.07,2.674,2.674,0,0,0-.883.04.475.475,0,0,0-.14.8,2.647,2.647,0,0,0,.817.338,4.478,4.478,0,0,0,.847.23A.681.681,0,0,0,103.977,416.692Z" transform="translate(-5.568 -6.997)" fill="#3f0366"/>
    <path id="Path_948" data-name="Path 948" d="M104.138,419.273l-1.307-.014a.453.453,0,0,0-.149.855l1.234.431a.67.67,0,1,0,.223-1.272Z" transform="translate(-5.592 -7.125)" fill="#3f0366"/>
    <path id="Path_949" data-name="Path 949" d="M106.6,422.034c.945.552,2.3.433,3.345.672.81.185,1.051-1.144.223-1.276a13.621,13.621,0,0,0-1.731-.146,16.023,16.023,0,0,0-1.694-.063A.432.432,0,0,0,106.6,422.034Z" transform="translate(-5.8 -7.221)" fill="#3f0366"/>
    <path id="Path_950" data-name="Path 950" d="M108.7,419.886a5.649,5.649,0,0,0,1.22.461.681.681,0,1,0,.225-1.294,5.705,5.705,0,0,0-1.3.019A.433.433,0,0,0,108.7,419.886Z" transform="translate(-5.885 -7.114)" fill="#3f0366"/>
    <path id="Path_951" data-name="Path 951" d="M107.376,416.033a.562.562,0,0,0,.017.121.47.47,0,0,0,.008.051c0,.006.007.009.009.014a.412.412,0,0,0,.079.127.4.4,0,0,0,.045.053c.008.007.012.017.02.024.027.018.056.029.084.046a.523.523,0,0,0,.051.028,4.513,4.513,0,0,0,.658.3.714.714,0,1,0,.236-1.356,4.619,4.619,0,0,0-.725.062c-.015,0-.028.006-.043.007-.035.008-.071.008-.105.017-.013,0-.02.014-.032.017s-.036.02-.054.031a.447.447,0,0,0-.119.094s-.01.006-.014.011a.5.5,0,0,0-.024.045.5.5,0,0,0-.057.107.541.541,0,0,0-.022.1A.609.609,0,0,0,107.376,416.033Z" transform="translate(-5.828 -6.94)" fill="#3f0366"/>
    <path id="Path_952" data-name="Path 952" d="M94.574,418.943c.312.132.642.239.954.369a1.063,1.063,0,0,0,.258.212l.214.12a.846.846,0,1,0,.281-1.606l-.241.04a1.034,1.034,0,0,0-.315.111c-.339.016-.685,0-1.023.024A.388.388,0,0,0,94.574,418.943Z" transform="translate(-5.203 -7.069)" fill="#3f0366"/>
    <path id="Path_953" data-name="Path 953" d="M90.3,411.916c-.584-.015-1.158-.033-1.741.008a.421.421,0,0,0-.138.793c.534.235,1.081.414,1.635.6a.736.736,0,1,0,.244-1.4Z" transform="translate(-4.903 -6.769)" fill="#3f0366"/>
    <path id="Path_954" data-name="Path 954" d="M81.961,417.007a.787.787,0,0,1,.368.186.7.7,0,0,0,.924-.022.7.7,0,0,0,.105-.918,1.37,1.37,0,0,0-1.349-.507A.64.64,0,0,0,81.961,417.007Z" transform="translate(-4.569 -6.956)" fill="#3f0366"/>
    <path id="Path_955" data-name="Path 955" d="M89.343,419.734a.659.659,0,0,0,.226-1.3A.659.659,0,0,0,89.343,419.734Z" transform="translate(-4.921 -7.084)" fill="#3f0366"/>
    <path id="Path_956" data-name="Path 956" d="M88.533,415.717l-2.038-.066a.42.42,0,0,0-.138.793l1.939.63A.707.707,0,1,0,88.533,415.717Z" transform="translate(-4.804 -6.951)" fill="#3f0366"/>
    <path id="Path_957" data-name="Path 957" d="M93.044,421.27c.426.152.848.272,1.287.381a2.039,2.039,0,0,0,1.312.093.545.545,0,0,0,.16-.915,2.042,2.042,0,0,0-1.267-.356,13.167,13.167,0,0,0-1.339-.078A.464.464,0,0,0,93.044,421.27Z" transform="translate(-5.129 -7.181)" fill="#3f0366"/>
    <path id="Path_958" data-name="Path 958" d="M100.436,422.267a16.8,16.8,0,0,1-2.395-.089.451.451,0,0,0-.155.887,10.032,10.032,0,0,0,2.675.493C101.375,423.576,101.287,422.194,100.436,422.267Z" transform="translate(-5.363 -7.267)" fill="#3f0366"/>
    <path id="Path_959" data-name="Path 959" d="M99.028,424.951c-1.045-.087-2.088-.088-3.135-.113-.513-.012-.437.7-.032.827.963.294,1.951.416,2.932.628C99.66,426.48,99.9,425.024,99.028,424.951Z" transform="translate(-5.269 -7.397)" fill="#3f0366"/>
    <path id="Path_960" data-name="Path 960" d="M102.4,427.3a6.182,6.182,0,0,1-1.807.057c-.461-.066-.721.619-.256.809a7.072,7.072,0,0,0,2.012.461C103.355,428.727,103.335,427.161,102.4,427.3Z" transform="translate(-5.483 -7.515)" fill="#3f0366"/>
    <path id="Path_961" data-name="Path 961" d="M103.933,425.425a8.97,8.97,0,0,0,1.162.392c.385.12.722.348,1.114.433a.775.775,0,0,0,.629-1.344,3.821,3.821,0,0,0-2.734-.462A.521.521,0,0,0,103.933,425.425Z" transform="translate(-5.66 -7.38)" fill="#3f0366"/>
    <path id="Path_962" data-name="Path 962" d="M115.974,418.081a11.477,11.477,0,0,0-1.206-.13,3.213,3.213,0,0,0-1.167.042.508.508,0,0,0-.15.859,3.2,3.2,0,0,0,1.084.435,11.405,11.405,0,0,0,1.178.286A.758.758,0,0,0,115.974,418.081Z" transform="translate(-6.127 -7.063)" fill="#3f0366"/>
    <path id="Path_963" data-name="Path 963" d="M116.077,414.715c-.863-.04-1.71.012-2.573-.074a.472.472,0,0,0-.163.93c.827.182,1.664.361,2.5.507C116.738,416.237,116.945,414.755,116.077,414.715Z" transform="translate(-6.115 -6.902)" fill="#3f0366"/>
    <path id="Path_964" data-name="Path 964" d="M121.252,414.847a.748.748,0,0,0,.838-.589.733.733,0,0,0-.588-.838,13.5,13.5,0,0,0-2.358-.291.476.476,0,0,0-.158.9A7.3,7.3,0,0,0,121.252,414.847Z" transform="translate(-6.393 -6.831)" fill="#3f0366"/>
    <path id="Path_965" data-name="Path 965" d="M87.075,408.391c-.566.025-1.138.044-1.7.09a.476.476,0,0,0-.157.9,4.37,4.37,0,0,0,1.521.436,2.854,2.854,0,0,0,1.6.1.7.7,0,0,0,.325-1.046A1.747,1.747,0,0,0,87.075,408.391Z" transform="translate(-4.753 -6.6)" fill="#3f0366"/>
    <path id="Path_966" data-name="Path 966" d="M81.341,405.341a3.688,3.688,0,0,0-3.048-.283c-.512.134-.366.88.089.972a10.15,10.15,0,0,1,2.11.63C81.275,407,82.115,405.861,81.341,405.341Z" transform="translate(-4.411 -6.431)" fill="#3f0366"/>
    <path id="Path_967" data-name="Path 967" d="M82.342,409.005a6.435,6.435,0,0,0-1.33-.076,4.888,4.888,0,0,0-1.242.123.554.554,0,0,0-.163.935c.663.525,1.673.384,2.454.62C83.041,410.9,83.4,409.193,82.342,409.005Z" transform="translate(-4.481 -6.627)" fill="#3f0366"/>
    <path id="Path_968" data-name="Path 968" d="M79.838,413.916a.429.429,0,0,0,.147-.844A.429.429,0,0,0,79.838,413.916Z" transform="translate(-4.466 -6.819)" fill="#3f0366"/>
    <path id="Path_969" data-name="Path 969" d="M86.054,420.617a.565.565,0,0,0-.186,1.063,4.587,4.587,0,0,0,1.29.447.758.758,0,0,0,.261-1.493A4.547,4.547,0,0,0,86.054,420.617Z" transform="translate(-4.772 -7.191)" fill="#3f0366"/>
    <path id="Path_970" data-name="Path 970" d="M89.814,425.15a.593.593,0,0,0-.205,1.168c.53.163,1.054.327,1.6.446a.758.758,0,0,0,.261-1.493C90.916,425.2,90.368,425.176,89.814,425.15Z" transform="translate(-4.949 -7.414)" fill="#3f0366"/>
    <path id="Path_971" data-name="Path 971" d="M96.315,427.275a.731.731,0,0,0-.24,1.377,5.277,5.277,0,0,0,1.353.341.8.8,0,0,0,.276-1.579A5.306,5.306,0,0,0,96.315,427.275Z" transform="translate(-5.265 -7.518)" fill="#3f0366"/>
    <path id="Path_972" data-name="Path 972" d="M105.785,429.627a4.042,4.042,0,0,0-2.268.087.543.543,0,0,0,.095,1.034c.623.167,1.271.289,1.9.436C106.5,431.416,106.793,429.807,105.785,429.627Z" transform="translate(-5.635 -7.626)" fill="#3f0366"/>
    <path id="Path_973" data-name="Path 973" d="M109.689,428.369a7.655,7.655,0,0,0,1.289.469.791.791,0,0,0,.272-1.558,7.817,7.817,0,0,0-1.371,0A.576.576,0,0,0,109.689,428.369Z" transform="translate(-5.93 -7.516)" fill="#3f0366"/>
    <path id="Path_974" data-name="Path 974" d="M111.154,425.346a8.422,8.422,0,0,0,3.115.965c.882.028,1.022-1.322.288-1.648a7.2,7.2,0,0,0-3.207-.443A.6.6,0,0,0,111.154,425.346Z" transform="translate(-6.016 -7.373)" fill="#3f0366"/>
    <path id="Path_975" data-name="Path 975" d="M116.17,423.782a9.155,9.155,0,0,0,3.674.793.664.664,0,0,0,.219-1.252,9.13,9.13,0,0,0-3.725-.5A.509.509,0,0,0,116.17,423.782Z" transform="translate(-6.266 -7.302)" fill="#3f0366"/>
    <path id="Path_976" data-name="Path 976" d="M19.179,381.485c-1.358-2.863-.541-6.3-.083-9.3a.143.143,0,0,0-.282-.049c-.6,3.059-1.581,6.581-.232,9.571C18.751,382.081,19.355,381.855,19.179,381.485Z" transform="translate(-0.987 -4.898)" fill="#3f0366"/>
    <path id="Path_977" data-name="Path 977" d="M169.9,389.929c-.98,4.323-2.26,8.645-2.819,13.05a.373.373,0,0,0,.735.128c.805-4.367,1.779-8.725,2.386-13.125A.154.154,0,0,0,169.9,389.929Z" transform="translate(-8.743 -5.809)" fill="#3f0366"/>
    <path id="Path_978" data-name="Path 978" d="M172.217,391.09a42.685,42.685,0,0,0-1.714,6.647c-.537,2.49-1.51,4.913-1.845,7.436a.362.362,0,0,0,.713.125c1.357-4.594,1.691-9.516,3.243-14.02C172.7,391.015,172.32,390.823,172.217,391.09Z" transform="translate(-8.831 -5.876)" fill="#3f0366"/>
    <path id="Path_979" data-name="Path 979" d="M186.9,403.295a.4.4,0,0,0-.779-.135,16.9,16.9,0,0,0-.579,4.109c.031.549.892.469.853-.082A16.069,16.069,0,0,1,186.9,403.295Z" transform="translate(-10.11 -6.362)" fill="#3f0366"/>
  </g>
  </g>
</svg>
