<svg id="vector" xmlns="http://www.w3.org/2000/svg" width="100" height="100" viewBox="0 0 100 100">
  <g id="Group_4283" data-name="Group 4283">
    <g id="Group_4282" data-name="Group 4282">
      <path id="Path_992" data-name="Path 992" d="M97.07,0H85.156a2.894,2.894,0,0,0-2.93,2.86v2.86H58.249a8.808,8.808,0,0,0-16.5,0H17.773V2.86A2.894,2.894,0,0,0,14.844,0H2.93A2.894,2.894,0,0,0,0,2.86V14.3a2.894,2.894,0,0,0,2.93,2.86H14.844a2.894,2.894,0,0,0,2.93-2.86V11.4H29.805A37.176,37.176,0,0,0,12.133,40.7a8.589,8.589,0,0,0-6.078,8.121A8.7,8.7,0,0,0,14.844,57.4a8.7,8.7,0,0,0,8.789-8.581,8.586,8.586,0,0,0-5.652-7.992A31.6,31.6,0,0,1,42.221,12.491a8.812,8.812,0,0,0,15.557,0A31.6,31.6,0,0,1,82.02,40.827a8.586,8.586,0,0,0-5.652,7.992,8.792,8.792,0,0,0,17.578,0A8.589,8.589,0,0,0,87.867,40.7,37.108,37.108,0,0,0,70.195,11.442H82.227V14.3a2.894,2.894,0,0,0,2.93,2.86H97.07A2.894,2.894,0,0,0,100,14.3V2.86A2.894,2.894,0,0,0,97.07,0Z" fill="#eba40c"/>
    </g>
  </g>
  <g id="Group_4285" data-name="Group 4285" transform="translate(30.414 88.367)">
    <g id="Group_4284" data-name="Group 4284">
      <path id="Path_993" data-name="Path 993" d="M192.341,459.085A11.633,11.633,0,0,0,181.461,451H164.3a11.633,11.633,0,0,0-10.879,8.085,2.818,2.818,0,0,0,2.782,3.548h33.357A2.818,2.818,0,0,0,192.341,459.085Z" transform="translate(-153.294 -451)" fill="#3f0366"/>
    </g>
  </g>
  <g id="Group_4287" data-name="Group 4287" transform="translate(24.256 26.508)">
    <g id="Group_4286" data-name="Group 4286">
      <path id="Path_994" data-name="Path 994" d="M172.008,165.064l-22.4-33.605V158.6a8.582,8.582,0,1,1-5.721,0V131.459l-22.4,33.605a2.86,2.86,0,0,0,.358,3.609,36.121,36.121,0,0,1,9.9,19.273,17.034,17.034,0,0,1,6.421-1.272h17.163a17.037,17.037,0,0,1,6.421,1.272,36.118,36.118,0,0,1,9.9-19.273A2.86,2.86,0,0,0,172.008,165.064Z" transform="translate(-121 -131.459)" fill="#3f0366"/>
    </g>
  </g>
  <g id="Group_4289" data-name="Group 4289" transform="translate(47.14 58.875)">
    <g id="Group_4288" data-name="Group 4288">
      <path id="Path_995" data-name="Path 995" d="M243.86,301a2.86,2.86,0,1,0,2.86,2.861A2.863,2.863,0,0,0,243.86,301Z" transform="translate(-241 -301)" fill="#3f0366"/>
    </g>
  </g>
</svg>
