<svg xmlns="http://www.w3.org/2000/svg" width="100" height="100" viewBox="0 0 100 100">
  <g id="project" transform="translate(0 0)">
    <path id="Path_1017" data-name="Path 1017" d="M213.574,222.1a11.277,11.277,0,0,0-1.684,2.154l-5.3,8.807-3.932,3.932a2.812,2.812,0,0,0,.1,4.071,2.864,2.864,0,0,0,3.935-.15l3.875-3.875,8.808-5.3a11.265,11.265,0,0,0,2.153-1.683l3-3-7.954-7.953Zm0,0" transform="translate(-161.924 -175.773)" fill="#3f0366"/>
    <path id="Path_1018" data-name="Path 1018" d="M451.5,39.6a5.624,5.624,0,0,0-7.954-7.953l-3.976,3.976,7.953,7.953Zm0,0" transform="translate(-353.152 -24.376)" fill="#3f0366"/>
    <path id="Path_1019" data-name="Path 1019" d="M301.684,103.087l21.872-21.872,7.953,7.953-21.872,21.872Zm0,0" transform="translate(-241.112 -65.065)" fill="#3f0366"/>
    <path id="Path_1020" data-name="Path 1020" d="M24.2,24.013V8.789L8.789,24.013Zm0,0" transform="translate(-7.142 -7.141)" fill="#eba40c"/>
    <path id="Path_1021" data-name="Path 1021" d="M12.007,100A11.973,11.973,0,0,0,23.921,88.1V79.492a2.947,2.947,0,0,1,2.964-2.93H77.5V45.868L64.863,58.351s-2.572,2.135-3.4,2.627L52.79,66.135l-3.633,3.589a8.883,8.883,0,0,1-11.854.589h-22.2a3,3,0,0,1-3.045-2.791,2.944,2.944,0,0,1,2.962-3.069h19.04A7.753,7.753,0,0,1,35.5,58.594H15.107A3,3,0,0,1,12.062,55.8a2.944,2.944,0,0,1,2.962-3.069H40.8l3.569-5.859H15.107a3,3,0,0,1-3.045-2.791,2.944,2.944,0,0,1,2.962-3.069H48.862l5.931-5.859H15.107a3,3,0,0,1-3.045-2.791A2.944,2.944,0,0,1,15.025,29.3h45.7l5.931-5.859H32.9a3,3,0,0,1-3.045-2.791,2.944,2.944,0,0,1,2.962-3.069H72.586L77.5,12.726V2.93A2.948,2.948,0,0,0,74.532,0H23.921V20.508a2.948,2.948,0,0,1-2.965,2.93H0V88.281A11.962,11.962,0,0,0,12.007,100Zm0,0" transform="translate(0 0)" fill="#3f0366"/>
    <path id="Path_1022" data-name="Path 1022" d="M131.982,422v5.624a16.744,16.744,0,0,1-4.388,11.248h52.379a8.436,8.436,0,0,0,8.436-8.436v-5.624A2.812,2.812,0,0,0,185.6,422Zm0,0" transform="translate(-99.658 -338.872)" fill="#eba40c"/>
  </g>
</svg>
