<svg id="idea" xmlns="http://www.w3.org/2000/svg" width="100" height="100" viewBox="0 0 100 100">
  <g id="Group_4247" data-name="Group 4247" transform="translate(13.786 13.786)">
    <g id="Group_4246" data-name="Group 4246">
      <path id="Path_980" data-name="Path 980" d="M84.451,80.35l-8.2-8.2a2.9,2.9,0,0,0-4.1,4.1l8.2,8.2a2.9,2.9,0,0,0,4.1-4.1Z" transform="translate(-71.298 -71.298)" fill="#eba40c"/>
    </g>
  </g>
  <g id="Group_4249" data-name="Group 4249" transform="translate(0 47.1)">
    <g id="Group_4248" data-name="Group 4248">
      <path id="Path_981" data-name="Path 981" d="M14.7,241H2.9a2.9,2.9,0,0,0,0,5.8H14.7a2.9,2.9,0,0,0,0-5.8Z" transform="translate(0 -241)" fill="#eba40c"/>
    </g>
  </g>
  <g id="Group_4251" data-name="Group 4251" transform="translate(82.404 47.1)">
    <g id="Group_4250" data-name="Group 4250">
      <path id="Path_982" data-name="Path 982" d="M435.7,241H423.9a2.9,2.9,0,0,0,0,5.8H435.7a2.9,2.9,0,0,0,0-5.8Z" transform="translate(-421 -241)" fill="#eba40c"/>
    </g>
  </g>
  <g id="Group_4253" data-name="Group 4253" transform="translate(72.211 13.786)">
    <g id="Group_4252" data-name="Group 4252">
      <path id="Path_983" data-name="Path 983" d="M381.434,72.147a2.9,2.9,0,0,0-4.1,0l-8.2,8.2a2.9,2.9,0,0,0,4.1,4.1l8.2-8.2A2.9,2.9,0,0,0,381.434,72.147Z" transform="translate(-368.281 -71.298)" fill="#eba40c"/>
    </g>
  </g>
  <g id="Group_4255" data-name="Group 4255" transform="translate(47.1)">
    <g id="Group_4254" data-name="Group 4254">
      <path id="Path_984" data-name="Path 984" d="M243.9,0A2.9,2.9,0,0,0,241,2.9V14.7a2.9,2.9,0,0,0,5.8,0V2.9A2.9,2.9,0,0,0,243.9,0Z" transform="translate(-241)" fill="#eba40c"/>
    </g>
  </g>
  <g id="Group_4257" data-name="Group 4257" transform="translate(23.911 23.975)">
    <g id="Group_4256" data-name="Group 4256">
      <path id="Path_985" data-name="Path 985" d="M163.4,126.646a26.219,26.219,0,0,0-22.507-4.872A25.716,25.716,0,0,0,121.87,140.51a26.24,26.24,0,0,0,7.019,25.233,14.252,14.252,0,0,1,3.771,9.939v.638a2.872,2.872,0,0,0,2.9,2.9h23.2a2.872,2.872,0,0,0,2.9-2.9v-.638a14.4,14.4,0,0,1,4-10.113,26.19,26.19,0,0,0-2.262-38.923Zm-16.242,11.776a8.482,8.482,0,0,0-8.4,6.263,2.9,2.9,0,1,1-5.631-1.394,14.322,14.322,0,0,1,14.026-10.67,2.9,2.9,0,0,1,0,5.8Z" transform="translate(-121.072 -121.024)" fill="#3f0366"/>
    </g>
  </g>
  <g id="Group_4259" data-name="Group 4259" transform="translate(38.398 88.398)">
    <g id="Group_4258" data-name="Group 4258">
      <path id="Path_986" data-name="Path 986" d="M196,452v2.9a8.711,8.711,0,0,0,8.7,8.7h5.8a8.711,8.711,0,0,0,8.7-8.7V452Z" transform="translate(-196 -452)" fill="#eba40c"/>
    </g>
  </g>
</svg>
