<svg xmlns="http://www.w3.org/2000/svg" width="67.248" height="100" viewBox="0 0 67.248 100">
  <g id="menu" transform="translate(-84.015)">
    <path id="Path_996" data-name="Path 996" d="M148.684,12.676h42.947V3.9a3.891,3.891,0,0,0-5.12-3.7Z" transform="translate(-52.064)" fill="#eba40c"/>
    <path id="Path_997" data-name="Path 997" d="M147.364,95.029H87.913a3.9,3.9,0,0,0-3.9,3.9v73.68a3.9,3.9,0,0,0,3.9,3.9h59.451a3.9,3.9,0,0,0,3.9-3.9V98.927A3.9,3.9,0,0,0,147.364,95.029ZM98.147,130.178h.847a18.917,18.917,0,0,1,15.721-15.721v-1.465a2.924,2.924,0,1,1,5.848,0v1.465a18.917,18.917,0,0,1,15.721,15.721h.847a2.924,2.924,0,1,1,0,5.848H98.147a2.924,2.924,0,0,1,0-5.848Zm18.092,16.67a2.924,2.924,0,0,1-2.924,2.924H99.281a2.924,2.924,0,1,1,0-5.848h14.034A2.924,2.924,0,0,1,116.239,146.848ZM136.4,161.467H98.878a2.924,2.924,0,0,1,0-5.848H136.4a2.924,2.924,0,0,1,0,5.848Z" transform="translate(0 -76.506)" fill="#3f0366"/>
    <path id="Path_998" data-name="Path 998" d="M216.781,233.635a13.026,13.026,0,0,0-25.387,0Z" transform="translate(-86.449 -179.963)" fill="#3f0366"/>
  </g>
</svg>
