<svg id="Iconly_Bulk_Calling" data-name="Iconly/Bulk/Calling" xmlns="http://www.w3.org/2000/svg" width="20" height="20" viewBox="0 0 20 20">
  <g id="Calling" transform="translate(0 0)">
    <path id="Fill_1" data-name="Fill 1" d="M4.116.015A.861.861,0,0,1,4.443,1.7,3.462,3.462,0,0,0,1.7,4.455h0a.859.859,0,0,1-.841.7.933.933,0,0,1-.165-.015A.865.865,0,0,1,.016,4.125a5.174,5.174,0,0,1,4.1-4.11" transform="translate(3.466 3.475)" fill="#eba40c" opacity="0.4"/>
    <path id="Fill_3" data-name="Fill 3" d="M7.644.008A.817.817,0,0,1,8.27.184a.863.863,0,0,1-.434,1.534A6.912,6.912,0,0,0,1.71,7.857a.857.857,0,0,1-.851.764.8.8,0,0,1-.1-.006A.847.847,0,0,1,.187,8.3a.856.856,0,0,1-.181-.633A8.616,8.616,0,0,1,7.644.008" transform="translate(0 0)" fill="#eba40c" opacity="0.4"/>
    <path id="Fill_6" data-name="Fill 6" d="M3.7,11.9a2.211,2.211,0,0,1,1.615.424c.465.27,1.35.984,1.856.8A11.493,11.493,0,0,0,13.263,7.2c.186-.517-.528-1.4-.8-1.871a2.235,2.235,0,0,1-.422-1.62A13.176,13.176,0,0,1,14.294.592,1.858,1.858,0,0,1,15.422,0c1.449-.061,3.067,1.865,3.351,2.325.712.982.707,2.289-.012,3.874-1.733,4.257-8.287,10.682-12.577,12.472a5.2,5.2,0,0,1-2.166.554,2.825,2.825,0,0,1-1.69-.528C1.961,18.489-.053,16.8,0,15.315a1.856,1.856,0,0,1,.586-1.121A13.372,13.372,0,0,1,3.7,11.9" transform="translate(0.696 0.773)" fill="#eba40c"/>
  </g>
</svg>
