<svg width="430" height="350" viewBox="0 0 430 350" fill="none" xmlns="http://www.w3.org/2000/svg">
<style>
    #man_1 , #man_2 , #man_3 {
        transform-origin: center;
        transform-box: fill-box;
    }
    #man_1 , #man_2 {
        animation: translateY 4s linear infinite reverse;
    }
    #man_3{
        animation: translateX 4s linear infinite reverse;
    }
    @keyframes translateY {
        0%,
        100% {
            transform: translateY(0px);
        }

        50% {
            transform: translateY(-10px);
        }
    }

    @keyframes translateX {
        0%,
        100% {
            transform: translateX(0px);
        }

        50% {
            transform: translateX(-10px);
        }
    }
</style>
<g id="undraw_team_spirit_re_yl1v">
<g id="man_3">
<path id="Path 523" d="M90.791 284.683C89.03 283.208 87.8507 281.154 87.4638 278.889C87.077 276.625 87.5077 274.296 88.679 272.32C88.917 271.92 89.549 272.273 89.31 272.672C88.2149 274.511 87.8135 276.681 88.1782 278.79C88.543 280.899 89.6499 282.808 91.299 284.172C91.656 284.47 91.151 284.978 90.791 284.683Z" fill="white"/>
<path id="Path 524" d="M84.838 303.728C89.52 303.357 93.8902 301.235 97.077 297.785C97.392 297.443 97.907 297.95 97.592 298.292C94.2691 301.876 89.717 304.075 84.844 304.451C84.38 304.487 84.377 303.764 84.839 303.728H84.838Z" fill="white"/>
<path id="Path 525" d="M105.943 270.022C106.506 270.735 107.236 271.297 108.07 271.657C108.903 272.018 109.813 272.166 110.718 272.088C111.182 272.047 111.184 272.769 110.723 272.81C109.723 272.891 108.718 272.727 107.797 272.33C106.875 271.934 106.065 271.318 105.436 270.536C105.371 270.467 105.335 270.375 105.335 270.28C105.335 270.186 105.371 270.094 105.436 270.025C105.504 269.958 105.596 269.92 105.692 269.92C105.787 269.92 105.879 269.958 105.947 270.025L105.943 270.022Z" fill="white"/>
<path id="Path 531" d="M145.992 181.311C146.591 180.715 147.052 179.996 147.342 179.202C147.632 178.409 147.745 177.562 147.673 176.721C147.601 175.879 147.345 175.064 146.923 174.332C146.502 173.6 145.925 172.97 145.233 172.485L154.664 126.843L144.489 130.053L136.902 174.208C136.168 175.424 135.905 176.866 136.163 178.263C136.421 179.659 137.181 180.913 138.3 181.787C139.419 182.661 140.82 183.095 142.237 183.007C143.654 182.919 144.99 182.314 145.992 181.308V181.311Z" fill="#FFB6B6"/>
<path id="Path 532" d="M167.803 59.173L161.503 54.415C161.503 54.415 155.943 54.021 154.958 64.048C153.973 74.075 147.808 112.557 147.808 112.557L138.162 157.226L151.512 160.156L161.842 111.951L172.182 78.694L167.803 59.173Z" fill="#EBA40C"/>
<path id="Path 533" d="M163.004 141.875L132.771 118.367C132.299 118.001 131.992 117.462 131.917 116.87C131.842 116.277 132.005 115.679 132.371 115.207L152.941 88.752C153.307 88.2803 153.846 87.9732 154.438 87.8982C155.031 87.8232 155.629 87.9864 156.101 88.352L186.341 111.865C186.813 112.231 187.12 112.77 187.195 113.362C187.27 113.955 187.107 114.553 186.741 115.025L166.171 141.48C165.989 141.714 165.763 141.91 165.505 142.057C165.248 142.203 164.964 142.298 164.67 142.335C164.375 142.371 164.077 142.35 163.791 142.271C163.505 142.192 163.238 142.057 163.004 141.875Z" fill="#3F3D56"/>
<path id="Path 534" d="M162.839 139.444L135.171 117.931C134.963 117.77 134.79 117.569 134.66 117.34C134.53 117.112 134.447 116.86 134.414 116.599C134.382 116.338 134.401 116.073 134.471 115.82C134.541 115.566 134.66 115.329 134.822 115.122L153.47 91.14C153.796 90.7215 154.274 90.4494 154.8 90.3835C155.327 90.3177 155.857 90.4635 156.276 90.789L183.944 112.302C184.363 112.628 184.635 113.106 184.7 113.632C184.766 114.159 184.62 114.689 184.295 115.108L165.647 139.091C165.321 139.51 164.843 139.782 164.317 139.847C163.791 139.913 163.26 139.767 162.841 139.442L162.839 139.444Z" fill="white"/>
<path id="Path 535" d="M138.781 117.327C138.677 117.246 138.609 117.126 138.592 116.995C138.576 116.864 138.612 116.732 138.693 116.627L148.1 104.527C148.14 104.474 148.19 104.429 148.247 104.395C148.304 104.361 148.368 104.339 148.434 104.33C148.5 104.321 148.567 104.325 148.631 104.343C148.696 104.36 148.756 104.39 148.808 104.431C148.861 104.472 148.905 104.523 148.937 104.581C148.97 104.639 148.991 104.703 148.998 104.769C149.006 104.835 149 104.902 148.981 104.966C148.962 105.03 148.931 105.089 148.889 105.141L139.482 117.241C139.401 117.345 139.281 117.413 139.15 117.43C139.019 117.446 138.887 117.41 138.782 117.329L138.781 117.327Z" fill="#E4E4E4"/>
<path id="Path 536" d="M140.343 118.541C140.239 118.46 140.171 118.34 140.155 118.209C140.138 118.078 140.174 117.946 140.255 117.841L149.662 105.741C149.702 105.688 149.752 105.643 149.809 105.609C149.866 105.575 149.93 105.553 149.996 105.544C150.062 105.535 150.129 105.539 150.193 105.557C150.258 105.574 150.318 105.604 150.37 105.645C150.423 105.686 150.467 105.737 150.499 105.795C150.532 105.853 150.553 105.917 150.56 105.983C150.568 106.049 150.562 106.116 150.543 106.18C150.524 106.244 150.493 106.303 150.451 106.355L141.044 118.455C140.963 118.559 140.843 118.627 140.712 118.644C140.581 118.66 140.449 118.624 140.344 118.543L140.343 118.541Z" fill="#E4E4E4"/>
<path id="Path 537" d="M147.242 112.898C147.138 112.817 147.07 112.697 147.054 112.566C147.037 112.435 147.073 112.303 147.154 112.198L151.232 106.954C151.272 106.901 151.322 106.856 151.379 106.822C151.436 106.788 151.5 106.766 151.566 106.757C151.632 106.748 151.699 106.752 151.763 106.77C151.828 106.787 151.888 106.817 151.94 106.858C151.993 106.899 152.037 106.95 152.069 107.008C152.102 107.066 152.123 107.13 152.13 107.196C152.138 107.262 152.132 107.329 152.113 107.393C152.094 107.457 152.063 107.516 152.021 107.568L147.943 112.812C147.861 112.916 147.742 112.984 147.61 113C147.479 113.016 147.346 112.979 147.242 112.898V112.898Z" fill="#E4E4E4"/>
<path id="Path 538" d="M149.357 123.194C149.253 123.113 149.185 122.993 149.169 122.862C149.152 122.731 149.188 122.599 149.269 122.494L164.12 103.394C164.203 103.293 164.321 103.228 164.451 103.213C164.581 103.198 164.712 103.235 164.815 103.315C164.918 103.395 164.986 103.513 165.003 103.642C165.021 103.772 164.987 103.903 164.909 104.008L150.058 123.108C149.976 123.212 149.857 123.28 149.725 123.296C149.594 123.312 149.461 123.275 149.357 123.194V123.194Z" fill="#E4E4E4"/>
<path id="Path 539" d="M150.917 124.406C150.813 124.325 150.745 124.205 150.728 124.074C150.712 123.943 150.748 123.811 150.829 123.706L165.68 104.606C165.72 104.553 165.77 104.508 165.827 104.474C165.884 104.44 165.948 104.418 166.014 104.409C166.08 104.4 166.147 104.404 166.211 104.422C166.276 104.439 166.336 104.469 166.388 104.51C166.441 104.551 166.485 104.602 166.517 104.66C166.55 104.718 166.571 104.782 166.578 104.848C166.586 104.914 166.58 104.981 166.561 105.045C166.542 105.109 166.511 105.168 166.469 105.22L151.618 124.32C151.537 124.424 151.417 124.492 151.286 124.509C151.155 124.525 151.023 124.489 150.918 124.408L150.917 124.406Z" fill="#E4E4E4"/>
<path id="Path 540" d="M154.463 127.163C154.359 127.082 154.291 126.962 154.275 126.831C154.258 126.7 154.294 126.568 154.375 126.463L169.226 107.363C169.309 107.262 169.427 107.197 169.557 107.182C169.687 107.167 169.818 107.204 169.921 107.284C170.024 107.364 170.092 107.482 170.109 107.611C170.127 107.741 170.093 107.872 170.015 107.977L155.164 127.077C155.083 127.181 154.963 127.249 154.832 127.265C154.701 127.282 154.569 127.246 154.464 127.165L154.463 127.163Z" fill="#E4E4E4"/>
<path id="Path 541" d="M156.025 128.378C155.921 128.297 155.853 128.177 155.836 128.046C155.82 127.915 155.856 127.783 155.937 127.678L170.788 108.578C170.828 108.525 170.878 108.48 170.935 108.446C170.992 108.412 171.056 108.39 171.122 108.381C171.188 108.372 171.255 108.376 171.319 108.394C171.384 108.411 171.444 108.441 171.496 108.482C171.549 108.523 171.593 108.574 171.625 108.632C171.658 108.69 171.679 108.754 171.686 108.82C171.694 108.886 171.688 108.953 171.669 109.017C171.65 109.081 171.619 109.14 171.577 109.192L156.726 128.292C156.644 128.396 156.525 128.464 156.393 128.48C156.262 128.496 156.129 128.459 156.025 128.378V128.378Z" fill="#E4E4E4"/>
<path id="Path 542" d="M159.572 131.135C159.468 131.054 159.4 130.934 159.384 130.803C159.367 130.672 159.403 130.54 159.484 130.435L174.335 111.335C174.418 111.234 174.537 111.169 174.666 111.154C174.796 111.139 174.927 111.176 175.03 111.256C175.133 111.336 175.201 111.454 175.218 111.583C175.236 111.713 175.202 111.844 175.124 111.949L160.273 131.049C160.191 131.153 160.072 131.221 159.94 131.237C159.809 131.253 159.676 131.216 159.572 131.135V131.135Z" fill="#E4E4E4"/>
<path id="Path 543" d="M161.134 132.35C161.03 132.269 160.962 132.149 160.946 132.018C160.929 131.887 160.965 131.755 161.046 131.65L175.897 112.55C175.937 112.497 175.987 112.452 176.044 112.418C176.101 112.384 176.165 112.362 176.231 112.353C176.297 112.344 176.364 112.348 176.428 112.366C176.493 112.383 176.553 112.413 176.605 112.454C176.658 112.495 176.702 112.546 176.734 112.604C176.767 112.662 176.788 112.726 176.795 112.792C176.803 112.858 176.797 112.925 176.778 112.989C176.759 113.053 176.728 113.112 176.686 113.164L161.835 132.264C161.754 132.368 161.634 132.436 161.503 132.453C161.372 132.469 161.24 132.433 161.135 132.352L161.134 132.35Z" fill="#E4E4E4"/>
<path id="Ellipse 12" d="M117.784 154.596C117.897 154.596 117.989 154.504 117.989 154.391C117.989 154.278 117.897 154.186 117.784 154.186C117.671 154.186 117.579 154.278 117.579 154.391C117.579 154.504 117.671 154.596 117.784 154.596Z" fill="white"/>
<path id="Path 544" d="M166.24 12.903C165.518 16.7813 164.334 20.5592 162.714 24.156C153.437 43.782 179.857 37.385 189.299 37.385C199.622 37.385 209.499 42.813 207.991 18.693C207.347 8.39301 199.622 0.00100727 189.299 0.00100727C180.482 7.27131e-06 168.084 3.92 166.24 12.903Z" fill="#2F2E41"/>
<path id="Path 545" d="M198.944 301.408H190.144L185.958 267.483H198.939L198.944 301.408Z" fill="#FFB9B9"/>
<path id="Path 546" d="M203.575 316.642H197.268L196.142 310.687L193.258 316.642H176.529C175.727 316.642 174.946 316.386 174.3 315.911C173.654 315.436 173.176 314.767 172.938 314.001C172.699 313.235 172.711 312.413 172.973 311.655C173.235 310.897 173.732 310.242 174.392 309.787L187.751 300.56V294.542L201.803 295.381L203.575 316.642Z" fill="#EBA40C"/>
<path id="Path 547" d="M251.283 290.192L244.225 295.441L220.625 270.716L231.042 262.969L251.283 290.192Z" fill="#FFB9B9"/>
<path id="Path 548" d="M264.129 299.764L259.068 303.528L254.611 299.421L255.851 305.921L242.427 315.904C241.783 316.382 241.004 316.642 240.202 316.646C239.401 316.65 238.619 316.397 237.971 315.926C237.322 315.454 236.842 314.787 236.599 314.023C236.357 313.259 236.365 312.437 236.622 311.678L241.837 296.303L238.245 291.472L250.021 283.76L264.129 299.764Z" fill="#EBA40C"/>
<path id="Path 549" d="M170.13 144.849L211.882 138.349L203.582 113.371H170.13V144.849Z" fill="#FFB9B9"/>
<path id="Path 550" d="M209.189 126.123C209.189 126.123 225.877 140.541 218.177 181.642L208.777 221.914L234.387 266.377L221.365 273.477L189.805 229.612L175.363 195.736L167.724 136.364L209.189 126.123Z" fill="#3F0366"/>
<path id="Path 551" d="M183.318 205.459L182.318 221.004L185.256 267.035L199.844 272.058L202.607 224.894L183.318 205.459Z" fill="#3F0366"/>
<path id="Path 552" d="M178.816 42.552L194.955 43.182L201.387 53.859L216.062 56.724L207.302 101.052L208.913 126.278L194.301 126.189C183.77 126.124 173.585 129.95 165.701 136.933V136.933L166.138 104.187L159.853 79.743L161.266 54.112L173.073 52.632L178.816 42.552Z" fill="#EBA40C"/>
<path id="Ellipse 13" d="M187.763 37.379C196.152 37.379 202.952 30.5787 202.952 22.19C202.952 13.8014 196.152 7.00101 187.763 7.00101C179.374 7.00101 172.574 13.8014 172.574 22.19C172.574 30.5787 179.374 37.379 187.763 37.379Z" fill="#FFB9B9"/>
<path id="Path 553" d="M177.445 6.70699C180.107 5.08542 183.155 4.20852 186.271 4.16791C189.388 4.12731 192.458 4.92448 195.161 6.47616C197.864 8.02783 200.1 10.277 201.637 12.9887C203.173 15.7003 203.953 18.7749 203.895 21.891C196.155 23.834 188.024 25.321 179.77 22.356L177.821 17.585L176.672 22.359C174.158 23.386 171.638 24.259 169.118 22.349C169.016 19.241 169.731 16.1606 171.192 13.4156C172.653 10.6707 174.809 8.35738 177.445 6.70699V6.70699Z" fill="#2F2E41"/>
<path id="Path 554" d="M213.332 157.207L215.38 175.789C215.523 176.252 215.81 176.658 216.201 176.946C216.591 177.234 217.063 177.389 217.548 177.389H226.986C227.471 177.389 227.943 177.234 228.333 176.946C228.724 176.658 229.011 176.252 229.154 175.789L230.854 161.547C231.344 161.787 231.883 161.908 232.428 161.899C232.974 161.89 233.509 161.751 233.99 161.495C234.472 161.239 234.885 160.872 235.197 160.424C235.509 159.977 235.71 159.462 235.784 158.922C235.858 158.382 235.803 157.831 235.623 157.317C235.443 156.802 235.143 156.337 234.749 155.961C234.354 155.585 233.876 155.307 233.353 155.152C232.83 154.997 232.278 154.967 231.742 155.067C231.531 154.816 231.267 154.615 230.97 154.476C230.673 154.338 230.349 154.267 230.021 154.267H215.5C215.145 154.267 214.795 154.351 214.478 154.51C214.162 154.67 213.887 154.902 213.676 155.188C213.465 155.473 213.324 155.804 213.264 156.154C213.205 156.504 213.228 156.863 213.332 157.202V157.207ZM231.146 160.584L232.185 157.207C232.305 156.817 232.317 156.403 232.219 156.007C232.263 156.007 232.305 155.994 232.35 155.994C233.002 155.994 233.628 156.253 234.089 156.714C234.55 157.176 234.809 157.801 234.809 158.454C234.809 159.106 234.55 159.731 234.089 160.193C233.628 160.654 233.002 160.913 232.35 160.913C231.928 160.909 231.515 160.796 231.15 160.584H231.146Z" fill="#6C63FF"/>
<path id="Path 555" d="M227.572 177.367C226.976 176.769 226.519 176.047 226.232 175.252C225.945 174.458 225.836 173.61 225.912 172.769C225.989 171.928 226.249 171.114 226.673 170.384C227.098 169.654 227.678 169.027 228.372 168.545L219.177 122.857L229.335 126.118L236.698 170.311C237.428 171.531 237.686 172.976 237.423 174.372C237.159 175.769 236.392 177.021 235.268 177.891C234.143 178.76 232.739 179.187 231.321 179.091C229.902 178.995 228.569 178.382 227.572 177.368V177.367Z" fill="#FFB6B6"/>
<path id="Path 556" d="M209.835 61.637L216.135 56.879C216.135 56.879 221.695 56.485 222.68 66.512C223.665 76.539 229.83 115.021 229.83 115.021L239.474 159.69L226.124 162.62L215.794 114.415L205.454 81.158L209.835 61.637Z" fill="#EBA40C"/>
<path id="Ellipse 14" d="M155.312 103.261C157.283 103.261 158.88 101.664 158.88 99.693C158.88 97.7224 157.283 96.125 155.312 96.125C153.341 96.125 151.744 97.7224 151.744 99.693C151.744 101.664 153.341 103.261 155.312 103.261Z" fill="#6C63FF"/>
</g>
<g id="man_1">
<path id="Path 566" d="M344.861 341.868H337.061L333.352 311.797H344.858L344.861 341.868Z" fill="#FFB9B9"/>
<path id="Path 567" d="M307.907 341.868H300.107L296.398 311.797H307.904L307.907 341.868Z" fill="#FFB9B9"/>
<path id="Path 568" d="M308.179 350H284.201V349.7C284.201 347.225 285.184 344.852 286.934 343.102C288.684 341.352 291.057 340.369 293.532 340.369L297.911 337.047L306.082 340.37H308.179V350Z" fill="#EBA40C"/>
<path id="Path 569" d="M346.138 350H322.16V349.7C322.16 347.225 323.143 344.852 324.893 343.102C326.643 341.352 329.016 340.369 331.491 340.369V340.369L335.87 337.047L344.041 340.37H346.138V350Z" fill="#EBA40C"/>
<path id="Path 570" d="M300.335 163.896L288.486 236.039L291.711 246.79L287.48 254.404L293.694 321.274L291.172 326.827L298.219 331.173H312.556L313.319 270.639L316.861 261.751V256.851L324.072 219.936L325.4 271.636L327.5 280.536L325.738 286.874L328.038 291.315L334.153 332.496H350.233L348.989 322.915C350.39 322.206 351.515 321.051 352.188 319.633C352.861 318.214 353.044 316.613 352.707 315.079L351.785 310.879L353.885 298.462L357.706 229.192L356.629 173.3L337.816 158.919L300.335 163.896Z" fill="#3F0366"/>
<path id="Ellipse 219" d="M327.482 70.597C335.733 70.597 342.422 63.9081 342.422 55.657C342.422 47.4059 335.733 40.717 327.482 40.717C319.231 40.717 312.542 47.4059 312.542 55.657C312.542 63.9081 319.231 70.597 327.482 70.597Z" fill="#FFB9B9"/>
<path id="Path 571" d="M294.763 192.204C295.413 191.532 295.908 190.726 296.213 189.842C296.517 188.959 296.625 188.019 296.527 187.089C296.429 186.16 296.129 185.263 295.647 184.462C295.166 183.661 294.514 182.975 293.739 182.453L299.548 160.484L288.355 164.249L284.555 184.534C283.764 185.895 283.499 187.499 283.812 189.042C284.124 190.585 284.992 191.96 286.25 192.905C287.509 193.851 289.071 194.302 290.64 194.173C292.209 194.044 293.676 193.344 294.763 192.205V192.204Z" fill="#9E616A"/>
<path id="Path 1101" d="M300.887 86.614L298.487 86.114L296.438 87.248C296.438 87.248 290.709 94.881 290.709 101.876C290.709 108.871 283.709 176.276 283.709 176.276L296.427 181.999L306.609 129.221L300.887 86.614Z" fill="#EBA40C"/>
<path id="Path 1104" d="M340.568 44.7C340.568 44.7 344.475 37.23 335.879 36.551C335.879 36.551 328.551 29.903 321.079 35.336C319.707 35.4521 318.393 35.9438 317.282 36.7572C316.17 37.5705 315.305 38.6741 314.779 39.947C314.779 39.947 311.579 38.732 310.87 41.984C310.87 41.984 308.525 48.775 310.87 54.884C313.215 60.993 313.994 61.675 313.994 61.675C313.994 61.675 310.141 48.862 319.52 48.183C328.899 47.504 339.394 41.643 340.175 49.113C340.956 56.583 342.133 58.423 342.133 58.423C342.133 58.423 349.555 47.759 340.568 44.7Z" fill="#2F2E41"/>
<path id="Path 572" d="M395.313 254.175C394.185 254.176 393.097 253.761 392.257 253.009L347.045 212.763C346.135 211.95 345.584 210.81 345.513 209.591C345.442 208.373 345.857 207.176 346.667 206.263L375.63 173.725C376.443 172.814 377.583 172.263 378.802 172.192C380.02 172.121 381.217 172.537 382.13 173.347L427.342 213.594C427.794 213.996 428.162 214.483 428.426 215.027C428.69 215.571 428.844 216.162 428.879 216.766C428.914 217.369 428.83 217.974 428.631 218.545C428.432 219.116 428.122 219.643 427.72 220.094L398.756 252.631C398.355 253.084 397.868 253.453 397.323 253.717C396.779 253.981 396.187 254.134 395.583 254.167C395.495 254.172 395.403 254.175 395.313 254.175Z" fill="white"/>
<path id="Path 573" d="M395.311 254.471C394.111 254.473 392.953 254.031 392.059 253.231L346.847 212.985C345.878 212.119 345.292 210.905 345.217 209.608C345.142 208.31 345.584 207.036 346.447 206.065L375.41 173.528C376.276 172.559 377.49 171.973 378.787 171.898C380.085 171.823 381.359 172.265 382.33 173.128L427.542 213.375C428.023 213.803 428.415 214.322 428.695 214.901C428.975 215.48 429.139 216.109 429.176 216.752C429.213 217.395 429.123 218.038 428.911 218.646C428.7 219.254 428.37 219.814 427.942 220.295L398.978 252.832C398.551 253.314 398.033 253.707 397.453 253.988C396.874 254.268 396.244 254.431 395.601 254.467C395.505 254.468 395.408 254.471 395.311 254.471ZM379.071 173.071C378.546 173.07 378.027 173.18 377.548 173.395C377.069 173.609 376.641 173.923 376.292 174.315L347.326 206.852C346.671 207.588 346.334 208.554 346.391 209.539C346.447 210.523 346.891 211.444 347.626 212.101L392.838 252.347C393.203 252.672 393.628 252.921 394.089 253.081C394.55 253.242 395.038 253.31 395.525 253.281C396.013 253.253 396.49 253.129 396.929 252.916C397.368 252.704 397.761 252.407 398.086 252.042L427.058 219.505C427.714 218.769 428.051 217.803 427.995 216.819C427.939 215.835 427.494 214.913 426.758 214.257L381.541 174.005C380.861 173.398 379.982 173.064 379.071 173.065V173.071Z" fill="#3F3D56"/>
<path id="Path 574" d="M411.71 223.331C411.222 223.333 410.751 223.155 410.386 222.831L374.896 191.239C374.51 190.885 374.278 190.394 374.252 189.871C374.225 189.348 374.405 188.835 374.753 188.444C375.102 188.053 375.59 187.815 376.112 187.78C376.635 187.746 377.15 187.919 377.546 188.262L413.036 219.854C413.338 220.123 413.551 220.477 413.647 220.869C413.743 221.261 413.717 221.674 413.573 222.051C413.429 222.429 413.174 222.754 412.841 222.983C412.509 223.212 412.114 223.334 411.71 223.334V223.331Z" fill="#6C63FF"/>
<path id="Path 575" d="M404.938 230.951C404.45 230.953 403.979 230.775 403.614 230.451L368.124 198.859C367.744 198.504 367.518 198.014 367.494 197.494C367.47 196.974 367.65 196.466 367.996 196.077C368.342 195.689 368.827 195.451 369.346 195.415C369.865 195.378 370.377 195.546 370.774 195.883L406.264 227.475C406.566 227.744 406.779 228.098 406.875 228.49C406.971 228.882 406.945 229.295 406.801 229.672C406.657 230.05 406.402 230.375 406.069 230.604C405.737 230.833 405.342 230.955 404.938 230.955V230.951Z" fill="#6C63FF"/>
<path id="Path 576" d="M398.168 238.571C397.68 238.573 397.209 238.395 396.844 238.071L361.355 206.476C361.155 206.303 360.992 206.092 360.874 205.856C360.757 205.619 360.687 205.362 360.67 205.098C360.653 204.835 360.688 204.571 360.774 204.321C360.86 204.071 360.995 203.841 361.17 203.644C361.346 203.446 361.559 203.286 361.797 203.172C362.035 203.058 362.294 202.992 362.557 202.978C362.821 202.965 363.085 203.004 363.333 203.093C363.582 203.183 363.81 203.321 364.005 203.499L399.495 235.091C399.797 235.359 400.01 235.714 400.107 236.106C400.203 236.499 400.177 236.911 400.033 237.289C399.889 237.667 399.634 237.992 399.301 238.221C398.968 238.45 398.573 238.573 398.169 238.572L398.168 238.571Z" fill="#6C63FF"/>
<path id="Path 577" d="M357.582 193.504C357.127 192.687 356.856 191.781 356.789 190.849C356.722 189.916 356.86 188.98 357.194 188.107C357.527 187.234 358.048 186.444 358.72 185.794C359.392 185.144 360.198 184.649 361.082 184.344L361.12 161.62L370.967 168.138L369.421 188.718C369.836 190.237 369.679 191.855 368.98 193.266C368.281 194.677 367.089 195.782 365.629 196.373C364.17 196.963 362.544 196.997 361.061 196.468C359.578 195.94 358.34 194.885 357.583 193.505L357.582 193.504Z" fill="#9E616A"/>
<path id="Path 1100" d="M358.493 92.846L362.893 88.605L366.125 90.938C366.125 90.938 369.305 94.753 371.848 106.2C374.391 117.647 371.848 180.6 371.848 180.6L357.858 178.692L359.766 145.624L354.043 117.644L358.493 92.846Z" fill="#EBA40C"/>
<path id="Path 578" d="M364.989 89.607L350.168 82.527L340.1 73.194L321.755 73.053L315.836 80.753L300.209 86.061L302.809 139.946L301.033 144.089C301.033 144.089 302.27 145.207 302.833 145.832C303.396 146.457 302.052 151.69 302.052 151.69L301.293 157.383L303.398 158.883L300.661 162.116L299.981 167.216C299.981 167.216 347.759 155.341 356.786 175.016C357.263 176.055 356.086 165.897 356.086 165.897L354.911 158.461L356.076 151.786L357.852 150.01L354.874 147.032L356.783 132.9L364.989 89.607Z" fill="#EBA40C"/>
</g>
<g id="man_2">
<path id="Path 557" d="M37.333 342.793H44.768L48.305 314.115H37.332L37.333 342.793Z" fill="#FFB9B9"/>
<path id="Path 558" d="M35.437 340.365H37.53L45.701 337.042L50.08 340.364C52.5545 340.364 54.9276 341.347 56.6774 343.097C58.4272 344.847 59.4105 347.22 59.411 349.694V349.994H35.437V340.365Z" fill="#EBA40C"/>
<path id="Path 559" d="M66.146 338.103L73.399 339.741L83.166 312.541L72.466 310.124L66.146 338.103Z" fill="#FFB9B9"/>
<path id="Path 560" d="M64.83 335.322L66.871 335.783L75.571 334.342L79.111 338.547C80.3065 338.817 81.4372 339.319 82.4385 340.026C83.4398 340.733 84.292 341.63 84.9466 342.666C85.6011 343.702 86.0452 344.857 86.2534 346.065C86.4616 347.273 86.4299 348.509 86.16 349.705L86.093 350.005L62.708 344.725L64.83 335.322Z" fill="#EBA40C"/>
<path id="Path 561" d="M23.721 195.275L30.445 270.604C30.445 270.604 27.926 315.828 36.055 331.742H47.844L53.681 266.474L54.414 222.666L79.689 259.625L63.589 330.674L78.099 331.974L104.221 254.867L75.521 182.483L23.721 195.275Z" fill="#3F0366"/>
<path id="Ellipse 15" d="M30.763 74.66C40.3391 74.66 48.102 66.8971 48.102 57.321C48.102 47.7449 40.3391 39.982 30.763 39.982C21.1869 39.982 13.424 47.7449 13.424 57.321C13.424 66.8971 21.1869 74.66 30.763 74.66Z" fill="#FFB9B9"/>
<path id="Path 562" d="M61.244 91.409L47.019 85.309L40.094 77.964L22.794 80.754L18.204 88.624L3.34601 102.44L20.754 181.151L20.227 198.342C20.227 198.342 31.369 203.358 79.687 191.809C80.266 191.67 79.053 191.064 79.053 191.064L61.244 91.409Z" fill="#EBA40C"/>
<path id="Path 563" d="M12.732 67.16C12.6114 66.9953 12.4917 66.8287 12.373 66.66C12.325 66.76 12.287 66.86 12.233 66.96L12.732 67.16Z" fill="#2F2E41"/>
<path id="Path 564" d="M48.011 44.638C46.852 42.1129 44.7855 40.1163 42.222 39.045C39.6813 38.0203 36.8419 38.0228 34.303 39.052C32.0693 37.5144 29.4804 36.5718 26.781 36.313C25.429 36.2046 24.0707 36.4247 22.8221 36.9545C21.5735 37.4844 20.4715 38.3083 19.61 39.356C19.2408 39.9343 18.8216 40.4791 18.357 40.984C17.028 42.214 15.009 42.037 13.243 41.784L15.62 43.821L12.743 44.572L16.1 46.608C12.851 48.558 11.375 52.814 11.765 56.679C12.2961 60.3165 13.7595 63.7546 16.013 66.659C16.855 64.881 16.674 62.754 16.66 60.751C16.645 58.635 17.02 56.233 18.715 55.051C19.9298 54.3728 21.3238 54.0844 22.708 54.225C29.6644 54.2634 36.6129 54.6975 43.52 55.525C44.4571 55.5657 45.3707 55.8308 46.184 56.298C47.711 57.34 48.009 59.49 48.162 61.377C48.9691 58.262 49.3641 55.0547 49.337 51.837C49.4049 49.3709 48.9531 46.9181 48.011 44.638Z" fill="#2F2E41"/>
<path id="Ellipse 16" d="M53.409 247.855C68.4814 247.855 80.7 235.636 80.7 220.564C80.7 205.492 68.4814 193.273 53.409 193.273C38.3366 193.273 26.118 205.492 26.118 220.564C26.118 235.636 38.3366 247.855 53.409 247.855Z" fill="white"/>
<path id="Path 565" d="M53.409 192.667C52.0074 192.667 50.6078 192.773 49.222 192.982C48.509 193.082 47.822 193.219 47.133 193.382C42.0973 194.542 37.483 197.078 33.805 200.708C30.127 204.338 27.5301 208.919 26.3042 213.939C25.0782 218.959 25.2714 224.221 26.8622 229.137C28.453 234.054 31.3788 238.432 35.313 241.782C35.78 242.176 36.253 242.558 36.744 242.922C40.2846 245.561 44.4013 247.322 48.7554 248.06C53.1095 248.798 57.5766 248.491 61.7889 247.165C66.0013 245.839 69.8386 243.532 72.985 240.433C76.1314 237.334 78.4971 233.532 79.8872 229.341C81.2774 225.149 81.6523 220.687 80.9812 216.322C80.3101 211.958 78.6121 207.814 76.0269 204.234C73.4418 200.654 70.0434 197.738 66.1114 195.728C62.1794 193.717 57.8262 192.669 53.41 192.67L53.409 192.667ZM53.409 247.249C47.7351 247.255 42.2087 245.442 37.641 242.076C37.141 241.712 36.665 241.336 36.198 240.936C32.3664 237.704 29.5234 233.457 27.9951 228.682C26.4668 223.908 26.3151 218.799 27.5574 213.943C28.7997 209.086 31.3856 204.678 35.0187 201.224C38.6518 197.77 43.1849 195.41 48.098 194.414C48.777 194.275 49.456 194.165 50.148 194.08C51.2305 193.946 52.3203 193.879 53.411 193.88C60.4599 193.923 67.2054 196.754 72.1745 201.753C77.1436 206.753 79.9327 213.515 79.9327 220.564C79.9327 227.614 77.1436 234.376 72.1745 239.376C67.2054 244.375 60.4599 247.206 53.411 247.249H53.409Z" fill="#3F3D56"/>
<path id="Rectangle 54" d="M40.067 215.077H66.752C67.7566 215.077 68.571 214.263 68.571 213.258V213.257C68.571 212.252 67.7566 211.438 66.752 211.438H40.067C39.0624 211.438 38.248 212.252 38.248 213.257V213.258C38.248 214.263 39.0624 215.077 40.067 215.077Z" fill="#6C63FF"/>
<path id="Rectangle 55" d="M40.067 222.369H66.752C67.7566 222.369 68.571 221.555 68.571 220.55V220.549C68.571 219.544 67.7566 218.73 66.752 218.73H40.067C39.0624 218.73 38.248 219.544 38.248 220.549V220.55C38.248 221.555 39.0624 222.369 40.067 222.369Z" fill="#6C63FF"/>
<path id="Rectangle 56" d="M40.067 229.66H66.752C67.7566 229.66 68.571 228.846 68.571 227.841V227.84C68.571 226.835 67.7566 226.021 66.752 226.021H40.067C39.0624 226.021 38.248 226.835 38.248 227.84V227.841C38.248 228.846 39.0624 229.66 40.067 229.66Z" fill="#6C63FF"/>
<path id="Path 580" d="M64.188 205.683C63.4985 204.954 62.9773 204.082 62.6611 203.129C62.345 202.176 62.2416 201.166 62.3582 200.169C62.4748 199.172 62.8086 198.213 63.336 197.359C63.8635 196.505 64.5718 195.777 65.411 195.226L59.452 171.565L71.421 175.749L75.245 197.576C76.085 199.047 76.3544 200.776 76.0018 202.433C75.6491 204.09 74.6991 205.56 73.3328 206.562C71.9665 207.563 70.2794 208.028 68.5929 207.866C66.9065 207.703 65.3386 206.927 64.188 205.683V205.683Z" fill="#FFB8B8"/>
<path id="Path 579" d="M42.58 209.24C42.9478 208.306 43.1064 207.303 43.0445 206.301C42.9827 205.299 42.7018 204.323 42.2219 203.441C41.7419 202.56 41.0745 201.794 40.2666 201.198C39.4588 200.602 38.5301 200.191 37.546 199.993L34.254 175.816L24.708 184.161L29.298 205.84C29.0675 207.518 29.4624 209.223 30.4074 210.628C31.3525 212.034 32.7816 213.043 34.4227 213.463C36.0638 213.884 37.802 213.685 39.3063 212.906C40.8106 212.128 41.9758 210.823 42.58 209.24V209.24Z" fill="#FFB8B8"/>
<path id="Path 1101_2" d="M5.17402 102.033L2.58604 102.533L1.02204 104.502C1.02204 104.502 -1.50797 114.427 1.37403 121.362C4.25603 128.297 25.096 198.015 25.096 198.015L40.065 198.449L28.404 141.924L5.17402 102.033Z" fill="#EBA40C"/>
<path id="Path 1101_3" d="M58.96 92.244L61.546 91.744L63.731 92.988C63.731 92.988 69.779 101.253 69.691 108.764C69.603 116.275 76.26 188.734 76.26 188.734L62.535 194.713L52.279 137.913L58.96 92.244Z" fill="#EBA40C"/>
</g>
</g>
</svg>
