<svg id="Group_3791" data-name="Group 3791" xmlns="http://www.w3.org/2000/svg" width="50" height="50" viewBox="0 0 50 50">
  <path id="Path_583" data-name="Path 583" d="M0,0H50V50H0Z" fill="none"/>
  <path id="Path_584" data-name="Path 584" d="M22.833,43.667A20.833,20.833,0,1,1,43.667,22.833,20.833,20.833,0,0,1,22.833,43.667ZM15.542,27v4.167H20.75v4.167h4.167V31.167H27A5.208,5.208,0,0,0,27,20.75H18.667a1.042,1.042,0,0,1,0-2.083H30.125V14.5H24.917V10.333H20.75V14.5H18.667a5.208,5.208,0,0,0,0,10.417H27A1.042,1.042,0,0,1,27,27Z" transform="translate(2.167 2.167)"/>
</svg>
