<svg id="Group_3792" data-name="Group 3792" xmlns="http://www.w3.org/2000/svg" width="50" height="50" viewBox="0 0 50 50">
  <path id="Path_585" data-name="Path 585" d="M0,0H50V50H0Z" fill="none"/>
  <path id="Path_586" data-name="Path 586" d="M3.083,17.493h6.25v25H3.083A2.083,2.083,0,0,1,1,40.41V19.577a2.083,2.083,0,0,1,2.083-2.083ZM14.11,14.8,27.444,1.466a1.042,1.042,0,0,1,1.362-.1L30.583,2.7a3.125,3.125,0,0,1,1.152,3.271l-2.4,9.437H42.667a4.167,4.167,0,0,1,4.167,4.167V23.96a4.167,4.167,0,0,1-.312,1.588L40.073,41.2a2.083,2.083,0,0,1-1.927,1.29H15.583A2.083,2.083,0,0,1,13.5,40.41V16.272a2.083,2.083,0,0,1,.61-1.473Z" transform="translate(1.083 1.257)"/>
</svg>
