<svg width="193" height="154" viewBox="0 0 193 154" fill="none" xmlns="http://www.w3.org/2000/svg">
<style>
    #graph{
        transform-origin: center;
        transform-box: fill-box;
        animation: sideClip 2s linear infinite alternate-reverse;
    }
    @keyframes sideClip {
        0% {
            clip-path: polygon(0 0, 100% 0, 0 0, 0 100%);
        }
        25% {
            clip-path: polygon(0 0, 100% 0, 0 100%, 0 100%);
        }
        50% {
            clip-path: polygon(0 0, 100% 0, 100% 100%, 0 100%);
        }
        75%{
            transform: scale(0.84);
            animation-timing-function: ease-out;
        }

        100%{
            transform: scale(1);
            animation-timing-function: ease-in;
        }
    }
</style>
<g id="sand03 1" clip-path="url(#clip0_309_339)">
<g id="graph" opacity="0.5">
<path id="Path 754" opacity="0.5" d="M191.25 17.286C188.167 27.379 183.793 36.932 179.099 46.342C179.09 46.3212 179.079 46.3014 179.066 46.283C177.811 44.8504 176.086 43.9134 174.201 43.641C173.965 43.606 173.88 43.999 174.116 44.056C175.842 44.45 177.402 45.3704 178.582 46.69C178.618 46.7325 178.665 46.7638 178.718 46.7803C178.772 46.7967 178.828 46.7977 178.882 46.783C178.496 47.5557 178.108 48.327 177.719 49.097C177.715 49.0497 177.702 49.0037 177.68 48.9616C177.659 48.9195 177.629 48.8823 177.592 48.852C176.128 47.4957 174.326 46.5597 172.374 46.143C172.16 46.1 172.1 46.443 172.299 46.511C174.105 47.0872 175.764 48.0483 177.163 49.328C177.215 49.3857 177.287 49.4219 177.364 49.4296C177.442 49.4374 177.519 49.4161 177.582 49.37C177.127 50.2693 176.67 51.1677 176.212 52.065C176.198 52.0267 176.175 51.9924 176.145 51.965C174.66 50.6123 172.865 49.645 170.919 49.148C170.865 49.1322 170.808 49.1377 170.758 49.1633C170.709 49.189 170.671 49.2327 170.652 49.2856C170.634 49.3384 170.637 49.3962 170.661 49.447C170.684 49.4977 170.726 49.5375 170.778 49.558C172.569 50.2485 174.243 51.2104 175.741 52.41C175.781 52.4409 175.83 52.4594 175.88 52.4633C175.931 52.4672 175.982 52.4563 176.026 52.432C175.538 53.3887 175.049 54.3447 174.558 55.3C172.754 53.5558 170.576 52.2462 168.189 51.471C168.145 51.4591 168.097 51.4644 168.057 51.486C168.016 51.5075 167.985 51.5437 167.97 51.5872C167.955 51.6306 167.957 51.6781 167.975 51.7202C167.994 51.7623 168.028 51.7958 168.07 51.814C170.334 52.7226 172.396 54.0698 174.137 55.778C174.173 55.8134 174.218 55.8397 174.266 55.855C173.619 57.117 172.973 58.379 172.328 59.641C170.131 57.7452 167.543 56.3575 164.748 55.577C164.703 55.5661 164.656 55.5723 164.615 55.5945C164.574 55.6167 164.543 55.6532 164.528 55.697C164.513 55.7407 164.515 55.7885 164.533 55.8311C164.551 55.8736 164.585 55.9078 164.627 55.927C167.277 57.017 169.771 58.4554 172.041 60.204C170.857 62.5267 169.687 64.8547 168.532 67.188C166.773 70.761 165.124 74.372 163.552 78.012C162.61 76.7726 161.409 75.7538 160.033 75.0265C158.656 74.2992 157.138 73.8809 155.583 73.801C155.529 73.8008 155.476 73.8212 155.437 73.8582C155.397 73.8951 155.373 73.9458 155.369 74C155.365 74.0541 155.382 74.1077 155.416 74.1499C155.45 74.192 155.499 74.2196 155.553 74.227C158.518 74.6674 161.212 76.1991 163.107 78.522C163.154 78.5741 163.218 78.6093 163.287 78.622C161.348 83.142 159.526 87.712 157.781 92.332C156.739 95.091 155.694 97.85 154.596 100.587C152.168 98.5859 149.481 96.9228 146.607 95.643C146.231 95.48 146.04 96.069 146.401 96.243C149.22 97.5345 151.901 99.1093 154.401 100.943C154.414 100.951 154.428 100.958 154.443 100.963C153.875 102.37 153.29 103.77 152.688 105.163C152.421 105.778 152.145 106.388 151.865 106.995C149.152 104.931 146.261 103.114 143.226 101.563C142.862 101.374 142.484 101.887 142.856 102.103C145.821 103.828 148.734 105.634 151.686 107.377C151.419 107.94 151.153 108.501 150.886 109.06C148.218 107.037 145.278 105.4 142.153 104.196C141.853 104.087 141.603 104.551 141.896 104.705C144.855 106.268 147.796 107.767 150.696 109.452C150.379 110.097 150.057 110.738 149.73 111.377C148.928 110.995 148.181 110.505 147.511 109.921C146.905 109.507 146.297 109.097 145.686 108.69C144.573 107.867 143.403 107.124 142.186 106.465C141.934 106.344 141.805 106.717 141.986 106.87C143.726 108.224 145.564 109.446 147.486 110.526C147.947 110.817 148.842 111.699 149.543 111.759C149.226 112.374 148.905 112.987 148.58 113.598C148.58 113.589 148.58 113.579 148.568 113.571C146.19 111.626 143.535 110.046 140.691 108.884C140.391 108.748 140.129 109.258 140.427 109.409C143.127 110.772 145.717 112.475 148.452 113.741C148.469 113.747 148.486 113.747 148.503 113.741C148.276 114.168 148.049 114.594 147.82 115.021C145.047 113.311 142.312 111.577 139.682 109.649C139.359 109.411 139.003 109.929 139.33 110.162C141.971 112.091 144.745 113.831 147.63 115.371C147.356 115.878 147.081 116.385 146.805 116.891C144.29 114.712 141.455 112.933 138.398 111.618C138.357 111.598 138.31 111.588 138.264 111.59C138.218 111.593 138.173 111.607 138.134 111.632C137.502 111.176 136.871 110.718 136.24 110.257C135.796 109.932 135.324 110.628 135.758 110.957C138.265 112.863 140.888 114.613 143.611 116.196C144.456 116.818 145.372 117.337 146.34 117.741L146.201 117.997C146.001 118.363 145.811 118.733 145.618 119.097C143.028 117.052 140.285 115.208 137.413 113.583C137.072 113.383 136.722 113.89 137.065 114.09C139.934 115.768 142.689 117.578 145.434 119.447C145.234 119.832 145.045 120.221 144.856 120.608C142.211 118.618 139.377 116.893 136.394 115.457C136.08 115.302 135.907 115.817 136.216 115.971C139.137 117.461 141.964 119.127 144.683 120.96C144.279 121.799 143.889 122.643 143.513 123.493C140.551 121.197 137.366 119.203 134.006 117.543C133.971 117.525 133.932 117.515 133.893 117.512C133.853 117.509 133.813 117.514 133.776 117.526C133.738 117.539 133.703 117.558 133.673 117.584C133.643 117.61 133.619 117.642 133.601 117.677C133.583 117.712 133.573 117.751 133.57 117.79C133.567 117.83 133.572 117.87 133.584 117.907C133.597 117.945 133.616 117.98 133.642 118.01C133.668 118.04 133.7 118.064 133.735 118.082C137.077 119.778 140.287 121.72 143.34 123.894C142.971 124.741 142.613 125.591 142.264 126.445C139.28 123.554 135.591 121.495 131.565 120.471C131.512 120.457 131.457 120.46 131.405 120.477C131.354 120.495 131.309 120.527 131.275 120.571C131.242 120.614 131.222 120.666 131.218 120.72C131.214 120.774 131.226 120.828 131.253 120.876L131.099 120.776C131.029 120.732 130.945 120.718 130.864 120.734C130.784 120.751 130.713 120.799 130.666 120.866C130.619 120.934 130.601 121.018 130.614 121.099C130.627 121.18 130.671 121.253 130.737 121.303C134.164 123.677 137.596 126.176 141.213 128.253C141.227 128.262 141.242 128.269 141.258 128.272C141.274 128.276 141.291 128.276 141.308 128.273C141.324 128.27 141.339 128.264 141.353 128.255C141.367 128.246 141.379 128.234 141.389 128.221C141.398 128.207 141.405 128.191 141.408 128.175C141.411 128.159 141.412 128.142 141.409 128.126C141.406 128.11 141.399 128.094 141.39 128.08C141.381 128.066 141.37 128.054 141.356 128.045C138.216 125.5 134.767 123.26 131.418 120.992C135.314 122.229 138.949 124.17 142.144 126.72C141.735 127.729 141.335 128.743 140.944 129.76C137.811 127.893 134.665 126.048 131.507 124.225C131.174 124.033 130.832 124.531 131.168 124.719C134.376 126.519 137.599 128.292 140.836 130.037C140.665 130.479 140.495 130.921 140.325 131.364C137.446 129.23 134.454 127.254 131.362 125.443C131.027 125.234 130.68 125.733 131.014 125.95C133.982 128.002 137.058 129.892 140.23 131.611C140.036 132.118 139.841 132.625 139.646 133.132C136.92 130.927 133.829 129.214 130.514 128.071C130.455 128.054 130.391 128.06 130.336 128.089C130.282 128.117 130.24 128.166 130.22 128.224C130.2 128.282 130.203 128.346 130.228 128.402C130.254 128.459 130.3 128.503 130.357 128.526C133.622 129.725 136.718 131.341 139.568 133.335C139.217 134.249 138.863 135.162 138.506 136.073C135.61 133.569 132.355 131.513 128.85 129.973C128.557 129.845 128.305 130.331 128.593 130.483C131.973 132.26 135.234 134.253 138.357 136.451C138.083 137.142 137.805 137.832 137.522 138.519C134.729 136.194 131.649 134.237 128.357 132.697C128.008 132.527 127.809 133.105 128.157 133.272C131.383 134.874 134.466 136.748 137.375 138.872C137.152 139.405 136.925 139.939 136.692 140.472C134.395 137.721 131.26 135.798 127.767 134.996C127.418 134.918 127.222 135.433 127.581 135.533C131.004 136.44 134.1 138.296 136.512 140.888C136.312 141.354 136.097 141.817 135.883 142.28C133.179 139.655 129.633 138.073 125.874 137.814C125.807 137.814 125.743 137.84 125.695 137.886C125.646 137.931 125.616 137.993 125.611 138.06C125.607 138.126 125.627 138.192 125.669 138.244C125.71 138.296 125.77 138.331 125.836 138.341C129.474 138.802 132.902 140.303 135.709 142.663C135.583 142.934 135.452 143.202 135.322 143.471C133.096 142.24 130.684 141.383 128.181 140.932C126.464 140.632 123.733 140.032 122.432 141.567C122.296 141.728 122.55 141.949 122.704 141.813C124.269 140.433 127.658 141.389 129.447 141.842C131.395 142.345 133.27 143.099 135.024 144.084C134.837 144.462 134.647 144.838 134.453 145.212C130.36 144.2 126.121 143.915 121.929 144.371C121.766 144.389 121.779 144.663 121.945 144.66C126.039 144.568 130.128 144.965 134.128 145.841C134.067 145.955 134.01 146.07 133.948 146.184C129.829 147.963 125.187 148.106 120.966 146.584C120.731 146.501 120.626 146.841 120.842 146.942C122.958 147.93 125.272 148.42 127.607 148.374C129.942 148.329 132.236 147.75 134.312 146.682C134.355 146.66 134.393 146.627 134.421 146.587C134.448 146.547 134.466 146.501 134.472 146.453C134.479 146.404 134.473 146.355 134.456 146.31C134.438 146.264 134.41 146.223 134.374 146.191C134.432 146.103 134.49 146.017 134.547 145.928C134.614 145.944 134.68 145.956 134.747 145.971C134.774 145.974 134.8 145.974 134.827 145.971C134.771 145.988 134.72 146.02 134.679 146.062C134.638 146.105 134.608 146.157 134.593 146.214C134.351 146.963 134.01 147.675 133.579 148.333C131.42 149.275 129.068 149.689 126.717 149.541C124.367 149.392 122.085 148.684 120.063 147.477C120.033 147.456 119.996 147.448 119.96 147.455C119.924 147.462 119.892 147.483 119.871 147.513C119.85 147.543 119.842 147.58 119.849 147.616C119.856 147.652 119.877 147.684 119.907 147.705C121.701 149.079 123.821 149.965 126.06 150.277C128.299 150.588 130.58 150.314 132.681 149.482C131.296 150.968 129.428 151.913 127.411 152.149C127.369 152.108 127.32 152.074 127.267 152.049C117.881 147.484 108.229 143.438 98.678 139.205C100.833 135.005 91.657 131.252 90.924 135.687C88.747 134.682 86.6695 133.474 84.719 132.08C83.5076 131.197 82.4005 130.18 81.419 129.047C80.6819 127.932 79.8778 126.864 79.011 125.847C77.466 124.447 74.911 124.747 72.982 124.427C70.1492 123.952 67.382 123.147 64.737 122.027C58.8681 119.416 53.6835 115.481 49.589 110.532C49.5709 110.508 49.5481 110.488 49.5219 110.473C49.4957 110.458 49.4668 110.448 49.4368 110.445C49.4068 110.441 49.3765 110.444 49.3476 110.453C49.3187 110.462 49.292 110.476 49.269 110.496C42.654 106.48 36.064 102.417 29.416 98.456C23.924 95.182 16.299 92.049 13.775 85.69C15.834 84.277 16.32 81.99 16.799 79.63C17.3495 76.7429 18.607 74.0372 20.459 71.755C20.502 71.779 20.547 71.803 20.59 71.83C21.071 72.13 21.573 71.404 21.09 71.101C21.071 71.089 21.052 71.079 21.033 71.068C21.39 70.659 21.766 70.254 22.167 69.851C24.496 67.515 27.041 65.403 29.395 63.09C31.816 60.711 34.146 58.24 36.459 55.755C41.071 50.799 45.625 45.767 50.71 41.284C55.8075 36.8246 61.4821 33.072 67.581 30.127C69.643 29.118 71.734 28.178 73.844 27.275C73.904 27.2681 73.9607 27.2438 74.007 27.205C77.955 25.519 81.963 23.97 85.958 22.405C91.908 20.073 97.881 17.784 103.968 15.828C114.561 12.2865 125.648 10.45 136.817 10.387L136.8 10.412C136.654 10.612 136.952 10.794 137.106 10.622C137.174 10.546 137.236 10.466 137.299 10.387C139.081 10.403 140.871 10.465 142.672 10.587C150.542 11.121 158.378 12.187 166.211 13.093L178.237 14.484C182.273 14.951 187.291 14.912 190.202 18.19C190.602 18.638 191.312 18.038 190.914 17.59C188.959 15.39 186.224 14.598 183.395 14.171C181.348 13.862 179.287 13.626 177.224 13.403C176.216 12.5807 175.5 11.4559 175.18 10.195C175.044 9.23 175.363 8.24999 175.052 7.30099C174.986 7.00882 174.85 6.73724 174.655 6.50991C174.46 6.28258 174.212 6.10643 173.933 5.99685C173.655 5.88727 173.353 5.84758 173.056 5.88125C172.758 5.91492 172.473 6.02091 172.226 6.18999C171.237 6.74699 170.971 7.64399 169.386 6.50899C168.994 6.11181 168.634 5.68377 168.31 5.229C167.485 4.37309 166.532 3.6511 165.484 3.08901C164.671 2.58559 163.735 2.31445 162.779 2.30501C161.479 2.37101 160.604 2.78199 159.269 2.40499C157.819 1.99599 156.313 1.18599 154.788 1.74999C153.68 2.15899 152.956 3.18599 151.976 3.80599C150.563 4.65067 148.914 5.01618 147.276 4.84801C145.15 4.73301 143.056 4.499 141.028 5.324C139 6.149 138.408 7.78799 137.435 9.43899C136.99 9.42899 136.543 9.428 136.099 9.423C137.243 6.166 132.506 5.01599 131.076 3.03399C129.625 1.02099 128.518 -0.588991 125.813 0.205009C124.777 0.571094 123.762 0.991343 122.77 1.46401C120.641 2.33801 119.462 1.95201 117.47 0.86901C117.035 0.574787 116.545 0.372017 116.029 0.273002C115.513 0.173987 114.983 0.180773 114.47 0.292991C113.054 0.680991 112.133 1.97901 110.77 2.45901C109.054 3.06501 107.596 1.82699 105.935 1.65899C104.816 1.58645 103.704 1.87952 102.766 2.49401C100.12 4.05601 98.007 6.85399 94.866 4.48199C93.698 3.59899 92.621 2.518 91.041 2.648C89.579 2.769 88.226 3.74199 86.861 4.21499C83.307 5.44599 79.434 5.636 76.061 7.415C73.318 8.863 70.438 11.647 72.136 14.862C72.796 16.113 73.286 16.979 72.344 18.373C71.816 19.154 71.055 19.73 70.559 20.546C69.7158 21.9334 69.4065 23.5803 69.689 25.179C69.6947 25.2148 69.7123 25.2475 69.739 25.272C69.617 25.272 69.495 25.262 69.37 25.261C68.4864 25.3477 67.6006 25.1184 66.87 24.614C66.47 24.299 66.179 23.864 65.789 23.537C65.369 23.1403 64.8515 22.8618 64.289 22.73C63.6237 22.6678 62.9536 22.7792 62.3442 23.0533C61.7348 23.3274 61.2069 23.7549 60.812 24.294C59.5725 25.8189 58.5275 27.4921 57.701 29.275C56.5757 29.4428 55.4745 29.745 54.421 30.175C53.3685 30.7084 52.2564 31.1149 51.108 31.386C50.1376 31.4213 49.1659 31.4063 48.197 31.341C46.583 31.423 45.939 32.427 45.436 33.851C44.658 36.062 42.188 35.051 41.188 36.997C40.8937 37.7005 40.6956 38.4405 40.599 39.197C40.3264 40.661 39.7674 42.0566 38.954 43.304C38 44.795 36.56 46.868 36.213 48.87C36.1713 48.8396 36.1221 48.8212 36.0707 48.8167C36.0194 48.8122 35.9677 48.8217 35.9213 48.8444C35.875 48.867 35.8357 48.9018 35.8076 48.9451C35.7795 48.9883 35.7638 49.0384 35.762 49.09C35.562 52.79 31.055 53.464 29.656 56.49C29.049 57.8 29.674 59.546 28.423 60.49C27.523 61.17 26.158 60.971 25.223 61.665C24.9473 61.8901 24.7054 62.1538 24.505 62.448C24.1716 63.0093 23.7529 63.5153 23.264 63.948C22.9405 64.0874 22.6061 64.1998 22.264 64.284C21.4112 64.6258 20.6823 65.2186 20.174 65.984C19.7234 66.6473 19.4507 67.4153 19.382 68.2143C19.3134 69.0133 19.4511 69.8165 19.782 70.547C18.5184 70.3209 17.2165 70.4572 16.027 70.94C14.669 71.401 13.342 71.979 12.008 72.505C10.558 73.078 8.88802 74.031 7.27802 73.88C5.12402 73.68 3.59501 72.487 1.59101 73.999C0.940852 74.4867 0.455161 75.1614 0.198892 75.9327C-0.057376 76.704 -0.0719886 77.5352 0.157022 78.315C0.716022 80.285 2.40201 80.979 4.14601 81.669C4.8748 81.8722 5.5371 82.264 6.06602 82.805C6.53402 83.44 6.40702 84.316 6.66602 85.016C6.95673 85.7038 7.49078 86.2603 8.16603 86.579C9.26603 87.192 10.466 87.45 11.332 88.438C12.0082 89.3165 12.5225 90.3082 12.851 91.367C13.462 92.991 13.967 94.824 15.293 96.035C16.0407 96.6657 16.9449 97.0827 17.91 97.242C18.5829 97.3163 19.242 97.4846 19.868 97.742C20.5152 98.2381 21.0496 98.866 21.436 99.584C22.771 101.348 26.052 100.017 27.736 99.44C28.112 99.312 27.904 98.704 27.524 98.785C26.756 98.948 25.988 99.115 25.216 99.255C24.082 99.461 23.644 99.631 22.638 98.967C21.757 98.385 21.338 97.476 20.374 96.998C19.153 96.393 17.686 96.526 16.498 95.831C15.6004 95.2198 14.9178 94.3417 14.547 93.321C13.808 91.668 13.425 89.828 12.369 88.328C11.8807 87.6243 11.2286 87.0498 10.469 86.654C10.132 86.475 9.76902 86.348 9.42802 86.187C8.90263 85.9884 8.43623 85.6597 8.07246 85.2317C7.70868 84.8038 7.45943 84.2905 7.34803 83.74C6.69503 81.787 5.61803 81.34 3.74803 80.568C2.10903 79.893 0.666005 78.8 0.896005 76.799C0.965132 76.349 1.12806 75.9186 1.37422 75.5356C1.62037 75.1527 1.94427 74.8257 2.3249 74.5759C2.70553 74.3262 3.13438 74.1592 3.58369 74.0858C4.03299 74.0124 4.49271 74.0343 4.93302 74.15C5.87744 74.4806 6.8599 74.6903 7.857 74.774C9.00072 74.6306 10.1132 74.3006 11.15 73.797C13.393 72.914 17.002 70.737 19.635 71.423C18.8055 72.4213 18.0888 73.5083 17.498 74.664C15.834 77.986 16.498 82.946 13.279 85.302C13.242 85.3349 13.2134 85.3763 13.1959 85.4226C13.1783 85.4689 13.1723 85.5188 13.1783 85.568C13.1843 85.6172 13.2022 85.6642 13.2303 85.7049C13.2585 85.7457 13.2961 85.779 13.34 85.802C15.08 92.026 22.471 95.195 27.477 98.33C34.63 102.808 41.87 107.151 49.077 111.552C49.168 111.61 49.2757 111.637 49.3834 111.627C49.491 111.618 49.5925 111.573 49.672 111.5C52.7568 115.615 56.7297 118.981 61.295 121.348C66.07 123.91 70.937 124.976 76.232 125.748C78.172 126.032 78.765 127.075 79.796 128.519C80.5977 129.632 81.5211 130.651 82.549 131.559C84.6496 133.354 86.9736 134.869 89.463 136.068C94.991 138.876 100.763 141.268 106.415 143.807C113.244 146.877 120.015 150.147 126.939 153.007C126.992 153.034 127.051 153.049 127.11 153.052C127.17 153.054 127.229 153.044 127.285 153.022C127.34 153.001 127.391 152.967 127.432 152.925C127.474 152.882 127.506 152.831 127.527 152.775C129.318 152.656 131.029 151.987 132.426 150.858C133.822 149.73 134.836 148.198 135.328 146.471C135.344 146.411 135.347 146.348 135.335 146.287C135.323 146.226 135.297 146.168 135.259 146.119C135.221 146.069 135.173 146.029 135.117 146.002C135.062 145.974 135 145.959 134.938 145.959C135.224 145.859 135.327 145.415 134.968 145.322L134.935 145.314C137.822 140.684 139.635 135.514 141.547 130.389C141.661 130.383 141.747 130.236 141.633 130.159C142.37 128.195 143.126 126.24 143.968 124.328C144.01 124.338 144.055 124.333 144.094 124.314C144.133 124.295 144.165 124.263 144.183 124.224C144.202 124.184 144.207 124.14 144.197 124.098C144.187 124.055 144.162 124.018 144.128 123.991L144.12 123.986C144.509 123.117 144.914 122.258 145.346 121.41L145.725 121.662C145.74 121.672 145.757 121.679 145.775 121.683C145.792 121.687 145.811 121.687 145.828 121.684C145.846 121.68 145.863 121.674 145.878 121.664C145.894 121.654 145.907 121.641 145.917 121.626C145.927 121.611 145.934 121.594 145.938 121.576C145.942 121.559 145.942 121.54 145.939 121.523C145.935 121.505 145.929 121.488 145.919 121.473C145.909 121.457 145.896 121.444 145.881 121.434C145.753 121.334 145.622 121.234 145.493 121.126C146.074 119.998 146.676 118.881 147.285 117.769C147.471 117.699 147.628 117.566 147.728 117.394C147.742 117.372 147.75 117.347 147.752 117.321C147.754 117.296 147.75 117.27 147.739 117.246C147.729 117.222 147.712 117.202 147.692 117.186C147.672 117.17 147.647 117.159 147.622 117.155C149.06 114.539 150.522 111.936 151.806 109.238C153.785 105.088 155.506 100.82 157.158 96.531C160.488 87.883 163.758 79.264 167.772 70.903C171.786 62.542 176.195 54.371 180.339 46.07C185.076 36.9285 189.04 27.407 192.19 17.605C192.376 17 191.437 16.671 191.25 17.286ZM139.316 7.39901C140.174 6.43991 141.342 5.8136 142.616 5.63C144.853 5.218 147.083 5.89101 149.316 5.60101C151.331 5.33901 152.58 4.29199 154.103 3.08599C156.016 1.57299 157.85 3.025 159.876 3.376C160.61 3.483 161.359 3.43946 162.076 3.24801C162.869 3.14841 163.675 3.22462 164.435 3.47124C165.195 3.71786 165.892 4.12885 166.476 4.67501C167.63 5.54901 168.913 8.13701 170.608 7.98901C171.056 7.91298 171.477 7.72554 171.833 7.44399L172.433 7.00301L174.397 8.376C174.544 8.721 174.331 9.37599 174.347 9.77599C174.454 11.103 175.038 12.3465 175.991 13.276C174.754 13.144 173.518 13.013 172.285 12.871C165.216 12.057 158.151 11.196 151.075 10.442C153.429 9.75401 155.626 8.52201 156.731 6.24801C156.882 5.93801 156.361 5.67401 156.186 5.97301C154.678 8.57301 152.275 9.45001 149.666 10.292C148.333 10.154 146.999 10.0277 145.666 9.91299C147.658 9.42972 149.502 8.46483 151.034 7.10299C151.064 7.07758 151.089 7.04648 151.107 7.01147C151.125 6.97646 151.136 6.93823 151.14 6.89895C151.143 6.85967 151.139 6.82012 151.127 6.78255C151.115 6.74499 151.095 6.71015 151.07 6.68002C151.045 6.64988 151.014 6.62501 150.979 6.60689C150.943 6.58878 150.905 6.57774 150.866 6.57439C150.827 6.57105 150.787 6.57548 150.75 6.58742C150.712 6.59937 150.677 6.61859 150.647 6.644C148.647 8.09642 146.392 9.1605 144 9.781C142.957 9.70233 141.914 9.63565 140.871 9.58099C142.533 9.13834 144.141 8.51043 145.663 7.70901C145.735 7.67032 145.79 7.60523 145.816 7.52724C145.842 7.44925 145.837 7.36431 145.802 7.29003C145.767 7.21575 145.704 7.15783 145.628 7.12823C145.551 7.09862 145.466 7.09961 145.39 7.131C143.214 8.05624 140.981 8.84313 138.705 9.48699C138.453 9.47799 138.205 9.46701 137.951 9.46001C138.352 8.73897 138.809 8.04993 139.316 7.39901V7.39901ZM110.698 12.899C107.549 13.747 104.417 14.693 101.304 15.713C101.633 14.9006 101.859 14.0499 101.975 13.181C102.311 11.391 102.804 8.62701 105.001 8.40401C105.782 8.43014 106.561 8.30761 107.296 8.04299C111.396 6.31299 115.162 9.76499 119.116 10.965C116.286 11.5 113.477 12.151 110.697 12.899H110.698ZM70.06 25.156C70.0047 23.4196 70.5453 21.7166 71.592 20.33C72.379 19.33 73.617 18.449 73.705 17.061C73.6482 16.1536 73.3404 15.2798 72.816 14.537C71.623 12.258 73.216 10.26 75.04 8.937C78.09 6.731 81.953 6.392 85.484 5.437C86.7643 5.08426 88.0135 4.62705 89.219 4.07C89.7384 3.74626 90.3299 3.55618 90.9406 3.51675C91.5513 3.47731 92.1623 3.58973 92.719 3.84399C93.4525 4.34116 94.1589 4.87728 94.835 5.45C99.466 8.583 102.258 1.31698 106.89 2.69298C107.931 3.17394 109.063 3.42466 110.209 3.428C111.234 3.18509 112.187 2.70024 112.986 2.014C113.567 1.5223 114.255 1.17244 114.995 0.991996C116.112 0.835996 117 1.571 117.9 2.07C118.714 2.5903 119.662 2.86141 120.628 2.85C123.011 2.727 125.096 0.52099 127.481 0.77999C129.45 0.99199 129.935 3.22101 131.149 4.44201C132.468 5.76901 136.229 6.67801 135.309 9.20101C135.283 9.26858 135.277 9.34215 135.292 9.41299C133.54 9.41299 131.792 9.455 130.037 9.562C127.083 9.75064 124.141 10.0928 121.222 10.587C118.703 10.515 116.547 8.90001 114.247 8.01601C112.474 7.33401 109.754 6.34899 107.834 6.94799C107.521 7.04799 107.269 7.23899 106.971 7.35699C106.207 7.58284 105.41 7.67554 104.615 7.631C104.343 7.62959 104.073 7.68186 103.821 7.78481C103.569 7.88776 103.339 8.03939 103.146 8.23101C102.439 9.11285 101.94 10.1432 101.688 11.245C101.449 12.039 101.211 15.012 100.597 15.945L100.388 16.014C100.389 15.9764 100.376 15.9398 100.353 15.9101C100.33 15.8805 100.298 15.8597 100.261 15.851L100.132 15.824C100.077 15.8063 100.018 15.8104 99.9663 15.8356C99.9146 15.8608 99.8747 15.905 99.855 15.959C99.837 16.013 99.819 16.067 99.801 16.122C99.792 16.1515 99.7883 16.1823 99.79 16.213C90.99 19.171 82.329 22.701 73.836 26.313L73.636 26.4C72.5586 25.6854 71.2987 25.295 70.006 25.275C70.0229 25.2601 70.0364 25.2418 70.0455 25.2213C70.0547 25.2008 70.0593 25.1785 70.059 25.156H70.06ZM60.568 25.675C61.0891 24.7911 61.846 24.0698 62.754 23.592C64.254 22.992 65.187 23.964 66.161 24.941C66.4411 25.2714 66.7842 25.5426 67.1704 25.7387C67.5566 25.9348 67.978 26.0518 68.41 26.083C69.2298 26.0392 70.0513 26.0392 70.871 26.083C71.5472 26.2008 72.1993 26.4296 72.801 26.76C70.201 27.884 67.632 29.079 65.12 30.383C65.058 30.35 64.996 30.32 64.934 30.288C65.7083 29.4597 66.2976 28.4763 66.663 27.403C66.763 27.08 66.276 26.793 66.104 27.122C65.599 28.1334 65.0145 29.1031 64.356 30.022C63.8638 29.8109 63.3563 29.6371 62.838 29.502C63.5687 28.5721 64.2052 27.5718 64.738 26.516C64.897 26.201 64.351 25.923 64.179 26.234C63.589 27.299 62.979 28.345 62.353 29.387C61.8729 29.2843 61.387 29.2112 60.898 29.168C61.8776 27.9388 62.6705 26.5717 63.251 25.111C63.402 24.755 62.851 24.583 62.692 24.918C61.983 26.382 61.102 27.718 60.329 29.129C59.5717 29.097 58.8131 29.1285 58.061 29.223C58.95 28.08 59.712 26.853 60.568 25.671V25.675ZM20.519 66.471C20.9 65.8198 21.4608 65.2924 22.134 64.952C22.7625 64.7629 23.3707 64.5124 23.95 64.204C24.374 63.879 24.392 63.647 24.709 63.25C25.1811 62.462 25.9332 61.8813 26.815 61.624C27.5601 61.5041 28.2786 61.255 28.938 60.888C29.216 60.6884 29.4454 60.4286 29.609 60.128C29.7726 59.8275 29.8663 59.4938 29.883 59.152C30.023 58.052 29.772 57.484 30.416 56.364C30.9261 55.6037 31.5771 54.9482 32.334 54.433C33.8 53.295 35.619 52.171 36.187 50.389C36.3187 51.1763 36.7052 51.8986 37.287 52.445C37.319 52.4787 37.3625 52.4989 37.4089 52.5015C37.4552 52.5042 37.5008 52.489 37.5364 52.4591C37.5719 52.4292 37.5946 52.3868 37.5999 52.3407C37.6053 52.2946 37.5928 52.2482 37.565 52.211C35.083 48.447 39.051 45.129 40.551 41.933C40.8588 41.2437 41.0838 40.5203 41.221 39.778C41.587 38.035 41.492 36.749 43.621 36.311C44.59 36.111 45.164 36.085 45.707 35.134C46.174 34.315 46.181 33.101 46.958 32.47C47.791 31.793 49.033 32.143 49.995 32.17C51.2478 32.1612 52.4829 31.8729 53.61 31.326C56.1832 30.1203 59.0624 29.7262 61.865 30.196C61.805 30.296 61.747 30.396 61.687 30.496C61.627 30.596 61.758 30.739 61.849 30.643C61.969 30.517 62.086 30.388 62.202 30.258C62.7543 30.3683 63.3007 30.5064 63.839 30.672C63.751 30.772 63.666 30.88 63.574 30.983C63.5451 31.0133 63.5279 31.0529 63.5257 31.0948C63.5235 31.1366 63.5364 31.1778 63.562 31.211C60.9905 32.5989 58.5059 34.1421 56.122 35.832C53.3099 37.8657 50.6357 40.0836 48.117 42.471C48.2148 42.2938 48.2926 42.1064 48.349 41.912C48.683 40.738 48.323 39.88 49.529 38.935C50.229 38.39 51.104 38.135 51.781 37.546C52.3357 37.0556 52.7809 36.4539 53.0876 35.7801C53.3942 35.1062 53.5556 34.3753 53.561 33.635C53.579 33.109 52.761 33.045 52.742 33.576C52.653 36.176 51.031 36.944 49.114 38.209C48.6657 38.4669 48.2932 38.8384 48.0341 39.2861C47.7749 39.7337 47.6383 40.2418 47.638 40.759C47.5878 41.4004 47.359 42.015 46.9774 42.5331C46.5958 43.0511 46.0767 43.4519 45.479 43.69C44.794 44.09 44.087 44.436 43.415 44.856C41.8817 45.8229 40.4713 46.9723 39.215 48.279C39.1821 48.3067 39.1616 48.3464 39.1579 48.3892C39.1543 48.4321 39.1678 48.4746 39.1955 48.5075C39.2232 48.5404 39.2629 48.5609 39.3057 48.5646C39.3486 48.5682 39.3911 48.5547 39.424 48.527C41.2908 47.073 43.2742 45.7753 45.354 44.647C45.738 44.44 46.146 44.227 46.534 43.988C44.552 45.914 42.634 47.907 40.745 49.918C35.458 55.545 30.317 61.285 24.59 66.477C23.0957 67.7844 21.672 69.1703 20.325 70.629C20.0117 69.9737 19.8654 69.2511 19.8992 68.5256C19.9331 67.8001 20.146 67.0942 20.519 66.471V66.471ZM95.56 135.021C95.2797 134.842 94.9655 134.723 94.637 134.672C95.0845 134.668 95.5198 134.818 95.871 135.095C96.547 135.704 97.0436 136.485 97.307 137.356C96.9681 136.423 96.3602 135.611 95.56 135.023V135.021ZM91.695 136.058L91.317 135.879C91.4396 135.52 91.6526 135.199 91.9354 134.946C92.2183 134.693 92.5615 134.518 92.932 134.436C92.714 134.523 92.497 134.62 92.282 134.725C92.2283 134.754 92.1837 134.797 92.1534 134.85C92.123 134.903 92.1082 134.963 92.1106 135.024C92.113 135.085 92.1325 135.144 92.1669 135.194C92.2013 135.244 92.2492 135.284 92.305 135.308C92.0913 135.485 91.9031 135.691 91.746 135.92C91.7172 135.962 91.6993 136.01 91.694 136.06L91.695 136.058ZM94.43 135.4C94.135 135.424 93.8484 135.511 93.59 135.655C93.4867 135.657 93.3835 135.665 93.281 135.678C93.1578 135.65 93.0323 135.632 92.906 135.626C93.1303 135.485 93.3814 135.392 93.6434 135.354C93.9055 135.315 94.1727 135.332 94.428 135.402L94.43 135.4ZM94.694 137.429C94.1553 137.186 93.6174 136.942 93.08 136.696C93.3729 136.611 93.6824 136.602 93.98 136.668C94.2499 136.89 94.4897 137.146 94.693 137.43L94.694 137.429ZM95.907 137.975C95.8451 137.593 95.694 137.231 95.466 136.918C95.9304 137.233 96.361 137.595 96.751 137.999C96.79 138.131 96.823 138.264 96.851 138.399L95.907 137.975ZM97.822 138.831C97.9728 138.415 98.0259 137.969 97.9771 137.529C97.9284 137.089 97.7792 136.666 97.541 136.293C97.8735 136.63 98.0949 137.062 98.1753 137.528C98.2557 137.995 98.1914 138.476 97.991 138.905L97.822 138.831ZM146.222 117.009C145.557 116.628 144.913 116.21 144.293 115.758C143.372 115.185 142.453 114.607 141.547 114.011L141.414 113.922C143.08 114.852 144.687 115.883 146.228 117.009H146.222Z" fill="#EBA40C"/>
<path id="Path 755" opacity="0.5" d="M14.325 73.214C14.3437 73.1501 14.3394 73.0818 14.313 73.0207C14.2865 72.9597 14.2395 72.9098 14.1802 72.8798C14.1208 72.8497 14.0528 72.8414 13.9879 72.8562C13.9231 72.8711 13.8654 72.9081 13.825 72.961C13.0975 74.1371 12.1859 75.1888 11.1251 76.076C9.86662 76.9316 8.46055 77.5466 6.97805 77.89C6.80205 77.94 6.78503 78.233 6.99703 78.234C8.56859 78.1774 10.0917 77.6755 11.3891 76.7868C12.6864 75.898 13.7046 74.659 14.325 73.214V73.214Z" fill="#EBA40C"/>
<path id="Path 756" opacity="0.5" d="M10.556 83.56C11.9016 82.6845 13.0572 81.5469 13.9538 80.2153C14.8505 78.8836 15.4699 77.3851 15.775 75.809C15.832 75.489 15.407 75.37 15.213 75.564C15.245 75.474 15.279 75.384 15.306 75.293C15.3298 75.2094 15.3206 75.1198 15.2803 75.0427C15.2401 74.9657 15.1718 74.907 15.0896 74.8787C15.0074 74.8504 14.9175 74.8547 14.8383 74.8906C14.7592 74.9266 14.6968 74.9915 14.6641 75.072C13.7491 77.572 12.012 78.579 9.71703 79.605C9.68336 79.6222 9.65618 79.6498 9.63951 79.6837C9.62285 79.7177 9.61761 79.7561 9.62459 79.7932C9.63157 79.8303 9.6504 79.8642 9.67824 79.8898C9.70608 79.9154 9.74143 79.9312 9.77904 79.935C11.986 79.993 13.989 78.186 14.938 76.221C13.9961 78.9245 12.4483 81.3767 10.413 83.39C10.3905 83.409 10.3764 83.4361 10.3739 83.4655C10.3714 83.4948 10.3806 83.524 10.3996 83.5465C10.4185 83.569 10.4456 83.5832 10.475 83.5857C10.5043 83.5882 10.5335 83.579 10.556 83.56V83.56Z" fill="#EBA40C"/>
<path id="Path 757" opacity="0.5" d="M80.092 22.818C80.5525 21.8343 80.8514 20.7828 80.977 19.704C80.9968 19.7173 81.0194 19.7259 81.043 19.729C83.134 19.998 84.443 18.343 85.543 16.808C86.617 15.308 87.605 14.208 89.554 14.108C89.817 14.093 90.054 14.079 90.281 14.048C90.2971 14.0743 90.3196 14.096 90.3465 14.111C90.3734 14.1261 90.4037 14.134 90.4345 14.134C90.4653 14.134 90.4956 14.1261 90.5225 14.111C90.5494 14.096 90.5719 14.0743 90.588 14.048C90.604 14.024 90.621 14.004 90.637 13.98C91.0453 13.8834 91.4112 13.6571 91.68 13.335C91.7071 13.2974 91.725 13.254 91.7325 13.2083C91.7399 13.1626 91.7367 13.1157 91.7231 13.0715C91.7094 13.0272 91.6857 12.9867 91.6537 12.9531C91.6218 12.9196 91.5825 12.8938 91.539 12.878C92.4869 11.9839 93.6037 11.2879 94.824 10.831C94.8819 10.8015 94.9274 10.7524 94.9523 10.6924C94.9772 10.6324 94.9798 10.5655 94.9598 10.5037C94.9398 10.4419 94.8985 10.3892 94.8432 10.3552C94.7878 10.3212 94.7222 10.308 94.658 10.318C92.9529 10.7703 91.4857 11.8585 90.558 13.359C89.856 13.4902 89.1449 13.5671 88.431 13.589C90.2048 11.665 92.0972 9.85383 94.097 8.16598C94.1557 8.11584 94.1921 8.04452 94.1983 7.96761C94.2045 7.89071 94.1801 7.81447 94.1302 7.75555C94.0804 7.69662 94.0093 7.65983 93.9325 7.65316C93.8556 7.6465 93.7792 7.67052 93.72 7.71999C91.5266 9.56265 89.5107 11.6069 87.699 13.826C87.142 14.1099 86.6429 14.4952 86.227 14.962L86.217 14.973C87.1444 13.0512 88.2738 11.2337 89.586 9.55099C89.798 9.28599 89.361 8.985 89.15 9.251C87.5437 11.2067 86.3109 13.4412 85.513 15.843C84.335 17.457 83.265 19.494 81.067 19.434C81.0555 19.4342 81.0441 19.4359 81.033 19.439C81.081 19.209 81.133 18.978 81.198 18.739C81.598 17.315 82.734 16.101 82.912 14.613C83.085 13.165 82.001 11.313 80.376 11.858C80.3196 11.8876 80.2741 11.9344 80.2461 11.9916C80.2181 12.0488 80.209 12.1133 80.2201 12.176C80.2312 12.2388 80.262 12.2963 80.308 12.3403C80.354 12.3844 80.4129 12.4126 80.476 12.421C82.152 12.353 82.361 14.058 82.027 15.269C81.787 16.14 81.174 16.923 80.846 17.769C80.235 19.341 80.394 21.084 79.797 22.66C79.734 22.841 80.001 22.985 80.092 22.818Z" fill="#EBA40C"/>
<path id="Path 758" opacity="0.5" d="M122.829 8.88399C123.224 8.59339 123.602 8.27917 123.959 7.94302C124.331 7.91159 124.701 7.8585 125.067 7.78402C125.83 8.17441 126.676 8.37422 127.533 8.36639C128.389 8.35855 129.232 8.14328 129.987 7.73901C130.059 7.7019 130.113 7.63841 130.139 7.56191C130.165 7.48541 130.16 7.40184 130.126 7.32879C130.091 7.25574 130.03 7.1989 129.955 7.17022C129.879 7.14154 129.795 7.14326 129.721 7.17501C128.973 7.50089 128.174 7.69508 127.359 7.74902C126.851 7.75253 126.344 7.69986 125.847 7.592C126.954 7.2869 127.983 6.74738 128.863 6.01C129.111 5.796 128.844 5.332 128.542 5.51C127.293 6.28267 125.954 6.90054 124.556 7.35C125.931 5.925 127.14 4.21901 128.322 2.76601C128.607 2.41601 128.038 2.04402 127.75 2.37402C126.564 3.73102 125.429 5.135 124.258 6.505C123.922 6.899 123.549 7.311 123.147 7.695C123.121 7.69961 123.098 7.7115 123.079 7.72924C123.06 7.74698 123.046 7.76981 123.04 7.79501C121.763 8.98101 120.188 9.843 118.426 8.91C118.194 8.788 117.957 9.11 118.189 9.255C118.903 9.68976 119.736 9.88796 120.569 9.82134C121.402 9.75472 122.193 9.42667 122.829 8.88399V8.88399Z" fill="#EBA40C"/>
<path id="Path 759" opacity="0.5" d="M152.141 104.616C150.179 102.343 147.597 100.69 144.712 99.858C144.63 99.8343 144.542 99.843 144.467 99.8823C144.391 99.9215 144.334 99.9883 144.306 100.069C144.278 100.149 144.282 100.237 144.318 100.315C144.353 100.392 144.417 100.453 144.496 100.485C147.234 101.394 149.737 102.896 151.827 104.885C152.016 105.054 152.316 104.824 152.141 104.616Z" fill="#EBA40C"/>
<path id="Path 760" opacity="0.5" d="M145.31 98.271C147.956 99.638 150.618 100.878 153.14 102.48C153.186 102.511 153.242 102.523 153.297 102.513C153.351 102.503 153.4 102.472 153.431 102.426C153.462 102.38 153.474 102.324 153.464 102.269C153.454 102.215 153.423 102.166 153.377 102.135C150.955 100.374 148.334 98.9057 145.567 97.761C145.269 97.65 145.01 98.12 145.31 98.271Z" fill="#EBA40C"/>
<path id="Path 761" opacity="0.5" d="M155.57 97.323C153.805 95.4643 151.482 94.232 148.953 93.813C148.505 93.737 148.453 94.45 148.902 94.522C151.28 94.8818 153.493 95.9523 155.251 97.593C155.442 97.771 155.76 97.515 155.57 97.323Z" fill="#EBA40C"/>
<path id="Path 762" opacity="0.5" d="M156.108 94.362C156.15 94.3878 156.2 94.3981 156.248 94.3911C156.297 94.384 156.342 94.3602 156.375 94.3236C156.408 94.287 156.427 94.24 156.429 94.1908C156.431 94.1416 156.416 94.0932 156.386 94.054C155.336 92.501 152.313 91.125 150.454 91.592C150.444 91.5944 150.435 91.5999 150.429 91.6076C150.422 91.6153 150.418 91.6249 150.418 91.635C150.417 91.6451 150.419 91.6552 150.424 91.6638C150.43 91.6724 150.438 91.6791 150.447 91.683C151.356 92.083 152.37 92.183 153.292 92.597C154.261 93.1358 155.201 93.725 156.108 94.362V94.362Z" fill="#EBA40C"/>
<path id="Path 763" opacity="0.5" d="M157.122 91.446C155.605 90.0108 153.61 89.1889 151.522 89.139C151.454 89.144 151.461 89.239 151.513 89.261C152.38 89.619 153.299 89.809 154.157 90.205C155.099 90.6708 155.986 91.2411 156.8 91.905C157.099 92.131 157.381 91.681 157.122 91.446Z" fill="#EBA40C"/>
<path id="Path 764" opacity="0.5" d="M152.648 87.231C152.64 87.2307 152.631 87.2329 152.624 87.2371C152.617 87.2414 152.611 87.2476 152.608 87.2551C152.604 87.2625 152.602 87.2709 152.603 87.2792C152.604 87.2875 152.607 87.2954 152.612 87.302C153.365 87.9401 154.194 88.4832 155.08 88.919C155.904 89.4946 156.771 90.0074 157.672 90.453C157.86 90.53 158.072 90.253 157.909 90.107C157.064 89.4324 156.145 88.8554 155.17 88.387C154.395 87.8729 153.544 87.4829 152.648 87.231V87.231Z" fill="#EBA40C"/>
<path id="Path 765" opacity="0.5" d="M158.538 87.644C156.905 86.3689 155.054 85.4018 153.075 84.79C153.031 84.7788 152.984 84.7847 152.944 84.8064C152.904 84.8281 152.873 84.8641 152.858 84.9073C152.843 84.9504 152.845 84.9976 152.864 85.0394C152.882 85.0812 152.915 85.1146 152.957 85.133C154.865 85.8249 156.645 86.8271 158.226 88.099C158.503 88.32 158.818 87.862 158.538 87.644Z" fill="#EBA40C"/>
<path id="Path 766" opacity="0.5" d="M159.868 85.287C158.89 84.1704 157.673 83.2882 156.308 82.7057C154.943 82.1232 153.464 81.8553 151.981 81.922C151.826 81.932 151.857 82.161 151.996 82.18C154.789 82.4583 157.394 83.7116 159.355 85.72C159.653 86.027 160.16 85.609 159.868 85.287Z" fill="#EBA40C"/>
<path id="Path 767" opacity="0.5" d="M161.176 82.214C159.109 80.0869 156.334 78.7917 153.376 78.574C153.129 78.554 153.112 78.911 153.348 78.952C156.107 79.4132 158.662 80.6973 160.679 82.636C160.975 82.916 161.473 82.523 161.176 82.214Z" fill="#EBA40C"/>
<path id="Path 768" opacity="0.5" d="M161.779 79.914C159.623 77.9069 156.908 76.6023 153.994 76.173C153.76 76.136 153.744 76.49 153.968 76.536C156.706 77.1075 159.232 78.4247 161.268 80.342C161.582 80.63 162.09 80.206 161.779 79.914Z" fill="#EBA40C"/>
<path id="Path 769" opacity="0.5" d="M163.991 74.936C163.014 73.8798 161.832 73.0337 160.517 72.4492C159.202 71.8646 157.782 71.5539 156.343 71.536C156.287 71.5319 156.231 71.5503 156.188 71.5873C156.145 71.6242 156.119 71.6766 156.115 71.733C156.111 71.7893 156.129 71.845 156.166 71.8878C156.203 71.9306 156.256 71.9569 156.312 71.961C159.019 72.2493 161.549 73.4456 163.49 75.355C163.791 75.633 164.277 75.264 163.991 74.936Z" fill="#EBA40C"/>
<path id="Path 770" opacity="0.5" d="M165.63 71.954C163.888 69.544 160.62 68.931 157.877 68.43C157.659 68.39 157.577 68.76 157.799 68.813C160.606 69.495 163.049 70.291 165.159 72.35C165.213 72.4083 165.287 72.4436 165.366 72.4486C165.445 72.4536 165.523 72.4279 165.584 72.3769C165.644 72.326 165.683 72.2535 165.692 72.1748C165.7 72.096 165.678 72.0169 165.63 71.954V71.954Z" fill="#EBA40C"/>
<path id="Path 771" opacity="0.5" d="M166.708 68.968C165.118 66.818 162.182 65.781 159.6 65.697C159.558 65.6954 159.517 65.7102 159.486 65.7383C159.454 65.7664 159.435 65.8055 159.432 65.8474C159.429 65.8893 159.443 65.9308 159.47 65.963C159.497 65.9952 159.535 66.0156 159.577 66.02C162.377 66.346 164.239 67.635 166.326 69.391C166.587 69.612 166.891 69.217 166.708 68.968Z" fill="#EBA40C"/>
<path id="Path 772" opacity="0.5" d="M168.477 66.346C166.496 64.5784 164.069 63.3875 161.459 62.903C161.229 62.856 161.146 63.252 161.376 63.31C163.837 63.9583 166.117 65.1618 168.041 66.828C168.322 67.056 168.752 66.591 168.477 66.346Z" fill="#EBA40C"/>
<path id="Path 773" opacity="0.5" d="M169.238 63.919C167.701 62.579 165.839 61.6659 163.838 61.271C163.82 61.2705 163.803 61.2756 163.788 61.2857C163.773 61.2958 163.762 61.3103 163.756 61.3272C163.75 61.344 163.75 61.3622 163.755 61.3792C163.76 61.3963 163.771 61.4113 163.785 61.422C164.614 61.946 165.565 62.269 166.423 62.747C167.284 63.2458 168.115 63.7934 168.913 64.387C169.216 64.602 169.521 64.144 169.238 63.919Z" fill="#EBA40C"/>
<path id="Path 774" opacity="0.5" d="M170.918 61.832C169.664 59.504 167.033 58.955 164.618 58.632C164.418 58.605 164.342 58.942 164.545 58.984C166.794 59.463 169.09 59.984 170.364 62.096C170.565 62.428 171.109 62.186 170.918 61.832Z" fill="#EBA40C"/>
<path id="Path 775" opacity="0.5" d="M172.719 57.535C171.039 55.8677 168.986 54.625 166.73 53.91C166.688 53.8986 166.644 53.9035 166.606 53.9237C166.567 53.944 166.538 53.978 166.524 54.0189C166.51 54.0598 166.512 54.1045 166.53 54.1439C166.548 54.1833 166.58 54.2145 166.62 54.231C168.714 55.0993 170.629 56.3492 172.267 57.917C172.539 58.171 172.991 57.807 172.719 57.535Z" fill="#EBA40C"/>
<path id="Path 776" opacity="0.5" d="M179.666 43.628C178.567 42.5919 177.218 41.859 175.75 41.501C175.699 41.4852 175.644 41.4899 175.596 41.514C175.548 41.5381 175.512 41.5798 175.495 41.6303C175.477 41.6808 175.48 41.736 175.502 41.7845C175.525 41.8329 175.565 41.8708 175.615 41.89C176.951 42.3963 178.183 43.1418 179.251 44.09C179.519 44.309 179.915 43.875 179.666 43.628Z" fill="#EBA40C"/>
<path id="Path 777" opacity="0.5" d="M181.243 40.9C180.098 40.0159 178.847 39.2769 177.52 38.7C177.334 38.618 177.182 38.918 177.359 39.021C178.585 39.743 179.767 40.536 180.9 41.396C181.213 41.637 181.55 41.139 181.243 40.9Z" fill="#EBA40C"/>
<path id="Path 778" opacity="0.5" d="M179.433 37.433C180.216 37.9039 181.029 38.3215 181.868 38.683C182.168 38.797 182.415 38.338 182.128 38.166C181.321 37.7353 180.486 37.3598 179.628 37.042C179.404 36.945 179.212 37.314 179.433 37.433Z" fill="#EBA40C"/>
<path id="Path 779" opacity="0.5" d="M182.963 35.922C182.292 35.3558 181.518 34.9236 180.684 34.649C180.406 34.549 180.284 34.949 180.537 35.074C181.244 35.4521 181.922 35.8829 182.564 36.363C182.832 36.545 183.22 36.154 182.963 35.922Z" fill="#EBA40C"/>
<path id="Path 780" opacity="0.5" d="M181.845 32.47C182.467 32.9629 183.215 33.2719 184.003 33.362C184.187 33.353 184.315 33.115 184.131 32.995C183.807 32.8255 183.463 32.6955 183.108 32.608C182.733 32.4774 182.366 32.3265 182.008 32.156C181.822 32.069 181.678 32.364 181.845 32.47Z" fill="#EBA40C"/>
<path id="Path 781" opacity="0.5" d="M184.7 29.251C185.002 29.1538 185.323 29.1355 185.634 29.198C185.691 29.2011 185.747 29.1836 185.792 29.1488C185.837 29.114 185.868 29.0642 185.88 29.0084C185.891 28.9526 185.883 28.8945 185.855 28.8447C185.827 28.7949 185.783 28.7567 185.729 28.737C185.316 28.6639 184.89 28.7354 184.524 28.9394C184.158 29.1434 183.873 29.4674 183.717 29.857C183.709 29.8743 183.705 29.8934 183.706 29.9126C183.707 29.9318 183.712 29.9505 183.722 29.967C183.732 29.9834 183.746 29.9971 183.763 30.0069C183.779 30.0167 183.798 30.0222 183.817 30.023C184.145 30.3627 184.505 30.6701 184.892 30.941C184.949 30.98 185.019 30.9948 185.087 30.9821C185.155 30.9695 185.215 30.9304 185.254 30.8735C185.293 30.8166 185.307 30.7466 185.295 30.6788C185.282 30.611 185.243 30.551 185.186 30.512C184.816 30.2641 184.424 30.05 184.016 29.872C184.17 29.596 184.411 29.378 184.7 29.251V29.251Z" fill="#EBA40C"/>
<path id="Path 782" opacity="0.5" d="M38.6361 71.7C35.2661 74.539 31.9971 77.5 28.7031 80.43C27.1561 81.805 25.6191 83.192 24.0691 84.563C23.1021 85.418 20.531 87.914 18.859 87.705C23.5103 82.7196 27.7508 77.3661 31.5391 71.697C31.5811 71.6358 31.5971 71.5603 31.5835 71.4873C31.5699 71.4142 31.5278 71.3496 31.4666 71.3075C31.4053 71.2655 31.3298 71.2495 31.2568 71.2631C31.1837 71.2767 31.1191 71.3188 31.0771 71.38C27.6431 75.89 24.2771 80.406 20.6581 84.752C21.5301 83.132 22.2881 81.416 23.2101 79.914C25.0574 76.9385 27.1108 74.0959 29.355 71.407C29.649 71.051 29.0651 70.669 28.7701 71.007C26.5256 73.5597 24.5026 76.299 22.7231 79.195C21.1341 81.782 19.938 84.595 18.359 87.183C18.2641 87.1571 18.1634 87.1626 18.0718 87.1986C17.9803 87.2347 17.9028 87.2994 17.851 87.383C17.7841 87.474 17.7527 87.5864 17.7629 87.699C17.773 87.8115 17.8239 87.9164 17.9061 87.994C17.9121 88.187 18.1431 88.364 18.3061 88.194L18.3351 88.163C18.378 88.1583 18.4201 88.1475 18.4601 88.131C19.4971 88.531 20.9331 87.685 21.7701 87.171C23.6015 85.9044 25.3236 84.4865 26.9181 82.932C30.9731 79.369 35.0731 75.842 39.0251 72.166C39.3051 71.897 38.9331 71.45 38.6361 71.7Z" fill="#EBA40C"/>
<path id="Path 783" opacity="0.5" d="M56.374 87.838C56.374 87.601 56.003 87.571 56.004 87.811C56.012 90.242 59.531 91.249 60.312 88.691C60.402 88.4488 60.4424 88.191 60.4308 87.9329C60.4193 87.6748 60.356 87.4217 60.2447 87.1885C60.1334 86.9553 59.9765 86.7469 59.7831 86.5755C59.5897 86.4042 59.3639 86.2734 59.119 86.191C58.8498 86.1124 58.5675 86.0883 58.2888 86.1201C58.0101 86.1519 57.7405 86.239 57.4959 86.3762C57.2513 86.5135 57.0365 86.6982 56.8641 86.9195C56.6917 87.1408 56.5653 87.3942 56.492 87.665C56.4756 87.7224 56.4824 87.784 56.511 87.8364C56.5397 87.8889 56.5878 87.9279 56.645 87.945C56.5495 88.0767 56.4914 88.2319 56.477 88.394C56.477 88.404 56.477 88.413 56.477 88.423C56.4113 88.2349 56.3765 88.0373 56.374 87.838V87.838ZM57.744 87.93C57.7601 87.9086 57.7789 87.8894 57.8 87.873C57.7786 87.9257 57.7635 87.9807 57.755 88.037C57.7403 88.1291 57.7483 88.2234 57.7783 88.3118C57.8083 88.4001 57.8593 88.4799 57.927 88.544C57.737 88.519 57.674 88.317 57.745 87.93H57.744ZM58.885 88.567C58.9483 88.4458 58.9717 88.3077 58.9517 88.1725C58.9318 88.0373 58.8696 87.9118 58.774 87.814C58.774 87.798 58.764 87.782 58.759 87.766C58.9445 87.8995 59.0808 88.0903 59.147 88.309C59.1083 88.4759 59.0431 88.6357 58.954 88.782C58.9116 88.8483 58.8645 88.9115 58.813 88.971C58.6533 89.0299 58.4827 89.0531 58.313 89.039C58.4375 89.0073 58.5534 88.9485 58.6525 88.8667C58.7516 88.7849 58.8313 88.6822 58.886 88.566L58.885 88.567ZM59.131 89.479C59.149 89.47 59.168 89.463 59.185 89.455C59.3821 89.3595 59.5419 89.2012 59.6391 89.0049C59.7363 88.8087 59.7655 88.5857 59.722 88.371C59.838 87.619 59.501 86.792 58.607 86.78C58.315 86.7964 58.0306 86.88 57.7762 87.0243C57.5217 87.1687 57.304 87.3698 57.14 87.612C57.1347 87.6116 57.1294 87.6116 57.124 87.612C57.0657 87.6299 57.0092 87.653 56.955 87.681C57.0282 87.4687 57.143 87.2731 57.2929 87.1058C57.4427 86.9386 57.6245 86.803 57.8275 86.707C58.0306 86.611 58.2508 86.5566 58.4751 86.547C58.6995 86.5374 58.9235 86.5728 59.134 86.651C59.4308 86.8256 59.6678 87.086 59.8138 87.3978C59.9597 87.7097 60.0078 88.0585 59.9518 88.3982C59.8957 88.7379 59.7381 89.0528 59.4997 89.3012C59.2612 89.5496 58.9532 89.72 58.616 89.79C58.8084 89.7247 58.9844 89.6186 59.132 89.479H59.131Z" fill="#EBA40C"/>
<path id="Path 784" opacity="0.5" d="M72.884 74.072C72.9495 74.0307 73.0005 73.9699 73.0297 73.8982C73.0589 73.8264 73.065 73.7474 73.047 73.672C73.071 73.617 73.096 73.563 73.122 73.509C73.1384 73.4585 73.138 73.4041 73.1209 73.3539C73.1038 73.3036 73.071 73.2602 73.0272 73.2302C72.9835 73.2002 72.9312 73.1851 72.8781 73.1872C72.8251 73.1893 72.7742 73.2086 72.733 73.242L72.609 73.369C72.5411 73.379 72.4773 73.4075 72.4244 73.4512C72.3715 73.4949 72.3316 73.5522 72.309 73.617C72.282 73.6935 72.2796 73.7765 72.3023 73.8544C72.3249 73.9323 72.3714 74.0011 72.4352 74.0513C72.499 74.1014 72.5769 74.1302 72.6579 74.1338C72.7389 74.1373 72.8191 74.1154 72.887 74.071L72.884 74.072Z" fill="#EBA40C"/>
<path id="Path 785" opacity="0.5" d="M78.375 79.968C78.4053 79.9241 78.4168 79.87 78.4072 79.8176C78.3975 79.7652 78.3674 79.7187 78.3235 79.6885C78.2796 79.6583 78.2255 79.6467 78.1731 79.6564C78.1207 79.666 78.0742 79.6961 78.044 79.74L77.998 79.791C77.9164 79.7896 77.8365 79.8145 77.7701 79.8621C77.7038 79.9097 77.6545 79.9773 77.6296 80.0551C77.6047 80.1328 77.6055 80.2165 77.6319 80.2938C77.6583 80.3711 77.7089 80.4378 77.7761 80.484C77.8434 80.5303 77.9238 80.5537 78.0054 80.5507C78.087 80.5477 78.1654 80.5185 78.2291 80.4675C78.2929 80.4164 78.3384 80.3462 78.3591 80.2672C78.3798 80.1883 78.3745 80.1047 78.344 80.029L78.375 79.968Z" fill="#EBA40C"/>
<path id="Path 786" opacity="0.5" d="M82.269 81.489C82.2114 81.5164 82.1621 81.5585 82.1259 81.6111C82.0898 81.6636 82.0681 81.7248 82.0631 81.7884C82.0581 81.852 82.07 81.9158 82.0975 81.9733C82.125 82.0309 82.1672 82.0802 82.2198 82.1162C82.2724 82.1523 82.3336 82.1738 82.3972 82.1787C82.4608 82.1836 82.5246 82.1716 82.5821 82.144C82.6396 82.1164 82.6888 82.0742 82.7248 82.0215C82.7607 81.9688 82.7822 81.9076 82.787 81.844C82.8045 81.7786 82.8344 81.7172 82.875 81.663C82.9139 81.6009 82.9273 81.5262 82.9124 81.4544C82.8974 81.3827 82.8554 81.3195 82.795 81.2781C82.7345 81.2366 82.6604 81.2201 82.5881 81.2321C82.5158 81.244 82.4509 81.2834 82.407 81.342C82.3708 81.3994 82.324 81.4493 82.269 81.489V81.489Z" fill="#EBA40C"/>
<path id="Path 787" opacity="0.5" d="M88.797 78.155C88.8103 78.2178 88.8403 78.2757 88.8838 78.3228C88.9274 78.3699 88.9829 78.4042 89.0444 78.4223C89.106 78.4403 89.1712 78.4414 89.2333 78.4253C89.2954 78.4092 89.352 78.3766 89.397 78.331C89.503 78.2915 89.6112 78.2581 89.721 78.231C89.7832 78.2162 89.8373 78.1781 89.8722 78.1245C89.907 78.0709 89.9199 78.006 89.9082 77.9432C89.8966 77.8804 89.8611 77.8244 89.8093 77.787C89.7575 77.7495 89.6934 77.7334 89.63 77.742C89.5183 77.7573 89.4058 77.7667 89.293 77.77C89.2342 77.7434 89.1691 77.7333 89.105 77.7409C89.0408 77.7485 88.98 77.7734 88.9289 77.813C88.8779 77.8526 88.8387 77.9054 88.8154 77.9656C88.7922 78.0259 88.7858 78.0914 88.797 78.155V78.155Z" fill="#EBA40C"/>
<path id="Path 788" opacity="0.5" d="M81.13 100.696C80.7317 100.42 80.2681 100.253 79.7854 100.213C79.3027 100.172 78.8176 100.258 78.3787 100.463C77.9397 100.668 77.5621 100.984 77.2835 101.381C77.0049 101.777 76.8351 102.24 76.791 102.722C76.6307 103.191 76.6395 103.7 76.816 104.163C77.0405 104.643 77.4165 105.037 77.8862 105.282C78.356 105.528 78.8934 105.613 79.416 105.523C81.744 105.205 83.448 102.279 81.13 100.696ZM79.73 104.83C79.486 104.917 79.2262 104.951 78.968 104.93C78.7221 104.907 78.4833 104.835 78.2654 104.719C78.0474 104.603 77.8546 104.445 77.6982 104.253C77.5418 104.062 77.4248 103.842 77.354 103.606C77.2833 103.369 77.2602 103.121 77.286 102.875C77.3406 102.7 77.4165 102.532 77.512 102.375C77.512 102.404 77.503 102.43 77.502 102.46C77.4847 103.069 77.7094 103.661 78.1268 104.105C78.5443 104.549 79.1207 104.81 79.73 104.831V104.83ZM80.802 103.736C80.7683 103.835 80.7262 103.932 80.676 104.024C80.362 104.225 79.9842 104.301 79.617 104.237C79.8876 104.187 80.1432 104.076 80.3643 103.912C80.5855 103.748 80.7663 103.536 80.893 103.292C80.8795 103.443 80.849 103.592 80.802 103.736ZM80.702 102.228C80.7115 102.313 80.7132 102.399 80.707 102.484C80.6641 102.805 80.5321 103.107 80.326 103.356C80.3899 103.259 80.4335 103.15 80.454 103.035C80.4881 102.916 80.492 102.79 80.4651 102.669C80.4383 102.548 80.3816 102.435 80.3002 102.341C80.2189 102.248 80.1154 102.176 79.9992 102.132C79.8831 102.089 79.7579 102.075 79.635 102.092C79.7897 102.046 79.9558 102.054 80.105 102.116C80.2047 102.072 80.3154 102.059 80.4225 102.079C80.5296 102.1 80.6281 102.152 80.705 102.229L80.702 102.228ZM78.802 103.128C78.8496 103.255 78.9256 103.37 79.0242 103.463C79.1228 103.556 79.2414 103.626 79.3709 103.666C79.5004 103.707 79.6374 103.717 79.7716 103.697C79.9057 103.676 80.0334 103.625 80.145 103.548C79.9899 103.702 79.7865 103.798 79.569 103.82C79.3706 103.843 79.1695 103.816 78.9847 103.74C78.7999 103.664 78.6374 103.543 78.5126 103.387C78.3878 103.231 78.3047 103.046 78.2712 102.849C78.2376 102.652 78.2548 102.449 78.321 102.261C78.328 102.236 78.329 102.21 78.324 102.185C78.3189 102.16 78.3079 102.136 78.2919 102.116C78.2758 102.096 78.2552 102.08 78.2318 102.069C78.2083 102.059 78.1827 102.054 78.157 102.055C78.3428 101.738 78.6355 101.497 78.9826 101.375C79.3298 101.254 79.7088 101.26 80.052 101.392C79.8504 101.413 79.6555 101.477 79.4802 101.579C79.305 101.681 79.1533 101.818 79.0352 101.983C78.9171 102.148 78.8353 102.336 78.795 102.535C78.7548 102.733 78.7572 102.938 78.802 103.136V103.128Z" fill="#EBA40C"/>
<path id="Path 789" opacity="0.5" d="M95.439 93.576C95.0301 93.8043 94.6839 94.1299 94.431 94.524C94.4226 94.4814 94.4022 94.4421 94.3721 94.4109C94.3419 94.3796 94.3034 94.3578 94.2611 94.3479C94.2188 94.3381 94.1746 94.3407 94.1337 94.3555C94.0929 94.3702 94.0572 94.3964 94.031 94.431C93.7652 94.6893 93.5887 95.0255 93.527 95.3909C93.4653 95.7563 93.5217 96.1318 93.688 96.463C93.8295 96.686 94.0072 96.8837 94.214 97.048C94.4301 97.4592 94.7715 97.791 95.1887 97.9952C95.606 98.1995 96.0774 98.2656 96.5347 98.1841C96.9921 98.1025 97.4116 97.8775 97.7326 97.5417C98.0535 97.2058 98.2592 96.7766 98.32 96.316C98.3624 96.119 98.3799 95.9174 98.372 95.716C98.311 94.211 96.95 92.718 95.439 93.576ZM95.639 94.634C95.661 94.626 95.683 94.619 95.706 94.613C95.6904 94.6278 95.6757 94.6435 95.662 94.66C95.6533 94.6506 95.6439 94.6419 95.634 94.634H95.639ZM96.646 95.415C96.6206 95.5867 96.5318 95.7427 96.397 95.852C96.2883 95.9484 96.1505 96.0057 96.0056 96.0147C95.8606 96.0238 95.7168 95.9841 95.597 95.902C95.6499 95.8255 95.7147 95.758 95.789 95.702C95.8379 95.7287 95.8899 95.7492 95.944 95.763C95.96 95.78 95.976 95.799 95.993 95.816C96.022 95.8439 96.0576 95.8639 96.0965 95.8742C96.1355 95.8844 96.1764 95.8845 96.2154 95.8745C96.2543 95.8645 96.2901 95.8447 96.3193 95.8169C96.3484 95.7892 96.37 95.7544 96.382 95.716C96.5021 95.6506 96.5942 95.5436 96.641 95.415H96.646ZM95.401 95.204C95.409 95.1728 95.4198 95.1424 95.433 95.113L95.457 95.152C95.43 95.17 95.414 95.189 95.396 95.204H95.401ZM95.277 94.822C95.2799 94.8372 95.2846 94.8519 95.291 94.866C95.1981 94.9657 95.1273 95.0838 95.0832 95.2127C95.0391 95.3416 95.0227 95.4783 95.035 95.614C94.9335 95.7614 94.854 95.9227 94.799 96.093C94.7467 96.0022 94.7064 95.9051 94.679 95.804C94.7434 95.413 94.9557 95.0618 95.272 94.823L95.277 94.822ZM94.225 94.958C94.1718 95.1071 94.1382 95.2623 94.125 95.42C94.0687 95.6018 94.0351 95.7899 94.025 95.98C93.9605 95.627 94.0308 95.2627 94.222 94.959L94.225 94.958ZM96.725 96.819C96.715 96.819 96.704 96.825 96.695 96.829C96.6669 96.8306 96.6393 96.8364 96.613 96.846L96.505 96.892C96.313 96.9345 96.114 96.9345 95.922 96.892C95.8521 96.8431 95.7854 96.79 95.722 96.733C95.422 96.633 95.322 96.488 95.41 96.295C95.4636 96.3348 95.5217 96.3684 95.583 96.395C95.7565 96.4596 95.9432 96.4805 96.1268 96.4558C96.3103 96.4312 96.4849 96.3618 96.6352 96.2536C96.7855 96.1455 96.9069 96.0021 96.9887 95.8359C97.0704 95.6698 97.11 95.4861 97.104 95.301C97.104 95.292 97.104 95.285 97.104 95.276C97.1492 95.284 97.1937 95.2957 97.237 95.311C97.3179 95.4405 97.369 95.5864 97.3865 95.738C97.404 95.8897 97.3875 96.0434 97.3382 96.1879C97.2888 96.3324 97.208 96.4641 97.1014 96.5735C96.9948 96.6828 96.8652 96.767 96.722 96.82L96.725 96.819ZM95.697 94.006C95.9221 93.8583 96.1868 93.7826 96.456 93.789C96.7212 93.8395 96.9693 93.9564 97.1771 94.1286C97.385 94.3008 97.546 94.5228 97.645 94.774C97.423 94.4771 97.1227 94.248 96.7776 94.1125C96.4326 93.977 96.0566 93.9405 95.692 94.007L95.697 94.006Z" fill="#EBA40C"/>
<path id="Path 790" opacity="0.5" d="M102.054 99.631L102.035 99.713C102.012 99.7869 102.014 99.866 102.039 99.939C102.065 100.012 102.113 100.075 102.177 100.119C102.24 100.162 102.316 100.185 102.394 100.182C102.471 100.18 102.545 100.153 102.606 100.105L102.675 100.057C102.721 100.018 102.758 99.9694 102.782 99.9142C102.806 99.859 102.817 99.799 102.814 99.7388C102.811 99.6786 102.795 99.6199 102.765 99.5673C102.736 99.5146 102.695 99.4695 102.645 99.4353C102.596 99.4012 102.539 99.379 102.479 99.3705C102.419 99.3619 102.359 99.3673 102.301 99.3861C102.244 99.405 102.192 99.4368 102.149 99.4791C102.106 99.5214 102.074 99.5731 102.054 99.63V99.631Z" fill="#EBA40C"/>
<path id="Path 791" opacity="0.5" d="M101.178 102.595C101.128 102.678 101.112 102.777 101.132 102.871C101.153 102.965 101.209 103.048 101.288 103.103C101.368 103.158 101.466 103.18 101.561 103.165C101.657 103.15 101.743 103.099 101.802 103.023C101.852 102.94 101.868 102.842 101.848 102.747C101.827 102.653 101.771 102.57 101.692 102.515C101.612 102.46 101.514 102.438 101.419 102.453C101.323 102.468 101.237 102.519 101.178 102.595V102.595Z" fill="#EBA40C"/>
<path id="Path 792" opacity="0.5" d="M104.658 100.552C104.702 100.488 104.718 100.409 104.704 100.333C104.69 100.257 104.646 100.19 104.582 100.146C104.518 100.102 104.439 100.086 104.363 100.1C104.287 100.114 104.22 100.158 104.176 100.222C104.132 100.286 104.116 100.365 104.13 100.441C104.144 100.517 104.188 100.584 104.252 100.628C104.316 100.672 104.395 100.688 104.471 100.674C104.547 100.66 104.614 100.616 104.658 100.552V100.552Z" fill="#EBA40C"/>
<path id="Path 793" opacity="0.5" d="M107.744 102.351C107.8 102.27 107.821 102.17 107.803 102.073C107.785 101.976 107.729 101.891 107.648 101.835C107.567 101.779 107.467 101.758 107.37 101.776C107.273 101.794 107.188 101.85 107.132 101.931C107.076 102.012 107.055 102.112 107.073 102.209C107.091 102.306 107.147 102.391 107.228 102.447C107.309 102.503 107.409 102.524 107.506 102.506C107.603 102.488 107.688 102.432 107.744 102.351Z" fill="#EBA40C"/>
<path id="Path 794" opacity="0.5" d="M96.269 107.351C96.3044 107.293 96.3163 107.224 96.3022 107.158C96.2881 107.091 96.2491 107.033 96.1932 106.994C96.1373 106.956 96.0688 106.94 96.0018 106.951C95.9348 106.961 95.8744 106.997 95.833 107.051C95.7976 107.109 95.7858 107.178 95.7999 107.244C95.814 107.311 95.853 107.369 95.9089 107.408C95.9647 107.446 96.0332 107.462 96.1002 107.451C96.1673 107.441 96.2277 107.405 96.269 107.351V107.351Z" fill="#EBA40C"/>
<path id="Path 795" opacity="0.5" d="M92.338 111.598C92.2535 111.641 92.1818 111.706 92.13 111.785C92.0777 111.869 92.0598 111.969 92.08 112.066C92.1001 112.163 92.1568 112.248 92.2382 112.304C92.3196 112.359 92.4194 112.382 92.5168 112.366C92.6142 112.35 92.7017 112.297 92.761 112.218C92.8169 112.141 92.8514 112.051 92.861 111.956C92.865 111.892 92.8523 111.829 92.8243 111.771C92.7963 111.714 92.7539 111.665 92.7012 111.629C92.6484 111.592 92.5873 111.571 92.5236 111.565C92.46 111.56 92.396 111.571 92.338 111.598V111.598Z" fill="#EBA40C"/>
<path id="Path 796" opacity="0.5" d="M94.499 120.477C94.5481 120.39 94.5628 120.288 94.5402 120.19C94.5177 120.093 94.4594 120.007 94.377 119.951C94.2945 119.894 94.1939 119.87 94.0948 119.884C93.9958 119.898 93.9056 119.949 93.842 120.026C93.7929 120.113 93.7782 120.215 93.8007 120.313C93.8233 120.41 93.8816 120.496 93.964 120.552C94.0465 120.609 94.1471 120.633 94.2461 120.619C94.3452 120.605 94.4354 120.554 94.499 120.477V120.477Z" fill="#EBA40C"/>
<path id="Path 797" opacity="0.5" d="M94.26 125.365C94.219 125.4 94.1865 125.444 94.1652 125.493C94.1439 125.543 94.1343 125.597 94.1371 125.651C94.14 125.704 94.1552 125.757 94.1815 125.804C94.2079 125.851 94.2448 125.891 94.2893 125.922C94.3337 125.952 94.3846 125.972 94.438 125.98C94.4914 125.987 94.5458 125.982 94.597 125.966C94.6483 125.949 94.6949 125.92 94.7334 125.883C94.7719 125.845 94.8012 125.799 94.819 125.748L94.857 125.673C95.004 125.381 94.537 125.061 94.318 125.303L94.26 125.365Z" fill="#EBA40C"/>
<path id="Path 798" opacity="0.5" d="M108.101 82.529C108.049 82.4991 107.989 82.4847 107.93 82.4875C107.87 82.4903 107.812 82.5103 107.763 82.5451C107.714 82.5798 107.676 82.6278 107.653 82.6835C107.631 82.7391 107.625 82.8001 107.636 82.8591C107.647 82.9181 107.675 82.9726 107.716 83.0163C107.757 83.0601 107.81 83.0911 107.868 83.1057C107.926 83.1203 107.987 83.1179 108.044 83.0989C108.101 83.0798 108.151 83.0448 108.189 82.998H108.199L108.287 82.972C108.345 82.9593 108.396 82.9244 108.429 82.8748C108.462 82.8252 108.474 82.7648 108.463 82.7063C108.452 82.6478 108.419 82.5959 108.37 82.5615C108.322 82.5271 108.262 82.5129 108.203 82.522L108.112 82.53L108.101 82.529Z" fill="#EBA40C"/>
<path id="Path 799" opacity="0.5" d="M114.093 88.325C114.124 88.2775 114.134 88.22 114.123 88.1647C114.112 88.1094 114.08 88.0606 114.033 88.0288C113.986 87.9969 113.929 87.9844 113.874 87.994C113.818 88.0036 113.768 88.0344 113.735 88.08C113.705 88.1275 113.694 88.185 113.705 88.2403C113.716 88.2956 113.749 88.3444 113.795 88.3762C113.842 88.4081 113.899 88.4206 113.954 88.411C114.01 88.4015 114.06 88.3706 114.093 88.325V88.325Z" fill="#EBA40C"/>
<path id="Path 800" opacity="0.5" d="M111.316 103.676L111.429 103.491C111.473 103.416 111.487 103.327 111.468 103.242C111.449 103.157 111.398 103.083 111.327 103.034C111.255 102.985 111.167 102.964 111.081 102.977C110.995 102.99 110.917 103.035 110.863 103.103L110.731 103.275C110.451 103.637 111.078 104.068 111.316 103.676Z" fill="#EBA40C"/>
<path id="Path 801" opacity="0.5" d="M85.313 88.383C85.413 88.171 85.085 87.943 84.924 88.117C84.763 88.291 84.599 88.466 84.452 88.656C84.202 88.983 84.764 89.37 84.979 89.018C85.113 88.812 85.213 88.595 85.313 88.383Z" fill="#EBA40C"/>
<path id="Path 802" opacity="0.5" d="M150.776 60.213C149.891 58.24 147.388 58.399 145.787 59.288C144.235 60.151 142.187 61.777 143.324 63.735C143.571 64.1357 143.907 64.4741 144.306 64.7239C144.705 64.9736 145.156 65.128 145.624 65.175C146.127 65.5379 146.734 65.7271 147.354 65.7142C147.974 65.7012 148.573 65.4866 149.06 65.103C150.532 64.107 151.544 61.932 150.776 60.213ZM143.707 63.17C143.618 62.7142 143.659 62.2426 143.827 61.8093C143.994 61.3761 144.28 60.9988 144.652 60.721C144.32 61.3024 144.168 61.9693 144.215 62.6372C144.262 63.3051 144.507 63.944 144.917 64.473C144.625 64.3694 144.363 64.1968 144.152 63.9699C143.942 63.7431 143.789 63.4686 143.707 63.17V63.17ZM145.864 64.664C145.427 64.3735 145.088 63.9574 144.891 63.4705C144.695 62.9836 144.651 62.4486 144.764 61.936C144.788 61.818 144.819 61.7018 144.858 61.588C144.842 61.723 144.836 61.8591 144.841 61.995C144.859 62.3298 144.945 62.6574 145.095 62.9574C145.244 63.2575 145.454 63.5235 145.711 63.739C145.81 63.839 145.923 63.9242 146.046 63.992C146.49 64.2741 147.005 64.4249 147.531 64.427C146.994 64.605 146.429 64.6852 145.864 64.664V64.664ZM148.716 64.628C148.364 64.8678 147.959 65.019 147.536 65.069C147.868 64.9889 148.191 64.8753 148.5 64.73C148.6 64.683 148.7 64.63 148.791 64.574C148.765 64.594 148.744 64.612 148.716 64.628ZM149.816 62.344C149.606 62.7119 149.323 63.0331 148.985 63.2883C148.647 63.5434 148.26 63.727 147.849 63.828C147.932 63.7611 148.008 63.6864 148.077 63.605C148.382 63.5677 148.673 63.4561 148.925 63.28C149.177 63.1039 149.382 62.8687 149.522 62.595C149.724 62.2232 149.815 61.801 149.783 61.379C149.876 61.6925 149.889 62.0245 149.819 62.344H149.816ZM148.948 60.361C149.124 60.565 149.251 60.807 149.318 61.0682C149.385 61.3293 149.39 61.6024 149.333 61.866C149.277 62.1295 149.16 62.3764 148.992 62.587C148.823 62.7977 148.609 62.9664 148.364 63.08C148.45 62.7818 148.427 62.4631 148.3 62.18C148.518 62.0842 148.704 61.928 148.836 61.73C148.882 61.6637 148.899 61.5821 148.884 61.503C148.869 61.424 148.824 61.354 148.758 61.3085C148.691 61.263 148.61 61.2457 148.531 61.2605C148.452 61.2752 148.382 61.3207 148.336 61.387L148.056 61.258C147.912 61.0451 147.712 60.8762 147.478 60.77C147.404 60.7432 147.323 60.7463 147.252 60.7787C147.18 60.811 147.125 60.87 147.096 60.943C146.843 60.8359 146.562 60.8162 146.296 60.887C146.553 60.6092 146.868 60.391 147.219 60.248C147.486 60.1365 147.774 60.0844 148.063 60.0951C148.353 60.1058 148.636 60.1791 148.894 60.31C148.913 60.327 148.933 60.341 148.95 60.361H148.948Z" fill="#EBA40C"/>
<path id="Path 803" opacity="0.5" d="M142.223 48.092C141.423 47.311 140.151 47.755 139.46 48.585C139 48.9337 138.675 49.4314 138.542 49.993C138.198 51.446 139.175 52.439 140.594 51.983C140.855 52.0307 141.124 52.0225 141.381 51.959C141.639 51.8954 141.881 51.7779 142.09 51.6143C142.299 51.4506 142.471 51.2445 142.594 51.0095C142.718 50.7745 142.791 50.516 142.807 50.251C143.337 49.414 143.337 48.401 142.223 48.092ZM139.738 51.112C139.5 50.9919 139.304 50.8035 139.174 50.571C139.163 50.5386 139.155 50.5051 139.15 50.471C139.295 50.7259 139.496 50.9449 139.737 51.112H139.738ZM139.492 49.596C139.57 49.5047 139.655 49.4197 139.747 49.342L139.776 49.32C139.808 49.4344 139.86 49.5426 139.928 49.64V49.677C139.859 49.8025 139.818 49.9414 139.808 50.0841C139.798 50.2269 139.819 50.3701 139.87 50.504C139.87 50.509 139.876 50.512 139.879 50.517C139.754 50.3989 139.655 50.256 139.588 50.0974C139.521 49.9388 139.489 49.768 139.492 49.596V49.596ZM140.646 50.919C140.41 50.8806 140.187 50.7806 140.002 50.629C140.054 50.6502 140.109 50.6585 140.165 50.653C140.288 50.6431 140.409 50.6179 140.525 50.578C140.581 50.7093 140.663 50.8279 140.766 50.927C140.725 50.924 140.685 50.925 140.645 50.919H140.646ZM141.49 51.39L141.546 51.326C141.581 51.312 141.614 51.297 141.646 51.281H141.698C141.633 51.3249 141.562 51.3614 141.489 51.39H141.49ZM141.337 50.735C141.225 50.6929 141.124 50.6243 141.044 50.535C141.161 50.5093 141.271 50.4592 141.368 50.388C141.387 50.5044 141.377 50.6239 141.337 50.735V50.735ZM142.104 50.183C142.068 50.2783 142.021 50.3689 141.964 50.453C141.988 50.3066 141.984 50.1571 141.954 50.012C142.005 49.9815 142.054 49.9481 142.101 49.912C142.112 50.002 142.112 50.0929 142.103 50.183H142.104ZM141.395 49.252C141.246 49.1546 141.073 49.1002 140.895 49.095C140.905 49.064 140.915 49.033 140.924 49.002C141.058 48.9934 141.191 48.9807 141.324 48.964C141.368 49.0532 141.392 49.1513 141.394 49.251L141.395 49.252Z" fill="#EBA40C"/>
<path id="Path 804" opacity="0.5" d="M133.344 28.221C133.405 28.2605 133.477 28.2798 133.55 28.2762C133.623 28.2727 133.693 28.2465 133.75 28.2013C133.807 28.1561 133.848 28.0942 133.868 28.0242C133.889 27.9542 133.886 27.8797 133.862 27.811C133.872 27.7698 133.869 27.7265 133.854 27.687C133.838 27.6474 133.811 27.6134 133.776 27.5896C133.741 27.5657 133.7 27.553 133.657 27.5533C133.615 27.5535 133.574 27.5667 133.539 27.591C133.467 27.5934 133.397 27.6184 133.339 27.6624C133.281 27.7064 133.239 27.7673 133.217 27.8366C133.196 27.9059 133.197 27.9802 133.219 28.049C133.242 28.1179 133.286 28.1781 133.344 28.221V28.221Z" fill="#EBA40C"/>
<path id="Path 805" opacity="0.5" d="M136.48 28.901C136.501 28.8648 136.507 28.8221 136.498 28.7815C136.488 28.7409 136.464 28.7052 136.43 28.6817C136.395 28.6581 136.353 28.6484 136.312 28.6543C136.271 28.6603 136.233 28.6816 136.207 28.714C136.186 28.7502 136.18 28.7928 136.189 28.8335C136.199 28.8741 136.223 28.9098 136.257 28.9333C136.292 28.9569 136.334 28.9666 136.375 28.9606C136.416 28.9547 136.454 28.9334 136.48 28.901Z" fill="#EBA40C"/>
<path id="Path 806" opacity="0.5" d="M142.869 28.054C142.901 28.0073 142.913 27.9499 142.903 27.8943C142.892 27.8387 142.86 27.7895 142.814 27.7575C142.767 27.7256 142.709 27.7134 142.654 27.7239C142.598 27.7343 142.549 27.7663 142.517 27.813C142.501 27.8361 142.49 27.8621 142.484 27.8895C142.479 27.9169 142.478 27.9452 142.483 27.9728C142.489 28.0003 142.499 28.0265 142.514 28.05C142.53 28.0735 142.549 28.0937 142.573 28.1095C142.596 28.1253 142.622 28.1364 142.649 28.1422C142.676 28.148 142.705 28.1483 142.732 28.1432C142.76 28.138 142.786 28.1275 142.81 28.1122C142.833 28.0969 142.853 28.0771 142.869 28.054V28.054Z" fill="#EBA40C"/>
<path id="Path 807" opacity="0.5" d="M146.483 34.111C146.405 34.1251 146.333 34.1621 146.276 34.2173C146.219 34.2725 146.18 34.3433 146.163 34.4209C146.147 34.4984 146.153 34.5792 146.183 34.6528C146.212 34.7265 146.263 34.7897 146.328 34.8346C146.394 34.8794 146.471 34.9038 146.55 34.9046C146.629 34.9054 146.707 34.8827 146.774 34.8392C146.84 34.7957 146.892 34.7335 146.923 34.6605C146.954 34.5875 146.962 34.5069 146.947 34.429V34.429V34.419C146.966 34.3597 146.964 34.296 146.944 34.2373C146.924 34.1786 146.885 34.128 146.834 34.0928C146.783 34.0576 146.722 34.0397 146.66 34.0417C146.598 34.0437 146.538 34.0656 146.489 34.104L146.483 34.111Z" fill="#EBA40C"/>
<path id="Path 808" opacity="0.5" d="M150.959 43.015C150.99 42.9598 151 42.8949 150.986 42.833C150.972 42.7712 150.935 42.7169 150.882 42.6811C150.83 42.6452 150.766 42.6303 150.703 42.6394C150.64 42.6484 150.583 42.6808 150.543 42.73C150.512 42.7852 150.502 42.8501 150.516 42.912C150.531 42.9738 150.568 43.0281 150.62 43.0639C150.672 43.0998 150.736 43.1147 150.799 43.1056C150.862 43.0966 150.919 43.0642 150.959 43.015V43.015Z" fill="#EBA40C"/>
<path id="Path 809" opacity="0.5" d="M154.556 50.971C154.522 51.028 154.511 51.0958 154.526 51.1605C154.54 51.2252 154.579 51.2821 154.633 51.3195C154.688 51.3569 154.755 51.3721 154.82 51.362C154.886 51.3519 154.945 51.3172 154.986 51.265C155.02 51.208 155.031 51.1402 155.016 51.0755C155.002 51.0108 154.963 50.954 154.909 50.9165C154.854 50.8791 154.787 50.8639 154.722 50.8741C154.656 50.8842 154.597 50.9188 154.556 50.971Z" fill="#EBA40C"/>
<path id="Path 810" opacity="0.5" d="M160.112 42.494C159.912 42.755 160.364 43.067 160.535 42.784C160.588 42.707 160.628 42.6223 160.655 42.533C160.669 42.4876 160.668 42.4389 160.653 42.3939C160.637 42.349 160.607 42.3103 160.568 42.2834C160.529 42.2565 160.482 42.2428 160.435 42.2444C160.387 42.2459 160.341 42.2626 160.304 42.292C160.23 42.3495 160.166 42.4175 160.112 42.494Z" fill="#EBA40C"/>
<path id="Path 811" opacity="0.5" d="M156.12 33.495C156.101 33.4979 156.082 33.504 156.065 33.513C156.013 33.5338 155.967 33.5684 155.933 33.613L155.851 33.719C155.825 33.7503 155.806 33.7871 155.795 33.8266C155.785 33.8662 155.783 33.9075 155.79 33.9478C155.797 33.9881 155.813 34.0263 155.837 34.0596C155.861 34.093 155.892 34.1208 155.927 34.141L155.945 34.156L155.959 34.164C155.99 34.1909 156.028 34.2104 156.067 34.2211C156.107 34.2319 156.149 34.2335 156.19 34.2259C156.231 34.2183 156.269 34.2017 156.303 34.1774C156.336 34.153 156.363 34.1214 156.383 34.085L156.452 33.971C156.481 33.9226 156.497 33.8675 156.499 33.811C156.502 33.7917 156.502 33.7723 156.499 33.753C156.497 33.7385 156.495 33.7242 156.491 33.71C156.486 33.6976 156.481 33.6856 156.474 33.674C156.449 33.6223 156.411 33.578 156.364 33.5455C156.316 33.5131 156.261 33.4936 156.204 33.489C156.191 33.4881 156.178 33.4881 156.165 33.489C156.15 33.4898 156.135 33.4918 156.12 33.495V33.495Z" fill="#EBA40C"/>
<path id="Path 812" opacity="0.5" d="M162.61 27.452L162.304 27.473C162.208 27.4908 162.123 27.5459 162.068 27.6261C162.013 27.7064 161.992 27.8053 162.01 27.901C162.028 27.9968 162.083 28.0815 162.163 28.1366C162.243 28.1918 162.342 28.2128 162.438 28.195L162.731 28.104C162.774 28.0961 162.815 28.0798 162.851 28.056C162.888 28.0323 162.919 28.0016 162.944 27.9657C162.968 27.9299 162.986 27.8895 162.995 27.8469C163.004 27.8043 163.004 27.7603 162.996 27.7175C162.989 27.6747 162.972 27.6339 162.948 27.5974C162.925 27.5609 162.894 27.5294 162.858 27.5047C162.822 27.4801 162.782 27.4627 162.739 27.4537C162.697 27.4446 162.653 27.4441 162.61 27.452V27.452Z" fill="#EBA40C"/>
<path id="Path 813" opacity="0.5" d="M166.56 29.66C166.527 29.7161 166.516 29.7828 166.53 29.8464C166.544 29.9101 166.582 29.966 166.636 30.0029C166.69 30.0398 166.755 30.0548 166.82 30.045C166.884 30.0352 166.943 30.0012 166.983 29.95C167.071 29.8362 167.151 29.7166 167.223 29.592C167.254 29.5369 167.264 29.4719 167.25 29.4101C167.235 29.3482 167.199 29.294 167.146 29.2581C167.094 29.2222 167.03 29.2073 166.967 29.2164C166.904 29.2255 166.847 29.2578 166.807 29.307C166.717 29.4192 166.635 29.5371 166.56 29.66Z" fill="#EBA40C"/>
<path id="Path 814" opacity="0.5" d="M173.659 25.373C173.621 25.4342 173.608 25.5078 173.622 25.5784C173.637 25.6491 173.678 25.7113 173.738 25.7522C173.797 25.7931 173.87 25.8094 173.941 25.7979C174.013 25.7863 174.077 25.7476 174.12 25.69L174.261 25.525C174.518 25.225 173.946 24.835 173.761 25.182L173.659 25.373Z" fill="#EBA40C"/>
<path id="Path 815" opacity="0.5" d="M92.08 44.997C92.0539 45.0368 92.0444 45.0853 92.0536 45.132C92.0628 45.1787 92.0899 45.2199 92.1292 45.2469C92.1684 45.2738 92.2166 45.2843 92.2635 45.2761C92.3104 45.2679 92.3522 45.2417 92.38 45.203C92.4061 45.1632 92.4155 45.1148 92.4063 45.0681C92.3972 45.0214 92.3701 44.9801 92.3308 44.9532C92.2916 44.9262 92.2433 44.9157 92.1964 44.9239C92.1496 44.9321 92.1078 44.9584 92.08 44.997V44.997Z" fill="#EBA40C"/>
<path id="Path 816" opacity="0.5" d="M94.751 49.701C94.7125 49.7614 94.6989 49.8344 94.7132 49.9045C94.7275 49.9747 94.7685 50.0366 94.8275 50.0771C94.8866 50.1176 94.9591 50.1335 95.0297 50.1216C95.1003 50.1096 95.1635 50.0707 95.206 50.013C95.2445 49.9526 95.258 49.8796 95.2437 49.8095C95.2294 49.7393 95.1884 49.6774 95.1294 49.6369C95.0703 49.5964 94.9978 49.5804 94.9272 49.5924C94.8566 49.6044 94.7934 49.6433 94.751 49.701V49.701Z" fill="#EBA40C"/>
<path id="Path 817" opacity="0.5" d="M85.616 42.654C85.5966 42.6876 85.5906 42.7272 85.5991 42.765C85.6077 42.8028 85.6301 42.836 85.6621 42.858C85.694 42.8799 85.7331 42.8891 85.7714 42.8835C85.8098 42.878 85.8446 42.8581 85.869 42.828C85.8884 42.7945 85.8945 42.7548 85.8859 42.717C85.8774 42.6792 85.8549 42.646 85.823 42.624C85.791 42.6021 85.752 42.593 85.7136 42.5985C85.6753 42.6041 85.6404 42.6239 85.616 42.654V42.654Z" fill="#EBA40C"/>
<path id="Path 818" opacity="0.5" d="M71.089 39.869C70.2691 39.8404 69.4589 40.0536 68.7594 40.4821C68.0598 40.9107 67.5019 41.5356 67.155 42.279C67.0823 42.4691 67.0264 42.6652 66.988 42.865C66.7117 43.5044 66.6878 44.2247 66.921 44.881C66.9006 45.5453 67.0376 46.2049 67.321 46.806C67.366 47.1947 67.4972 47.5685 67.705 47.9C67.8391 48.4294 68.1328 48.9047 68.5462 49.2616C68.9596 49.6184 69.4727 49.8396 70.016 49.895C71.1325 50.0506 72.2668 49.7813 73.1944 49.1406C74.122 48.4999 74.7752 47.5344 75.025 46.435C75.1754 46.1442 75.2893 45.8359 75.364 45.517C75.4332 45.2114 75.4637 44.8983 75.455 44.585C75.6374 43.9377 75.62 43.2503 75.405 42.613C75.0542 41.7679 74.4519 41.0513 73.6797 40.5604C72.9076 40.0695 72.0031 39.8281 71.089 39.869V39.869ZM71.909 42.137C71.951 42.093 71.991 42.049 72.035 42.008C72.116 41.931 72.009 41.802 71.923 41.874C71.837 41.946 71.775 42.01 71.706 42.081C71.4515 42.0232 71.1887 42.011 70.93 42.045C71.1666 41.9295 71.4169 41.8445 71.675 41.792C71.8842 41.7528 72.0977 41.7407 72.31 41.756C72.9335 42.0938 73.4056 42.6557 73.631 43.328C73.4939 43.2311 73.3494 43.1448 73.199 43.07C73.134 43.004 73.067 42.941 72.999 42.881C72.7163 42.5325 72.3383 42.274 71.911 42.137H71.909ZM71.254 46.054C70.859 46.1316 70.4558 46.1592 70.054 46.136C69.7956 46.1193 69.5402 46.072 69.293 45.995C69.1652 45.7795 69.0867 45.5383 69.063 45.2889C69.0393 45.0394 69.0711 44.7878 69.156 44.552C69.169 44.543 69.181 44.532 69.194 44.524C69.3491 44.9532 69.6272 45.3272 69.9936 45.5993C70.3599 45.8714 70.7983 46.0295 71.254 46.054V46.054ZM68.319 47.273C68.307 47.2204 68.2957 47.1667 68.285 47.112C68.2957 46.9544 68.3252 46.7986 68.373 46.648L68.384 46.656C68.6927 47.0889 69.1262 47.4173 69.6266 47.5972C70.1269 47.7772 70.6702 47.8001 71.184 47.663V47.663C71.14 47.695 71.095 47.727 71.048 47.756L69.675 48.227C69.64 48.227 69.607 48.221 69.575 48.217C69.0748 48.0268 68.6391 47.698 68.319 47.269V47.273ZM71.925 48.993C71.5573 49.1626 71.1578 49.252 70.7529 49.2551C70.3481 49.2582 69.9472 49.175 69.577 49.011C70.054 49.0749 70.5383 49.0587 71.01 48.963C71.6948 48.9227 72.3636 48.7402 72.974 48.427C72.6501 48.66 72.2975 48.8502 71.925 48.993V48.993ZM71.507 48.263C71.8789 47.9687 72.1906 47.6054 72.425 47.193C72.5442 47.1444 72.6605 47.0887 72.773 47.026C72.98 46.9084 73.174 46.7693 73.352 46.611C72.9723 47.3768 72.3134 47.9677 71.511 48.262L71.507 48.263ZM74.431 46.298C74.2931 46.5369 74.1295 46.7599 73.943 46.963C73.981 46.888 74.016 46.811 74.043 46.733C74.1126 46.557 74.1658 46.3749 74.202 46.189C74.2891 46.1418 74.3732 46.0894 74.454 46.032C74.4512 46.1208 74.4432 46.2093 74.43 46.297L74.431 46.298ZM74.369 45.313C74.333 45.35 74.297 45.388 74.259 45.422C74.259 45.35 74.249 45.279 74.24 45.208C74.24 45.192 74.248 45.174 74.252 45.158C74.256 45.142 74.279 45.124 74.291 45.107C74.318 45.174 74.348 45.243 74.368 45.312L74.369 45.313ZM73.634 44.905C73.579 44.959 73.521 45.012 73.461 45.063C73.4968 44.854 73.5129 44.6421 73.509 44.43C73.5667 44.5833 73.6083 44.7422 73.633 44.904L73.634 44.905ZM70.056 41.894C69.7034 42.1553 69.3887 42.4643 69.121 42.812C68.9869 42.8888 68.8579 42.9743 68.735 43.068C68.4804 43.2534 68.2663 43.4886 68.1056 43.7594C67.9448 44.0302 67.8408 44.3308 67.8 44.643L67.778 44.678C67.7159 44.5409 67.6657 44.3987 67.628 44.253C67.6926 43.4274 68.0822 42.6612 68.7112 42.1225C69.3402 41.5839 70.1573 41.3168 70.983 41.38C71.008 41.38 71.032 41.386 71.057 41.388C70.699 41.5038 70.361 41.6741 70.055 41.893L70.056 41.894ZM74.85 44.587C74.833 44.629 74.818 44.673 74.798 44.714C74.755 44.624 74.709 44.534 74.656 44.445C74.7056 44.3177 74.7451 44.1866 74.774 44.053C74.8141 44.2282 74.8392 44.4066 74.849 44.586L74.85 44.587ZM74.18 42.796C74.2748 43.0691 74.3089 43.3595 74.28 43.647C74.1802 43.1697 73.9871 42.7167 73.712 42.314C73.8856 42.4559 74.0423 42.6173 74.179 42.795L74.18 42.796ZM71.464 40.843C71.1929 40.7968 70.9178 40.7787 70.643 40.789C71.1074 40.6792 71.5915 40.6837 72.0538 40.8021C72.516 40.9205 72.9426 41.1494 73.297 41.469C73.0767 41.3785 72.8474 41.3114 72.613 41.269C72.2594 41.0568 71.8695 40.912 71.463 40.842L71.464 40.843ZM74.795 42.624C74.735 42.542 74.673 42.464 74.606 42.389C74.5486 42.2389 74.4819 42.0927 74.406 41.951C74.5631 42.1578 74.6935 42.3836 74.794 42.623L74.795 42.624Z" fill="#EBA40C"/>
<path id="Path 819" opacity="0.5" d="M87.891 36.085C87.8231 36.0615 87.754 36.0415 87.684 36.025C87.3097 35.9326 86.9151 35.9701 86.565 36.1315C86.2148 36.2928 85.9299 36.5684 85.757 36.913C85.6133 37.0606 85.4992 37.2344 85.421 37.425C85.3084 37.678 85.2667 37.9568 85.3005 38.2316C85.3344 38.5065 85.4424 38.7669 85.613 38.985C85.6371 39.2216 85.707 39.4512 85.819 39.661C86.0169 40.0535 86.3511 40.3605 86.7589 40.5245C87.1668 40.6885 87.6205 40.6983 88.035 40.552C88.319 40.452 88.253 40.124 88.05 39.995C88.5847 39.7435 89.0279 39.3318 89.318 38.817C89.801 38.006 90.165 36.964 89.231 36.317C89.0361 36.1871 88.8163 36.0994 88.5855 36.0594C88.3548 36.0195 88.1182 36.0282 87.891 36.085V36.085ZM87.755 38.185C87.504 38.843 86.855 38.777 86.441 38.415C86.5131 38.0799 86.6666 37.7677 86.888 37.506C87.0207 37.3376 87.1798 37.1917 87.359 37.074C87.5515 37.1772 87.6987 37.3483 87.7719 37.5541C87.8451 37.7598 87.8391 37.9854 87.755 38.187V38.185ZM88.277 37.804C88.2715 37.8649 88.2605 37.9251 88.244 37.984C88.2742 37.7928 88.2674 37.5976 88.224 37.409C88.2697 37.5364 88.2874 37.6721 88.276 37.807L88.277 37.804ZM89.122 37.133C89.1921 37.3015 89.2061 37.488 89.162 37.665C89.1393 37.3744 89.0478 37.0933 88.895 36.845C88.9926 36.9223 89.0704 37.0217 89.122 37.135V37.133Z" fill="#EBA40C"/>
<path id="Path 820" opacity="0.5" d="M98.721 49.125C98.7666 49.0869 98.7998 49.0362 98.8166 48.9793C98.8333 48.9223 98.8327 48.8616 98.815 48.805L98.829 48.773C98.8407 48.7326 98.8394 48.6895 98.8252 48.65C98.8111 48.6104 98.7848 48.5763 98.7501 48.5525C98.7155 48.5286 98.6742 48.5164 98.6322 48.5174C98.5902 48.5184 98.5495 48.5326 98.516 48.558L98.493 48.581C98.4407 48.5847 98.3902 48.6021 98.3467 48.6314C98.3032 48.6607 98.2681 48.7009 98.245 48.748C98.2099 48.8154 98.2008 48.8933 98.2192 48.9669C98.2376 49.0406 98.2823 49.105 98.345 49.148C98.4019 49.1847 98.4691 49.2023 98.5368 49.1981C98.6044 49.194 98.6689 49.1684 98.721 49.125V49.125Z" fill="#EBA40C"/>
<path id="Path 821" opacity="0.5" d="M106.704 46.567C106.721 46.499 106.742 46.4322 106.767 46.367C106.781 46.3239 106.78 46.2776 106.765 46.2349C106.75 46.1921 106.722 46.1553 106.685 46.1298C106.648 46.1042 106.603 46.0914 106.558 46.093C106.513 46.0947 106.469 46.1108 106.434 46.139C106.382 46.1854 106.328 46.2285 106.271 46.268C106.239 46.2952 106.214 46.3292 106.197 46.3677C106.181 46.4061 106.173 46.4478 106.175 46.4896C106.178 46.5314 106.189 46.5721 106.21 46.6087C106.23 46.6452 106.258 46.6766 106.293 46.7004C106.327 46.7242 106.367 46.7397 106.408 46.7459C106.449 46.752 106.492 46.7485 106.532 46.7357C106.571 46.7229 106.608 46.7012 106.638 46.6721C106.668 46.643 106.691 46.6074 106.705 46.568L106.704 46.567Z" fill="#EBA40C"/>
<path id="Path 822" opacity="0.5" d="M110.666 55.403C110.572 55.2369 110.445 55.0914 110.294 54.975C109.938 54.713 109.532 55.305 109.905 55.541C110.068 55.6407 110.249 55.7064 110.438 55.734C110.478 55.7366 110.519 55.7287 110.555 55.7111C110.592 55.6934 110.623 55.6666 110.646 55.6332C110.669 55.5999 110.683 55.5611 110.686 55.5207C110.69 55.4804 110.683 55.4398 110.666 55.403V55.403Z" fill="#EBA40C"/>
<path id="Path 823" opacity="0.5" d="M113.596 64.883C113.533 64.8428 113.48 64.7879 113.443 64.723C113.406 64.664 113.402 64.599 113.354 64.541C113.333 64.5179 113.309 64.4978 113.283 64.481C113.263 64.4485 113.235 64.4212 113.202 64.4014C113.169 64.3816 113.132 64.3698 113.094 64.367C113.039 64.3638 112.984 64.3781 112.937 64.4079C112.89 64.4377 112.854 64.4815 112.834 64.533C112.778 64.63 112.755 64.7426 112.768 64.8539C112.781 64.9652 112.829 65.0694 112.906 65.151C112.973 65.2408 113.059 65.3139 113.159 65.3644C113.259 65.4149 113.369 65.4415 113.481 65.442C113.55 65.445 113.617 65.4235 113.671 65.3812C113.726 65.339 113.763 65.2788 113.777 65.2115C113.791 65.1442 113.78 65.0741 113.747 65.0139C113.714 64.9537 113.66 64.9073 113.596 64.883V64.883Z" fill="#EBA40C"/>
<path id="Path 824" opacity="0.5" d="M124.335 81.658C124.341 81.6219 124.34 81.5849 124.33 81.5494C124.321 81.5139 124.305 81.4807 124.282 81.452C124.259 81.4233 124.231 81.3996 124.199 81.3825C124.166 81.3655 124.131 81.3554 124.094 81.353C124.056 81.3497 124.017 81.352 123.979 81.36C123.928 81.37 123.816 81.388 123.935 81.377C123.605 81.406 123.588 81.838 123.801 82.009C123.838 82.0359 123.88 82.0549 123.924 82.0651C123.968 82.0752 124.014 82.0762 124.059 82.068C124.072 82.068 124.126 82.047 124.138 82.042L124.151 82.036C124.22 82.003 124.275 81.9477 124.309 81.8791C124.342 81.8105 124.352 81.7325 124.335 81.658V81.658Z" fill="#EBA40C"/>
<path id="Path 825" opacity="0.5" d="M124.15 82.036C124.129 82.048 124.313 81.958 124.15 82.036V82.036Z" fill="#EBA40C"/>
<path id="Path 826" opacity="0.5" d="M121.262 98.732C121.314 98.6508 121.333 98.5524 121.314 98.4578C121.294 98.3632 121.239 98.2797 121.16 98.2252C121.08 98.1707 120.982 98.1493 120.887 98.1657C120.792 98.1821 120.707 98.235 120.65 98.313C120.598 98.3942 120.579 98.4926 120.598 98.5872C120.618 98.6818 120.673 98.7652 120.752 98.8198C120.832 98.8743 120.93 98.8957 121.025 98.8793C121.12 98.8629 121.205 98.8101 121.262 98.732V98.732Z" fill="#EBA40C"/>
<path id="Path 827" opacity="0.5" d="M118.672 112.021C118.569 112.035 118.467 112.055 118.366 112.081C118.304 112.093 118.246 112.118 118.196 112.156C118.146 112.194 118.105 112.242 118.077 112.298C118.049 112.354 118.034 112.416 118.033 112.478C118.032 112.541 118.045 112.603 118.072 112.659C118.099 112.716 118.138 112.766 118.188 112.805C118.237 112.844 118.294 112.871 118.355 112.884C118.416 112.898 118.48 112.897 118.541 112.882C118.601 112.867 118.658 112.838 118.706 112.798C118.82 112.69 118.923 112.566 119.043 112.465C119.094 112.421 119.128 112.36 119.138 112.293C119.148 112.226 119.134 112.158 119.097 112.101C119.059 112.046 119.003 112.005 118.938 111.987C118.873 111.969 118.804 111.974 118.743 112.001L118.672 112.021Z" fill="#EBA40C"/>
<path id="Path 828" opacity="0.5" d="M112.663 120.644C112.567 120.612 112.462 120.618 112.371 120.663C112.28 120.707 112.21 120.785 112.176 120.881C112.107 121.1 112.039 121.314 111.992 121.537C111.963 121.632 111.971 121.735 112.014 121.824C112.058 121.914 112.134 121.984 112.227 122.019C112.322 122.05 112.425 122.043 112.515 121.999C112.605 121.955 112.674 121.878 112.708 121.784C112.783 121.569 112.847 121.351 112.899 121.13C112.93 121.034 112.922 120.93 112.878 120.84C112.834 120.749 112.757 120.679 112.663 120.644V120.644Z" fill="#EBA40C"/>
<path id="Path 829" opacity="0.5" d="M128.098 107.341C128.145 107.273 128.162 107.189 128.147 107.108C128.132 107.027 128.086 106.955 128.018 106.909C127.95 106.862 127.866 106.844 127.785 106.859C127.704 106.874 127.632 106.921 127.585 106.989C127.538 107.057 127.521 107.141 127.536 107.222C127.551 107.303 127.598 107.375 127.666 107.422C127.734 107.468 127.817 107.486 127.898 107.471C127.98 107.456 128.051 107.409 128.098 107.341Z" fill="#EBA40C"/>
<path id="Path 830" opacity="0.5" d="M136.504 90.99C136.538 90.9724 136.566 90.9441 136.583 90.9096C136.6 90.875 136.605 90.8359 136.598 90.7981C136.591 90.7603 136.572 90.7257 136.543 90.6996C136.515 90.6735 136.479 90.6571 136.441 90.653C136.366 90.6528 136.292 90.6407 136.221 90.617C136.174 90.6009 136.124 90.5975 136.075 90.607C136.026 90.6164 135.981 90.6385 135.943 90.671C135.906 90.7034 135.877 90.7452 135.861 90.7921C135.845 90.8389 135.841 90.8892 135.85 90.938C135.859 90.9868 135.881 91.0323 135.913 91.0701C135.945 91.1079 135.987 91.1365 136.034 91.1532C136.08 91.1699 136.131 91.1741 136.179 91.1653C136.228 91.1564 136.274 91.135 136.312 91.103C136.37 91.0555 136.434 91.0173 136.504 90.99V90.99Z" fill="#EBA40C"/>
<path id="Path 831" opacity="0.5" d="M131.189 82.009C131.154 82.0643 131.142 82.1311 131.155 82.1952C131.168 82.2593 131.206 82.3159 131.26 82.3529C131.314 82.39 131.38 82.4046 131.445 82.3938C131.509 82.383 131.567 82.3476 131.606 82.295C131.641 82.2397 131.653 82.1729 131.64 82.1088C131.627 82.0446 131.589 81.9881 131.535 81.9511C131.481 81.914 131.415 81.8994 131.35 81.9102C131.286 81.921 131.228 81.9564 131.189 82.009V82.009Z" fill="#EBA40C"/>
<path id="Path 832" opacity="0.5" d="M120.476 116.754C120.503 116.707 120.511 116.652 120.499 116.6C120.487 116.548 120.456 116.502 120.411 116.471C120.367 116.441 120.313 116.428 120.259 116.436C120.206 116.444 120.158 116.471 120.124 116.513C120.097 116.56 120.089 116.615 120.101 116.667C120.113 116.719 120.145 116.765 120.189 116.796C120.233 116.826 120.287 116.839 120.341 116.831C120.394 116.823 120.442 116.796 120.476 116.754Z" fill="#EBA40C"/>
<path id="Path 833" opacity="0.5" d="M118.608 125.409C118.574 125.461 118.556 125.521 118.556 125.583C118.556 125.644 118.574 125.705 118.608 125.756C118.641 125.808 118.689 125.849 118.745 125.874C118.802 125.899 118.864 125.908 118.925 125.898C118.931 125.877 118.947 125.883 118.974 125.914C119.019 125.928 119.067 125.927 119.111 125.912C119.155 125.897 119.193 125.868 119.22 125.829C119.246 125.79 119.26 125.744 119.258 125.698C119.257 125.651 119.24 125.606 119.211 125.569C119.171 125.555 119.161 125.542 119.178 125.529C119.165 125.469 119.135 125.414 119.091 125.37C119.047 125.327 118.992 125.297 118.932 125.284C118.872 125.272 118.809 125.277 118.751 125.299C118.694 125.321 118.644 125.359 118.608 125.409V125.409Z" fill="#EBA40C"/>
<path id="Path 834" opacity="0.5" d="M116.157 133.558C116.119 133.59 116.088 133.631 116.068 133.678C116.048 133.724 116.039 133.774 116.042 133.824C116.044 133.874 116.058 133.923 116.083 133.967C116.107 134.011 116.142 134.049 116.183 134.077C116.225 134.106 116.272 134.124 116.322 134.131C116.372 134.139 116.422 134.134 116.47 134.118C116.518 134.103 116.562 134.076 116.597 134.041C116.633 134.006 116.661 133.963 116.677 133.915C116.708 133.853 116.739 133.789 116.769 133.727C116.895 133.47 116.492 133.194 116.299 133.404L116.157 133.558Z" fill="#EBA40C"/>
<path id="Path 835" opacity="0.5" d="M131.224 32.44C131.177 32.458 131.136 32.4885 131.106 32.5281C131.075 32.5677 131.056 32.615 131.05 32.6647C131.044 32.7145 131.052 32.7649 131.073 32.8105C131.093 32.8561 131.126 32.8952 131.168 32.9235C131.209 32.9518 131.257 32.9683 131.307 32.9711C131.357 32.974 131.407 32.9631 131.452 32.9397C131.496 32.9163 131.533 32.8812 131.559 32.8383C131.584 32.7953 131.598 32.7461 131.598 32.696C131.605 32.6736 131.614 32.6522 131.626 32.632C131.654 32.5855 131.663 32.53 131.651 32.477C131.64 32.4241 131.608 32.3775 131.563 32.3469C131.519 32.3163 131.464 32.3039 131.41 32.3123C131.357 32.3207 131.308 32.3492 131.275 32.392C131.26 32.4102 131.243 32.4263 131.224 32.44V32.44Z" fill="#EBA40C"/>
<path id="Path 836" opacity="0.5" d="M53.565 56.233C53.6039 56.1709 53.6173 56.0962 53.6024 56.0244C53.5875 55.9527 53.5454 55.8895 53.485 55.8481C53.4246 55.8066 53.3504 55.7901 53.2781 55.802C53.2058 55.8139 53.1409 55.8534 53.097 55.912C53.0581 55.9741 53.0447 56.0488 53.0597 56.1206C53.0746 56.1923 53.1166 56.2555 53.1771 56.297C53.2375 56.3384 53.3116 56.3549 53.3839 56.343C53.4562 56.3311 53.5211 56.2916 53.565 56.233V56.233Z" fill="#EBA40C"/>
<path id="Path 837" opacity="0.5" d="M54.713 61.742V61.702C54.7191 61.6887 54.7245 61.675 54.729 61.661C54.7434 61.6147 54.7425 61.5649 54.7266 61.5191C54.7106 61.4733 54.6804 61.4338 54.6404 61.4064C54.6004 61.379 54.5526 61.3652 54.5041 61.3669C54.4556 61.3686 54.409 61.3858 54.371 61.416L54.354 61.435L54.301 61.458C54.2395 61.4907 54.1893 61.5413 54.157 61.603C54.1356 61.6342 54.1205 61.6693 54.1127 61.7063C54.1049 61.7433 54.1044 61.7815 54.1113 61.8187C54.1182 61.8559 54.1324 61.8913 54.153 61.9231C54.1736 61.9548 54.2003 61.9821 54.2315 62.0035C54.2627 62.0249 54.2978 62.04 54.3348 62.0478C54.3718 62.0557 54.41 62.0561 54.4472 62.0492C54.4844 62.0423 54.5198 62.0281 54.5515 62.0075C54.5833 61.9869 54.6106 61.9602 54.632 61.929C54.6775 61.8765 54.7058 61.8112 54.713 61.742V61.742Z" fill="#EBA40C"/>
<path id="Path 838" opacity="0.5" d="M47.215 63.903C47.2475 63.8486 47.2581 63.7839 47.2445 63.722C47.231 63.66 47.1943 63.6056 47.1421 63.5698C47.0898 63.534 47.0258 63.5194 46.9632 63.5291C46.9005 63.5388 46.8439 63.572 46.805 63.622C46.7724 63.6764 46.7619 63.7412 46.7754 63.8031C46.789 63.865 46.8256 63.9194 46.8779 63.9552C46.9302 63.9911 46.9941 64.0056 47.0568 63.9959C47.1194 63.9862 47.176 63.953 47.215 63.903Z" fill="#EBA40C"/>
<path id="Path 839" opacity="0.5" d="M37.29 78.7L37.479 78.806C37.5516 78.8507 37.6385 78.8658 37.7219 78.8481C37.8053 78.8304 37.8787 78.7813 37.9269 78.711C37.9751 78.6407 37.9944 78.5546 37.9808 78.4704C37.9673 78.3863 37.9219 78.3106 37.854 78.259L37.687 78.121C37.338 77.827 36.893 78.478 37.29 78.7Z" fill="#EBA40C"/>
<path id="Path 840" opacity="0.5" d="M41.406 90.575L41.495 90.604C41.5468 90.6198 41.6022 90.6187 41.6533 90.6009C41.7044 90.5831 41.7485 90.5494 41.7793 90.5049C41.81 90.4604 41.8257 90.4072 41.8243 90.3531C41.8228 90.299 41.8041 90.2468 41.771 90.204L41.711 90.131C41.6904 90.0732 41.6541 90.0223 41.6063 89.9838C41.5585 89.9453 41.5011 89.9208 41.4402 89.9129C41.3793 89.905 41.3175 89.9141 41.2615 89.9391C41.2055 89.9642 41.1575 90.0042 41.1228 90.0549C41.0881 90.1055 41.0681 90.1647 41.0649 90.226C41.0617 90.2872 41.0756 90.3482 41.1049 90.4021C41.1342 90.4561 41.1778 90.5008 41.2309 90.5315C41.2841 90.5622 41.3447 90.5776 41.406 90.576V90.575Z" fill="#EBA40C"/>
<path id="Path 841" opacity="0.5" d="M30.671 87.093L30.812 87.246C30.8411 87.2802 30.8777 87.3073 30.9189 87.3251C30.9601 87.3429 31.0049 87.3509 31.0498 87.3486C31.0946 87.3462 31.1383 87.3336 31.1775 87.3116C31.2167 87.2896 31.2502 87.2589 31.2756 87.2218C31.3009 87.1847 31.3174 87.1423 31.3237 87.0978C31.3299 87.0534 31.3259 87.008 31.3118 86.9654C31.2977 86.9228 31.274 86.8839 31.2424 86.852C31.2109 86.82 31.1724 86.7957 31.13 86.781L30.937 86.704C30.8866 86.688 30.8323 86.6886 30.7823 86.7058C30.7323 86.723 30.6891 86.7559 30.6593 86.7996C30.6294 86.8432 30.6144 86.8954 30.6165 86.9482C30.6186 87.0011 30.6378 87.0519 30.671 87.093V87.093Z" fill="#EBA40C"/>
<path id="Path 842" opacity="0.5" d="M46.128 95.055C46.1795 94.9747 46.1978 94.8775 46.1788 94.784C46.1599 94.6905 46.1054 94.6081 46.0267 94.5541C45.9481 94.5002 45.8515 94.479 45.7575 94.495C45.6634 94.511 45.5793 94.563 45.523 94.64C45.4715 94.7203 45.4532 94.8175 45.4721 94.911C45.491 95.0044 45.5456 95.0869 45.6243 95.1409C45.7029 95.1948 45.7995 95.216 45.8935 95.2C45.9876 95.184 46.0717 95.132 46.128 95.055V95.055Z" fill="#EBA40C"/>
</g>
</g>
<defs>
<clipPath id="clip0_309_339">
<rect width="192.214" height="153.051" fill="white"/>
</clipPath>
</defs>
</svg>
