<svg width="367" height="341" viewBox="0 0 367 341" fill="none" xmlns="http://www.w3.org/2000/svg">
<style>
    #man , #restaurant{
        transform-origin: center;
        transform-box: fill-box;
    }
    #man{
        animation: translateY 4s linear infinite reverse;
    }
    #restaurant{
        animation: translateX 4s linear infinite reverse;
    }
    @keyframes translateY {
        0%,
        100% {
            transform: translateY(4px) translateX(5px);
        }

        50% {
            transform: translateY(-4px) translateX(0px);
        }
    }

    @keyframes translateX {
        0%,
        100% {
            transform: translateX(0px);
        }

        50% {
            transform: translateX(-10px);
        }
    }

</style>
<g id="undraw_hamburger_-8-ge6 1" clip-path="url(#clip0_423_2)">
<g id="man">
<path id="Path 41" d="M82.589 314.495C82.589 314.495 90.466 316.858 94.405 321.584C94.405 321.584 101.494 324.735 105.827 323.947C110.16 323.159 118.037 331.036 111.735 333.4C105.433 335.764 66.835 342.065 66.047 340.1C65.259 338.135 65.259 318.044 65.259 318.044L82.589 314.495Z" fill="#EBA40C"/>
<path id="Path 42" d="M20.711 311.113C20.711 311.113 28.069 314.787 31.142 320.113C31.142 320.113 37.5889 324.428 41.9919 324.392C46.3949 324.356 52.811 333.463 46.199 334.715C39.587 335.967 0.479002 335.583 0.039002 333.508C-0.400998 331.433 3.02997 311.641 3.02997 311.641L20.711 311.113Z" fill="#EBA40C"/>
<path id="Ellipse 6" d="M69.789 44.252C79.5777 44.252 87.513 36.3167 87.513 26.528C87.513 16.7393 79.5777 8.804 69.789 8.804C60.0003 8.804 52.065 16.7393 52.065 26.528C52.065 36.3167 60.0003 44.252 69.789 44.252Z" fill="#FFB9B9"/>
<path id="Path 43" d="M55.414 29.482C55.414 29.482 53.445 42.873 49.9 44.449C47.4322 45.6625 45.1711 47.2574 43.2 49.175L53.046 53.901L72.346 52.719C72.346 52.719 70.77 44.054 73.528 39.719C76.286 35.384 55.414 29.482 55.414 29.482Z" fill="#FFB9B9"/>
<path id="Path 44" d="M18.784 92.846C18.784 92.846 9.72499 116.084 18.784 138.534C27.843 160.984 31.784 164.529 31.784 164.529L34.541 134.989L31.371 132.113C31.371 132.113 29.451 123.151 31.012 117.845C32.573 112.539 30.212 95.997 30.212 95.997L18.784 92.846Z" fill="#FFB9B9"/>
<path id="Path 45" d="M86.527 143.166C86.527 143.166 97.949 169.161 96.767 181.766C95.585 194.371 86.527 247.541 86.527 247.541C86.527 247.541 87.709 316.073 84.164 316.073C80.619 316.073 63.683 322.373 63.683 318.042C63.683 313.711 60.138 209.73 60.138 209.73C60.138 209.73 40.051 255.418 38.082 258.963C36.113 262.508 23.509 318.042 19.177 318.042C14.845 318.042 1.45304 314.103 2.63504 311.342C3.81704 308.581 17.208 247.142 24.691 231.389C32.174 215.636 30.599 156.161 30.599 156.161L43.199 128.591L86.527 143.166Z" fill="#3F3D56"/>
<path id="Path 46" d="M75.105 18.454C75.105 18.454 86.1329 17.666 86.9209 14.909C87.7089 12.152 89.284 9.789 88.496 9.789C87.708 9.789 87.3139 7.81999 87.3139 7.81999C87.3139 7.81999 86.526 7.42599 86.132 7.81999C85.738 8.21399 85.344 5.063 85.344 5.063C85.344 5.063 84.95 3.88101 84.556 4.66901C84.162 5.45701 84.162 5.063 83.768 3.881C83.374 2.699 81.405 1.912 81.405 1.912C81.405 1.912 73.922 2.30599 72.74 0.729995C71.558 -0.846005 58.167 0.335992 55.41 2.30499C52.653 4.27399 40.443 11.364 42.41 17.272C44.377 23.18 51.469 36.177 51.469 38.147C51.469 40.117 54.226 39.722 55.014 37.753C55.802 35.784 62.103 33.421 62.103 32.239C62.103 31.057 65.648 20.029 67.617 20.817C69.586 21.605 71.949 27.906 72.737 26.725C73.525 25.544 75.105 18.454 75.105 18.454Z" fill="#3F3D56"/>
<path id="Path 47" d="M20.756 72.413C20.756 72.413 36.901 48.781 41.628 47.6C46.355 46.419 56.989 43.268 56.989 43.268C56.989 43.268 67.623 44.843 70.774 46.419C73.925 47.995 85.741 50.751 86.134 55.478C86.527 60.205 82.983 105.498 84.952 109.831C86.921 114.164 93.617 155.519 90.466 154.731C87.315 153.943 89.678 143.703 75.893 143.309C62.108 142.915 54.625 134.644 49.504 144.491C44.383 154.338 29.811 161.821 29.811 161.821C29.4445 158.646 28.9185 155.491 28.235 152.368C27.054 146.854 31.386 133.463 31.386 133.463C31.386 133.463 30.992 102.348 29.417 98.803C27.842 95.258 20.756 72.413 20.756 72.413Z" fill="#EBA40C"/>
<path id="Path 48" d="M26.66 71.592L20.752 72.38C20.752 72.38 21.146 80.257 19.57 82.62C17.994 84.983 15.238 97.192 16.813 97.592C18.388 97.992 32.568 100.349 32.568 100.349L33.357 82.232L26.66 71.592Z" fill="#EBA40C"/>
<path id="Path 49" d="M90.435 85.756C90.435 85.756 94.374 111.356 96.343 114.508C98.312 117.66 108.159 161.769 108.159 161.769C108.159 161.769 124.351 184.286 116.473 183.892C108.595 183.498 100.281 163.344 100.281 163.344C100.281 163.344 75.862 118.838 75.862 114.111C75.862 109.384 69.954 85.753 69.954 85.753L90.435 85.756Z" fill="#FFB9B9"/>
<path id="Path 50" d="M79.016 51.144L86.106 53.901C86.106 53.901 95.1651 86.201 93.1951 88.955C91.2251 91.709 67.595 87.773 67.2 86.592C66.805 85.411 71.533 51.144 79.016 51.144Z" fill="#EBA40C"/>
</g>
<g id="restaurant">
<path id="Path 1142" d="M156.645 172.913H345.928V337.094H156.645V172.913Z" fill="#3F3D56"/>
<path id="Path 1143" d="M345.928 172.913V208.407C340.514 208.147 335.333 206.122 331.178 202.641C326.695 206.385 321.04 208.436 315.199 208.436C309.359 208.436 303.704 206.385 299.221 202.641C294.738 206.385 289.083 208.436 283.242 208.436C277.402 208.436 271.747 206.385 267.264 202.641C262.782 206.386 257.126 208.438 251.285 208.438C245.445 208.438 239.789 206.386 235.307 202.641C230.825 206.386 225.169 208.438 219.328 208.438C213.488 208.438 207.832 206.386 203.35 202.641C199.393 205.948 194.507 207.946 189.366 208.358C184.225 208.77 179.083 207.576 174.65 204.941V337.099H156.65V177.418H162.398V172.913H345.928Z" fill="#3F3D56"/>
<path id="Path 1144" d="M244.821 337.095H175.992V219.796C175.992 218.96 176.324 218.159 176.915 217.568C177.506 216.977 178.307 216.645 179.143 216.645H241.67C242.506 216.645 243.307 216.977 243.898 217.568C244.489 218.159 244.821 218.96 244.821 219.796V337.096V337.095Z" fill="#714B4F"/>
<path id="Path 1145" d="M193.994 216.647V337.097H175.994V219.797C175.994 218.961 176.326 218.16 176.917 217.569C177.508 216.978 178.309 216.646 179.145 216.646L193.994 216.647Z" fill="#714B4F"/>
<path id="Path 1146" d="M227.613 316.513H193.199C192.751 316.505 192.306 316.587 191.889 316.753C191.473 316.919 191.094 317.167 190.774 317.481C190.455 317.795 190.201 318.17 190.027 318.583C189.854 318.997 189.765 319.44 189.765 319.889C189.765 320.337 189.854 320.78 190.027 321.194C190.201 321.607 190.455 321.982 190.774 322.296C191.094 322.61 191.473 322.858 191.889 323.024C192.306 323.19 192.751 323.272 193.199 323.264H227.613C228.061 323.272 228.506 323.19 228.923 323.024C229.339 322.858 229.718 322.61 230.038 322.296C230.357 321.982 230.611 321.607 230.785 321.194C230.958 320.78 231.047 320.337 231.047 319.889C231.047 319.44 230.958 318.997 230.785 318.583C230.611 318.17 230.357 317.795 230.038 317.481C229.718 317.167 229.339 316.919 228.923 316.753C228.506 316.587 228.061 316.505 227.613 316.513V316.513Z" fill="#EBA40C"/>
<g id="Group 4356">
<g id="Group 4355">
<path id="Path 1147" d="M277.097 307.908H263.265V268.266C263.273 267.818 263.191 267.373 263.025 266.956C262.859 266.54 262.611 266.161 262.297 265.841C261.983 265.522 261.608 265.268 261.195 265.094C260.781 264.921 260.338 264.832 259.89 264.832C259.441 264.832 258.998 264.921 258.584 265.094C258.171 265.268 257.796 265.522 257.482 265.841C257.168 266.161 256.92 266.54 256.754 266.956C256.588 267.373 256.506 267.818 256.514 268.266V337.095C256.506 337.543 256.588 337.988 256.754 338.405C256.92 338.821 257.168 339.2 257.482 339.52C257.796 339.839 258.171 340.093 258.584 340.267C258.998 340.44 259.441 340.529 259.89 340.529C260.338 340.529 260.781 340.44 261.195 340.267C261.608 340.093 261.983 339.839 262.297 339.52C262.611 339.2 262.859 338.821 263.025 338.405C263.191 337.988 263.273 337.543 263.265 337.095V314.659H273.721V337.094C273.713 337.542 273.795 337.987 273.961 338.404C274.127 338.82 274.375 339.199 274.689 339.519C275.003 339.838 275.378 340.092 275.791 340.266C276.205 340.439 276.648 340.528 277.097 340.528C277.545 340.528 277.988 340.439 278.402 340.266C278.815 340.092 279.19 339.838 279.504 339.519C279.818 339.199 280.066 338.82 280.232 338.404C280.398 337.987 280.48 337.542 280.472 337.094V311.284C280.472 310.841 280.385 310.402 280.215 309.992C280.046 309.583 279.797 309.21 279.484 308.897C279.17 308.583 278.798 308.335 278.389 308.165C277.979 307.995 277.54 307.908 277.097 307.908Z" fill="#F0C69E"/>
<path id="Path 1148" d="M328.719 264.89C328.276 264.89 327.837 264.977 327.427 265.147C327.017 265.316 326.645 265.565 326.332 265.879C326.018 266.192 325.769 266.564 325.6 266.974C325.43 267.384 325.343 267.823 325.343 268.266V307.908H311.512C310.617 307.908 309.758 308.264 309.125 308.897C308.492 309.53 308.136 310.389 308.136 311.284V337.095C308.128 337.543 308.21 337.988 308.376 338.405C308.542 338.821 308.79 339.2 309.104 339.52C309.418 339.839 309.793 340.093 310.206 340.267C310.62 340.44 311.063 340.529 311.512 340.529C311.96 340.529 312.403 340.44 312.817 340.267C313.23 340.093 313.605 339.839 313.919 339.52C314.233 339.2 314.481 338.821 314.647 338.405C314.813 337.988 314.895 337.543 314.887 337.095V314.659H325.343V337.094C325.335 337.542 325.417 337.987 325.583 338.404C325.749 338.82 325.997 339.199 326.311 339.519C326.625 339.838 327 340.092 327.413 340.266C327.827 340.439 328.27 340.528 328.719 340.528C329.167 340.528 329.61 340.439 330.024 340.266C330.437 340.092 330.812 339.838 331.126 339.519C331.44 339.199 331.688 338.82 331.854 338.404C332.02 337.987 332.102 337.542 332.094 337.094V268.266C332.094 267.371 331.738 266.512 331.106 265.879C330.473 265.246 329.614 264.89 328.719 264.89V264.89Z" fill="#F0C69E"/>
<path id="Path 1149" d="M311.511 297.452C312.396 297.437 313.24 297.074 313.861 296.443C314.481 295.812 314.829 294.962 314.829 294.077C314.829 293.191 314.481 292.341 313.861 291.71C313.24 291.079 312.396 290.716 311.511 290.701H277.097C276.649 290.693 276.204 290.775 275.787 290.941C275.371 291.107 274.992 291.355 274.672 291.669C274.353 291.983 274.099 292.358 273.925 292.771C273.752 293.185 273.663 293.628 273.663 294.077C273.663 294.525 273.752 294.968 273.925 295.382C274.099 295.795 274.353 296.17 274.672 296.484C274.992 296.798 275.371 297.046 275.787 297.212C276.204 297.378 276.649 297.46 277.097 297.452H290.928V337.097C290.943 337.982 291.306 338.826 291.937 339.447C292.568 340.067 293.418 340.415 294.303 340.415C295.189 340.415 296.039 340.067 296.67 339.447C297.301 338.826 297.664 337.982 297.679 337.097V297.452H311.511Z" fill="#F0C69E"/>
</g>
<path id="Path 1150" d="M187.374 199.437C183.137 199.437 179.073 197.753 176.076 194.757C173.08 191.76 171.397 187.696 171.397 183.459V177.415H203.353V183.459C203.353 185.557 202.94 187.635 202.137 189.574C201.334 191.512 200.157 193.274 198.673 194.758C197.189 196.241 195.427 197.418 193.489 198.221C191.55 199.024 189.472 199.437 187.374 199.437V199.437Z" fill="#F0C69E"/>
<path id="Path 1151" d="M251.287 199.437C247.05 199.436 242.987 197.752 239.991 194.756C236.995 191.76 235.312 187.696 235.312 183.459V177.415H267.268V183.459C267.268 185.557 266.854 187.635 266.051 189.574C265.248 191.513 264.071 193.274 262.587 194.758C261.103 196.242 259.341 197.419 257.402 198.221C255.463 199.024 253.385 199.437 251.287 199.437Z" fill="#F0C69E"/>
<path id="Path 1152" d="M315.199 199.437C313.101 199.437 311.023 199.024 309.084 198.221C307.146 197.418 305.385 196.241 303.901 194.757C302.417 193.273 301.24 191.512 300.437 189.574C299.634 187.635 299.221 185.557 299.221 183.459V177.415H331.177V183.459C331.177 187.697 329.494 191.761 326.497 194.757C323.501 197.754 319.437 199.437 315.199 199.437V199.437Z" fill="#F0C69E"/>
</g>
<path id="Path 1153" d="M155.418 199.437C153.32 199.437 151.242 199.024 149.303 198.221C147.365 197.418 145.604 196.241 144.12 194.757C142.636 193.273 141.459 191.512 140.656 189.574C139.853 187.635 139.44 185.557 139.44 183.459V177.415H171.396V183.459C171.396 187.697 169.713 191.761 166.716 194.757C163.72 197.754 159.656 199.437 155.418 199.437V199.437Z" fill="#714B4F"/>
<path id="Path 1154" d="M219.33 199.437C215.093 199.436 211.029 197.753 208.033 194.756C205.037 191.76 203.354 187.696 203.354 183.459V177.415H235.31V183.459C235.31 185.557 234.897 187.635 234.094 189.574C233.29 191.513 232.113 193.274 230.629 194.758C229.146 196.242 227.384 197.418 225.445 198.221C223.506 199.024 221.428 199.437 219.33 199.437V199.437Z" fill="#714B4F"/>
<path id="Path 1155" d="M283.243 199.437C281.145 199.437 279.067 199.024 277.128 198.221C275.19 197.418 273.429 196.241 271.945 194.757C270.461 193.273 269.284 191.512 268.481 189.574C267.678 187.635 267.265 185.557 267.265 183.459V177.415H299.221V183.459C299.221 187.697 297.538 191.761 294.541 194.757C291.545 197.754 287.481 199.437 283.243 199.437V199.437Z" fill="#714B4F"/>
<path id="Path 1156" d="M347.156 199.437C345.058 199.437 342.98 199.024 341.041 198.221C339.103 197.418 337.342 196.241 335.858 194.757C334.374 193.273 333.197 191.512 332.394 189.574C331.591 187.635 331.178 185.557 331.178 183.459V177.415H363.134V183.459C363.134 187.697 361.451 191.761 358.454 194.757C355.458 197.754 351.394 199.437 347.156 199.437V199.437Z" fill="#714B4F"/>
<g id="Group 4358">
<g id="Group 4357">
<path id="Path 1157" d="M363.134 340.471H139.44C138.555 340.456 137.711 340.093 137.09 339.462C136.47 338.831 136.122 337.981 136.122 337.096C136.122 336.21 136.47 335.36 137.09 334.729C137.711 334.098 138.555 333.735 139.44 333.72H363.134C363.582 333.712 364.027 333.794 364.444 333.96C364.86 334.126 365.239 334.374 365.559 334.688C365.878 335.002 366.132 335.377 366.306 335.79C366.479 336.204 366.568 336.647 366.568 337.096C366.568 337.544 366.479 337.987 366.306 338.401C366.132 338.814 365.878 339.189 365.559 339.503C365.239 339.817 364.86 340.065 364.444 340.231C364.027 340.397 363.582 340.479 363.134 340.471V340.471Z" fill="#3F3D56"/>
</g>
</g>
<path id="Path 1158" d="M332.423 113.638H170.15C166.57 113.638 163.136 115.06 160.604 117.592C158.072 120.124 156.65 123.558 156.65 127.138V148.052L163.521 152.552H339.055L345.926 148.052V127.141C345.926 123.561 344.504 120.127 341.972 117.595C339.44 115.063 336.006 113.641 332.426 113.641L332.423 113.638Z" fill="#EBA40C"/>
<path id="Path 1159" d="M345.929 139.05V148.05H156.645V127.141C156.645 123.561 158.067 120.127 160.599 117.595C163.131 115.063 166.565 113.641 170.145 113.641H179.92C179.408 115.086 179.148 116.608 179.15 118.141V135.9C179.15 136.736 179.482 137.537 180.073 138.128C180.664 138.719 181.465 139.051 182.301 139.051L345.929 139.05Z" fill="#F3B328"/>
<path id="Path 1160" d="M171.397 177.415H203.353L210.728 148.052H183.687L171.397 177.415Z" fill="#F0C69E"/>
<path id="Path 1161" d="M235.312 177.415H267.268L264.81 148.052H237.77L235.312 177.415Z" fill="#F0C69E"/>
<path id="Path 1162" d="M299.221 177.415H331.177L318.886 148.052H291.846L299.221 177.415Z" fill="#F0C69E"/>
<path id="Path 1163" d="M139.44 177.415H171.396L183.687 148.052H156.647L139.44 177.415Z" fill="#714B4F"/>
<path id="Path 1164" d="M203.355 177.415H235.311L237.769 148.052H210.729L203.355 177.415Z" fill="#714B4F"/>
<path id="Path 1165" d="M267.264 177.415H299.22L291.845 148.052H264.805L267.264 177.415Z" fill="#714B4F"/>
<path id="Path 1166" d="M331.177 177.415H363.133L345.926 148.052H318.886L331.177 177.415Z" fill="#714B4F"/>
<path id="Path 1170" d="M193.199 235.658H227.632V304.447H193.199V235.658Z" fill="#714B4F"/>
<path id="Path 1171" d="M193.199 307.862H227.613C228.508 307.862 229.367 307.506 230 306.873C230.633 306.24 230.989 305.381 230.989 304.486V235.658C230.989 234.763 230.633 233.904 230 233.271C229.367 232.638 228.508 232.282 227.613 232.282H193.199C192.304 232.282 191.445 232.638 190.812 233.271C190.179 233.904 189.823 234.763 189.823 235.658V304.487C189.823 305.382 190.179 306.241 190.812 306.874C191.445 307.506 192.304 307.862 193.199 307.862V307.862ZM213.783 239.033H224.239V249.488H213.783V239.033ZM213.783 256.24H224.239V266.696H213.783V256.24ZM213.783 273.447H224.239V283.296H213.783V273.447ZM213.783 290.047H224.239V301.111H213.783V290.047ZM196.576 239.032H207.032V249.487H196.574L196.576 239.032ZM196.576 256.239H207.032V266.695H196.574L196.576 256.239ZM196.576 273.446H207.032V283.295H196.574L196.576 273.446ZM196.576 290.046H207.032V301.111H196.574L196.576 290.046Z" fill="#EBA40C"/>
<g id="coin">
<path id="Path 1172" d="M311.846 235.003C311.846 238.959 310.673 242.825 308.475 246.114C306.278 249.403 303.154 251.967 299.5 253.481C295.845 254.994 291.824 255.39 287.944 254.619C284.065 253.847 280.501 251.942 277.704 249.145C274.907 246.348 273.002 242.784 272.23 238.905C271.459 235.025 271.855 231.004 273.368 227.349C274.882 223.695 277.446 220.571 280.735 218.374C284.024 216.176 287.89 215.003 291.846 215.003C297.15 215.003 302.237 217.11 305.988 220.861C309.739 224.612 311.846 229.699 311.846 235.003Z" fill="url(#paint0_radial_423_2)"/>
<path id="Path 1173" d="M271.846 235.003C271.85 238.367 272.712 241.675 274.351 244.613C275.991 247.551 278.353 250.021 281.214 251.791H302.478C305.342 250.024 307.706 247.554 309.345 244.615C310.985 241.677 311.846 238.368 311.846 235.003C311.846 231.638 310.985 228.329 309.345 225.391C307.706 222.452 305.342 219.982 302.478 218.215H281.214C278.353 219.985 275.991 222.455 274.351 225.393C272.712 228.331 271.85 231.639 271.846 235.003V235.003Z" fill="url(#paint1_linear_423_2)"/>
<path id="Path 1174" d="M271.846 235.003C271.848 239.792 273.646 244.407 276.884 247.936H306.808C310.048 244.408 311.846 239.793 311.846 235.003C311.846 230.213 310.048 225.598 306.808 222.07H276.884C273.646 225.599 271.848 230.213 271.846 235.003V235.003Z" fill="url(#paint2_linear_423_2)"/>
<path id="Path 1175" d="M271.846 235.003C271.84 238.016 272.459 240.997 273.663 243.759H310.029C311.228 240.995 311.846 238.015 311.846 235.003C311.846 231.991 311.228 229.011 310.029 226.247H273.663C272.459 229.009 271.84 231.99 271.846 235.003V235.003Z" fill="url(#paint3_linear_423_2)"/>
<path id="Path 1176" d="M271.846 235.003C271.845 236.768 272.056 238.527 272.474 240.242H311.218C312.055 236.8 312.055 233.206 311.218 229.764H272.474C272.056 231.479 271.845 233.238 271.846 235.003V235.003Z" fill="url(#paint4_linear_423_2)"/>
<path id="Path 1177" d="M290.178 215.068C285.17 215.474 280.499 217.751 277.092 221.444C273.686 225.138 271.795 229.978 271.795 235.003C271.795 240.027 273.686 244.867 277.092 248.561C280.499 252.254 285.17 254.531 290.178 254.937C295.186 254.531 299.857 252.254 303.264 248.561C306.67 244.867 308.561 240.027 308.561 235.003C308.561 229.978 306.67 225.138 303.264 221.444C299.857 217.751 295.186 215.474 290.178 215.068V215.068Z" fill="url(#paint5_radial_423_2)"/>
<path id="Path 1178" d="M291.203 216.983C290.522 216.89 289.832 216.89 289.152 216.983C284.817 217.604 280.851 219.768 277.982 223.077C275.113 226.386 273.533 230.619 273.533 234.999C273.533 239.379 275.113 243.612 277.982 246.921C280.851 250.23 284.817 252.394 289.152 253.015C289.832 253.108 290.522 253.108 291.203 253.015C295.538 252.394 299.504 250.23 302.373 246.921C305.242 243.612 306.822 239.379 306.822 234.999C306.822 230.619 305.242 226.386 302.373 223.077C299.504 219.768 295.538 217.604 291.203 216.983Z" fill="url(#paint6_radial_423_2)"/>
<path id="Path 1179" d="M305.139 235.003C305.085 232.237 304.215 229.549 302.639 227.275C301.063 225.001 298.85 223.244 296.279 222.223C293.708 221.202 290.892 220.963 288.186 221.535C285.479 222.108 283.002 223.468 281.065 225.443C279.128 227.418 277.818 229.922 277.298 232.639C276.778 235.356 277.072 238.167 278.144 240.717C279.215 243.268 281.015 245.446 283.319 246.977C285.623 248.508 288.328 249.325 291.095 249.325C294.856 249.288 298.449 247.758 301.083 245.072C303.716 242.386 305.176 238.764 305.139 235.003V235.003Z" fill="url(#paint7_radial_423_2)"/>
<path id="Path 1180" d="M294.016 221.24C292.264 220.733 290.404 220.733 288.652 221.24C285.674 222.149 283.072 223.999 281.235 226.513C279.398 229.026 278.427 232.068 278.466 235.181C278.505 238.294 279.553 241.311 281.452 243.777C283.351 246.244 285.999 248.028 288.999 248.862C290.53 249.262 292.138 249.262 293.669 248.862C296.669 248.028 299.317 246.244 301.216 243.777C303.115 241.311 304.163 238.294 304.202 235.181C304.241 232.068 303.27 229.026 301.433 226.513C299.596 223.999 296.994 222.149 294.016 221.24V221.24Z" fill="url(#paint8_radial_423_2)"/>
<path id="Path 1181" d="M303.747 236.322L294.447 227.022C294.191 226.664 293.819 226.407 293.394 226.294C292.828 226.095 292.242 225.961 291.646 225.894L290.83 225.166C290.818 225.102 290.794 225.042 290.758 224.988C290.722 224.935 290.675 224.889 290.621 224.854C290.487 224.752 290.323 224.696 290.155 224.695C289.986 224.691 289.82 224.747 289.689 224.854C289.631 224.896 289.584 224.95 289.55 225.013C289.517 225.076 289.498 225.146 289.496 225.217V225.876C288.37 225.971 287.298 226.398 286.416 227.103C285.993 227.474 285.661 227.938 285.446 228.458C285.231 228.979 285.139 229.541 285.177 230.103C285.172 230.536 285.226 230.967 285.336 231.385C285.434 231.756 285.613 232.1 285.859 232.394C286.075 232.653 286.306 232.899 286.552 233.131L286.589 233.163L289.496 236.076V239.876C288.872 239.844 288.264 239.666 287.722 239.354C287.293 239.111 286.889 238.826 286.516 238.504C286.332 238.294 286.082 238.153 285.808 238.104C285.661 238.111 285.519 238.155 285.393 238.23C285.267 238.305 285.161 238.41 285.085 238.535C284.889 238.781 284.778 239.083 284.769 239.397C284.794 239.675 284.88 239.944 285.021 240.185C285.163 240.425 285.355 240.632 285.586 240.789L293.575 248.778C296.281 247.886 298.676 246.24 300.478 244.032C302.279 241.825 303.413 239.149 303.744 236.319L303.747 236.322Z" fill="url(#paint9_linear_423_2)"/>
<path id="Path 1182" d="M285.112 240.402C285.121 240.088 285.232 239.786 285.428 239.54C285.504 239.415 285.61 239.31 285.736 239.235C285.862 239.16 286.004 239.116 286.151 239.109C286.425 239.158 286.675 239.299 286.859 239.509C287.232 239.831 287.636 240.117 288.065 240.36C288.607 240.672 289.215 240.851 289.839 240.882V235.545C289.384 235.379 289.036 235.246 288.794 235.145C288.552 235.044 288.23 234.901 287.828 234.714C287.489 234.566 287.175 234.367 286.896 234.124C286.65 233.892 286.419 233.646 286.203 233.387C285.957 233.093 285.778 232.749 285.68 232.378C285.57 231.96 285.516 231.529 285.521 231.096C285.483 230.534 285.575 229.972 285.79 229.451C286.005 228.931 286.337 228.467 286.76 228.096C287.642 227.391 288.714 226.964 289.84 226.869V226.21C289.842 226.139 289.86 226.069 289.894 226.005C289.927 225.942 289.975 225.888 290.033 225.846C290.164 225.739 290.33 225.683 290.499 225.687C290.667 225.688 290.831 225.744 290.965 225.846C291.028 225.884 291.081 225.938 291.118 226.001C291.156 226.065 291.177 226.136 291.181 226.21V226.824C292.052 226.845 292.915 227.002 293.738 227.29C294.518 227.571 294.908 227.961 294.909 228.46C294.899 228.764 294.804 229.059 294.634 229.312C294.563 229.445 294.458 229.557 294.328 229.635C294.199 229.713 294.051 229.755 293.9 229.755C293.55 229.674 293.214 229.544 292.9 229.369C292.359 229.112 291.774 228.958 291.177 228.915V233.521C291.688 233.709 292.189 233.925 292.677 234.168C293.128 234.407 293.552 234.692 293.943 235.019C294.389 235.384 294.735 235.856 294.949 236.391C295.187 237.009 295.302 237.668 295.288 238.33C295.35 239.509 294.953 240.666 294.18 241.558C293.382 242.386 292.318 242.907 291.174 243.03V243.789C291.17 243.862 291.148 243.932 291.111 243.995C291.073 244.057 291.021 244.109 290.958 244.146C290.824 244.247 290.66 244.302 290.492 244.302C290.323 244.306 290.158 244.251 290.026 244.146C289.968 244.106 289.921 244.052 289.887 243.99C289.854 243.928 289.835 243.859 289.833 243.789V243.097C288.653 243.122 287.489 242.809 286.48 242.197C285.563 241.609 285.104 241.009 285.105 240.397L285.112 240.402ZM287.772 230.876C287.756 231.128 287.797 231.38 287.892 231.614C287.988 231.848 288.135 232.057 288.323 232.225C288.822 232.606 289.381 232.901 289.977 233.098V228.966C288.51 229.148 287.777 229.784 287.777 230.875L287.772 230.876ZM291.045 240.833C291.324 240.818 291.598 240.748 291.849 240.627C292.101 240.506 292.327 240.336 292.513 240.127C292.699 239.919 292.841 239.675 292.933 239.411C293.024 239.147 293.062 238.867 293.045 238.588C293.078 238.019 292.891 237.458 292.522 237.023C292.103 236.598 291.6 236.266 291.045 236.048V240.833Z" fill="url(#paint10_linear_423_2)"/>
</g>
</g>
</g>
<defs>
<radialGradient id="paint0_radial_423_2" cx="0" cy="0" r="1" gradientUnits="userSpaceOnUse" gradientTransform="translate(290.886 234.323) scale(20.84)">
<stop stop-color="#FFA700"/>
<stop offset="0.323" stop-color="#FCA300"/>
<stop offset="0.665" stop-color="#F39600"/>
<stop offset="1" stop-color="#E58200"/>
</radialGradient>
<linearGradient id="paint1_linear_423_2" x1="291.846" y1="231.88" x2="291.846" y2="267.303" gradientUnits="userSpaceOnUse">
<stop stop-color="#E58200" stop-opacity="0"/>
<stop offset="0.04" stop-color="#E27F04" stop-opacity="0.039"/>
<stop offset="0.467" stop-color="#C15D2F" stop-opacity="0.467"/>
<stop offset="0.802" stop-color="#AD4949" stop-opacity="0.8"/>
<stop offset="1" stop-color="#A64153"/>
</linearGradient>
<linearGradient id="paint2_linear_423_2" x1="271.846" y1="239.711" x2="292.864" y2="195.507" gradientUnits="userSpaceOnUse">
<stop stop-color="#E58200" stop-opacity="0"/>
<stop offset="0.04" stop-color="#E27F04" stop-opacity="0.039"/>
<stop offset="0.467" stop-color="#C15D2F" stop-opacity="0.467"/>
<stop offset="0.802" stop-color="#AD4949" stop-opacity="0.8"/>
<stop offset="1" stop-color="#A64153"/>
</linearGradient>
<linearGradient id="paint3_linear_423_2" x1="271.846" y1="235.633" x2="288.736" y2="262.369" gradientUnits="userSpaceOnUse">
<stop stop-color="#E58200" stop-opacity="0"/>
<stop offset="0.04" stop-color="#E27F04" stop-opacity="0.039"/>
<stop offset="0.467" stop-color="#C15D2F" stop-opacity="0.467"/>
<stop offset="0.802" stop-color="#AD4949" stop-opacity="0.8"/>
<stop offset="1" stop-color="#A64153"/>
</linearGradient>
<linearGradient id="paint4_linear_423_2" x1="271.846" y1="239.592" x2="275.237" y2="214.075" gradientUnits="userSpaceOnUse">
<stop stop-color="#E58200" stop-opacity="0"/>
<stop offset="0.04" stop-color="#E27F04" stop-opacity="0.039"/>
<stop offset="0.467" stop-color="#C15D2F" stop-opacity="0.467"/>
<stop offset="0.802" stop-color="#AD4949" stop-opacity="0.8"/>
<stop offset="1" stop-color="#A64153"/>
</linearGradient>
<radialGradient id="paint5_radial_423_2" cx="0" cy="0" r="1" gradientUnits="userSpaceOnUse" gradientTransform="translate(285.328 229.62) scale(27.9515 27.988)">
<stop stop-color="#FFC738"/>
<stop offset="0.284" stop-color="#FFC534"/>
<stop offset="0.539" stop-color="#FFBF29"/>
<stop offset="0.783" stop-color="#FFB417"/>
<stop offset="1" stop-color="#FFA700"/>
</radialGradient>
<radialGradient id="paint6_radial_423_2" cx="0" cy="0" r="1" gradientUnits="userSpaceOnUse" gradientTransform="translate(293.097 234.999) scale(17.3285 17.4346)">
<stop stop-color="#FFFCF8"/>
<stop offset="0.948" stop-color="#FFFCF8" stop-opacity="0.051"/>
<stop offset="1" stop-color="#FFFCF8" stop-opacity="0"/>
</radialGradient>
<radialGradient id="paint7_radial_423_2" cx="0" cy="0" r="1" gradientUnits="userSpaceOnUse" gradientTransform="translate(299.652 240.905) scale(21.9749 21.9765)">
<stop stop-color="#FFA700"/>
<stop offset="0.323" stop-color="#FCA300"/>
<stop offset="0.665" stop-color="#F39600"/>
<stop offset="1" stop-color="#E58200"/>
</radialGradient>
<radialGradient id="paint8_radial_423_2" cx="0" cy="0" r="1" gradientUnits="userSpaceOnUse" gradientTransform="translate(303.514 230.086) scale(22.3877 20.9155)">
<stop stop-color="#FFC738"/>
<stop offset="0.284" stop-color="#FFC534"/>
<stop offset="0.539" stop-color="#FFBF29"/>
<stop offset="0.783" stop-color="#FFB417"/>
<stop offset="1" stop-color="#FFA700"/>
</radialGradient>
<linearGradient id="paint9_linear_423_2" x1="297.883" y1="238.109" x2="283.457" y2="236.05" gradientUnits="userSpaceOnUse">
<stop stop-color="#FFA700" stop-opacity="0"/>
<stop offset="0.021" stop-color="#FEA600" stop-opacity="0.02"/>
<stop offset="0.635" stop-color="#EC8C00" stop-opacity="0.635"/>
<stop offset="1" stop-color="#E58200"/>
</linearGradient>
<linearGradient id="paint10_linear_423_2" x1="289.15" y1="234.995" x2="294.316" y2="234.995" gradientUnits="userSpaceOnUse">
<stop stop-color="#FFA700"/>
<stop offset="0.323" stop-color="#FCA300"/>
<stop offset="0.665" stop-color="#F39600"/>
<stop offset="1" stop-color="#E58200"/>
</linearGradient>
<clipPath id="clip0_423_2">
<rect width="366.509" height="340.471" fill="white"/>
</clipPath>
</defs>
</svg>
