<svg width="596" height="240" viewBox="0 0 596 240" fill="none" xmlns="http://www.w3.org/2000/svg">
<style>
    #graph , #clip , #rotate_1 , #rotate_2 , #translate_1 , #translate_2 {
        transform-origin: center;
        transform-box: fill-box;
    }
    #translate_1 , #translate_2{
        animation: translateY 2s linear infinite alternate-reverse;
    }
    #rotate_1 , #rotate_2{
        animation: rotation 2s linear infinite alternate-reverse;
    }
    #graph{
        animation: sideClip 1s linear infinite alternate-reverse;
    }
    #clip {
        animation: sideClip_2 1s linear infinite alternate-reverse;
    }
    @keyframes translateY {
        0%,
        100% {
            transform: translateY(0px);
        }

        50% {
            transform: translateY(-2px);
        }
    }

    @keyframes rotation {
        0% {
            transform: rotate(0deg);
        }

        50% {
            transform: rotate(-10deg);
        }

        100% {
            transform: rotate(0deg);
        }
    }
    @keyframes sideClip {
        0% {
            clip-path: polygon(0 0, 100% 0, 0 0, 0 100%);
        }
        25% {
            clip-path: polygon(0 0, 100% 0, 0 100%, 0 100%);
        }
        50% {
            clip-path: polygon(0 0, 100% 0, 100% 100%, 0 100%);
        }
        75%{
            transform: scale(0.84);
            animation-timing-function: ease-out;
        }

        100%{
            transform: scale(1);
            animation-timing-function: ease-in;
        }
    }
    @keyframes sideClip_2 {
        0% {
            clip-path: polygon(50% 0%, 100% 0, 100% 60%, 100% 100%, 55% 100%, 31% 100%, 46% 68%, 70% 53%, 60% 26%);
        }
        50% {
            clip-path: polygon(50% 0%, 100% 0, 100% 60%, 100% 100%, 55% 100%, 31% 100%, 46% 68%, 26% 33%, 11% 10%);

        }
        100% {
            clip-path: polygon(0 0, 100% 0, 100% 60%, 100% 100%, 55% 100%, 0 100%, 0 59%, 0 31%, 0 14%);
        }
    }

</style>
<g id="Group">
<g id="Group_2">
<g id="Group_3">
<g id="Group_4">
<path id="translate_2" d="M122.3 27.8H143V142.3H122.3V27.8Z" fill="#EFEFEF"/>
<path id="Vector_2" d="M184.3 59.7H205V69.2C208.5 65.3 212.5 62.4 216.8 60.5C221.1 58.6 225.9 57.6 231 57.6C236.2 57.6 240.8 58.9 245 61.4C249.2 63.9 252.5 67.6 255 72.5C258.3 67.6 262.3 63.9 267.1 61.4C271.9 58.9 277.1 57.6 282.8 57.6C288.7 57.6 293.8 59 298.3 61.7C302.8 64.4 306 68 307.9 72.4C309.9 76.8 310.8 84 310.8 93.9V142.3H290V100.4C290 91 288.8 84.7 286.5 81.4C284.2 78.1 280.7 76.4 276 76.4C272.5 76.4 269.3 77.4 266.5 79.4C263.7 81.4 261.6 84.2 260.2 87.8C258.8 91.4 258.1 97.1 258.1 105V142.3H237.2V102.3C237.2 94.9 236.7 89.6 235.6 86.2C234.5 82.9 232.9 80.4 230.7 78.8C228.5 77.2 225.9 76.4 222.8 76.4C219.4 76.4 216.2 77.4 213.4 79.5C210.6 81.5 208.5 84.4 207.1 88.1C205.7 91.8 205 97.6 205 105.6V142.3H184.3V59.7V59.7Z" fill="#EFEFEF"/>
<path id="Vector_3" d="M430.2 59.7H450.9V68.2C455.6 64.2 459.9 61.5 463.7 59.9C467.5 58.4 471.4 57.6 475.4 57.6C483.6 57.6 490.5 60.5 496.3 66.2C501.1 71.1 503.5 78.2 503.5 87.8V142.4H483V106.2C483 96.3 482.6 89.8 481.7 86.6C480.8 83.4 479.3 80.9 477.1 79.2C474.9 77.5 472.2 76.7 469 76.7C464.8 76.7 461.2 78.1 458.2 80.9C455.2 83.7 453.1 87.6 452 92.5C451.4 95.1 451.1 100.7 451.1 109.3V142.4H430.4V59.7H430.2Z" fill="#EFEFEF"/>
<path id="translate_1" d="M413.2 93.5C412.5 86.8 410.7 80.9 407.9 75.7C406.1 72.5 403.9 69.5 401.3 66.9C395.4 60.9 388.3 57.1 379.9 55.4C377.7 54.5 376.2 53 376.9 48.7C377.6 44.7 372.9 42.4 368.8 42.2C365.2 42 362.8 45.1 363.4 47.8C364.4 52.1 363 54 360.8 55.2C352.4 56.8 345.1 60.7 339 66.9C335.5 70.5 332.7 74.5 330.7 78.9C330.7 78.9 330.7 79 330.6 79C328.7 83.3 327.5 88 327 93C326.8 94.7 326.8 96.4 326.8 98.2C326.8 100 326.9 101.8 327.1 103.6H413.5L413.6 99.8C413.5 97.6 413.4 95.5 413.2 93.5ZM347.7 87.4C348.3 86.1 348.9 85 349.5 83.9C351.3 80.6 353.3 78.2 355.3 76.7C359.7 73.5 364.7 71.8 370.5 71.8C375.8 71.8 380.5 73.3 384.5 76.1C387.5 78.2 389.8 80.9 391.3 84C391.8 85.1 392.2 86.2 392.6 87.3H347.7V87.4Z" fill="#EDA70C"/>
<path id="rotate_1" d="M407.6 126.3C403.2 132.5 398 137 392 140C385.9 143 378.7 144.4 370.4 144.4C357.4 144.4 346.9 140.3 338.7 132.1C331.9 125.3 327.9 117 326.8 107.3H346.6C347.6 113 350.2 117.5 354.2 120.9C358.4 124.4 363.7 126.1 370.2 126.1C377.9 126.1 384.6 123.4 390.2 118L407.6 126.3Z" fill="#EFEFEF"/>
<path id="rotate_2" d="M595.9 79.9C596 78.8 596 77.7 596 76.5V60.6C595.9 60.2 595.5 60 595.2 60H591.6C591.1 60 590.7 60.4 590.7 60.9C590.5 64.9 590.3 68.5 590.1 72.2C590.1 72.7 589.7 73 589.2 73H588.9C588.4 73 588 72.6 588 72.1C588 69.3 588 66.5 588 63.7C588 62.5 588.1 61.2 587.5 60.4C587.3 60.2 587.1 60 586.8 60H583.6C583.3 60 583 60.1 582.9 60.4C582.3 61.2 582.3 62.6 582.3 63.8C582.3 66.3 582.3 68.9 582.3 71.4C582.3 71.9 581.9 72.3 581.4 72.3C580.9 72.3 580.5 71.9 580.5 71.4V60.9C580.5 60.4 580.1 60 579.6 60H575.8C575.4 60.3 575.1 60.6 575 60.9V79.1C575 80 575.1 80.8 575.1 81.7C575.2 83.5 576.6 85.7 578 87C579.7 88.6 580.9 90.4 581.6 92.3C579.9 93.2 577.9 94.5 575.2 96.3V96.1C575.2 96.2 575.2 96.3 575.2 96.4V100.2C575.2 108 574.8 113.1 573.9 115.5C572.7 118.7 570.9 121.1 568.5 122.8C566.1 124.4 563.2 125.3 559.7 125.3H559.5C556.2 125.3 553.3 124.4 551 122.8C549 121.4 547.5 119.5 546.4 117.1C546.2 116.7 546 116.2 545.9 115.8C544.9 112.8 544.3 107.4 544.3 99.7V59.7H523.3V94.1C523.3 94.9 523.3 95.6 523.3 96.3C523.3 98.4 523.3 100.3 523.4 102.2C523.4 102.5 523.4 102.9 523.4 103.2C523.4 104.4 523.5 105.6 523.6 106.8C523.6 107.1 523.6 107.5 523.7 107.8C524.1 113.5 524.7 117.9 525.6 120.9V121C525.6 121.1 525.6 121.1 525.7 121.2C526 122.4 526.4 123.4 526.7 124.3C527 124.9 527.2 125.5 527.5 126.1C529.8 131.2 533.2 135.3 537.5 138.4C541.9 141.6 547.5 143.5 554.1 144.2C555 144.3 555.9 144.4 556.8 144.4C557.3 144.4 557.7 144.4 558.2 144.4C558.7 144.4 559.1 144.4 559.6 144.4C560 144.4 560.5 144.4 560.9 144.4C561.4 144.4 561.8 144.4 562.3 144.4C563.2 144.4 564.1 144.3 565 144.2C571.6 143.5 577.1 141.6 581.6 138.4C585.5 135.6 588.6 131.9 590.9 127.5C591 127.3 591.1 127.1 591.2 126.9C591.3 126.7 591.4 126.5 591.5 126.3C591.8 125.7 592.1 125.1 592.4 124.4C592.9 123.3 593.3 122 593.7 120.5C593.7 120.5 593.7 120.5 593.7 120.4C594.5 117.4 595.1 113.2 595.4 107.8C595.4 107.5 595.4 107.1 595.5 106.8C595.6 105.6 595.6 104.5 595.7 103.2C595.7 102.9 595.7 102.5 595.7 102.2C595.8 100.4 595.8 98.4 595.8 96.3C593.1 94.5 591.1 93.1 589.5 92.3C590.2 90.4 591.3 88.7 592.7 87C594.5 85.1 595.8 82.3 595.9 79.9Z" fill="#EFEFEF"/>
<path id="Vector_4" d="M84.1 81.9L67.9 39.8L64.6 31.3H43.3L40 39.8L22.1 86.2L0.700012 141.8H22.6L31.6 119H76.7L85.3 141.8H107.2L84.1 81.9ZM58.9 99.8C59 100.9 59 102.1 58.6 103.1C57.9 105.2 55.5 106.5 53.4 106C51.1 105.5 49.5 103.6 49.6 101.1C49.9 94.8 50.4 88.5 50.8 82.2C50.9 80.8 51 79.5 51.1 77.4C51.5 75.9 50.9 74.5 49.1 72.9C44.6 68.9 44.8 60.3 49.1 56C52.1 53.1 56.3 53.1 59.3 56.1C63.9 60.7 63.5 69.4 58.6 73.7C57.9 74.3 57.3 75.6 57.4 76.5C57.9 84.3 58.5 92.1 58.9 99.8Z" fill="#EFEFEF"/>
</g>
</g>
<g id="graph">
<path id="Vector_5" d="M372.1 32.9C372.7 21.9 357 13.2 367.7 0.699997C366.4 11.9 380.4 20.8 372.1 32.9Z" fill="#EDA70C"/>
<path id="Vector_6" d="M358.9 21.1C368.3 29.6 356.2 35.8 356.8 43.5C350.6 35.5 360.2 28.7 358.9 21.1Z" fill="#EDA70C"/>
<path id="Vector_7" d="M381.9 41C375.2 32.9 385.8 27.5 384.1 20.1C391.9 28.1 382 33.9 381.9 41Z" fill="#EDA70C"/>
</g>
</g>
<g id="Group_5">
<path id="Vector_8" d="M1.10004 224.4V171.9H7.70004V218.1H15.7V224.4H1.10004V224.4Z" fill="#EDA70C"/>
<path id="Vector_9" d="M67.1 224.4H14.6V218.1H23.3C21.8 216.1 21.1 213.4 21.1 210.1C21.1 207 21.9 204.4 23.6 202.1C25.5 199.5 28.4 198.2 32.2 198.2C36.1 198.2 38.9 199.5 40.8 202.1C42.5 204.4 43.3 207 43.3 210.1C43.3 213.4 42.6 216.1 41.1 218.1H52.5L52.6 204.9C52.6 195.8 49.8 190.5 44.2 188.8C43 188.4 41.8 188.2 40.6 188.2C36.4 188.2 33.2 190.3 30.9 194.4L25.7 190C29.3 185.2 34.2 182.8 40.5 182.6C46.2 182.6 50.8 184.6 54.3 188.5C57.6 192.2 59.3 198.1 59.3 206.3V218.1H67V224.4H67.1ZM32.2 218.2C35.9 218.2 37.7 215.7 37.7 210.9C37.7 206.1 35.9 203.7 32.2 203.7C28.5 203.7 26.7 206.1 26.7 210.9C26.7 215.7 28.6 218.1 32.2 218.2Z" fill="#EDA70C"/>
<path id="Vector_10" d="M75.7001 224.4H66.0001V218.1H74.5001C78.1001 218 79.9001 215.8 79.9001 211.5V186.5H86.4001L86.5001 209.7C86.5001 213.3 85.9001 216.2 84.7001 218.6C82.9001 222.4 79.9001 224.3 75.7001 224.4ZM71.4001 238.5C70.3001 238.5 69.3001 238.1 68.5001 237.3C67.7001 236.5 67.3001 235.5 67.3001 234.4C67.3001 233.2 67.7001 232.2 68.5001 231.4C69.3001 230.6 70.3001 230.2 71.4001 230.2C72.6001 230.2 73.6001 230.6 74.4001 231.4C75.2001 232.2 75.6001 233.2 75.6001 234.4C75.6001 235.5 75.2001 236.5 74.4001 237.3C73.5001 238.1 72.5001 238.5 71.4001 238.5ZM81.5001 238.4C80.4001 238.4 79.4001 238 78.6001 237.2C77.8001 236.4 77.4001 235.4 77.4001 234.3C77.4001 233.1 77.8001 232.1 78.6001 231.3C79.4001 230.5 80.4001 230.1 81.5001 230.1C82.7001 230.1 83.7001 230.5 84.5001 231.3C85.3001 232.1 85.7001 233.1 85.7001 234.3C85.7001 235.4 85.3001 236.4 84.5001 237.2C83.7001 238 82.7001 238.4 81.5001 238.4Z" fill="#EDA70C"/>
<path id="Vector_11" d="M110.1 239.9C106.8 239.9 104.5 239.8 103.3 239.5L103.8 233.5C104.8 233.8 107 233.9 110.2 233.9C113.3 233.9 115.5 233.2 116.9 231.8C118.3 230.4 119 227.9 119 224.4H111.9C106.2 224.4 101.9 222.7 99.1 219.4C96.3 216 94.9 211.4 94.9 205.4C94.9 200.6 96.1 196.3 98.6 192.8C101.4 188.7 105.6 186.6 111.2 186.6H125.5V218.2H131.7V224.5H125.5V225.4C125.5 229.7 124.3 233.2 121.8 235.7C119 238.5 115.1 239.9 110.1 239.9ZM119 218.2V191.8H111.6C108.4 191.8 105.8 192.9 104 195.1C102.2 197.3 101.3 200.6 101.3 204.9C101.3 209 102.2 212.3 103.9 214.6C105.6 217 108.3 218.1 111.8 218.1H119V218.2Z" fill="#EDA70C"/>
<path id="Vector_12" d="M196.3 224.4H130.6V218.1H143.4V192.8H150V218.1H162.2V190.5H168.8V218.1H181V186.5H187.6L187.7 218.1H196.5V224.4H196.3Z" fill="#EDA70C"/>
<path id="Vector_13" d="M199.9 224.4H195.2V218.1H198.7C202.3 218 204.1 215.8 204.1 211.5V186.5H210.6L210.7 209.7C210.7 213.3 210.1 216.2 208.9 218.6C207.1 222.4 204.1 224.3 199.9 224.4ZM206.9 180.9C205.8 180.9 204.8 180.5 204 179.7C203.2 178.9 202.8 177.9 202.8 176.8C202.8 175.6 203.2 174.6 204 173.8C204.8 173 205.8 172.6 206.9 172.6C208 172.6 209 173 209.8 173.8C210.6 174.6 211 175.6 211 176.8C211 177.9 210.6 178.9 209.8 179.7C209 180.5 208 180.9 206.9 180.9Z" fill="#EDA70C"/>
<path id="Vector_14" d="M242.4 224.4V171.9H249V218.1H257V224.4H242.4V224.4Z" fill="#EDA70C"/>
<path id="Vector_15" d="M265.1 218.2V188.7H271.6V218.2H280.9V224.5H255.9V218.2H265.1ZM268.2 183C267.1 183 266.1 182.6 265.3 181.8C264.5 181 264.1 180 264.1 178.9C264.1 177.7 264.5 176.7 265.3 175.9C266.1 175.1 267.1 174.7 268.2 174.7C269.3 174.7 270.3 175.1 271.1 175.9C271.9 176.7 272.3 177.7 272.3 178.9C272.3 180 271.9 181 271.1 181.8C270.3 182.6 269.4 183 268.2 183Z" fill="#EDA70C"/>
<path id="Vector_16" d="M316 224.4H279.9V218.1H310.9C312.1 213.4 312.7 209.2 312.7 205.6C312.7 196.9 309.3 192.5 302.5 192.5H284.6V186.5H302.9C308.5 186.5 312.6 188.6 315.5 192.7C318 196.2 319.2 200.7 319.2 206.3C319.1 211 318 217 316 224.4Z" fill="#EDA70C"/>
<path id="Vector_17" d="M356.8 239.6H350.2V230C350.2 225.2 351.4 221.6 353.9 219.1C355.9 217 358.6 215.7 361.9 215.1C361.7 213.9 361.6 212.6 361.6 211.3C361.6 205.7 363.1 201 366.2 197.1C369.3 193.3 373.3 191.3 378.4 191.3C383.4 191.3 387.4 193.3 390.5 197.2C393.5 200.9 395 205.6 395 211.2C395 213.6 394.7 215.9 394.2 218H402V224.3H391.3C388.2 228.9 383.9 231.2 378.3 231.2C372.7 231.2 368.4 228.9 365.2 224.3C364.8 223.7 364.3 222.8 363.7 221.6C358.9 221.7 356.6 224.6 356.6 230.2V239.6H356.8ZM378.4 226C381.6 226 384.2 224.6 386 221.8C387.7 219.2 388.5 215.7 388.5 211.4C388.5 207.1 387.7 203.6 386 201C384.2 198.1 381.6 196.7 378.4 196.7C375.2 196.7 372.6 198.1 370.8 201C369.1 203.7 368.3 207.2 368.3 211.4C368.3 215.7 369.1 219.1 370.8 221.8C372.7 224.6 375.2 226 378.4 226Z" fill="#EDA70C"/>
<path id="Vector_18" d="M439.7 224.4H401.2V218.1H410.9C407.9 214.6 406.5 210.1 406.5 204.8C406.5 199.3 408.2 194.7 411.6 191C415 187.3 419.5 185.4 425.1 185.4C430.7 185.4 435.1 187.3 438.6 191C440.2 192.9 441.5 195.1 442.3 197.6L436.4 201.1C436 198.5 435.1 196.3 433.8 194.5C431.7 191.7 428.7 190.3 425 190.3C421.2 190.3 418.3 191.7 416.2 194.4C414.2 197.1 413.2 200.6 413.2 204.7C413.2 208.9 414.2 212.3 416.2 214.9C417.5 216.6 419.2 217.6 421.1 218H439.8V224.4H439.7Z" fill="#EDA70C"/>
<path id="Vector_19" d="M450.6 224.4V171.9H457.2V218.1H465.2V224.4H450.6V224.4Z" fill="#EDA70C"/>
<path id="Vector_20" d="M521.7 224.4H464.1V218.1H472.1V171.9H478.7V186.5H498C503.6 186.5 507.7 188.6 510.6 192.7C513 196.3 514.3 200.5 514.3 205.3C514.3 210.6 513.2 214.8 511 218.1H521.9V224.4H521.7ZM499.7 218.2C501.4 218.2 503.1 217 504.8 214.7C506.5 212.3 507.4 209.1 507.4 205C507.4 200.6 506.5 197.3 504.7 195.2C502.9 193 500.4 191.9 497.1 191.9H478.5V218.3H499.7V218.2Z" fill="#EDA70C"/>
<path id="Vector_21" d="M545.3 228.1C539.7 228.1 535.4 225.8 532.2 221.2C531.9 220.8 531.6 220.3 531.3 219.7C530.2 222.8 527.4 224.3 522.8 224.4H520.7V218.1H522.9C526.5 218.1 528.4 214.9 528.6 208.6C528.6 202.7 530.1 197.8 533.2 194C536.3 190.2 540.3 188.2 545.4 188.2C550.4 188.2 554.4 190.2 557.5 194.1C560.5 197.8 562 202.5 562 208.1C562 211.9 561.3 215.2 560 218.1H567.6V224.4H555.5C552.8 226.9 549.4 228.1 545.3 228.1ZM545.3 222.7C548.5 222.7 551.1 221.3 552.9 218.5C554.6 215.9 555.4 212.4 555.4 208.1C555.4 203.8 554.6 200.3 552.9 197.7C551.1 194.8 548.5 193.4 545.3 193.4C542.1 193.4 539.5 194.8 537.7 197.7C536 200.4 535.2 203.9 535.2 208.1C535.2 212.4 536 215.8 537.7 218.5C539.5 221.3 542 222.7 545.3 222.7Z" fill="#EDA70C"/>
<path id="Vector_22" d="M571.3 224.4H566.5V218.1H569.1C572.6 217.9 574.3 215.7 574.3 211.5L574.2 171.9H580.8V210.3C580.8 213.3 580.2 216.1 579.1 218.6C577.5 222.2 574.9 224.2 571.3 224.4Z" fill="#EDA70C"/>
<path id="Vector_23" d="M595.9 224.4H589.3V171.9H595.9V224.4Z" fill="#EDA70C"/>
</g>
</g>
</svg>
