<svg xmlns="http://www.w3.org/2000/svg" width="85.005" height="85" viewBox="0 0 85.005 85">
  <g id="surface1" transform="translate(0)">
    <path id="Path_1125" data-name="Path 1125" d="M10.272,20.33l1.787-.717,4.11,5.572c-.093.162-.23.3-.316.466a17.252,17.252,0,0,0-1.889,6.716H49.557a28.178,28.178,0,0,0-2.3-3.7,26.34,26.34,0,0,0-5.867-5.925c-5.029-3.726-10.8-5.278-15.763-4.234a13.815,13.815,0,0,0-1.67.492l-3.88-5.31L21.3,12.2A7.461,7.461,0,0,0,16.593.083,7.647,7.647,0,0,0,15.489,0,7.3,7.3,0,0,0,11.07,1.484,6.993,6.993,0,0,0,8.691,4.473L8.117,5.83l-1.464.151a7.16,7.16,0,0,0-3.6,1.381,7.381,7.381,0,0,0-2.965,4.9A7.49,7.49,0,0,0,10.272,20.33Zm0,0" transform="translate(0)" fill="#3f0366"/>
    <path id="Path_1126" data-name="Path 1126" d="M284.041,125.788A32.962,32.962,0,0,1,287.7,132.4h22.843c-4.074-7.407-13.864-12.453-25.343-12.453a38.186,38.186,0,0,0-6.129.521A31.622,31.622,0,0,1,284.041,125.788Zm0,0" transform="translate(-232.74 -100.034)" fill="#3f0366"/>
    <path id="Path_1127" data-name="Path 1127" d="M105.858,224.953h-69.9a4.981,4.981,0,0,0,0,9.962h69.9a4.981,4.981,0,0,0,0-9.962Zm0,0" transform="translate(-25.834 -187.605)" fill="#eba40c"/>
    <path id="Path_1128" data-name="Path 1128" d="M220.946,394.423c5.7,0,9.962-2.629,9.962-4.981s-4.262-4.981-9.962-4.981-9.962,2.629-9.962,4.981S215.245,394.423,220.946,394.423Zm0,0" transform="translate(-175.955 -320.631)" fill="#3f0366"/>
    <path id="Path_1129" data-name="Path 1129" d="M69.425,345.528a2.491,2.491,0,0,0,2.466,2.138h54.791a2.491,2.491,0,0,0,2.466-2.138l4.32-30.571H65.105Zm29.862-24.012c8.378,0,14.943,4.375,14.943,9.962s-6.564,9.962-14.943,9.962-14.943-4.375-14.943-9.962S90.908,321.516,99.287,321.516Zm0,0" transform="translate(-54.296 -262.666)" fill="#3f0366"/>
  </g>
</svg>
