<svg xmlns="http://www.w3.org/2000/svg" width="75.039" height="85" viewBox="0 0 75.039 85">
  <g id="food-delivery" transform="translate(-30)">
    <path id="Path_1139" data-name="Path 1139" d="M138.348,13.514A13.272,13.272,0,0,0,125.363,0H92.894A13.272,13.272,0,0,0,79.91,13.514V25.786h58.437Zm-13.557,7.291H93.467a2.218,2.218,0,0,1-2.173-2.259,11.5,11.5,0,0,1,2.933-7.718,10.638,10.638,0,0,1,7.926-3.584H116.1a10.642,10.642,0,0,1,7.927,3.584,11.5,11.5,0,0,1,2.932,7.718,2.218,2.218,0,0,1-2.171,2.259Z" transform="translate(-41.624)" fill="#eba40c"/>
    <path id="Path_1140" data-name="Path 1140" d="M199.721,322.59h-.013a11.218,11.218,0,0,0-11.2,11.206v2.092h22.41V333.8A11.218,11.218,0,0,0,199.721,322.59Z" transform="translate(-132.195 -269.035)" fill="#3f0366"/>
    <path id="Path_1141" data-name="Path 1141" d="M104.758,196.058h-19a2.5,2.5,0,1,1,0-4.98H103.83l-4.107-5.757H35.317l-4.109,5.757H49.195a2.514,2.514,0,1,1,0,4.98H30v41.006a2.491,2.491,0,0,0,2.49,2.49h70.059a2.491,2.491,0,0,0,2.49-2.49V196.045C104.946,196.053,104.853,196.058,104.758,196.058ZM84.72,226.387h-34.4a2.49,2.49,0,1,1,0-4.98h1.016v-2.092a16.213,16.213,0,0,1,13.695-16v-1.566a2.49,2.49,0,1,1,4.98,0v1.567a16.213,16.213,0,0,1,13.7,16v2.092H84.72a2.49,2.49,0,0,1,0,4.98Z" transform="translate(0 -154.554)" fill="#3f0366"/>
  </g>
</svg>
