<svg xmlns="http://www.w3.org/2000/svg" width="80.51" height="85" viewBox="0 0 80.51 85">
  <g id="orange-juice_1_" data-name="orange-juice (1)" transform="translate(-13.522)">
    <g id="Group_4340" data-name="Group 4340" transform="translate(40.383 55.669)">
      <g id="Group_4339" data-name="Group 4339">
        <path id="Path_1130" data-name="Path 1130" d="M175.318,335.322v2.507a26.825,26.825,0,0,0,53.65,0v-2.507Zm41.611,5.013a14.918,14.918,0,0,1-2.562,6.173l-6.173-6.173Zm-12.28,3.544,6.173,6.173a14.92,14.92,0,0,1-6.173,2.562Zm-8.558-3.544-6.173,6.173a14.92,14.92,0,0,1-2.562-6.173Zm3.545,3.544v8.735a14.918,14.918,0,0,1-6.173-2.562Zm2.507,15.761a21.845,21.845,0,0,1-21.669-19.305h1.815a20.011,20.011,0,0,0,39.707,0h1.815A21.845,21.845,0,0,1,202.143,359.64Z" transform="translate(-175.318 -335.322)" fill="#eba40c"/>
      </g>
    </g>
    <g id="Group_4342" data-name="Group 4342" transform="translate(13.522)">
      <g id="Group_4341" data-name="Group 4341">
        <path id="Path_1131" data-name="Path 1131" d="M61.21,50.656l2.879-39.285h-30.3L30.675,0,13.522,4.7l1.324,4.835,12.32-3.374,1.429,5.212H18.38L23.145,76.4H41.118a31.659,31.659,0,0,1-5.748-18.226v-7.52H61.21ZM25,33.155,23.773,16.384h6.2l4.6,16.772ZM35.167,16.384H58.695L57.466,33.155h-17.7Z" transform="translate(-13.522)" fill="#3f0366"/>
      </g>
    </g>
  </g>
</svg>
