<svg xmlns="http://www.w3.org/2000/svg" width="90.668" height="85" viewBox="0 0 90.668 85">
  <g id="breakfast" transform="translate(0 -16.003)">
    <path id="Path_1120" data-name="Path 1120" d="M139.869,36.972a2.659,2.659,0,0,0,3.564-1.188,8.607,8.607,0,0,0-3.844-11.533,3.287,3.287,0,0,1-1.468-4.4,2.657,2.657,0,0,0-4.752-2.376A8.607,8.607,0,0,0,137.212,29a3.287,3.287,0,0,1,1.468,4.4A2.657,2.657,0,0,0,139.869,36.972Z" transform="translate(-109.004)" fill="#3f0366"/>
    <path id="Path_1121" data-name="Path 1121" d="M229.869,36.972a2.659,2.659,0,0,0,3.564-1.188,8.607,8.607,0,0,0-3.844-11.533,3.287,3.287,0,0,1-1.468-4.4,2.657,2.657,0,1,0-4.752-2.376A8.607,8.607,0,0,0,227.212,29a3.287,3.287,0,0,1,1.468,4.4A2.657,2.657,0,0,0,229.869,36.972Z" transform="translate(-183.066)" fill="#3f0366"/>
    <path id="Path_1122" data-name="Path 1122" d="M319.869,36.972a2.659,2.659,0,0,0,3.564-1.188,8.607,8.607,0,0,0-3.844-11.533,3.287,3.287,0,0,1-1.468-4.4,2.657,2.657,0,0,0-4.752-2.376A8.607,8.607,0,0,0,317.212,29a3.287,3.287,0,0,1,1.468,4.4A2.657,2.657,0,0,0,319.869,36.972Z" transform="translate(-257.129)" fill="#3f0366"/>
    <path id="Path_1123" data-name="Path 1123" d="M150.944,166H93.656A2.655,2.655,0,0,0,91,168.652v13.609a12.96,12.96,0,0,1,7.977.809,13.353,13.353,0,0,1,10.62,0,12.844,12.844,0,0,1,5.31-1.134,13.3,13.3,0,0,1,13.281,13.281,12.957,12.957,0,0,1-1.131,5.318,13.042,13.042,0,0,1,0,10.625,12.886,12.886,0,0,1,1.131,5.307,13.153,13.153,0,0,1-2.724,7.969h10.87a13.3,13.3,0,0,0,13.281-13.281v-4.429l13.014-17.351A14.609,14.609,0,0,0,150.944,166Zm7.437,20.189-8.765,11.688V171.309h1.328a9.3,9.3,0,0,1,7.437,14.877Z" transform="translate(-74.885 -123.431)" fill="#3f0366"/>
    <path id="Path_1124" data-name="Path 1124" d="M8.146,323.184a9.852,9.852,0,0,0,5.313-1.873,9.589,9.589,0,0,0,5.313,1.839,9.588,9.588,0,0,0,5.313-1.839A9.589,9.589,0,0,0,29.4,323.15a9.588,9.588,0,0,0,5.313-1.839,9.875,9.875,0,0,0,5.313,1.873,7.978,7.978,0,0,0,7.969-7.969,9.851,9.851,0,0,0-1.873-5.313,8.471,8.471,0,0,0,0-10.625,9.876,9.876,0,0,0,1.873-5.313A7.978,7.978,0,0,0,40.021,286a9.849,9.849,0,0,0-5.313,1.873A9.586,9.586,0,0,0,29.4,286.03a9.585,9.585,0,0,0-5.313,1.839,9.586,9.586,0,0,0-5.313-1.839,9.585,9.585,0,0,0-5.313,1.839A9.875,9.875,0,0,0,8.146,286,8.131,8.131,0,0,0,0,293.965a9.852,9.852,0,0,0,1.873,5.313,8.471,8.471,0,0,0,0,10.625A9.873,9.873,0,0,0,0,315.215,8.131,8.131,0,0,0,8.146,323.184Zm26.563-29.219a2.656,2.656,0,1,1-2.656,2.656A2.656,2.656,0,0,1,34.709,293.965Zm0,15.938a2.656,2.656,0,1,1-2.656,2.656A2.656,2.656,0,0,1,34.709,309.9ZM24.084,293.965a2.656,2.656,0,1,1-2.656,2.656A2.656,2.656,0,0,1,24.084,293.965Zm0,15.938a2.656,2.656,0,1,1-2.656,2.656A2.656,2.656,0,0,1,24.084,309.9ZM13.459,293.965a2.656,2.656,0,1,1-2.656,2.656A2.656,2.656,0,0,1,13.459,293.965Zm0,15.938a2.656,2.656,0,1,1-2.656,2.656A2.656,2.656,0,0,1,13.459,309.9Z" transform="translate(0 -222.181)" fill="#eba40c"/>
  </g>
</svg>
