<svg xmlns="http://www.w3.org/2000/svg" width="84.997" height="85" viewBox="0 0 84.997 85">
  <g id="fish" transform="translate(-0.011 0)">
    <path id="Path_1136" data-name="Path 1136" d="M123.414,6.781a16.247,16.247,0,0,1,6.106,2.61,59.607,59.607,0,0,1,21.2-1.837c-7.239-8.177-17.292-9.171-27.6-5.577A2.49,2.49,0,0,0,123.414,6.781Z" transform="translate(-101.257 0)" fill="#3f0366"/>
    <path id="Path_1137" data-name="Path 1137" d="M11.584,113.4c4.946-4.317,10.583-5.3,16.754-2.935a125.057,125.057,0,0,0,23.652,6.332c-.616-.97-.622-.976-.664-1.048-2.306-4.007-7.362-14.407-4.529-24.4,1.67-5.888,5.749-10.626,12.124-14.081L60,76.676c-7.779-2.943-16.619-3.369-24.79-2.054-7.4,1.183-11.252,3.049-14.875,5.442C2.722,91.689-2.311,107.454.935,120.686v0c3.8,15.495,19.712,25.2,20.387,25.6a2.492,2.492,0,0,0,1.3.355,11.114,11.114,0,0,0,8.117-3.728c2.687-3.165,3.452-7.876,2.272-14a2.5,2.5,0,0,0-3.449-1.807,23.45,23.45,0,0,1-9.21,1.609c-6.052-.228-10.81-3.142-14.161-8.667a26.857,26.857,0,0,1,5.388-6.654Z" transform="translate(0 -61.646)" fill="#3f0366"/>
    <path id="Path_1138" data-name="Path 1138" d="M340.86,138.9c-2.19-14.268-8.437-25.968-19.436-32.419l-4.233,2.317c-5.159,2.793-8.429,6.517-9.72,11.07-2.306,8.131,2.025,17.018,4.028,20.511l2.794,4.394c8.323.759,16.959.3,24.255-2.823a3.634,3.634,0,0,0,1.953-1.321A2.488,2.488,0,0,0,340.86,138.9Zm-18.536-13.055a2.489,2.489,0,1,1,2.49-2.489A2.489,2.489,0,0,1,322.323,125.846Z" transform="translate(-255.883 -88.809)" fill="#eba40c"/>
  </g>
</svg>
