<svg xmlns="http://www.w3.org/2000/svg" width="96.711" height="85" viewBox="0 0 96.711 85">
  <g id="translate" transform="translate(0 -31)">
    <path id="Path_1113" data-name="Path 1113" d="M80.73,451l2.834,5.663H144.13L146.964,451Z" transform="translate(-65.491 -340.663)" fill="#eba40c"/>
    <path id="Path_1114" data-name="Path 1114" d="M98.5,42.326h45.728a2.831,2.831,0,1,1,0,5.663h-17.2a8.508,8.508,0,0,0-8.5,8.494v2.831H124.2V56.483a2.836,2.836,0,0,1,2.834-2.831h17.2a8.494,8.494,0,1,0,0-16.988H98.5a2.836,2.836,0,0,1-2.834-2.831V31H90v2.831A8.508,8.508,0,0,0,98.5,42.326Z" transform="translate(-73.012)" fill="#eba40c"/>
    <path id="Path_1115" data-name="Path 1115" d="M76.442,239.314h8.935a11.326,11.326,0,1,0,0-22.651H79.711V211H17v14.346a31.12,31.12,0,0,0,6.9,19.631H0v5.663H96.711v-5.663h-23.9A31.061,31.061,0,0,0,76.442,239.314Zm8.935-16.988a5.663,5.663,0,1,1,0,11.326H78.6a31.512,31.512,0,0,0,1.11-8.305v-3.02Z" transform="translate(0 -145.965)" fill="#3f0366"/>
  </g>
</svg>
