<svg width="145" height="217" viewBox="0 0 145 217" fill="none" xmlns="http://www.w3.org/2000/svg">
<style>
    #Vector{
        transform-origin: center;
        transform-box: fill-box;
        animation: sideClip 2s linear infinite alternate-reverse;
    }
    @keyframes sideClip {
        0% {
            clip-path: polygon(0 0, 100% 0, 0 0, 0 100%);
        }
        25% {
            clip-path: polygon(0 0, 100% 0, 0 100%, 0 100%);
        }
        50% {
            clip-path: polygon(0 0, 100% 0, 100% 100%, 0 100%);
        }
        75%{
            transform: scale(0.84);
            animation-timing-function: ease-out;
        }

        100%{
            transform: scale(1);
            animation-timing-function: ease-in;
        }
    }
</style>
<g id="Vector" opacity="0.2">
<path d="M-1.72501 46.236C-2.96101 48.344 -2.32501 51.615 -1.92501 53.878C-1.17033 57.8842 0.312159 61.7182 2.44899 65.19C3.70599 67.266 5.18999 69.176 6.41799 71.275C7.49909 73.3094 8.77793 75.2323 10.236 77.016C13.255 80.421 17.336 82.904 21.155 85.316C30.2943 90.9802 39.9999 95.675 50.114 99.324C54.9138 101.127 59.9441 102.243 65.056 102.64C69.802 102.996 74.732 103.93 79.49 103.667C85.296 103.347 90.949 101.418 96.508 99.867C102.036 98.5023 107.458 96.7421 112.733 94.6C112.866 94.5403 112.969 94.4304 113.021 94.2944C113.072 94.1585 113.068 94.0076 113.008 93.875C112.948 93.7424 112.838 93.6389 112.702 93.5873C112.566 93.5358 112.416 93.5403 112.283 93.6C107.732 95.4779 103.051 97.0227 98.276 98.222C93.888 99.428 89.534 100.822 85.076 101.742C80.176 102.749 75.688 102.455 70.763 101.961C65.876 101.47 61.041 101.417 56.256 100.168C47.017 97.755 37.902 93.393 29.491 88.939C25.0278 86.5794 20.7125 83.9502 16.569 81.066C12.6388 78.3108 9.3932 74.6906 7.08199 70.484C4.57199 66.211 1.65499 62.455 0.0329895 57.692C-0.97901 54.72 -2.50401 49.548 -1.21001 46.515C-1.08301 46.215 -1.55201 45.949 -1.72201 46.237L-1.72501 46.236Z" fill="#3F0366"/>
<path d="M-1.47401 46.263C-3.95101 48.827 -4.65301 52.283 -5.80201 55.563C-7.20201 59.563 -8.42801 63.612 -9.76301 67.636C-12.724 76.555 -16.263 85.289 -19.4 94.151C-22.467 102.825 -25.705 111.4 -28.354 120.216C-30.996 129.009 -33.893 137.675 -36.796 146.383C-40.203 156.598 -43.356 166.898 -47.15 176.983C-47.1925 177.115 -47.1824 177.259 -47.122 177.384C-47.0615 177.509 -46.9552 177.607 -46.8251 177.656C-46.6951 177.705 -46.5511 177.702 -46.423 177.648C-46.2949 177.594 -46.1925 177.492 -46.137 177.365C-42.928 168.818 -40.171 160.116 -37.337 151.438C-34.537 142.858 -31.486 134.374 -28.904 125.725C-23.69 108.253 -17.321 91.188 -11.004 74.089C-9.29901 69.472 -7.98301 64.748 -6.38901 60.098C-4.88901 55.71 -3.88101 50.391 -1.06201 46.653C-0.875008 46.407 -1.24001 46.038 -1.46201 46.27L-1.47401 46.263Z" fill="#3F0366"/>
<path d="M-45.605 178.045C-37.89 179.538 -29.839 179.409 -22.03 180.199C-13.9098 180.904 -5.91223 182.64 1.76999 185.364C1.8801 185.4 1.99992 185.392 2.10447 185.342C2.20901 185.292 2.29025 185.204 2.33123 185.096C2.37222 184.987 2.36981 184.867 2.3245 184.76C2.27919 184.654 2.19447 184.569 2.08799 184.523C-12.957 178.96 -29.682 178.317 -45.558 177.523C-45.6247 177.52 -45.6898 177.544 -45.74 177.588C-45.7901 177.632 -45.8215 177.693 -45.8277 177.76C-45.8338 177.826 -45.8142 177.893 -45.773 177.945C-45.7318 177.997 -45.672 178.032 -45.606 178.042L-45.605 178.045Z" fill="#3F0366"/>
<path d="M7.19199 187.059C18.258 191.675 29.223 196.224 39.611 202.288C40.129 202.588 40.686 201.832 40.165 201.529C29.7588 195.466 18.7924 190.421 7.418 186.462C7.33843 186.432 7.25022 186.435 7.17276 186.47C7.09531 186.505 7.03496 186.569 7.00499 186.649C6.97502 186.729 6.97789 186.817 7.01296 186.894C7.04803 186.972 7.11242 187.032 7.19199 187.062V187.059Z" fill="#3F0366"/>
<path d="M43.649 204.308C47.694 207.821 52.014 210.967 55.108 215.419C55.421 215.868 56.078 215.33 55.768 214.885C52.648 210.412 48.321 207.071 44.026 203.793C43.695 203.54 43.343 204.044 43.649 204.308Z" fill="#3F0366"/>
<path d="M112.205 94.601C111.102 96.6518 110.217 98.8122 109.563 101.047C108.642 103.618 107.449 106.101 106.387 108.618C104.187 113.845 101.735 118.904 99.113 123.933C94.001 133.739 89.539 143.821 85.073 153.933C80.573 164.123 75.733 174.181 71.03 184.281C68.566 189.572 65.889 194.75 63.163 199.909C60.593 204.774 58.373 209.854 54.789 214.088C54.289 214.679 55.262 215.382 55.759 214.796C58.994 210.968 61.099 206.463 63.379 202.043C66.015 196.932 68.732 191.875 71.2 186.681C76.062 176.451 80.884 166.165 85.5 155.823C90.078 145.565 94.5 135.259 99.684 125.285C102.303 120.246 104.818 115.2 107.014 109.958C108.072 107.431 109.221 104.914 110.148 102.336C111.048 99.836 111.533 97.216 112.399 94.707C112.439 94.593 112.274 94.491 112.206 94.602L112.205 94.601Z" fill="#3F0366"/>
<path d="M-46.461 178.395C-38.254 182.022 -29.715 184.971 -21.329 188.158C-12.8403 191.382 -4.31767 194.502 4.23899 197.519C12.846 200.541 21.452 203.591 29.839 207.18C33.786 208.869 37.626 210.795 41.666 212.256C45.912 213.789 50.281 214.948 54.641 216.101C55.332 216.284 55.736 215.237 55.041 215.052C50.682 213.895 46.316 212.73 42.071 211.194C38.031 209.732 34.195 207.794 30.249 206.107C21.859 202.518 13.235 199.507 4.621 196.507C-3.95434 193.519 -12.485 190.419 -20.971 187.207C-29.364 184.041 -37.717 180.599 -46.271 177.883C-46.339 177.857 -46.4145 177.86 -46.4808 177.89C-46.5471 177.919 -46.5988 177.974 -46.6245 178.042C-46.6502 178.11 -46.6479 178.186 -46.618 178.252C-46.5881 178.319 -46.533 178.37 -46.465 178.396L-46.461 178.395Z" fill="#3F0366"/>
<path d="M11.697 48.584C10.854 50.335 11.126 52.269 11.397 54.133C11.797 56.843 11.963 59.551 12.262 62.272C12.562 65.041 13.234 67.748 13.519 70.518C13.7969 73.7311 13.8304 76.9608 13.619 80.179C13.591 80.755 14.484 80.844 14.519 80.263C14.7817 75.2078 14.446 70.1393 13.519 65.163C13.04 62.474 12.919 59.755 12.586 57.05C12.254 54.3 11.233 51.493 12.186 48.764C12.2089 48.6996 12.2056 48.6289 12.177 48.5669C12.1483 48.5049 12.0965 48.4567 12.0326 48.4324C11.9688 48.4082 11.8979 48.41 11.8354 48.4374C11.7728 48.4648 11.7235 48.5156 11.698 48.579L11.697 48.584Z" fill="#3F0366"/>
<path d="M11.61 48.978C14.892 50.689 17.086 54.189 20.73 55.194C20.8158 55.2214 20.9088 55.2149 20.9899 55.1758C21.071 55.1367 21.1341 55.068 21.1661 54.9839C21.1981 54.8997 21.1967 54.8065 21.162 54.7234C21.1274 54.6402 21.0623 54.5735 20.98 54.537C17.534 53.146 15.314 49.621 11.749 48.612C11.7037 48.6052 11.6575 48.6141 11.618 48.6372C11.5785 48.6604 11.5482 48.6964 11.532 48.7392C11.5159 48.782 11.5149 48.8291 11.5293 48.8726C11.5436 48.916 11.5715 48.9532 11.61 48.978Z" fill="#3F0366"/>
<path d="M11.651 49.258C13.445 47.123 16.243 46.019 18.773 45.026C19.181 44.865 18.9 44.253 18.495 44.408C15.895 45.408 13.039 46.714 11.42 49.088C11.3976 49.1186 11.3883 49.1569 11.3941 49.1944C11.3999 49.2319 11.4204 49.2656 11.451 49.288C11.4816 49.3104 11.5199 49.3197 11.5574 49.3139C11.5949 49.3081 11.6286 49.2886 11.651 49.258Z" fill="#3F0366"/>
<path d="M18.729 44.867C19.615 45.767 21.429 46.053 22.566 46.586C24.591 47.536 26.199 48.533 27.041 50.664C27.0618 50.7077 27.0962 50.7435 27.1391 50.766C27.182 50.7884 27.2311 50.7963 27.2789 50.7884C27.3267 50.7805 27.3706 50.7572 27.404 50.7222C27.4374 50.6871 27.4584 50.6421 27.464 50.594C27.701 48.737 25.501 47.365 24.12 46.613C22.76 45.872 20.397 44.538 18.804 44.668C18.7828 44.6717 18.7629 44.6809 18.7463 44.6947C18.7297 44.7085 18.717 44.7264 18.7094 44.7466C18.7018 44.7668 18.6996 44.7886 18.7031 44.8099C18.7065 44.8312 18.7154 44.8512 18.729 44.868V44.867Z" fill="#3F0366"/>
<path d="M20.992 55.053C21.9285 54.4216 22.914 53.8662 23.939 53.392C25.1094 52.5886 26.2342 51.7205 27.308 50.792C27.592 50.567 27.254 50.187 26.963 50.367C25.636 51.191 24.541 52.337 23.199 53.173C22.46 53.634 21.105 54.006 20.715 54.85C20.7016 54.8862 20.7005 54.9258 20.7117 54.9627C20.7229 54.9997 20.7459 55.0319 20.7772 55.0546C20.8084 55.0773 20.8463 55.0891 20.8849 55.0882C20.9235 55.0874 20.9607 55.074 20.991 55.05L20.992 55.053Z" fill="#3F0366"/>
<path d="M20.594 54.772C21.223 57.542 22.452 60.157 23.204 62.901C23.986 65.754 24.488 68.68 25.156 71.563C26.4215 76.9672 27.0133 82.5073 26.918 88.057C26.909 88.557 27.688 88.635 27.696 88.13C27.896 76.73 25.249 65.214 20.99 54.652C20.9699 54.6042 20.9329 54.5656 20.886 54.5434C20.8391 54.5213 20.7857 54.5174 20.7361 54.5322C20.6864 54.5471 20.6441 54.5799 20.6171 54.6241C20.5901 54.6684 20.5805 54.721 20.59 54.772H20.594Z" fill="#3F0366"/>
<path d="M27.072 50.559C28.331 53.972 30.202 57.126 31.219 60.659C32.1534 63.9229 32.8651 67.2466 33.349 70.607C33.9835 74.5673 34.3752 78.5628 34.522 82.571C34.586 85.665 34.348 88.812 34.431 91.865C34.445 92.336 35.185 92.412 35.171 91.933C35.078 88.556 35.346 85.089 35.235 81.669C35.0484 77.757 34.6377 73.859 34.005 69.994C33.005 63.265 31.161 56.106 27.405 50.355C27.277 50.155 27.005 50.362 27.075 50.555L27.072 50.559Z" fill="#3F0366"/>
<path d="M14.914 19.043C14.814 23.69 15.536 28.372 15.419 33.036C15.361 35.361 15.389 37.676 15.368 40C15.349 42.075 14.96 44.149 15.248 46.213C15.2604 46.2725 15.2954 46.325 15.3457 46.3593C15.396 46.3935 15.4576 46.407 15.5176 46.3967C15.5776 46.3865 15.6313 46.3534 15.6673 46.3044C15.7034 46.2554 15.719 46.1943 15.711 46.134C15.386 43.81 15.843 41.386 15.828 39.042C15.812 36.563 15.908 34.091 15.91 31.614C16.0013 27.4067 15.7414 23.1991 15.133 19.035C15.113 18.915 14.917 18.915 14.913 19.044L14.914 19.043Z" fill="#3F0366"/>
<path d="M15.145 18.933C16.011 19.233 17.007 18.696 17.789 18.356C17.8451 18.3249 17.8875 18.2739 17.9077 18.213C17.9278 18.1521 17.9243 18.0859 17.8978 18.0275C17.8713 17.9691 17.8238 17.9228 17.7647 17.8979C17.7056 17.8729 17.6393 17.8712 17.579 17.893C16.8276 18.297 16.0119 18.5677 15.168 18.693C15.043 18.7 15.033 18.893 15.145 18.93V18.933Z" fill="#3F0366"/>
<path d="M18.032 18.351C18.351 20.112 19.109 21.717 19.359 23.513C19.668 25.732 19.821 27.988 19.967 30.226C20.36 34.9939 20.3867 39.785 20.047 44.557C20.0436 44.6292 20.0682 44.7 20.1156 44.7545C20.163 44.8091 20.2297 44.8433 20.3017 44.85C20.3737 44.8567 20.4455 44.8354 20.5021 44.7905C20.5588 44.7456 20.596 44.6806 20.606 44.609C21.368 36.075 21.15 26.357 18.366 18.25C18.301 18.058 17.998 18.158 18.032 18.351Z" fill="#3F0366"/>
<path d="M4.81399 17.709C7.79899 18.933 11.591 19.036 14.787 19.116C14.8613 19.1175 14.9334 19.0908 14.9889 19.0413C15.0443 18.9918 15.0789 18.9231 15.0858 18.8491C15.0926 18.7751 15.0712 18.7012 15.0258 18.6424C14.9803 18.5836 14.9143 18.5441 14.841 18.532C11.504 18.182 8.19499 17.922 4.87199 17.458C4.84068 17.4551 4.8094 17.4637 4.78393 17.4821C4.75846 17.5005 4.74052 17.5275 4.73344 17.5582C4.72637 17.5888 4.73063 17.6209 4.74543 17.6487C4.76024 17.6764 4.7846 17.6978 4.81399 17.709Z" fill="#3F0366"/>
<path d="M4.86199 17.279C4.30499 18.012 3.85499 18.837 3.34699 19.607C2.86032 20.2762 2.46297 21.006 2.16499 21.778C2.09599 21.978 2.40299 22.178 2.51699 21.97C3.29399 20.534 4.70499 18.954 4.93299 17.307C4.93377 17.2985 4.93176 17.2901 4.92728 17.2829C4.92281 17.2756 4.91611 17.2701 4.90819 17.267C4.90028 17.264 4.89158 17.2636 4.88342 17.2659C4.87527 17.2683 4.86809 17.2732 4.86299 17.28L4.86199 17.279Z" fill="#3F0366"/>
<path d="M2.3 21.68C2.07506 22.487 2.05546 23.3375 2.24299 24.154C2.36699 25.892 2.33099 27.648 2.42199 29.391C2.64199 33.634 2.68599 37.83 2.73599 42.075C2.77899 45.837 2.88299 49.639 3.13599 53.396C3.38799 57.213 3.15899 60.964 3.30399 64.773C3.31499 65.051 3.80399 65.036 3.79499 64.754C3.67099 61.454 4.02699 58.174 3.75499 54.873C3.40699 50.657 3.29999 46.355 3.24599 42.122C3.20299 38.854 3.321 35.628 3.106 32.363C2.956 30.099 2.83399 27.837 2.76699 25.57C2.72999 24.303 2.43699 22.984 2.51699 21.731C2.51901 21.7045 2.51145 21.6781 2.49569 21.6567C2.47992 21.6353 2.457 21.6203 2.43109 21.6144C2.40518 21.6084 2.378 21.612 2.35449 21.6244C2.33098 21.6368 2.31271 21.6572 2.30299 21.682L2.3 21.68Z" fill="#3F0366"/>
<path d="M4.70499 17.516C8.72699 17.15 14.13 16.182 17.898 18.226C17.9344 18.249 17.9783 18.2573 18.0206 18.2492C18.0629 18.2411 18.1006 18.2173 18.1261 18.1825C18.1515 18.1476 18.1627 18.1045 18.1575 18.0617C18.1523 18.0189 18.131 17.9797 18.098 17.952C16.589 16.746 14.159 16.776 12.324 16.699C9.75676 16.5328 7.1792 16.7607 4.68099 17.375C4.66405 17.3799 4.64953 17.3909 4.64017 17.4059C4.63082 17.4209 4.62728 17.4388 4.63025 17.4562C4.63321 17.4736 4.64245 17.4893 4.65623 17.5003C4.67001 17.5113 4.68737 17.5169 4.70499 17.516Z" fill="#3F0366"/>
<path d="M-4.93601 11.578C-1.65301 11.678 1.309 9.89398 4.536 9.83598C4.952 9.82898 5.01399 9.17498 4.59699 9.18698C1.35699 9.28698 -1.62301 11.095 -4.89501 11.136C-5.17401 11.136 -5.22601 11.57 -4.93601 11.578Z" fill="#3F0366"/>
<path d="M4.317 9.80098C5.60976 10.9364 6.78013 12.2039 7.809 13.583C8.49902 14.6393 9.33344 15.5939 10.288 16.419C10.53 16.57 10.87 16.272 10.654 16.035C8.654 13.843 7.098 11.097 4.587 9.43498C4.53811 9.40123 4.47798 9.38789 4.41941 9.3978C4.36084 9.40772 4.30845 9.4401 4.27339 9.48806C4.23834 9.53602 4.22338 9.59576 4.23171 9.65458C4.24004 9.7134 4.271 9.76664 4.318 9.80298L4.317 9.80098Z" fill="#3F0366"/>
<path d="M-5.05401 11.565C-5.26408 13.9294 -5.22184 16.3095 -4.92801 18.665C-4.67801 21.765 -4.03701 24.847 -3.55601 27.915C-3.08901 30.9 -2.47101 33.869 -2.14101 36.873C-1.81101 39.877 -1.04101 43.286 -1.37101 46.298C-1.37439 46.3864 -1.34375 46.4728 -1.2854 46.5393C-1.22705 46.6059 -1.14543 46.6475 -1.05731 46.6557C-0.96919 46.6639 -0.881278 46.638 -0.811657 46.5834C-0.742036 46.5288 -0.695996 46.4495 -0.683006 46.362C-0.410006 43.834 -1.06501 41.362 -1.28301 38.847C-1.56801 35.615 -2.15901 32.459 -2.68301 29.26C-3.74984 23.4089 -4.4555 17.4977 -4.79601 11.56C-4.79601 11.406 -5.03401 11.43 -5.05401 11.569V11.565Z" fill="#3F0366"/>
<path d="M-11.465 1.99598C-11.1059 3.06611 -10.5646 4.06615 -9.86501 4.95198C-8.87305 5.83835 -7.69007 6.48408 -6.40801 6.83898C-6.32522 6.86486 -6.23567 6.85812 -6.15769 6.82014C-6.07971 6.78216 -6.0192 6.71581 -5.98853 6.63467C-5.95786 6.55353 -5.95937 6.46375 -5.99273 6.38368C-6.0261 6.30362 -6.0888 6.23933 -6.16801 6.20398C-7.49794 5.84864 -8.71639 5.16271 -9.71001 4.20998C-10.315 3.47898 -10.528 2.51598 -11.21 1.84098C-11.325 1.72698 -11.537 1.82998 -11.463 1.99698L-11.465 1.99598Z" fill="#3F0366"/>
<path d="M-6.57801 6.70098C-3.45201 7.65398 -0.215006 6.36598 2.91399 6.01798C3.27399 5.97798 3.17699 5.43198 2.81999 5.46598C-0.314008 5.75598 -3.31401 7.00698 -6.48801 6.31098C-6.70901 6.26298 -6.79401 6.63498 -6.57801 6.70098Z" fill="#3F0366"/>
<path d="M-11.464 1.76898C-8.917 1.06198 -6.00501 1.54398 -3.42501 1.89098C-3.11701 1.93198 -3.09801 1.49098 -3.38201 1.42298C-5.22633 1.06816 -7.10537 0.926896 -8.98201 1.00198C-9.83001 1.00198 -10.96 0.944981 -11.505 1.70798C-11.524 1.73398 -11.505 1.77998 -11.467 1.76998L-11.464 1.76898Z" fill="#3F0366"/>
<path d="M-3.48101 1.76298C-1.50801 3.00098 0.811994 3.66998 2.28199 5.58398C2.46199 5.81798 2.81599 5.52998 2.63799 5.29598C1.12699 3.33098 -1.25001 2.65998 -3.36201 1.53598C-3.49201 1.46698 -3.60901 1.68598 -3.48601 1.76298H-3.48101Z" fill="#3F0366"/>
<path d="M2.739 5.48398C2.926 6.78398 3.555 8.00298 3.819 9.29198C3.884 9.61098 4.387 9.52898 4.319 9.20698C4.03872 7.89105 3.61172 6.61071 3.046 5.38998C3.02952 5.35419 3.00064 5.32559 2.9647 5.30945C2.92876 5.29332 2.88819 5.29074 2.8505 5.30221C2.81281 5.31367 2.78054 5.3384 2.75968 5.37182C2.73881 5.40524 2.73075 5.44508 2.737 5.48398H2.739Z" fill="#3F0366"/>
<path d="M-5.776 6.69298C-5.555 7.75298 -5.51701 8.84398 -5.29501 9.90598C-5.24301 10.152 -4.853 10.086 -4.908 9.84098C-5.07165 8.76181 -5.29905 7.69327 -5.589 6.64098C-5.60013 6.62102 -5.61776 6.60547 -5.63896 6.59692C-5.66016 6.58838 -5.68365 6.58735 -5.70551 6.59401C-5.72737 6.60068 -5.74629 6.61463 -5.75912 6.63355C-5.77194 6.65246 -5.7779 6.6752 -5.776 6.69798V6.69298Z" fill="#3F0366"/>
<path d="M-11.462 1.61398C-11.468 4.96998 -10.462 8.14898 -9.67801 11.385C-8.69201 15.43 -7.71601 19.493 -6.97801 23.592C-5.55001 31.504 -3.81601 39.34 -2.48901 47.279C-2.46696 47.3498 -2.42001 47.4103 -2.35685 47.4491C-2.29369 47.488 -2.21858 47.5027 -2.14541 47.4906C-2.07224 47.4784 -2.00597 47.4401 -1.95883 47.3828C-1.9117 47.3255 -1.88689 47.2531 -1.88901 47.179C-4.43901 31.871 -7.83201 16.722 -11.249 1.60798C-11.275 1.49298 -11.469 1.48398 -11.469 1.61698L-11.462 1.61398Z" fill="#3F0366"/>
<path d="M32.581 28.029C31.041 31.412 30.781 35.811 29.881 39.409C29.081 42.609 27.26 45.891 26.964 49.163C26.9609 49.2479 26.9905 49.3308 27.0466 49.3947C27.1027 49.4585 27.1811 49.4985 27.2657 49.5065C27.3504 49.5144 27.4348 49.4896 27.5018 49.4373C27.5688 49.385 27.6132 49.309 27.626 49.225C27.948 45.848 29.883 42.425 30.661 39.1C31.505 35.488 31.976 31.739 32.961 28.171C32.9798 28.1209 32.978 28.0653 32.9558 28.0165C32.9337 27.9678 32.8931 27.9298 32.843 27.911C32.7929 27.8921 32.7373 27.894 32.6886 27.9161C32.6398 27.9383 32.6018 27.9789 32.583 28.029H32.581Z" fill="#3F0366"/>
<path d="M33.128 28.417C34.1025 28.979 35.1441 29.4158 36.228 29.717C37.6402 30.2172 39.0028 30.848 40.298 31.601C40.57 31.764 40.864 31.365 40.591 31.201C38.3482 29.7277 35.8268 28.7304 33.183 28.271C33.1661 28.2699 33.1494 28.2742 33.1352 28.2833C33.1209 28.2924 33.11 28.3058 33.104 28.3216C33.0979 28.3373 33.0971 28.3546 33.1016 28.3709C33.1061 28.3872 33.1157 28.4016 33.129 28.412L33.128 28.417Z" fill="#3F0366"/>
<path d="M35.325 74.87C36.1792 70.6466 37.3447 66.4923 38.812 62.441C40.122 58.834 41.7 54.684 43.925 51.549C44.119 51.275 43.698 50.967 43.504 51.241C41.24 54.441 39.664 58.605 38.343 62.264C36.7943 66.3225 35.7205 70.5466 35.143 74.852C35.129 74.972 35.301 74.982 35.325 74.869V74.87Z" fill="#3F0366"/>
<path d="M43.849 51.553C46.4099 52.9491 49.0906 54.1134 51.859 55.032C52.146 55.116 52.312 54.698 52.026 54.592C49.314 53.586 46.699 52.154 43.918 51.37C43.8954 51.3666 43.8722 51.371 43.8525 51.3826C43.8328 51.3942 43.8176 51.4122 43.8095 51.4336C43.8014 51.455 43.8009 51.4785 43.8081 51.5003C43.8153 51.522 43.8297 51.5406 43.849 51.553Z" fill="#3F0366"/>
<path d="M51.661 54.86C53.3075 54.521 54.9274 54.0635 56.508 53.491C58.1078 53.1705 59.6598 52.6459 61.126 51.93C61.1709 51.9012 61.204 51.8571 61.2191 51.8059C61.2342 51.7547 61.2303 51.6998 61.2082 51.6512C61.1861 51.6026 61.1472 51.5636 61.0987 51.5413C61.0502 51.519 60.9952 51.515 60.944 51.53C59.292 52.173 57.644 52.682 55.939 53.175C54.471 53.6 53.103 54.294 51.639 54.736C51.6259 54.7419 51.6151 54.7521 51.6084 54.7649C51.6016 54.7777 51.5994 54.7923 51.6019 54.8065C51.6044 54.8207 51.6116 54.8337 51.6223 54.8434C51.633 54.8531 51.6466 54.8589 51.661 54.86Z" fill="#3F0366"/>
<path d="M44.024 51.45C44.937 50.329 47.555 50.25 48.933 49.985C50.9 49.604 52.896 49.385 54.875 49.066C54.9482 49.0509 55.0127 49.0079 55.0546 48.9461C55.0966 48.8842 55.1128 48.8084 55.0998 48.7348C55.0868 48.6612 55.0456 48.5956 54.9849 48.5519C54.9242 48.5083 54.8489 48.49 54.775 48.501C52.19 48.935 49.614 49.333 47.043 49.849C45.957 50.066 44.286 50.149 43.793 51.328C43.734 51.469 43.93 51.562 44.02 51.45H44.024Z" fill="#3F0366"/>
<path d="M54.787 48.943C56.574 49.306 57.833 50.704 59.555 51.129C59.696 51.164 59.845 50.965 59.691 50.878C58.234 50.065 56.53 48.801 54.799 48.801C54.7802 48.7994 54.7615 48.8053 54.747 48.8175C54.7326 48.8297 54.7236 48.8472 54.722 48.866C54.7204 48.8848 54.7264 48.9035 54.7385 48.9179C54.7507 48.9324 54.7682 48.9414 54.787 48.943Z" fill="#3F0366"/>
<path d="M52.194 54.605C50.95 57.205 50.533 60.488 49.935 63.327C49.118 67.214 48.335 71.092 47.393 74.952C47.327 75.22 47.715 75.386 47.808 75.109C50 68.543 50.94 61.391 52.244 54.618C52.25 54.587 52.206 54.581 52.193 54.606L52.194 54.605Z" fill="#3F0366"/>
<path d="M60.821 51.722C59.195 54.465 59.029 58.253 58.473 61.322C57.687 65.655 56.365 69.845 55.436 74.143C55.384 74.381 55.773 74.466 55.851 74.243C58.388 66.937 59.157 59.293 61.013 51.828C61.04 51.718 60.889 51.606 60.82 51.723L60.821 51.722Z" fill="#3F0366"/>
<path d="M43.899 80.127C46.562 77.963 50.531 77.765 53.578 76.346C53.978 76.162 53.692 75.538 53.299 75.728C51.549 76.576 49.637 76.997 47.834 77.715C46.3206 78.1391 44.9169 78.8855 43.719 79.903C43.595 80.033 43.752 80.246 43.899 80.127Z" fill="#3F0366"/>
<path d="M53.111 76.111C55.52 80.04 62.074 82.55 62.477 87.738C62.504 88.074 63.032 88.038 63.059 87.717C63.239 85.604 61.319 83.654 60.022 82.204C57.966 79.904 55.46 78.164 53.331 75.975C53.237 75.875 53.031 75.975 53.111 76.111Z" fill="#3F0366"/>
<path d="M43.691 80.172C44.6632 81.8391 45.8389 83.3789 47.191 84.756C48.826 86.282 50.683 87.477 52.261 89.083C52.3079 89.1356 52.3733 89.168 52.4435 89.1737C52.5137 89.1793 52.5834 89.1577 52.6381 89.1133C52.6928 89.0689 52.7283 89.0051 52.7372 88.9352C52.7462 88.8653 52.7278 88.7947 52.686 88.738C51.4417 87.3087 50.0152 86.0489 48.443 84.991C46.633 83.549 45.478 81.644 43.863 80.033C43.844 80.0117 43.8175 79.9985 43.789 79.9962C43.7605 79.9939 43.7322 80.0027 43.7101 80.0208C43.6879 80.0388 43.6736 80.0647 43.67 80.093C43.6665 80.1214 43.674 80.149 43.691 80.172Z" fill="#3F0366"/>
<path d="M52.471 89.189C53.771 89.656 55.307 89.198 56.644 89.072C58.3191 88.983 59.9689 88.6248 61.53 88.011C61.5832 87.9805 61.6232 87.9313 61.6423 87.873C61.6614 87.8147 61.6582 87.7514 61.6333 87.6953C61.6085 87.6392 61.5637 87.5944 61.5077 87.5694C61.4516 87.5444 61.3883 87.541 61.33 87.56C59.9704 88.1157 58.5325 88.4558 57.068 88.568C55.76 88.713 53.868 89.248 52.596 88.873C52.388 88.811 52.267 89.115 52.475 89.189H52.471Z" fill="#3F0366"/>
<path d="M52.458 89.404C51.7181 91.0429 51.1669 92.7606 50.815 94.524C50.3001 95.9281 49.9021 97.3723 49.625 98.842C49.599 99.153 50.087 99.292 50.179 98.97C51.079 95.825 51.757 92.624 52.69 89.49C52.6987 89.4601 52.6958 89.428 52.682 89.4001C52.6681 89.3722 52.6442 89.3505 52.6151 89.3394C52.586 89.3283 52.5537 89.3286 52.5248 89.3402C52.4959 89.3518 52.4724 89.3738 52.459 89.402L52.458 89.404Z" fill="#3F0366"/>
<path d="M43.828 80.223C42.664 82.7986 41.7919 85.4964 41.228 88.266C40.754 90.466 40.058 92.709 39.754 94.916C39.698 95.323 40.299 95.361 40.378 94.974C41.385 90.062 42.626 85.12 44.012 80.293C44.0154 80.2703 44.0109 80.2472 43.9994 80.2275C43.9878 80.2077 43.9698 80.1926 43.9484 80.1845C43.927 80.1764 43.9034 80.1759 43.8817 80.1831C43.86 80.1903 43.8414 80.2047 43.829 80.224L43.828 80.223Z" fill="#3F0366"/>
<path d="M62.406 87.554C60.128 91.905 59.449 96.874 57.352 101.287C57.158 101.694 57.796 101.917 57.998 101.532C58.9208 99.5194 59.663 97.4289 60.216 95.285C61.016 92.737 61.99 90.233 62.601 87.629C62.6108 87.6025 62.6097 87.5731 62.5979 87.5474C62.586 87.5217 62.5645 87.5018 62.538 87.492C62.5115 87.4822 62.4821 87.4833 62.4564 87.4951C62.4307 87.5069 62.4108 87.5285 62.401 87.555L62.406 87.554Z" fill="#3F0366"/>
<path d="M10.39 16.377C10.533 14.213 10.972 12.017 10.967 9.82098C10.9706 9.73092 10.9394 9.64293 10.8801 9.57513C10.8207 9.50733 10.7375 9.46489 10.6478 9.45655C10.5581 9.44822 10.4685 9.47463 10.3977 9.53034C10.3268 9.58604 10.2801 9.6668 10.267 9.75598C9.94398 11.308 9.95798 12.961 9.75198 14.538C9.68198 15.075 9.46799 16.293 10.18 16.509C10.2025 16.5171 10.2265 16.5201 10.2503 16.5176C10.2741 16.5152 10.297 16.5073 10.3173 16.4947C10.3376 16.4821 10.3548 16.465 10.3676 16.4448C10.3803 16.4246 10.3883 16.4017 10.391 16.378L10.39 16.377Z" fill="#3F0366"/>
<path d="M10.742 9.31998C12.6767 10.7281 14.8042 11.8499 17.059 12.651C17.1336 12.6738 17.214 12.6674 17.284 12.6331C17.3541 12.5988 17.4084 12.5391 17.436 12.4662C17.4636 12.3932 17.4625 12.3125 17.4327 12.2404C17.403 12.1683 17.347 12.1103 17.276 12.078C15.046 11.255 13.097 9.91298 10.919 9.00298C10.8778 8.98792 10.8326 8.98816 10.7915 9.00365C10.7505 9.01915 10.7164 9.04887 10.6954 9.0874C10.6744 9.12594 10.668 9.17072 10.6773 9.21359C10.6866 9.25647 10.711 9.29458 10.746 9.32098L10.742 9.31998Z" fill="#3F0366"/>
<path d="M17.205 12.521C18.674 13.267 20.577 12.121 22.076 11.982C22.442 11.949 22.349 11.374 21.976 11.416C20.347 11.605 18.931 12.428 17.258 12.269C17.227 12.267 17.1962 12.2761 17.1713 12.2946C17.1464 12.3132 17.1288 12.34 17.1219 12.3703C17.1149 12.4006 17.1189 12.4324 17.1332 12.46C17.1476 12.4876 17.1712 12.5092 17.2 12.521H17.205Z" fill="#3F0366"/>
<path d="M10.906 9.21998C12.7618 8.66818 14.6739 8.32703 16.606 8.20298C16.922 8.19298 16.989 7.73098 16.653 7.69598C14.6316 7.56745 12.6143 8.00518 10.828 8.95998C10.702 9.02998 10.745 9.25998 10.907 9.21898L10.906 9.21998Z" fill="#3F0366"/>
<path d="M16.007 7.96398C16.8903 8.54875 17.8536 9.00246 18.867 9.31098C20.1476 9.88193 21.3402 10.6325 22.409 11.54C22.654 11.746 23.035 11.356 22.801 11.129C21.892 10.2801 20.8468 9.59017 19.709 9.08798C18.5825 8.43615 17.332 8.02739 16.038 7.88798C16.028 7.88713 16.018 7.88957 16.0095 7.89494C16.001 7.90031 15.9945 7.90831 15.991 7.91772C15.9875 7.92712 15.9872 7.93742 15.99 7.94704C15.9929 7.95665 15.9989 7.96506 16.007 7.97098V7.96398Z" fill="#3F0366"/>
<path d="M22.223 11.671C25.223 15.849 25.51 22.471 26.323 27.4C27.304 33.332 26.894 39.269 26.977 45.247C26.977 45.616 27.549 45.686 27.561 45.301C27.778 38.74 27.838 32.248 26.702 25.766C26.162 22.682 25.732 19.557 24.889 16.537C24.384 14.724 23.918 12.693 22.514 11.361C22.329 11.186 22.085 11.483 22.22 11.67L22.223 11.671Z" fill="#3F0366"/>
<path d="M17.169 12.268C17.0167 13.0825 16.9972 13.9162 17.111 14.737C17.2054 15.8895 17.154 17.0493 16.958 18.189C16.88 18.57 17.473 18.617 17.558 18.245C17.752 17.3051 17.8073 16.3419 17.722 15.386C17.7027 14.3459 17.5987 13.3092 17.411 12.286C17.384 12.179 17.211 12.135 17.173 12.264L17.169 12.268Z" fill="#3F0366"/>
<path d="M40.558 31.449C40.1218 33.4147 39.8211 35.4081 39.658 37.415C39.201 40.393 38.836 43.382 38.331 46.353C37.838 49.262 37.21 52.132 36.572 55.011C36.0359 58.1869 35.3113 61.3281 34.402 64.418C34.3831 64.4799 34.3885 64.5467 34.4171 64.6048C34.4456 64.6629 34.4952 64.7079 34.5557 64.7308C34.6163 64.7537 34.6833 64.7527 34.7431 64.7281C34.8029 64.7034 34.8512 64.6569 34.878 64.598C35.746 62.1136 36.3643 59.5489 36.724 56.942C37.313 53.932 38.057 50.958 38.598 47.937C39.6364 42.4994 40.3318 37.0019 40.68 31.477C40.68 31.408 40.58 31.377 40.554 31.449H40.558Z" fill="#3F0366"/>
<path d="M40.581 31.447C41.6081 31.5459 42.6445 31.4804 43.651 31.253C44.6814 31.2615 45.7101 31.1677 46.722 30.973C47.002 30.885 46.858 30.405 46.571 30.473C45.6298 30.6198 44.6795 30.7007 43.727 30.715C42.7042 30.9405 41.6612 31.0621 40.614 31.078C40.5656 31.0736 40.5174 31.0886 40.4801 31.1198C40.4428 31.1509 40.4194 31.1956 40.415 31.244C40.4106 31.2924 40.4256 31.3405 40.4568 31.3779C40.4879 31.4152 40.5326 31.4386 40.581 31.443V31.447Z" fill="#3F0366"/>
<path d="M46.707 30.701C46.3518 37.3282 45.6569 43.9329 44.625 50.489C44.564 50.878 45.175 50.935 45.235 50.546C45.688 47.635 45.844 44.708 46.249 41.795C46.78 37.977 47.516 34.552 46.938 30.695C46.932 30.668 46.9167 30.644 46.8948 30.6272C46.8729 30.6103 46.8458 30.6016 46.8182 30.6027C46.7906 30.6038 46.7643 30.6145 46.7438 30.633C46.7232 30.6515 46.7099 30.6766 46.706 30.704L46.707 30.701Z" fill="#3F0366"/>
<path d="M32.669 28.276C33.7669 27.9333 34.8825 27.6502 36.011 27.428C37.0705 27.3495 38.1215 27.1823 39.153 26.928C39.1847 26.9124 39.2105 26.8871 39.2267 26.8556C39.2428 26.8242 39.2484 26.7884 39.2425 26.7536C39.2367 26.7188 39.2198 26.6868 39.1943 26.6623C39.1688 26.6379 39.136 26.6223 39.101 26.618C37.9165 26.6217 36.7361 26.7558 35.581 27.018C34.5149 27.144 33.4884 27.4976 32.571 28.055C32.471 28.124 32.549 28.306 32.671 28.272L32.669 28.276Z" fill="#3F0366"/>
<path d="M38.403 26.663C39.188 27.474 40.492 27.607 41.519 27.99C43.1486 28.6099 44.668 29.4878 46.019 30.59C46.178 30.717 46.411 30.48 46.269 30.328C45.3096 29.3866 44.1744 28.6431 42.928 28.14C41.482 27.496 39.857 27.307 38.46 26.589C38.4505 26.5854 38.4402 26.585 38.4305 26.588C38.4208 26.5909 38.4123 26.5969 38.4064 26.6051C38.4005 26.6133 38.3975 26.6232 38.3977 26.6333C38.398 26.6434 38.4016 26.6531 38.408 26.661L38.403 26.663Z" fill="#3F0366"/>
<path d="M34.049 66.867C33.7253 67.3163 33.5244 67.8423 33.466 68.393C33.394 68.808 33.19 69.534 33.466 69.903C33.4932 69.9352 33.5282 69.9598 33.5677 69.9744C33.6072 69.989 33.6499 69.9931 33.6914 69.9864C33.733 69.9796 33.7722 69.9622 33.805 69.9359C33.8379 69.9095 33.8634 69.8751 33.879 69.836C33.9866 69.3796 34.0273 68.9101 34 68.442C34.062 67.942 34.111 67.426 34.214 66.928C34.234 66.828 34.102 66.803 34.05 66.866L34.049 66.867Z" fill="#3F0366"/>
<path d="M47.121 77.015C46.8933 77.3017 46.7796 77.6625 46.802 78.028C46.8095 78.0654 46.8289 78.0994 46.8572 78.125C46.8855 78.1506 46.9213 78.1664 46.9593 78.1701C46.9973 78.1738 47.0354 78.1652 47.0681 78.1455C47.1009 78.1259 47.1264 78.0963 47.141 78.061C47.2259 77.7447 47.2926 77.4238 47.341 77.1C47.369 76.976 47.184 76.923 47.119 77.015H47.121Z" fill="#3F0366"/>
<path d="M55.081 75.651C54.6873 76.3551 54.4917 77.1526 54.515 77.959C54.562 78.19 54.929 78.196 54.941 77.944C54.9527 77.5326 55.0043 77.1234 55.095 76.722C55.1989 76.3887 55.2574 76.0429 55.269 75.694C55.2684 75.6718 55.2605 75.6503 55.2464 75.6331C55.2323 75.6159 55.2129 75.6039 55.1912 75.599C55.1695 75.5941 55.1468 75.5965 55.1267 75.6059C55.1065 75.6153 55.0911 75.6312 55.081 75.651Z" fill="#3F0366"/>
<path d="M52.146 13.739C53.71 16.21 56.846 17.676 59.23 19.255C59.402 19.369 59.637 19.15 59.488 18.983C57.488 16.719 54.313 15.994 52.43 13.509C52.284 13.317 52.023 13.546 52.146 13.739Z" fill="#3F0366"/>
<path d="M59.107 19.257C61.341 18.61 63.979 18.484 66.021 17.301C66.285 17.148 66.1 16.713 65.821 16.861C64.4027 17.5334 62.8975 18.0046 61.349 18.261C60.749 18.389 59.267 18.474 59.049 19.196C59.04 19.226 59.063 19.268 59.1 19.258L59.107 19.257Z" fill="#3F0366"/>
<path d="M52.17 13.687C52.491 13.718 52.763 13.487 53.061 13.377C53.8584 13.1256 54.6742 12.9367 55.501 12.812C57.1691 12.4167 58.8595 12.1218 60.563 11.929C60.616 11.927 60.6661 11.904 60.7022 11.8651C60.7383 11.8262 60.7575 11.7745 60.7555 11.7215C60.7535 11.6684 60.7305 11.6184 60.6916 11.5823C60.6527 11.5462 60.601 11.527 60.548 11.529C58.6501 11.6389 56.771 11.9667 54.948 12.506C54.454 12.615 52.142 12.906 52.164 13.68L52.17 13.687Z" fill="#3F0366"/>
<path d="M60.201 11.795C62.1684 12.7545 63.9119 14.1174 65.318 15.795C65.459 15.958 65.68 15.764 65.571 15.59C64.91 14.7452 64.1267 14.0038 63.247 13.39C62.3928 12.5924 61.3738 11.9922 60.262 11.632C60.2416 11.6261 60.2196 11.628 60.2006 11.6375C60.1815 11.6469 60.1667 11.6632 60.159 11.683C60.1514 11.7029 60.1514 11.7249 60.1592 11.7447C60.167 11.7645 60.1819 11.7806 60.201 11.79V11.795Z" fill="#3F0366"/>
<path d="M59.126 18.92C57.084 23.376 56.656 28.531 55.281 33.205C54.632 35.405 53.711 37.517 53.033 39.705C52.3 42.079 51.946 44.545 51.29 46.938C51.22 47.194 51.604 47.345 51.679 47.085C52.379 44.703 52.721 42.236 53.442 39.86C54.109 37.66 55.042 35.56 55.682 33.353C57.061 28.632 58.09 23.753 59.271 18.97C59.2784 18.9506 59.2779 18.9291 59.2694 18.9102C59.261 18.8912 59.2454 18.8764 59.226 18.869C59.2066 18.8616 59.1851 18.8621 59.1662 18.8706C59.1472 18.879 59.1324 18.8946 59.125 18.914L59.126 18.92Z" fill="#3F0366"/>
<path d="M52.05 13.402C50.409 15.436 49.958 18.726 49.198 21.183C48.198 24.413 47.175 27.633 46.077 30.831C46.0527 30.9001 46.0564 30.9759 46.0872 31.0424C46.1181 31.1088 46.1736 31.1606 46.2421 31.1867C46.3105 31.2127 46.3865 31.211 46.4537 31.182C46.5209 31.1529 46.5741 31.0987 46.602 31.031C47.778 28.042 48.672 24.949 49.629 21.886C50.484 19.149 50.997 16.097 52.255 13.514C52.316 13.39 52.129 13.305 52.05 13.404V13.402Z" fill="#3F0366"/>
<path d="M66.094 17.045C63.686 22.065 62.967 27.722 61.337 33.008C59.727 38.232 57.537 43.432 56.622 48.841C56.57 49.147 57.087 49.275 57.163 48.966C58.541 43.456 60.421 38.13 62.037 32.692C63.567 27.551 64.837 22.271 66.166 17.074C66.1697 17.0643 66.1694 17.0535 66.1652 17.0441C66.161 17.0346 66.1532 17.0272 66.1435 17.0235C66.1338 17.0198 66.123 17.0201 66.1136 17.0243C66.1041 17.0285 66.0967 17.0363 66.093 17.046L66.094 17.045Z" fill="#3F0366"/>
<path d="M28.549 10.056C27.237 13.372 28.675 17.756 28.875 21.188C29.152 25.923 29.301 30.673 29.618 35.4C29.641 35.75 30.237 35.732 30.238 35.378C30.244 31.439 29.915 27.52 29.687 23.589C29.567 21.539 29.462 19.483 29.216 17.443C28.927 15.036 28.052 12.535 28.756 10.134C28.7663 10.1064 28.7653 10.0758 28.7531 10.049C28.7409 10.0222 28.7186 10.0013 28.691 9.99098C28.6634 9.98064 28.6329 9.98167 28.606 9.99386C28.5792 10.0061 28.5593 10.0284 28.549 10.056Z" fill="#3F0366"/>
<path d="M28.551 10.112C30.812 11.198 32.701 12.654 35.091 13.501C35.1512 13.5194 35.2163 13.5142 35.2728 13.4865C35.3294 13.4587 35.3732 13.4105 35.3955 13.3515C35.4178 13.2926 35.4168 13.2274 35.3927 13.1691C35.3687 13.1109 35.3234 13.064 35.266 13.038C33.9823 12.5474 32.7361 11.9642 31.537 11.293C30.6388 10.691 29.6694 10.2026 28.651 9.83898C28.6167 9.83057 28.5805 9.83504 28.5493 9.85154C28.5181 9.86804 28.4941 9.89542 28.4818 9.92849C28.4694 9.96156 28.4697 9.998 28.4824 10.0309C28.4952 10.0638 28.5196 10.0909 28.551 10.107V10.112Z" fill="#3F0366"/>
<path d="M34.862 13.433C36.215 13.088 37.439 12.383 38.755 11.926C40.0936 11.5622 41.3871 11.0489 42.611 10.396C42.853 10.245 42.596 9.82098 42.347 9.96598C41.1325 10.5874 39.8639 11.0968 38.557 11.488C37.2714 11.9979 36.0181 12.5857 34.804 13.248C34.71 13.295 34.748 13.462 34.862 13.433Z" fill="#3F0366"/>
<path d="M28.538 10.099C30.802 8.16398 34.08 8.45198 36.638 7.15198C36.6868 7.12997 36.7249 7.08947 36.7438 7.0394C36.7627 6.98933 36.761 6.93378 36.739 6.88498C36.717 6.83618 36.6765 6.79812 36.6264 6.77918C36.5763 6.76024 36.5208 6.76197 36.472 6.78398C34.889 7.44398 33.208 7.67598 31.589 8.20898C30.524 8.55998 29.039 8.97298 28.404 9.97498C28.351 10.059 28.452 10.175 28.535 10.1L28.538 10.099Z" fill="#3F0366"/>
<path d="M36.064 6.91598C37.864 7.93398 39.776 8.80498 41.613 9.76698C41.781 9.85498 41.937 9.56698 41.774 9.46698C40.0208 8.3141 38.103 7.43344 36.086 6.85498C36.055 6.84798 36.037 6.89798 36.064 6.91298V6.91598Z" fill="#3F0366"/>
<path d="M34.966 13.085C34.26 14.466 34.472 16.31 34.536 17.82C34.623 19.833 34.901 21.82 34.85 23.837C34.8472 23.8669 34.8504 23.897 34.8593 23.9256C34.8682 23.9543 34.8826 23.9809 34.9018 24.004C34.921 24.0271 34.9445 24.0461 34.971 24.0601C34.9976 24.0741 35.0266 24.0827 35.0565 24.0855C35.0864 24.0882 35.1165 24.0851 35.1452 24.0762C35.1738 24.0673 35.2004 24.0529 35.2235 24.0337C35.2466 24.0145 35.2657 23.991 35.2796 23.9644C35.2936 23.9379 35.3022 23.9089 35.305 23.879C35.613 20.292 34.56 16.705 35.105 13.117C35.117 13.032 34.999 13.017 34.966 13.085Z" fill="#3F0366"/>
<path d="M42.145 10.187C41.572 12.626 42.157 15.714 42.209 18.226C42.278 21.545 42.247 24.826 42.22 28.139C42.22 28.463 42.72 28.515 42.727 28.186C42.827 22.186 42.542 16.225 42.346 10.234C42.346 10.134 42.173 10.061 42.145 10.187Z" fill="#3F0366"/>
<path d="M87.029 44.486C85.863 45.946 84.282 46.846 83.011 48.186C81.722 49.541 80.611 51.118 79.441 52.576C76.922 55.726 74.583 58.976 72.148 62.189C69.848 65.224 67.367 68.161 64.826 70.995C63.552 72.417 62.143 73.687 60.826 75.065C59.509 76.443 58.606 78.071 57.426 79.565C57.211 79.837 57.637 80.138 57.858 79.88C59.284 78.208 60.375 76.405 61.953 74.844C63.11 73.699 64.264 72.591 65.353 71.377C67.893 68.538 70.379 65.61 72.685 62.577C75.122 59.377 77.45 56.104 79.948 52.943C81.2141 51.1944 82.5884 49.5268 84.063 47.95C85.2621 46.9896 86.337 45.8838 87.263 44.658C87.2818 44.6271 87.2883 44.5903 87.2812 44.5549C87.2742 44.5194 87.254 44.4879 87.2248 44.4666C87.1956 44.4454 87.1595 44.4358 87.1236 44.44C87.0876 44.4441 87.0546 44.4616 87.031 44.489L87.029 44.486Z" fill="#3F0366"/>
<path d="M87.047 44.657C87.966 47.744 91.81 49.157 93.552 51.721C93.732 51.984 94.118 51.67 93.938 51.41C93.0566 50.2289 92.0016 49.1878 90.809 48.322C89.4344 47.2516 88.2116 45.9995 87.174 44.6C87.133 44.546 87.026 44.588 87.047 44.657Z" fill="#3F0366"/>
<path d="M87.053 44.816C89.782 45.905 92.807 46.036 95.632 46.804C95.6773 46.8108 95.7235 46.8019 95.763 46.7788C95.8025 46.7556 95.8328 46.7196 95.849 46.6768C95.8651 46.6339 95.8661 46.5869 95.8517 46.5434C95.8374 46.4999 95.8085 46.4627 95.77 46.438C93.027 45.373 89.98 45.395 87.183 44.475C87.1388 44.4619 87.0912 44.466 87.0499 44.4864C87.0085 44.5068 86.9764 44.5422 86.96 44.5853C86.9436 44.6284 86.944 44.6761 86.9613 44.7188C86.9785 44.7616 87.0113 44.7963 87.053 44.816Z" fill="#3F0366"/>
<path d="M93.876 51.669C96.3594 52.3743 98.9127 52.8052 101.49 52.954C101.53 52.9577 101.569 52.9454 101.6 52.9199C101.631 52.8944 101.65 52.8578 101.654 52.818C101.658 52.7782 101.645 52.7386 101.62 52.7078C101.594 52.6771 101.558 52.6577 101.518 52.654C99.023 52.108 96.446 51.906 93.934 51.416C93.791 51.388 93.734 51.627 93.876 51.669Z" fill="#3F0366"/>
<path d="M96.125 46.675C96.481 47.703 97.677 48.458 98.48 49.117C99.86 50.248 100.799 51.703 102.107 52.874C102.255 53.006 102.481 52.767 102.348 52.621C101.46 51.515 100.504 50.4659 99.484 49.48C98.419 48.58 97.02 47.786 96.269 46.587C96.215 46.501 96.097 46.587 96.126 46.675H96.125Z" fill="#3F0366"/>
<path d="M93.844 51.648C88.244 54.801 85.153 61.567 80.68 66.014C78.447 68.4016 76.3362 70.9008 74.356 73.502C72.104 76.246 69.578 78.71 67.339 81.482C67.233 81.613 67.428 81.801 67.554 81.687C72.53 77.25 76.154 71.557 80.713 66.746C85.313 61.891 88.773 56.089 93.898 51.736C93.941 51.699 93.898 51.617 93.844 51.648Z" fill="#3F0366"/>
<path d="M101.886 52.737C98.277 55.459 95.971 60.194 93.186 63.72C90.18 67.529 87.244 71.472 84.359 75.379C77.935 84.079 71.013 92.574 65.395 101.841C65.236 102.103 65.612 102.387 65.784 102.125C71.648 93.185 78.138 84.719 84.49 76.138C87.306 72.338 90.19 68.581 93.049 64.805C96.049 60.844 98.722 56.572 101.996 52.843C102.057 52.774 101.953 52.685 101.885 52.737H101.886Z" fill="#3F0366"/>
<path d="M129.705 46.426C133.605 48.257 138.22 48.088 142.354 49.09C142.639 49.159 142.815 48.739 142.521 48.651C138.362 47.419 133.957 47.433 129.761 46.28C129.742 46.2726 129.72 46.2731 129.701 46.2816C129.682 46.29 129.667 46.3056 129.66 46.325C129.653 46.3443 129.653 46.3659 129.662 46.3848C129.67 46.4037 129.686 46.4186 129.705 46.426Z" fill="#3F0366"/>
<path d="M142.518 48.777C134.449 53.71 127.573 60.832 121.262 67.81C117.625 71.9702 114.407 76.4787 111.655 81.27C109.061 85.637 106.042 90.222 104.198 94.964C104.13 95.138 104.392 95.291 104.498 95.125C109.847 86.242 114.182 76.837 120.998 68.897C127.509 61.5208 134.738 54.8104 142.577 48.865C142.622 48.83 142.577 48.745 142.523 48.777H142.518Z" fill="#3F0366"/>
<path d="M130.096 46.341C127.929 47.641 126.623 49.608 125.002 51.48C122.93 53.872 120.167 55.401 117.991 57.644C113.713 61.9963 110.033 66.8983 107.047 72.221C106.9 72.493 107.273 72.789 107.447 72.513C110.566 67.6365 114.042 62.9979 117.847 58.635C119.747 56.427 122.353 54.96 124.393 52.881C126.433 50.802 128.002 48.423 130.182 46.481C130.25 46.42 130.182 46.281 130.093 46.338L130.096 46.341Z" fill="#3F0366"/>
<path d="M142.148 48.91L142.084 48.935C142.064 48.9433 142.046 48.9571 142.034 48.9747C142.021 48.9924 142.014 49.0133 142.012 49.035C142.074 49.7723 142.301 50.4861 142.678 51.123C143.197 52.344 143.444 53.666 144.047 54.853C144.12 54.995 144.382 54.938 144.331 54.767C143.989 53.5046 143.561 52.2671 143.051 51.063C142.871 50.663 142.661 50.275 142.497 49.863C142.397 49.604 142.366 49.114 142.178 48.918C142.174 48.9138 142.169 48.9109 142.164 48.9097C142.158 48.9084 142.152 48.9089 142.147 48.911L142.148 48.91Z" fill="#3F0366"/>
<path d="M144.08 54.972C142.718 56.696 140.701 57.693 139.03 59.079C137.526 60.3424 136.137 61.7354 134.877 63.242C132.187 66.416 129.377 69.513 126.829 72.802C121.583 79.583 115.029 85.929 111.746 94.002C111.614 94.328 112.124 94.521 112.259 94.196C115.659 85.947 122.469 79.312 127.876 72.379C130.423 69.116 133.219 65.938 135.963 62.835C137.394 61.1987 138.974 59.699 140.682 58.355C142.043 57.4709 143.253 56.3755 144.269 55.11C144.287 55.0849 144.295 55.0536 144.29 55.0229C144.285 54.9923 144.269 54.9648 144.243 54.9465C144.218 54.9282 144.187 54.9206 144.156 54.9254C144.126 54.9301 144.098 54.9469 144.08 54.972Z" fill="#3F0366"/>
<path d="M111.709 94.875C111.912 94.9408 112.132 94.9262 112.324 94.834C112.516 94.7418 112.665 94.5792 112.741 94.3799C112.816 94.1806 112.812 93.96 112.729 93.7637C112.646 93.5675 112.49 93.4107 112.295 93.326C112.092 93.2601 111.872 93.2748 111.68 93.367C111.488 93.4591 111.339 93.6218 111.263 93.821C111.188 94.0203 111.192 94.241 111.275 94.4372C111.358 94.6335 111.514 94.7902 111.709 94.875Z" fill="#3F0366"/>
<path d="M99.586 72.976C103.809 73.407 108.303 72.91 112.522 72.563C112.707 72.548 112.693 72.253 112.51 72.241C108.263 71.947 103.855 72.598 99.61 72.755C99.5812 72.7532 99.5528 72.7628 99.5309 72.7816C99.509 72.8004 99.4953 72.827 99.4927 72.8558C99.4901 72.8845 99.4988 72.9132 99.517 72.9356C99.5351 72.958 99.5613 72.9725 99.59 72.976H99.586Z" fill="#3F0366"/>
<path d="M112.312 72.158C108.692 76.191 105.912 81.252 103.047 85.847C100.205 90.1788 97.633 94.6824 95.347 99.332C95.172 99.711 95.758 99.913 95.947 99.558C98.569 94.583 101.442 89.658 104.458 84.911C107.115 80.728 110.121 76.599 112.351 72.174C112.362 72.153 112.331 72.141 112.318 72.157L112.312 72.158Z" fill="#3F0366"/>
<path d="M99.701 72.685C98.621 71.8 97.455 71.043 96.401 70.122C95.347 69.201 94.392 68.169 93.29 67.322C93.2373 67.2864 93.1737 67.2706 93.1105 67.2775C93.0473 67.2843 92.9886 67.3133 92.9447 67.3593C92.9009 67.4053 92.8747 67.4654 92.8709 67.5289C92.8671 67.5923 92.8859 67.6551 92.924 67.706C94.6835 69.9604 96.9684 71.7496 99.579 72.917C99.6083 72.9274 99.6404 72.927 99.6695 72.9158C99.6986 72.9047 99.7227 72.8836 99.7377 72.8563C99.7526 72.829 99.7573 72.7972 99.7509 72.7668C99.7446 72.7363 99.7276 72.7091 99.703 72.69L99.701 72.685Z" fill="#3F0366"/>
<path d="M93.043 67.596C94.4438 67.2599 95.896 67.1954 97.321 67.406C98.4486 67.611 99.6111 67.4963 100.677 67.075C100.723 67.0524 100.76 67.0142 100.78 66.9671C100.8 66.9201 100.803 66.8673 100.789 66.8182C100.774 66.7692 100.742 66.727 100.699 66.6993C100.655 66.6716 100.604 66.6601 100.553 66.667C99.121 66.8664 97.6707 66.9 96.231 66.767C95.11 66.6102 93.9675 66.768 92.931 67.223C92.751 67.323 92.817 67.663 93.045 67.594L93.043 67.596Z" fill="#3F0366"/>
<path d="M100.394 66.944C104.352 68.733 108.173 70.62 111.943 72.781C112.206 72.932 112.493 72.564 112.227 72.392C108.575 69.9963 104.629 68.0831 100.486 66.7C100.454 66.6876 100.417 66.6887 100.386 66.703C100.354 66.7172 100.329 66.7435 100.317 66.776C100.305 66.8085 100.306 66.8445 100.32 66.8762C100.334 66.9079 100.361 66.9326 100.393 66.945L100.394 66.944Z" fill="#3F0366"/>
<path d="M99.355 72.837C97.912 75.381 97.132 78.265 95.769 80.87C94.269 83.732 92.608 86.529 91.362 89.513C91.209 89.879 91.747 90.057 91.923 89.726C94.734 84.405 98.328 78.867 99.496 72.891C99.4976 72.8739 99.4936 72.8568 99.4845 72.8422C99.4755 72.8277 99.4619 72.8165 99.4458 72.8105C99.4297 72.8044 99.4121 72.8038 99.3957 72.8088C99.3793 72.8138 99.365 72.823 99.355 72.837Z" fill="#3F0366"/>
<path d="M89.841 93.264C88.6035 96.1821 87.1289 98.9938 85.432 101.671C85.197 102.002 85.632 102.444 85.956 102.171C86.844 101.41 87.279 100.006 87.8 98.993C88.7473 97.1952 89.5285 95.3147 90.134 93.375C90.1486 93.3361 90.1471 93.2931 90.13 93.2553C90.1128 93.2175 90.0813 93.1881 90.0425 93.1735C90.0036 93.1589 89.9606 93.1603 89.9228 93.1775C89.885 93.1946 89.8556 93.2251 89.841 93.264Z" fill="#3F0366"/>
<path d="M92.83 67.411C91.05 68.492 90.098 71.259 89.273 73.091C87.705 76.572 85.964 79.939 84.191 83.318C82.361 86.806 80.279 90.152 78.436 93.633C76.794 96.733 74.646 99.56 73.128 102.716C72.956 103.072 73.528 103.286 73.7 102.932C75.073 100.091 77.051 97.593 78.525 94.798C80.189 91.646 82.043 88.606 83.757 85.482C85.371 82.539 86.977 79.562 88.421 76.531C89.775 73.69 90.858 69.965 92.982 67.598C93.062 67.508 92.934 67.348 92.83 67.411Z" fill="#3F0366"/>
<path d="M73.018 103.645C73.2206 103.711 73.4408 103.696 73.6329 103.604C73.825 103.512 73.9742 103.349 74.0496 103.15C74.125 102.951 74.1208 102.73 74.0378 102.534C73.9548 102.337 73.7995 102.181 73.604 102.096C73.4014 102.03 73.1812 102.045 72.9891 102.137C72.797 102.229 72.6477 102.392 72.5723 102.591C72.497 102.79 72.5012 103.011 72.5842 103.207C72.6672 103.403 72.8225 103.56 73.018 103.645Z" fill="#3F0366"/>
<path d="M108.635 37.743C106.244 42.483 104.986 47.864 103.358 52.904C101.771 57.814 99.395 62.569 98.019 67.515C98.005 67.5609 98.009 67.6105 98.0302 67.6536C98.0514 67.6967 98.0882 67.7301 98.1331 67.747C98.1781 67.764 98.2278 67.7631 98.2721 67.7448C98.3165 67.7264 98.3522 67.6918 98.372 67.648C100.587 62.9515 102.438 58.0915 103.908 53.111C105.546 48.039 107.443 42.949 108.745 37.785C108.749 37.7707 108.748 37.7552 108.742 37.7418C108.735 37.7283 108.724 37.7178 108.71 37.7125C108.696 37.7071 108.68 37.7073 108.666 37.713C108.652 37.7186 108.641 37.7294 108.635 37.743Z" fill="#3F0366"/>
<path d="M108.468 37.767C110.719 39.529 113.255 40.606 115.735 41.995C115.773 42.0226 115.82 42.0341 115.866 42.0269C115.912 42.0198 115.953 41.9946 115.981 41.957C116.009 41.9193 116.02 41.8722 116.013 41.8261C116.006 41.78 115.981 41.7386 115.943 41.711C114.885 40.9495 113.736 40.3236 112.522 39.848C111.137 39.199 109.922 38.282 108.549 37.62C108.46 37.577 108.395 37.711 108.468 37.767Z" fill="#3F0366"/>
<path d="M115.611 41.667C116.758 41.9732 117.953 42.059 119.132 41.92C120.778 41.92 122.424 42.02 124.062 42.163C124.103 42.167 124.144 42.1544 124.176 42.128C124.208 42.1017 124.229 42.0637 124.232 42.0225C124.236 41.9812 124.224 41.9401 124.198 41.9081C124.171 41.8762 124.133 41.856 124.092 41.852C121.321 41.436 118.366 42.032 115.652 41.491C115.552 41.47 115.517 41.631 115.611 41.666V41.667Z" fill="#3F0366"/>
<path d="M115.689 41.896C113.98 45.6278 112.587 49.4963 111.525 53.461C111.453 53.707 111.81 53.85 111.902 53.603C113.322 49.803 114.859 45.903 115.92 41.983C115.929 41.9531 115.926 41.921 115.912 41.8931C115.898 41.8652 115.874 41.8435 115.845 41.8324C115.816 41.8213 115.784 41.8216 115.755 41.8332C115.726 41.8448 115.702 41.8678 115.689 41.896Z" fill="#3F0366"/>
<path d="M110.655 56.984C109.112 60.643 107.067 64.184 106.224 68.1C106.183 68.287 106.493 68.357 106.551 68.175C107.751 64.375 109.4 60.766 110.741 57.016C110.744 57.0048 110.743 56.9928 110.738 56.9824C110.733 56.9721 110.724 56.964 110.713 56.96C110.702 56.9559 110.69 56.9561 110.679 56.9606C110.668 56.965 110.66 56.9734 110.655 56.984Z" fill="#3F0366"/>
<path d="M123.621 41.933C122.55 44.5337 121.664 47.207 120.971 49.933C120.288 52.074 119.403 54.122 118.9 56.319C118.83 56.629 119.323 56.672 119.393 56.366C120.516 51.513 122.545 46.838 123.779 41.991C123.784 41.9708 123.781 41.9497 123.771 41.9314C123.761 41.9132 123.745 41.8991 123.726 41.8918C123.707 41.8846 123.685 41.8847 123.666 41.8921C123.647 41.8995 123.631 41.9147 123.621 41.933Z" fill="#3F0366"/>
<path d="M108.542 37.705C110.794 38.1245 113.092 38.2362 115.374 38.037C115.521 38.028 115.494 37.815 115.364 37.791C113.156 37.41 110.8 37.733 108.564 37.523C108.443 37.511 108.435 37.679 108.547 37.705H108.542Z" fill="#3F0366"/>
<path d="M115.149 37.928C116.774 38.605 118.369 39.345 119.949 40.114C121.12 40.684 122.509 41.174 123.309 42.25C123.425 42.406 123.657 42.217 123.543 42.062C122.766 41.2092 121.796 40.5543 120.715 40.152C118.926 39.2537 117.087 38.4581 115.207 37.769C115.186 37.7629 115.164 37.7649 115.145 37.7745C115.126 37.7842 115.111 37.8008 115.103 37.821C115.096 37.8411 115.096 37.8634 115.105 37.8833C115.113 37.9031 115.128 37.9191 115.148 37.928H115.149Z" fill="#3F0366"/>
<path d="M72.568 20.843C76.721 21.609 80.979 20.996 85.127 21.902C85.456 21.974 85.498 21.457 85.175 21.383C81.058 20.432 76.783 20.916 72.605 20.44C72.343 20.41 72.316 20.796 72.568 20.84V20.843Z" fill="#3F0366"/>
<path d="M72.605 20.524C71.4835 19.398 70.6119 18.0484 70.047 16.563C69.947 16.22 69.395 16.291 69.481 16.663C69.6833 17.5049 70.0497 18.2986 70.5591 18.9987C71.0686 19.6988 71.7111 20.2915 72.45 20.743C72.575 20.807 72.687 20.627 72.604 20.529L72.605 20.524Z" fill="#3F0366"/>
<path d="M69.621 16.796C73.251 16.486 76.959 17.633 80.564 17.296C80.6033 17.2879 80.6385 17.2661 80.6633 17.2345C80.6881 17.2029 80.7009 17.1635 80.6995 17.1234C80.698 17.0833 80.6824 17.045 80.6554 17.0152C80.6284 16.9855 80.5918 16.9663 80.552 16.961C78.48 16.942 76.423 16.685 74.352 16.629C72.83 16.588 71.074 16.248 69.599 16.709C69.546 16.725 69.577 16.799 69.625 16.795L69.621 16.796Z" fill="#3F0366"/>
<path d="M80.467 17.142C80.536 17.878 82.041 18.581 82.567 18.942C83.614 19.66 84.895 20.377 85.32 21.642C85.3367 21.6764 85.3642 21.7045 85.3983 21.722C85.4323 21.7395 85.4711 21.7455 85.5089 21.7391C85.5466 21.7327 85.5813 21.7142 85.6076 21.6864C85.634 21.6586 85.6506 21.623 85.655 21.585C85.627 20.571 84.482 19.797 83.748 19.269C83.138 18.83 82.494 18.444 81.872 18.021C81.465 17.745 81.024 17.202 80.565 17.063C80.553 17.058 80.5399 17.0563 80.527 17.0581C80.5142 17.0599 80.502 17.0651 80.4918 17.0731C80.4816 17.0812 80.4738 17.0918 80.469 17.1039C80.4643 17.116 80.4629 17.1292 80.465 17.142H80.467Z" fill="#3F0366"/>
<path d="M72.621 20.655C71.8768 22.5568 71.3911 24.55 71.177 26.581C70.757 29.181 70.165 31.724 69.539 34.281C68.548 38.319 67.094 42.474 66.591 46.595C66.556 46.883 66.979 46.911 67.032 46.637C67.932 42.021 69.291 37.437 70.382 32.864C71.343 28.83 71.812 24.724 72.735 20.683C72.751 20.615 72.647 20.6 72.623 20.657L72.621 20.655Z" fill="#3F0366"/>
<path d="M66.298 50.009C65.9343 51.9511 65.4649 53.872 64.892 55.763C64.366 58.079 63.912 60.437 63.471 62.771C62.999 65.261 62.746 67.802 62.205 70.277C61.905 71.621 61.205 72.953 61.412 74.348C61.454 74.624 61.926 74.624 61.912 74.329C61.861 72.745 62.647 71.141 62.907 69.563C63.307 67.144 63.631 64.711 64.101 62.303C64.888 58.27 66.246 54.127 66.517 50.028C66.5196 49.9988 66.5105 49.9697 66.4918 49.9472C66.473 49.9247 66.4461 49.9105 66.4169 49.9077C66.3877 49.9049 66.3586 49.9138 66.336 49.9324C66.3133 49.951 66.2989 49.9778 66.296 50.007L66.298 50.009Z" fill="#3F0366"/>
<path d="M85.09 21.619C84.15 23.411 84.15 25.893 83.736 27.888C83.106 30.92 82.376 33.931 81.771 36.968C80.621 42.743 79.392 48.509 78.253 54.28C78.195 54.574 78.681 54.685 78.769 54.4C80.432 49.087 81.161 43.535 82.203 38.081C83.254 32.573 84.494 27.19 85.215 21.647C85.226 21.568 85.121 21.557 85.089 21.617L85.09 21.619Z" fill="#3F0366"/>
<path d="M69.451 16.492C66.825 21.798 66.107 28.328 64.973 34.092C63.723 40.45 61.4 46.692 60.538 53.111C60.496 53.427 60.983 53.471 61.032 53.157C61.978 47.091 64.047 41.169 65.316 35.157C66.633 28.915 68.116 22.749 69.559 16.535C69.5617 16.5278 69.5629 16.5202 69.5627 16.5126C69.5624 16.5049 69.5607 16.4974 69.5575 16.4904C69.5544 16.4835 69.5499 16.4772 69.5443 16.472C69.5387 16.4667 69.5322 16.4627 69.525 16.46C69.5178 16.4573 69.5102 16.456 69.5026 16.4563C69.4949 16.4565 69.4874 16.4583 69.4805 16.4614C69.4735 16.4646 69.4672 16.4691 69.462 16.4747C69.4568 16.4803 69.4527 16.4868 69.45 16.494L69.451 16.492Z" fill="#3F0366"/>
<path d="M91.087 24.393C92.758 26.0179 94.5594 27.5032 96.473 28.834C96.619 28.941 96.819 28.741 96.695 28.599C95.18 26.872 92.995 25.713 91.256 24.215C91.151 24.125 90.988 24.293 91.087 24.393Z" fill="#3F0366"/>
<path d="M96.472 28.543C97.465 29.008 98.944 28.749 100.027 28.767C101.467 28.79 102.899 28.899 104.336 28.978C104.376 28.9817 104.415 28.9695 104.446 28.944C104.477 28.9184 104.496 28.8818 104.5 28.842C104.504 28.8022 104.491 28.7626 104.466 28.7318C104.44 28.7011 104.404 28.6817 104.364 28.678C102.865 28.4157 101.345 28.3005 99.824 28.334C98.7069 28.1731 97.5696 28.2233 96.471 28.482C96.4652 28.4844 96.4602 28.4885 96.4568 28.4938C96.4533 28.499 96.4514 28.5052 96.4514 28.5115C96.4514 28.5178 96.4533 28.5239 96.4568 28.5292C96.4602 28.5344 96.4652 28.5385 96.471 28.541L96.472 28.543Z" fill="#3F0366"/>
<path d="M90.838 24.099C93.3056 23.7643 95.8009 23.6829 98.285 23.856C98.465 23.875 98.478 23.621 98.311 23.583C95.8138 23.1671 93.2565 23.2905 90.811 23.945C90.7906 23.9484 90.7724 23.9598 90.7604 23.9767C90.7484 23.9936 90.7435 24.0146 90.747 24.035C90.7504 24.0554 90.7619 24.0736 90.7787 24.0856C90.7956 24.0976 90.8166 24.1024 90.837 24.099H90.838Z" fill="#3F0366"/>
<path d="M97.482 23.309C98.2905 24.1694 99.1966 24.9326 100.182 25.583C101.382 26.56 102.415 27.711 103.518 28.783C103.539 28.8086 103.569 28.8249 103.601 28.8284C103.634 28.8318 103.667 28.8222 103.692 28.8015C103.718 28.7808 103.734 28.7508 103.738 28.7181C103.741 28.6853 103.732 28.6526 103.711 28.627C102.141 26.302 99.554 25.087 97.565 23.227C97.514 23.18 97.445 23.26 97.485 23.311L97.482 23.309Z" fill="#3F0366"/>
<path d="M96.048 28.505C94.396 32.951 93.431 37.636 91.967 42.147C91.9546 42.1795 91.9557 42.2155 91.97 42.2472C91.9842 42.2789 92.0105 42.3036 92.043 42.316C92.0755 42.3283 92.1115 42.3272 92.1432 42.313C92.1749 42.2987 92.1996 42.2725 92.212 42.24C93.98 37.84 95.007 33.15 96.268 28.588C96.308 28.445 96.101 28.361 96.048 28.505Z" fill="#3F0366"/>
<path d="M103.602 28.824C102.182 30.597 101.83 33.108 101.244 35.252C100.398 38.352 99.522 41.421 98.531 44.473C98.5242 44.5182 98.533 44.5645 98.5562 44.604C98.5793 44.6435 98.6154 44.6738 98.6582 44.69C98.701 44.7061 98.7481 44.7071 98.7915 44.6927C98.835 44.6783 98.8722 44.6495 98.897 44.611C100.911 39.611 101.219 33.682 103.797 28.962C103.812 28.9367 103.817 28.9069 103.811 28.8782C103.805 28.8496 103.788 28.8242 103.764 28.807C103.741 28.7898 103.712 28.782 103.682 28.7852C103.653 28.7883 103.626 28.8021 103.607 28.824H103.602Z" fill="#3F0366"/>
<path d="M90.901 24.052C89.05 27.659 88.345 31.798 87.301 35.685C86.21 39.746 84.919 43.75 83.461 47.695C83.4418 47.7598 83.4479 47.8296 83.478 47.8902C83.5081 47.9507 83.56 47.9977 83.6232 48.0216C83.6865 48.0455 83.7565 48.0446 83.8191 48.0191C83.8818 47.9936 83.9324 47.9453 83.961 47.884C86.838 40.103 88.691 32.042 91.025 24.097C91.028 24.089 91.0294 24.0804 91.0291 24.0719C91.0289 24.0633 91.0269 24.0549 91.0234 24.0471C91.0198 24.0393 91.0148 24.0323 91.0086 24.0264C91.0023 24.0206 90.995 24.016 90.987 24.013C90.979 24.01 90.9704 24.0085 90.9619 24.0088C90.9533 24.0091 90.9449 24.0111 90.9371 24.0146C90.9293 24.0181 90.9223 24.0231 90.9164 24.0294C90.9106 24.0356 90.906 24.043 90.903 24.051L90.901 24.052Z" fill="#3F0366"/>
<path d="M79.545 82.694C76.882 88.606 75.404 95.361 73.634 101.594C73.62 101.64 73.624 101.689 73.6452 101.733C73.6664 101.776 73.7032 101.809 73.7481 101.826C73.7931 101.843 73.8428 101.842 73.8871 101.824C73.9315 101.805 73.9672 101.771 73.987 101.727C76.653 95.815 77.81 88.945 79.605 82.717C79.6079 82.7089 79.6075 82.7 79.6038 82.6922C79.6002 82.6844 79.5936 82.6784 79.5855 82.6755C79.5774 82.6726 79.5685 82.673 79.5607 82.6766C79.5529 82.6803 79.5469 82.6869 79.544 82.695L79.545 82.694Z" fill="#3F0366"/>
<path d="M-38.481 181.954C-28.453 180.911 -18.459 184.227 -8.44901 183.422C-8.39705 183.412 -8.35047 183.383 -8.31762 183.342C-8.28476 183.3 -8.26777 183.248 -8.2697 183.195C-8.27162 183.142 -8.29233 183.092 -8.32812 183.053C-8.36391 183.014 -8.41244 182.989 -8.46501 182.982C-14.287 182.829 -20.02 182.095 -25.828 181.745C-29.815 181.505 -34.69 180.271 -38.523 181.818C-38.601 181.85 -38.559 181.963 -38.481 181.954Z" fill="#3F0366"/>
<path d="M-30.563 184.43C-25.6911 184.522 -20.8284 184.889 -15.998 185.53C-12.173 185.969 -8.28801 186.83 -4.46201 185.959C-4.12001 185.881 -4.20901 185.34 -4.55301 185.419C-8.701 186.377 -13.027 185.319 -17.183 184.9C-21.611 184.455 -26.114 183.729 -30.571 184.167C-30.717 184.182 -30.711 184.425 -30.562 184.425L-30.563 184.43Z" fill="#3F0366"/>
<path d="M-24.144 187.178C-19.7099 188.004 -15.2349 188.592 -10.738 188.94C-6.43801 189.187 -2.144 188.374 2.125 188.58C2.16996 188.582 2.21383 188.566 2.24759 188.536C2.28136 188.506 2.30246 188.465 2.30656 188.42C2.31066 188.375 2.29743 188.331 2.26962 188.295C2.2418 188.26 2.2015 188.237 2.15699 188.23C0.418853 188.053 -1.33504 188.103 -3.06001 188.381C-5.60093 188.574 -8.15106 188.616 -10.697 188.508C-15.197 188.267 -19.628 187.182 -24.133 187.06C-24.1477 187.06 -24.1619 187.065 -24.1728 187.075C-24.1837 187.085 -24.1906 187.099 -24.1919 187.113C-24.1933 187.128 -24.1892 187.143 -24.1803 187.154C-24.1714 187.166 -24.1585 187.175 -24.144 187.178Z" fill="#3F0366"/>
<path d="M-14.748 190.532C-11.731 189.464 -8.28501 190.569 -5.19601 190.806C-0.886631 191.282 3.46619 191.198 7.75399 190.556C7.81712 190.545 7.87343 190.51 7.91056 190.458C7.9477 190.406 7.9626 190.341 7.95199 190.278C7.94138 190.215 7.90614 190.159 7.854 190.121C7.80186 190.084 7.73711 190.069 7.67399 190.08C2.72411 190.629 -2.27162 190.622 -7.22001 190.06C-8.86701 189.86 -13.612 188.707 -14.836 190.423C-14.8449 190.436 -14.8494 190.451 -14.8488 190.467C-14.8481 190.483 -14.8424 190.498 -14.8324 190.51C-14.8225 190.522 -14.8089 190.53 -14.7936 190.534C-14.7784 190.538 -14.7624 190.536 -14.748 190.53V190.532Z" fill="#3F0366"/>
<path d="M-7.08801 193.152C-0.228009 193.846 7.46899 194.898 14.064 192.369C14.441 192.224 14.183 191.655 13.807 191.798C6.99399 194.41 -0.0690098 192.557 -7.10001 192.829C-7.28801 192.836 -7.26701 193.134 -7.08901 193.153L-7.08801 193.152Z" fill="#3F0366"/>
<path d="M0.192997 195.632C6.302 197.755 12.493 195.041 18.6 194.655C18.862 194.639 18.848 194.187 18.583 194.189C15.731 194.216 13.041 195.236 10.228 195.582C6.90715 196.035 3.53765 195.997 0.227997 195.468C0.208255 195.468 0.188973 195.474 0.173386 195.486C0.157798 195.498 0.146856 195.515 0.142399 195.535C0.137942 195.554 0.140239 195.574 0.148907 195.592C0.157575 195.609 0.172085 195.624 0.189999 195.632H0.192997Z" fill="#3F0366"/>
<path d="M6.772 198.01C8.96 198.766 11.234 198.438 13.478 198.11C17.0319 197.659 20.6106 197.431 24.193 197.427C24.533 197.42 24.586 196.886 24.242 196.894C21.454 196.968 18.624 196.931 15.851 197.268C12.831 197.636 9.92599 198.468 6.88699 197.709C6.68699 197.66 6.568 197.944 6.772 198.014V198.01Z" fill="#3F0366"/>
<path d="M13.803 200.343C16.069 199.574 18.576 200.207 20.903 200.285C22.559 200.341 24.226 200.227 25.88 200.163C27.004 200.119 28.129 200.063 29.253 200.034C29.674 200.023 31.979 199.568 31.529 199.503C31.476 199.499 31.4235 199.514 31.3807 199.546C31.338 199.577 31.3079 199.623 31.2958 199.675C31.2838 199.726 31.2906 199.781 31.315 199.828C31.3394 199.875 31.3798 199.912 31.429 199.932L31.766 200.042C31.8281 200.063 31.8961 200.059 31.9556 200.032C32.015 200.004 32.0612 199.954 32.0845 199.892C32.1077 199.831 32.1062 199.763 32.0801 199.702C32.0541 199.642 32.0056 199.594 31.945 199.569C30.845 198.996 28.055 199.58 26.778 199.634C24.483 199.734 22.178 199.889 19.886 199.776C18.538 199.711 14.653 198.822 13.733 200.264C13.7265 200.273 13.7232 200.285 13.7237 200.296C13.7241 200.308 13.7283 200.319 13.7355 200.327C13.7427 200.336 13.7526 200.343 13.7636 200.345C13.7747 200.348 13.7864 200.347 13.797 200.343H13.803Z" fill="#3F0366"/>
<path d="M19.038 202.644C24.559 202.821 30.133 203.237 35.646 202.723C36.006 202.688 35.91 202.137 35.552 202.169C30.052 202.656 24.574 202.192 19.068 202.32C18.868 202.32 18.823 202.638 19.038 202.644Z" fill="#3F0366"/>
<path d="M27.199 205.496C31.299 206.318 35.469 204.996 39.599 205.579C39.899 205.622 39.942 205.15 39.642 205.112C35.495 204.581 31.377 205.763 27.222 205.249C27.061 205.229 27.046 205.465 27.199 205.496Z" fill="#3F0366"/>
<path d="M33.262 208.231C34.8263 208.374 36.4036 208.245 37.924 207.85C39.6366 207.515 41.3907 207.448 43.124 207.65C43.1647 207.653 43.2052 207.642 43.2395 207.62C43.2738 207.598 43.3002 207.566 43.3147 207.527C43.3293 207.489 43.3312 207.448 43.3203 207.408C43.3094 207.369 43.2861 207.334 43.254 207.309C42.201 206.558 40.554 206.874 39.369 207.073C37.3783 207.566 35.3394 207.839 33.289 207.887C33.244 207.883 33.1993 207.897 33.1646 207.926C33.1299 207.955 33.1081 207.996 33.104 208.041C33.0999 208.086 33.1138 208.131 33.1427 208.165C33.1716 208.2 33.213 208.222 33.258 208.226L33.262 208.231Z" fill="#3F0366"/>
<path d="M38.223 210.595C41.589 212.067 45.314 210.427 48.823 210.908C49.204 210.961 49.264 210.356 48.879 210.308C45.312 209.9 41.82 211.39 38.279 210.47C38.2635 210.466 38.2472 210.468 38.2331 210.476C38.219 210.483 38.2081 210.496 38.2024 210.511C38.1967 210.525 38.1965 210.542 38.202 210.557C38.2074 210.572 38.2181 210.584 38.232 210.592L38.223 210.595Z" fill="#3F0366"/>
<path d="M-1.27401 55.264C-5.02501 63.378 -7.75801 72.1 -10.951 80.45C-12.531 84.584 -13.997 88.783 -15.696 92.869C-16.954 95.899 -18.69 98.793 -18.978 102.122C-18.9778 102.21 -18.9448 102.295 -18.8855 102.359C-18.8261 102.424 -18.7447 102.465 -18.6572 102.473C-18.5696 102.481 -18.4822 102.456 -18.4121 102.403C-18.342 102.35 -18.2942 102.272 -18.278 102.186C-17.963 98.54 -15.838 95.314 -14.544 91.959C-12.974 87.888 -11.444 83.804 -9.88201 79.729C-6.82001 71.721 -3.18201 63.676 -0.882011 55.41C-0.867244 55.3594 -0.872112 55.3051 -0.895641 55.258C-0.919171 55.2109 -0.959627 55.1744 -1.00891 55.1558C-1.0582 55.1372 -1.11269 55.1379 -1.16147 55.1578C-1.21025 55.1777 -1.24973 55.2152 -1.27201 55.263L-1.27401 55.264Z" fill="#3F0366"/>
<path d="M-19.208 109.403C-19.8607 111.042 -20.506 112.684 -21.144 114.328C-21.0896 114.339 -21.0358 114.353 -20.983 114.37C-20.8134 114.435 -20.6489 114.512 -20.491 114.602C-19.73 112.602 -18.963 110.602 -18.174 108.615C-14.831 100.181 -11.087 91.905 -7.80801 83.449C-6.25201 79.439 -4.82201 75.384 -3.16601 71.414C-1.65501 67.792 0.0419938 64.083 0.295994 60.114C0.292792 60.0916 0.282129 60.0711 0.265743 60.0555C0.249357 60.04 0.22821 60.0305 0.205734 60.0285C0.183258 60.0266 0.160775 60.0323 0.141941 60.0447C0.123107 60.0571 0.10903 60.0755 0.101994 60.097C-0.99257 64.3756 -2.4526 68.5523 -4.26201 72.581C-5.92401 76.581 -7.35101 80.681 -8.96201 84.71C-12.272 92.981 -15.918 101.118 -19.208 109.403Z" fill="#3F0366"/>
<path d="M-20.061 120.506L-19.937 120.553C-19.8265 120.595 -19.7209 120.649 -19.622 120.714C-16.143 112.039 -12.822 103.296 -9.38301 94.604C-7.41834 89.6366 -5.45834 84.667 -3.50301 79.695C-1.50301 74.595 0.865993 69.444 2.24899 64.136C2.26225 64.102 2.26148 64.0642 2.24686 64.0308C2.23223 63.9974 2.20494 63.9712 2.17099 63.958C2.13704 63.9447 2.09922 63.9455 2.06584 63.9601C2.03246 63.9747 2.00626 64.002 1.993 64.036C-0.493004 68.933 -2.20301 74.319 -4.21201 79.427C-6.16801 84.3976 -8.13467 89.3643 -10.112 94.327C-13.558 103 -17.112 111.661 -20.275 120.449C-20.2023 120.463 -20.1308 120.482 -20.061 120.506Z" fill="#3F0366"/>
<path d="M-12.632 111.321C-12.5495 111.356 -12.4693 111.396 -12.392 111.441C-9.79701 104.441 -7.23001 97.429 -4.55901 90.457C-1.65201 82.865 2.03199 75.473 4.18999 67.613C4.19656 67.5962 4.19975 67.5782 4.19938 67.5602C4.19902 67.5421 4.1951 67.5243 4.18785 67.5078C4.18061 67.4913 4.17019 67.4764 4.15717 67.4639C4.14415 67.4514 4.1288 67.4415 4.11199 67.435C4.09518 67.4284 4.07724 67.4252 4.0592 67.4256C4.04116 67.426 4.02337 67.4299 4.00684 67.4371C3.99031 67.4444 3.97537 67.4548 3.96287 67.4678C3.95037 67.4808 3.94055 67.4962 3.93399 67.513C2.04699 71.195 0.963992 75.289 -0.666008 79.096C-2.24001 82.778 -3.80101 86.459 -5.23401 90.196C-7.90901 97.178 -10.484 104.196 -13.084 111.212C-12.9292 111.228 -12.7773 111.265 -12.632 111.321Z" fill="#3F0366"/>
<path d="M-5.48901 101.053C-4.33601 97.522 -3.14901 94.003 -1.78201 90.565C0.861995 83.912 4.57799 77.638 6.76799 70.814C6.77882 70.7761 6.77498 70.7355 6.75723 70.7002C6.73948 70.665 6.70913 70.6378 6.67221 70.6239C6.63529 70.61 6.5945 70.6106 6.55796 70.6254C6.52142 70.6403 6.4918 70.6683 6.47499 70.704C3.51099 77.222 0.251994 83.679 -2.40501 90.329C-3.80501 93.829 -5.01801 97.412 -6.19501 101.01C-5.95929 100.974 -5.71862 100.989 -5.48901 101.053Z" fill="#3F0366"/>
<path d="M8.56199 75.093C6.76199 79.263 5.29399 83.571 3.58599 87.779C1.86599 92.021 0.0229897 96.192 -1.52301 100.505C-4.61301 109.132 -7.13101 117.952 -10.371 126.528C-10.401 126.608 -10.3981 126.696 -10.363 126.773C-10.328 126.851 -10.2636 126.911 -10.184 126.941C-10.1044 126.971 -10.0162 126.968 -9.93878 126.933C-9.86133 126.898 -9.80098 126.834 -9.77101 126.754C-6.51001 118.185 -3.98601 109.369 -0.89901 100.739C2.17099 92.152 6.08299 83.909 8.89399 75.217C8.9064 75.1742 8.90225 75.1284 8.88237 75.0886C8.86248 75.0487 8.82833 75.0179 8.78671 75.0021C8.74509 74.9863 8.69905 74.9868 8.65777 75.0035C8.6165 75.0201 8.58301 75.0517 8.56399 75.092L8.56199 75.093Z" fill="#3F0366"/>
<path d="M91.704 101.089C88.296 104.289 87.415 110.039 85.533 114.18C82.879 120.019 79.833 125.661 77.278 131.548C74.792 137.268 72.578 143.06 70.287 148.855C67.745 155.279 64.575 161.429 62.233 167.937C62.219 167.988 62.2247 168.043 62.249 168.091C62.2732 168.138 62.3143 168.175 62.3641 168.194C62.414 168.213 62.4692 168.213 62.5188 168.193C62.5685 168.174 62.6092 168.137 62.633 168.089C65.092 162.182 67.879 156.415 70.333 150.506C72.714 144.779 74.822 138.956 77.272 133.252C79.681 127.645 82.484 122.252 85.072 116.729C86.2634 114.298 87.3314 111.809 88.272 109.27C89.256 106.47 90.128 103.736 91.989 101.365C92.129 101.188 91.867 100.931 91.699 101.089H91.704Z" fill="#3F0366"/>
<path d="M93.946 100.67C89.331 110.838 84.894 120.985 81.09 131.481C79.28 136.481 76.822 141.181 74.977 146.166C72.99 151.535 71.323 157.02 69.666 162.496C69.6521 162.539 69.6553 162.586 69.6749 162.626C69.6945 162.667 69.7291 162.699 69.7714 162.715C69.8137 162.731 69.8605 162.73 69.9022 162.712C69.9438 162.694 69.977 162.661 69.995 162.62C71.995 157.26 73.566 151.752 75.553 146.385C77.399 141.403 79.859 136.695 81.671 131.701C83.494 126.678 85.246 121.68 87.412 116.79C89.753 111.5 92.479 106.302 94.239 100.781C94.2463 100.762 94.2497 100.741 94.2491 100.721C94.2485 100.7 94.2439 100.68 94.2355 100.661C94.2271 100.643 94.215 100.626 94.2001 100.612C94.1852 100.598 94.1677 100.587 94.1485 100.579C94.1293 100.572 94.1089 100.569 94.0884 100.569C94.0679 100.57 94.0477 100.575 94.029 100.583C94.0103 100.591 93.9934 100.603 93.9793 100.618C93.9653 100.633 93.9533 100.651 93.946 100.67Z" fill="#3F0366"/>
<path d="M97.418 99.749C91.918 110.918 86.233 122.168 81.806 133.812C77.379 145.456 72.227 156.831 68.199 168.643C68.1834 168.686 68.1854 168.734 68.2047 168.776C68.224 168.818 68.2589 168.851 68.3021 168.867C68.3452 168.884 68.3931 168.882 68.4353 168.864C68.4776 168.845 68.5108 168.811 68.528 168.768C72.959 157.111 78.022 145.708 82.448 134.052C84.6255 128.299 87.0899 122.658 89.832 117.152C92.632 111.546 95.932 105.893 97.662 99.842C97.6743 99.8095 97.6732 99.7734 97.659 99.7417C97.6447 99.71 97.6185 99.6853 97.586 99.673C97.5535 99.6606 97.5174 99.6617 97.4857 99.676C97.4541 99.6902 97.4293 99.7165 97.417 99.749H97.418Z" fill="#3F0366"/>
<path d="M101.597 98.037C100.547 99.2534 99.8239 100.717 99.497 102.291C98.8858 104.428 98.068 106.501 97.055 108.48C94.497 113.347 92.669 118.58 89.998 123.374C89.898 123.552 90.145 123.746 90.261 123.567C92.806 119.667 94.161 115.086 96.313 110.96C97.4402 109.022 98.4151 106.999 99.229 104.91C100.01 102.585 100.345 100.222 101.674 98.11C101.704 98.063 101.643 97.995 101.599 98.04L101.597 98.037Z" fill="#3F0366"/>
<path d="M105.965 96.795C102.265 104.86 99.012 113.115 95.176 121.128C91.34 129.141 88.116 137.335 84.81 145.567C78.187 162.057 69.247 177.537 62.964 194.178C62.9501 194.229 62.9558 194.284 62.98 194.332C63.0042 194.379 63.0453 194.416 63.0952 194.435C63.145 194.454 63.2002 194.454 63.2498 194.434C63.2995 194.415 63.3402 194.378 63.364 194.33C67.01 186.212 70.538 178.051 74.346 170.006C78.154 161.961 82.098 154.046 85.411 145.795C88.647 137.735 91.782 129.681 95.547 121.846C99.433 113.759 103.506 105.458 106.147 96.863C106.15 96.8403 106.146 96.8172 106.134 96.7975C106.123 96.7777 106.105 96.7626 106.083 96.7545C106.062 96.7464 106.038 96.7459 106.017 96.7531C105.995 96.7603 105.976 96.7747 105.964 96.794L105.965 96.795Z" fill="#3F0366"/>
</g>
</svg>
