<svg xmlns="http://www.w3.org/2000/svg" width="101.193" height="85" viewBox="0 0 101.193 85">
  <g id="burger" transform="translate(0 -40.964)">
    <g id="Group_4334" data-name="Group 4334" transform="translate(0 40.964)">
      <g id="Group_4333" data-name="Group 4333" transform="translate(0 0)">
        <path id="Path_1116" data-name="Path 1116" d="M95.132,389.111H6.084a6.079,6.079,0,0,0-6.071,6.071A10.131,10.131,0,0,0,10.132,405.3H91.085A10.131,10.131,0,0,0,101.2,395.182,6.079,6.079,0,0,0,95.132,389.111Z" transform="translate(-0.01 -320.301)" fill="#3f0366"/>
        <path id="Path_1117" data-name="Path 1117" d="M2.127,77.393H99a2.27,2.27,0,0,0,1.433-.591,1.983,1.983,0,0,0,.644-1.287c.656-6.517-1.647-12.892-6.666-18.445C85.428,47.137,68.638,40.964,50.6,40.964c-18.069,0-34.874,6.185-43.848,16.142C1.731,62.672-.56,69.055.116,75.579A2.023,2.023,0,0,0,2.127,77.393ZM77.5,57.746a2.025,2.025,0,0,1,2.862,0l4.048,4.048a2.025,2.025,0,0,1,0,2.862,2.018,2.018,0,0,1-2.862,0L77.5,60.607A2.025,2.025,0,0,1,77.5,57.746Zm-16.191,8.1,4.048-4.048a2.024,2.024,0,1,1,2.862,2.862L64.169,68.7a2.018,2.018,0,0,1-2.862,0A2.025,2.025,0,0,1,61.308,65.841ZM49.165,49.65a2.025,2.025,0,0,1,2.862,0L56.074,53.7a2.025,2.025,0,0,1,0,2.862,2.018,2.018,0,0,1-2.862,0l-4.048-4.048A2.025,2.025,0,0,1,49.165,49.65Zm-16.191,8.1L37.022,53.7a2.024,2.024,0,1,1,2.862,2.862l-4.048,4.048a2.018,2.018,0,0,1-2.862,0A2.025,2.025,0,0,1,32.974,57.746ZM16.784,61.793a2.025,2.025,0,0,1,2.862,0l4.048,4.048a2.025,2.025,0,0,1,0,2.862,2.018,2.018,0,0,1-2.862,0l-4.048-4.048A2.025,2.025,0,0,1,16.784,61.793Z" transform="translate(0 -40.964)" fill="#3f0366"/>
        <path id="Path_1118" data-name="Path 1118" d="M22.516,245.757a2.024,2.024,0,0,0,0,4.048h31.9l23.861,11.928a2.017,2.017,0,0,0,2.335-.38L92.163,249.8h19.4a2.024,2.024,0,0,0,0-4.048Z" transform="translate(-16.442 -205.28)" fill="#eba40c"/>
        <path id="Path_1119" data-name="Path 1119" d="M8.1,302.906h85a8.107,8.107,0,0,0,7.982-9.463,8.417,8.417,0,0,0-8.435-6.727H80.258L66.4,300.575a4.044,4.044,0,0,1-4.671.757L32.492,286.716H8.547a8.417,8.417,0,0,0-8.435,6.727A8.11,8.11,0,0,0,8.1,302.906Z" transform="translate(0 -238.144)" fill="#3f0366"/>
      </g>
    </g>
  </g>
</svg>
