<svg xmlns="http://www.w3.org/2000/svg" width="82.276" height="85" viewBox="0 0 82.276 85">
  <g id="pizza" transform="translate(-6.122)">
    <g id="Group_4344" data-name="Group 4344" transform="translate(53.103)">
      <g id="Group_4343" data-name="Group 4343">
        <path id="Path_1132" data-name="Path 1132" d="M217.288,0V5.909A31.646,31.646,0,0,1,246.8,29.457l5.785-1.37A37.609,37.609,0,0,0,217.288,0Z" transform="translate(-217.288)" fill="#eba40c"/>
      </g>
    </g>
    <g id="Group_4346" data-name="Group 4346" transform="translate(6.122 7.76)">
      <g id="Group_4345" data-name="Group 4345" transform="translate(0)">
        <path id="Path_1133" data-name="Path 1133" d="M83.362,72.777a38.613,38.613,0,0,0-.909-7.639l-5.945,1.5A32.305,32.305,0,1,1,44.026,40.967V34.88a38.623,38.623,0,1,0,39.336,37.9Z" transform="translate(-6.122 -34.88)" fill="#3f0366"/>
      </g>
    </g>
    <g id="Group_4348" data-name="Group 4348" transform="translate(32.065 31.183)">
      <g id="Group_4347" data-name="Group 4347">
        <circle id="Ellipse_22" data-name="Ellipse 22" cx="2.67" cy="2.67" r="2.67" fill="#3f0366"/>
      </g>
    </g>
    <g id="Group_4350" data-name="Group 4350" transform="translate(37.761 57.739)">
      <g id="Group_4349" data-name="Group 4349">
        <circle id="Ellipse_23" data-name="Ellipse 23" cx="2.688" cy="2.688" r="2.688" fill="#3f0366"/>
      </g>
    </g>
    <g id="Group_4352" data-name="Group 4352" transform="translate(15.619 16.909)">
      <g id="Group_4351" data-name="Group 4351">
        <path id="Path_1134" data-name="Path 1134" d="M106.564,98.444l-8.721,2.1a4.45,4.45,0,1,1-8.419,2.029L78.1,105.3V76a29.407,29.407,0,1,0,28.46,22.444ZM67.923,86.715a6.23,6.23,0,1,1-6.23,6.23A6.23,6.23,0,0,1,67.923,86.715Zm-4.467,23.441a3.15,3.15,0,1,1,3.15-3.15A3.15,3.15,0,0,1,63.456,110.156Zm10.2,15.627a6.247,6.247,0,0,1-.036-12.495h.018a6.247,6.247,0,0,1,.018,12.495Zm17.069-3.115a3.15,3.15,0,1,1,3.15-3.15A3.15,3.15,0,0,1,90.724,122.668Z" transform="translate(-48.807 -76)" fill="#3f0366"/>
      </g>
    </g>
    <g id="Group_4354" data-name="Group 4354" transform="translate(51.715 8.508)">
      <g id="Group_4353" data-name="Group 4353">
        <path id="Path_1135" data-name="Path 1135" d="M211.368,38.24l-.32,29.3,11.338-2.6a4.45,4.45,0,0,1,8.437-1.958l8.739-1.993A29.3,29.3,0,0,0,211.368,38.24Zm6.212,14.666v.036a3.1,3.1,0,1,0,0-.036Z" transform="translate(-211.048 -38.24)" fill="#eba40c"/>
      </g>
    </g>
  </g>
</svg>
