<svg xmlns="http://www.w3.org/2000/svg" width="75.102" height="100" viewBox="0 0 75.102 100">
  <g id="shopping-bag" transform="translate(-63.74)">
    <g id="Group_4309" data-name="Group 4309" transform="translate(63.739 25.727)">
      <path id="Path_1086" data-name="Path 1086" d="M138.827,202.783l-6.615-68.414a2.932,2.932,0,0,0-2.916-2.648H73.284a2.932,2.932,0,0,0-2.916,2.648l-6.615,68.414a2.929,2.929,0,0,0,2.916,3.211h69.242a2.929,2.929,0,0,0,2.916-3.211Zm-27.289-25.664a8.666,8.666,0,0,1-7.318,8.621v3.248a2.93,2.93,0,1,1-5.859,0v-3.234a8.686,8.686,0,0,1-7.295-8.508,2.931,2.931,0,0,1,2.912-2.947H94a2.931,2.931,0,0,1,2.93,2.912A2.815,2.815,0,0,0,99.736,180h.018c3.211-.02,4.086.188,5.117-.855a2.844,2.844,0,0,0-.33-4.266l-9.986-7.393a8.668,8.668,0,0,1,3.807-15.531v-3.23a2.93,2.93,0,0,1,5.859,0v3.232a8.684,8.684,0,0,1,7.3,8.561,2.93,2.93,0,0,1-5.859,0,2.813,2.813,0,0,0-2.809-2.811H99.71a2.814,2.814,0,0,0-1.672,5.07l9.988,7.391a8.709,8.709,0,0,1,3.512,6.91Z" transform="translate(-63.739 -131.72)" fill="#3f0366"/>
    </g>
    <g id="Group_4310" data-name="Group 4310" transform="translate(85.083 0)">
      <path id="Path_1087" data-name="Path 1087" d="M205.434,15.336v4.531h-5.859V15.336A9.488,9.488,0,0,0,190.1,5.859h-1.742a9.488,9.488,0,0,0-9.477,9.477v4.531H173.02V15.336A15.352,15.352,0,0,1,188.356,0H190.1a15.352,15.352,0,0,1,15.336,15.336Z" transform="translate(-173.02 0)" fill="#eba40c"/>
    </g>
  </g>
</svg>
