<svg xmlns="http://www.w3.org/2000/svg" width="106.667" height="100" viewBox="0 0 106.667 100">
  <g id="group" transform="translate(0 -16)">
    <g id="Group_4312" data-name="Group 4312" transform="translate(37.973 60.087)">
      <g id="Group_4311" data-name="Group 4311">
        <path id="Path_1088" data-name="Path 1088" d="M196.36,226a15.36,15.36,0,1,0,15.36,15.36A15.378,15.378,0,0,0,196.36,226Z" transform="translate(-181 -226)" fill="#eba40c"/>
      </g>
    </g>
    <g id="Group_4314" data-name="Group 4314" transform="translate(25.685 90.393)">
      <g id="Group_4313" data-name="Group 4313">
        <path id="Path_1089" data-name="Path 1089" d="M164.563,370.968a21.239,21.239,0,0,1-31.83,0A27.591,27.591,0,0,0,121,393.5a3.07,3.07,0,0,0,3.072,3.072h49.152A3.07,3.07,0,0,0,176.3,393.5,27.591,27.591,0,0,0,164.563,370.968Z" transform="translate(-121 -370.968)" fill="#3f0366"/>
      </g>
    </g>
    <g id="Group_4316" data-name="Group 4316" transform="translate(12.493 16)">
      <g id="Group_4315" data-name="Group 4315">
        <path id="Path_1090" data-name="Path 1090" d="M76.36,16A15.36,15.36,0,1,0,91.72,31.36,15.378,15.378,0,0,0,76.36,16Z" transform="translate(-61 -16)" fill="#3f0366"/>
      </g>
    </g>
    <g id="Group_4318" data-name="Group 4318" transform="translate(0 46.382)">
      <g id="Group_4317" data-name="Group 4317">
        <path id="Path_1091" data-name="Path 1091" d="M43.768,160.968a21.239,21.239,0,0,1-31.83,0A27.777,27.777,0,0,0,0,183.5a3.07,3.07,0,0,0,3.072,3.072H31.236A21.415,21.415,0,0,1,50.867,168.3,28.059,28.059,0,0,0,43.768,160.968Z" transform="translate(0 -160.968)" fill="#3f0366"/>
      </g>
    </g>
    <g id="Group_4320" data-name="Group 4320" transform="translate(63.454 16)">
      <g id="Group_4319" data-name="Group 4319">
        <path id="Path_1092" data-name="Path 1092" d="M316.36,16a15.36,15.36,0,1,0,15.36,15.36A15.378,15.378,0,0,0,316.36,16Z" transform="translate(-301 -16)" fill="#3f0366"/>
      </g>
    </g>
    <g id="Group_4322" data-name="Group 4322" transform="translate(55.799 46.382)">
      <g id="Group_4321" data-name="Group 4321">
        <path id="Path_1093" data-name="Path 1093" d="M302.556,160.968a21.239,21.239,0,0,1-31.83,0,28.063,28.063,0,0,0-7.1,7.333,21.415,21.415,0,0,1,19.632,18.274h28.164a3.07,3.07,0,0,0,3.072-3.072A27.777,27.777,0,0,0,302.556,160.968Z" transform="translate(-263.626 -160.968)" fill="#3f0366"/>
      </g>
    </g>
  </g>
</svg>
