<svg xmlns="http://www.w3.org/2000/svg" width="100.447" height="100" viewBox="0 0 100.447 100">
  <g id="complete" transform="translate(0 0.001)">
    <path id="Path_1076" data-name="Path 1076" d="M260.773,44.4a22.2,22.2,0,1,0-22.2-22.2A22.224,22.224,0,0,0,260.773,44.4Zm-7.506-24.947L258,24.185,268.28,13.906a2.974,2.974,0,0,1,4.206,4.2L260.1,30.492a2.97,2.97,0,0,1-4.206,0l-6.836-6.836a2.973,2.973,0,0,1,4.206-4.2Zm0,0" transform="translate(-190.997)" fill="#eba40c"/>
    <path id="Path_1077" data-name="Path 1077" d="M48.858,344.71a1.982,1.982,0,0,0-2.8,0l-1.934,1.936L69.7,372.224l1.935-1.934a1.981,1.981,0,0,0,0-2.8L48.858,344.71Zm0,0" transform="translate(-35.59 -276.15)" fill="#3f0366"/>
    <path id="Path_1078" data-name="Path 1078" d="M189.841,257.784a4.858,4.858,0,0,0-6.873,0l-7.133,7.132a4.166,4.166,0,0,1-2.946,1.221h-23.5a4.175,4.175,0,0,1,0-8.349h10.44a4.425,4.425,0,1,0,0-8.85H138.292a18.173,18.173,0,0,0-13.984,6.567l-9.929,12.858,15.375,15.376,1.752-2.843a6.969,6.969,0,0,1,5.931-3.307H174.7a5.331,5.331,0,0,0,3.772-1.564c6.038-6.038,3.5-3.5,11.37-11.367a4.861,4.861,0,0,0,0-6.872Zm0,0" transform="translate(-90.816 -199.717)" fill="#3f0366"/>
    <path id="Path_1079" data-name="Path 1079" d="M0,383.216v20.973H29.625l-25.3-25.3Zm0,0" transform="translate(0 -304.19)" fill="#3f0366"/>
  </g>
</svg>
