<svg id="graphic" xmlns="http://www.w3.org/2000/svg" width="100" height="100" viewBox="0 0 100 100">
  <path id="Path_1080" data-name="Path 1080" d="M97.07,94.141H5.859V2.93A2.93,2.93,0,0,0,0,2.93V97.07A2.928,2.928,0,0,0,2.93,100H97.07a2.93,2.93,0,0,0,0-5.859Z" fill="#3f0366"/>
  <path id="Path_1081" data-name="Path 1081" d="M62.841,353.914H74.392a2.839,2.839,0,0,0,2.841-2.841V333.841A2.839,2.839,0,0,0,74.392,331H62.841A2.839,2.839,0,0,0,60,333.841v17.233A2.839,2.839,0,0,0,62.841,353.914Z" transform="translate(-48.638 -265.276)" fill="#3f0366"/>
  <path id="Path_1082" data-name="Path 1082" d="M183.841,271A2.839,2.839,0,0,0,181,273.841v28.6a2.839,2.839,0,0,0,2.841,2.841H195.2a2.839,2.839,0,0,0,2.841-2.841v-28.6A2.839,2.839,0,0,0,195.2,271Z" transform="translate(-145.419 -216.638)" fill="#3f0366"/>
  <path id="Path_1083" data-name="Path 1083" d="M303.841,211A2.839,2.839,0,0,0,301,213.841V253.8a2.839,2.839,0,0,0,2.841,2.841H315.2a2.839,2.839,0,0,0,2.841-2.841V213.841A2.839,2.839,0,0,0,315.2,211Z" transform="translate(-241.83 -168.001)" fill="#3f0366"/>
  <path id="Path_1084" data-name="Path 1084" d="M435.392,151H423.841A2.839,2.839,0,0,0,421,153.841v51.32A2.839,2.839,0,0,0,423.841,208h11.552a2.839,2.839,0,0,0,2.841-2.841v-51.32A2.839,2.839,0,0,0,435.392,151Z" transform="translate(-338.233 -119.363)" fill="#3f0366"/>
  <path id="Path_1085" data-name="Path 1085" d="M60.347,74.954a3.01,3.01,0,0,0,3.994,1.157L133.01,40.6l-1.732,3.336a2.793,2.793,0,0,0,1.319,3.811,3,3,0,0,0,3.957-1.27l5.9-11.362a2.744,2.744,0,0,0-.13-2.763A2.977,2.977,0,0,0,139.814,31H125.069a2.843,2.843,0,1,0,0,5.681h3.047L61.548,71.106a2.79,2.79,0,0,0-1.2,3.847Z" transform="translate(-48.633 -25.13)" fill="#eba40c"/>
</svg>
