<svg xmlns="http://www.w3.org/2000/svg" width="100" height="100" viewBox="0 0 100 100">
  <g id="cutlery" transform="translate(0 -0.002)">
    <path id="Path_1031" data-name="Path 1031" d="M278.318,55.319l12.479,11.3,4.557-5.036a15.565,15.565,0,0,0,14.771-4.113c2.875-2.875,5.943-8.223,7.633-13.307,2.282-6.864,1.868-12.111-1.2-15.174s-8.311-3.478-15.174-1.2c-5.084,1.69-10.432,4.758-13.307,7.633A15.568,15.568,0,0,0,283.97,50.2Z" transform="translate(-224.425 -21.141)" fill="#eba40c"/>
    <path id="Path_1032" data-name="Path 1032" d="M33.2,272.864,4,299.312a11.857,11.857,0,1,0,16.737,16.739l25.78-28.483Z" transform="translate(0 -220.046)" fill="#eba40c"/>
    <path id="Path_1033" data-name="Path 1033" d="M99.995,87.9a11.779,11.779,0,0,0-3.951-8.42L40.239,28.95A14.655,14.655,0,0,0,36.49,14.67L22.68.86A2.93,2.93,0,1,0,18.537,5l7.872,7.872-4.7,4.7L13.841,9.7A2.93,2.93,0,0,0,9.7,13.841l7.872,7.872-4.7,4.7L5,18.537A2.93,2.93,0,0,0,.859,22.68L14.669,36.491a14.638,14.638,0,0,0,14.28,3.749l50.526,55.8A11.737,11.737,0,0,0,99.995,87.9Z" transform="translate(0 0)" fill="#3f0366"/>
  </g>
</svg>
