<svg id="analytics" xmlns="http://www.w3.org/2000/svg" width="100" height="100" viewBox="0 0 100 100">
  <g id="Group_4264" data-name="Group 4264">
    <g id="Group_4263" data-name="Group 4263">
      <path id="Path_987" data-name="Path 987" d="M84.99,5.838A8.784,8.784,0,0,0,76.2,14.595a8.628,8.628,0,0,0,.881,3.752l-4.2,4.183A38.049,38.049,0,1,0,58,70.242l4.386,5.214c3.989-3.719,9.633-9.34,13.37-13.316l-5.235-4.367A37.154,37.154,0,0,0,75,28.673l6.224-6.2A8.753,8.753,0,1,0,84.99,5.838ZM38.1,70.055A32.109,32.109,0,1,1,68.372,27.018L59.45,35.905a8.523,8.523,0,0,0-7.534,0l-5.907-5.883a8.627,8.627,0,0,0,.881-3.752,8.792,8.792,0,0,0-17.584,0,8.628,8.628,0,0,0,.881,3.752l-5.907,5.883a8.731,8.731,0,1,0,5.025,7.879,8.628,8.628,0,0,0-.881-3.752l5.907-5.883a8.523,8.523,0,0,0,7.534,0l5.907,5.883a8.627,8.627,0,0,0-.881,3.752,8.792,8.792,0,0,0,17.584,0,8.628,8.628,0,0,0-.881-3.752l6.418-6.392A31.874,31.874,0,0,1,38.1,70.055Z" fill="#3f0366"/>
    </g>
  </g>
  <g id="Group_4266" data-name="Group 4266" transform="translate(66.262 66.263)">
    <g id="Group_4265" data-name="Group 4265">
      <path id="Path_988" data-name="Path 988" d="M372.3,359.622a11.646,11.646,0,0,0-4.145-7.948l-15.5-13.056c-3.934,4.222-9.825,10.112-14.044,14.043l13.06,15.524a12.094,12.094,0,0,0,1.442,1.442,11.714,11.714,0,0,0,19.19-10.005Z" transform="translate(-338.61 -338.618)" fill="#eba40c"/>
    </g>
  </g>
</svg>
