<svg xmlns="http://www.w3.org/2000/svg" width="75.632" height="100" viewBox="0 0 75.632 100">
  <g id="courier" transform="translate(0.001)">
    <path id="Path_1034" data-name="Path 1034" d="M210.216,0h-15.8a8.789,8.789,0,0,0-8.777,8.777v5.264h-4.486a2.926,2.926,0,1,0,0,5.851H185.7a16.676,16.676,0,0,0,33.288-1.463V8.777A8.789,8.789,0,0,0,210.216,0Zm0,0" transform="translate(-143.362)" fill="#3f0366" fill-rule="evenodd"/>
    <path id="Path_1035" data-name="Path 1035" d="M52.1,211.417a16.817,16.817,0,0,0-5.581,4.075l-15.75,16.1H8.788a8.777,8.777,0,1,0,0,17.554H33.4a10.053,10.053,0,0,0,7.387-2.7l2.619-2.633v22.1a2.992,2.992,0,0,0,2.347,2.927H72.705a2.928,2.928,0,0,0,2.926-2.926v-39.3A16.713,16.713,0,0,0,52.1,211.417Zm0,0" transform="translate(0 -168.849)" fill="#3f0366" fill-rule="evenodd"/>
    <path id="Path_1036" data-name="Path 1036" d="M29.152,180.716H50.217a2.925,2.925,0,0,0,2.925-2.926V156.922A2.925,2.925,0,0,0,50.217,154H42.61v5.025a2.926,2.926,0,1,1-5.851,0V154H29.152a2.926,2.926,0,0,0-2.926,2.926V177.79a2.926,2.926,0,0,0,2.926,2.926Zm0,0" transform="translate(-21.112 -123.903)" fill="#eba40c" fill-rule="evenodd"/>
  </g>
</svg>
