<svg id="photo-camera" xmlns="http://www.w3.org/2000/svg" width="100" height="100" viewBox="0 0 100 100">
  <circle id="Ellipse_19" data-name="Ellipse 19" cx="16.5" cy="16.5" r="16.5" transform="translate(33.33 49.491)" fill="#eba40c"/>
  <path id="Path_1002" data-name="Path 1002" d="M115.285,162a33.954,33.954,0,1,0,34.285,33.953A34.159,34.159,0,0,0,115.285,162Zm0,56.264a22.313,22.313,0,1,1,22.53-22.312A22.447,22.447,0,0,1,115.285,218.264Z" transform="translate(-65.285 -129.905)" fill="#3f0366"/>
  <path id="Path_1003" data-name="Path 1003" d="M155.555,11.112a5.82,5.82,0,0,0,5.647,4.409h25.834a5.82,5.82,0,0,0,5.647-4.409l.97-3.88A5.82,5.82,0,0,0,188.006,0H160.232a5.82,5.82,0,0,0-5.647,7.232Z" transform="translate(-124.119)" fill="#eba40c"/>
  <path id="Path_1004" data-name="Path 1004" d="M380.969,162h-18.3a39.738,39.738,0,0,1,5.308,64.025h12.994a10.683,10.683,0,0,0,10.671-10.671V172.671A10.683,10.683,0,0,0,380.969,162Z" transform="translate(-291.64 -129.905)" fill="#3f0366"/>
  <path id="Path_1005" data-name="Path 1005" d="M77.641,105.88a3.88,3.88,0,0,0-3.88-3.88H69.88A3.88,3.88,0,0,0,66,105.88v1.94H77.641Z" transform="translate(-53.195 -82.07)" fill="#3f0366"/>
  <path id="Path_1006" data-name="Path 1006" d="M203.611,114.268a39.613,39.613,0,0,1,12.611,2.05V110H191v6.319A39.613,39.613,0,0,1,203.611,114.268Z" transform="translate(-153.611 -88.506)" fill="#3f0366"/>
  <path id="Path_1007" data-name="Path 1007" d="M9.895,195.953A39.786,39.786,0,0,1,28.973,162h-18.3A10.683,10.683,0,0,0,0,172.671v42.683a10.683,10.683,0,0,0,10.671,10.671H23.665a39.7,39.7,0,0,1-13.77-30.072ZM8.925,171.7a2.91,2.91,0,1,1,2.91,2.91A2.91,2.91,0,0,1,8.925,171.7Z" transform="translate(0 -129.905)" fill="#3f0366"/>
</svg>
