<svg id="System_Update" xmlns="http://www.w3.org/2000/svg" width="100" height="100" viewBox="0 0 100 100">
  <path id="Path_1073" data-name="Path 1073" d="M157.826,130.7l-3.957-2.282a22.852,22.852,0,0,0,0-9.665l3.957-2.282a2.96,2.96,0,0,0,1.085-4.046l-5.93-10.261a2.966,2.966,0,0,0-4.05-1.084l-3.921,2.262a26.682,26.682,0,0,0-8.414-4.8V93.962A2.964,2.964,0,0,0,133.632,91h-11.86a2.964,2.964,0,0,0-2.965,2.962v4.575a26.683,26.683,0,0,0-8.414,4.8l-3.921-2.262a2.966,2.966,0,0,0-4.05,1.084l-5.93,10.261a2.96,2.96,0,0,0,1.085,4.046l3.957,2.282a22.848,22.848,0,0,0,0,9.665L97.578,130.7a2.96,2.96,0,0,0-1.085,4.046L102.422,145a2.966,2.966,0,0,0,4.05,1.084l3.921-2.262a26.682,26.682,0,0,0,8.414,4.8V153.2a2.964,2.964,0,0,0,2.965,2.962h11.86A2.964,2.964,0,0,0,136.6,153.2v-4.575a26.683,26.683,0,0,0,8.414-4.8l3.921,2.262a2.966,2.966,0,0,0,4.05-1.084l5.93-10.261a2.96,2.96,0,0,0-1.085-4.046ZM127.7,132.468a8.886,8.886,0,1,1,8.895-8.886A8.9,8.9,0,0,1,127.7,132.468Z" transform="translate(-77.702 -73.582)" fill="#3f0366"/>
  <path id="Path_1074" data-name="Path 1074" d="M90.263,19.67,86.111,7.489A2.951,2.951,0,0,0,82.4,5.673,2.857,2.857,0,0,0,80.54,9.3l.353,1.035A52.758,52.758,0,0,0,72.431,5.2,51.49,51.49,0,0,0,50.108,0,50.312,50.312,0,0,0,14.733,14.407,48.105,48.105,0,0,0,0,49,47.7,47.7,0,0,0,3.839,67.307,2.938,2.938,0,0,0,6.56,69.1a2.987,2.987,0,0,0,1.1-.212,2.85,2.85,0,0,0,1.616-3.74A42.1,42.1,0,0,1,5.872,49c0-23.852,19.844-43.258,44.236-43.258a46.279,46.279,0,0,1,25.5,7.964,2.944,2.944,0,0,0-3.372,1.9,2.858,2.858,0,0,0,1.857,3.632L86.55,23.3a2.983,2.983,0,0,0,3-.694,2.826,2.826,0,0,0,.709-2.938Z" fill="#eba40c"/>
  <path id="Path_1075" data-name="Path 1075" d="M136.656,152.788a2.96,2.96,0,0,0-3.825-1.58,2.85,2.85,0,0,0-1.616,3.74,42.1,42.1,0,0,1,3.407,16.147c0,23.852-19.844,43.258-44.236,43.258a46.279,46.279,0,0,1-25.5-7.964,2.944,2.944,0,0,0,3.372-1.9,2.858,2.858,0,0,0-1.857-3.632l-12.457-4.06a2.983,2.983,0,0,0-3,.694,2.826,2.826,0,0,0-.709,2.938l4.152,12.181a2.932,2.932,0,0,0,2.785,1.964,3,3,0,0,0,.929-.148,2.857,2.857,0,0,0,1.857-3.632l-.353-1.035a52.76,52.76,0,0,0,8.463,5.139,51.5,51.5,0,0,0,22.323,5.2,50.312,50.312,0,0,0,35.376-14.407,47.186,47.186,0,0,0,10.894-52.9Z" transform="translate(-40.494 -120.095)" fill="#eba40c"/>
</svg>
