<svg id="fireworks" xmlns="http://www.w3.org/2000/svg" width="100" height="100" viewBox="0 0 100 100">
  <path id="Path_1050" data-name="Path 1050" d="M243.96,202.667a2.96,2.96,0,0,0-2.96,2.96v55.121a2.96,2.96,0,0,0,5.92,0V205.627A2.96,2.96,0,0,0,243.96,202.667Z" transform="translate(-193.96 -163.708)" fill="#3f0366"/>
  <path id="Path_1051" data-name="Path 1051" d="M106.326,302.119a2.963,2.963,0,0,0-.012,4.184,42.731,42.731,0,0,1,6.174,8.781l.118.216a52.24,52.24,0,0,1,4.994,13.418,51.385,51.385,0,0,1,1.227,11.164,2.96,2.96,0,0,0,5.92,0c0-23.251-13.661-37.179-14.242-37.761a2.957,2.957,0,0,0-4.178,0Z" transform="translate(-84.909 -242.842)" fill="#3f0366"/>
  <path id="Path_1052" data-name="Path 1052" d="M327.209,302.117a2.96,2.96,0,0,0-4.186,0c-.582.582-14.242,14.51-14.242,37.761a2.96,2.96,0,0,0,5.92,0,51.4,51.4,0,0,1,1.227-11.164,52.237,52.237,0,0,1,4.994-13.418l.118-.216a42.757,42.757,0,0,1,6.169-8.777A2.96,2.96,0,0,0,327.209,302.117Z" transform="translate(-248.619 -242.838)" fill="#3f0366"/>
  <path id="Path_1053" data-name="Path 1053" d="M172.41,274.085a2.96,2.96,0,1,0-2.96,2.96A3.012,3.012,0,0,0,172.41,274.085Z" transform="translate(-133.991 -218.205)" fill="#3f0366"/>
  <path id="Path_1054" data-name="Path 1054" d="M318.45,271.125a2.96,2.96,0,1,0,2.96,2.96A2.993,2.993,0,0,0,318.45,271.125Z" transform="translate(-253.908 -218.205)" fill="#3f0366"/>
  <path id="Path_1055" data-name="Path 1055" d="M120.49,204.085a2.96,2.96,0,1,0,2.96-2.96A3.012,3.012,0,0,0,120.49,204.085Z" transform="translate(-96.97 -161.868)" fill="#3f0366"/>
  <path id="Path_1056" data-name="Path 1056" d="M364.45,207.045a2.96,2.96,0,1,0-2.96-2.96A2.993,2.993,0,0,0,364.45,207.045Z" transform="translate(-290.93 -161.868)" fill="#3f0366"/>
  <path id="Path_1057" data-name="Path 1057" d="M93.325,411a2.96,2.96,0,1,0,2.96,2.96A2.993,2.993,0,0,0,93.325,411Z" transform="translate(-72.725 -330.931)" fill="#3f0366"/>
  <path id="Path_1058" data-name="Path 1058" d="M394.575,411a2.96,2.96,0,1,0,2.96,2.96A2.993,2.993,0,0,0,394.575,411Z" transform="translate(-315.175 -330.931)" fill="#3f0366"/>
  <path id="Path_1059" data-name="Path 1059" d="M33.075,361.5a2.96,2.96,0,1,0,2.96,2.96A2.993,2.993,0,0,0,33.075,361.5Z" transform="translate(-24.17 -290.94)" fill="#3f0366"/>
  <path id="Path_1060" data-name="Path 1060" d="M454.825,361.5a2.96,2.96,0,1,0,2.96,2.96A2.993,2.993,0,0,0,454.825,361.5Z" transform="translate(-363.729 -290.94)" fill="#3f0366"/>
  <path id="Path_1061" data-name="Path 1061" d="M11.593,223.442H10.237v-1.357a2.96,2.96,0,1,0-5.92,0v1.357H2.96a2.96,2.96,0,0,0,0,5.92H4.317v1.357a2.96,2.96,0,0,0,5.92,0v-1.357h1.357a2.96,2.96,0,0,0,0-5.92Z" transform="translate(0 -176.402)" fill="#3f0366"/>
  <path id="Path_1062" data-name="Path 1062" d="M449.843,223.442h-1.357v-1.357a2.96,2.96,0,1,0-5.92,0v1.357H441.21a2.96,2.96,0,0,0,0,5.92h1.357v1.357a2.96,2.96,0,0,0,5.92,0v-1.357h1.357a2.96,2.96,0,0,0,0-5.92Z" transform="translate(-352.803 -176.402)" fill="#3f0366"/>
  <path id="Path_1063" data-name="Path 1063" d="M72.817,110.218a2.96,2.96,0,0,0,5.92,0v-1.357h1.357a2.96,2.96,0,0,0,0-5.92H78.737v-1.357a2.96,2.96,0,0,0-5.92,0v1.357H71.46a2.96,2.96,0,0,0,0,5.92h1.357Z" transform="translate(-54.983 -79.396)" fill="#3f0366"/>
  <path id="Path_1064" data-name="Path 1064" d="M384.3,105.9a2.96,2.96,0,0,0-2.96-2.96h-1.357v-1.357a2.96,2.96,0,1,0-5.92,0v1.357H372.71a2.96,2.96,0,1,0,0,5.92h1.357v1.357a2.96,2.96,0,1,0,5.92,0v-1.357h1.357A2.96,2.96,0,0,0,384.3,105.9Z" transform="translate(-297.82 -79.396)" fill="#3f0366"/>
  <path id="Path_1065" data-name="Path 1065" d="M198.364,29.558l-.478-8.169,5.188-6.328a2.96,2.96,0,0,0-1.54-4.74l-7.916-2.07L189.2,1.363a2.96,2.96,0,0,0-4.984,0L179.8,8.252l-7.916,2.07a2.96,2.96,0,0,0-1.54,4.74l5.188,6.328-.478,8.169a2.96,2.96,0,0,0,4.032,2.93l7.621-2.979,7.621,2.978a2.96,2.96,0,0,0,4.032-2.93Z" transform="translate(-136.71)" fill="#eba40c"/>
</svg>
