<svg xmlns="http://www.w3.org/2000/svg" width="87.891" height="100" viewBox="0 0 87.891 100">
  <g id="menu_1_" data-name="menu (1)" transform="translate(-31)">
    <g id="Group_4297" data-name="Group 4297" transform="translate(64.098)">
      <g id="Group_4296" data-name="Group 4296">
        <path id="Path_1008" data-name="Path 1008" d="M252.323,0H200.46l23.885,12.031a3.151,3.151,0,0,1,1.611,2.618V29.3H240.6a2.93,2.93,0,0,1,0,5.859H225.956v5.859H240.6a2.93,2.93,0,0,1,0,5.859H225.956v5.859H240.6a2.93,2.93,0,0,1,0,5.859H225.956v5.859H240.6a2.93,2.93,0,0,1,0,5.859H225.956V82.031h26.367a2.93,2.93,0,0,0,2.93-2.93V2.93A2.93,2.93,0,0,0,252.323,0Z" transform="translate(-200.46)" fill="#eba40c"/>
      </g>
    </g>
    <g id="Group_4299" data-name="Group 4299" transform="translate(60.297 4.65)">
      <g id="Group_4298" data-name="Group 4298">
        <path id="Path_1009" data-name="Path 1009" d="M181,23.807v7.069h14.034Z" transform="translate(-181 -23.807)" fill="#3f0366"/>
      </g>
    </g>
    <g id="Group_4301" data-name="Group 4301" transform="translate(31 17.578)">
      <g id="Group_4300" data-name="Group 4300">
        <path id="Path_1010" data-name="Path 1010" d="M33.93,90A2.93,2.93,0,0,0,31,92.93v76.563a2.93,2.93,0,0,0,2.93,2.93H82.27a1.465,1.465,0,0,0,1.465-1.465V90Zm38.086,64.453h-29.3a2.93,2.93,0,0,1,0-5.859h29.3a2.93,2.93,0,0,1,0,5.859Zm0-11.719h-29.3a2.93,2.93,0,0,1,0-5.859h29.3a2.93,2.93,0,0,1,0,5.859Zm0-17.578h-29.3a2.93,2.93,0,0,1,0-5.859h2.93a11.706,11.706,0,0,1,8.789-11.3v-3.346a2.93,2.93,0,0,1,5.859,0v3.346a11.706,11.706,0,0,1,8.789,11.3h2.93a2.93,2.93,0,0,1,0,5.859Z" transform="translate(-31 -90)" fill="#3f0366"/>
      </g>
    </g>
    <g id="Group_4303" data-name="Group 4303" transform="translate(51.508 41.016)">
      <g id="Group_4302" data-name="Group 4302">
        <path id="Path_1011" data-name="Path 1011" d="M141.859,210A5.867,5.867,0,0,0,136,215.859h11.719A5.867,5.867,0,0,0,141.859,210Z" transform="translate(-136 -210)" fill="#3f0366"/>
      </g>
    </g>
  </g>
</svg>
