<svg xmlns="http://www.w3.org/2000/svg" width="100" height="100" viewBox="0 0 100 100">
  <g id="money-bag" transform="translate(0)">
    <path id="Path_1037" data-name="Path 1037" d="M37.516,220.906c8.468,0,15.025-.81,20.284-2.467a9.839,9.839,0,0,1,2.852-9.017,10,10,0,0,1,0-14.355,10,10,0,0,1,0-14.355,9.98,9.98,0,0,1,1.1-15.259,40.72,40.72,0,0,0-5.446-4.2,5.625,5.625,0,0,0,1.312-3.512A5.742,5.742,0,0,0,51.872,152H23.161a5.742,5.742,0,0,0-5.742,5.742,5.626,5.626,0,0,0,1.306,3.5C7.578,168.426,0,181.429,0,195.066c0,23.162,21.492,25.84,37.516,25.84Zm-.031-27.87a8.591,8.591,0,0,1-2.84-16.707V172.1a2.871,2.871,0,0,1,5.742,0v4.251a8.6,8.6,0,0,1,5.712,8.074,2.871,2.871,0,0,1-5.742,0,2.871,2.871,0,1,0-2.871,2.871,8.593,8.593,0,0,1,2.9,16.688v2.568a2.871,2.871,0,0,1-5.742,0V204a8.6,8.6,0,0,1-5.773-8.094,2.871,2.871,0,1,1,5.742,0,2.871,2.871,0,1,0,2.871-2.871Zm0,0" transform="translate(0 -120.906)" fill="#3f0366"/>
    <path id="Path_1038" data-name="Path 1038" d="M361.338,467H335.307a4.307,4.307,0,0,0,0,8.613h26.031a4.307,4.307,0,0,0,0-8.613Zm0,0" transform="translate(-265.644 -375.613)" fill="#eba40c"/>
    <path id="Path_1039" data-name="Path 1039" d="M361.338,392H335.307a4.307,4.307,0,0,0,0,8.613h26.031a4.307,4.307,0,0,0,0-8.613Zm0,0" transform="translate(-265.644 -314.969)" fill="#eba40c"/>
    <path id="Path_1040" data-name="Path 1040" d="M361.338,317H335.307a4.307,4.307,0,0,0,0,8.613h26.031a4.307,4.307,0,0,0,0-8.613Zm0,0" transform="translate(-265.644 -254.967)" fill="#eba40c"/>
    <path id="Path_1041" data-name="Path 1041" d="M361.338,242H335.307a4.307,4.307,0,0,0,0,8.613h26.031a4.307,4.307,0,0,0,0-8.613Zm0,0" transform="translate(-265.644 -194.643)" fill="#eba40c"/>
    <path id="Path_1042" data-name="Path 1042" d="M119.182,5.742a8.589,8.589,0,0,0-16.207,0h-9.1a2.868,2.868,0,0,0-2.722,3.78l4.482,13.83h30.934l4.482-13.83a2.868,2.868,0,0,0-2.722-3.78Zm0,0" transform="translate(-72.979)" fill="#3f0366"/>
  </g>
</svg>
