<svg xmlns="http://www.w3.org/2000/svg" width="100" height="100" viewBox="0 0 100 100">
  <g id="start-up" transform="translate(-0.001 -0.001)">
    <path id="Path_1023" data-name="Path 1023" d="M73.452,290.591a2.86,2.86,0,0,0,.533,3.3l.7.7c2.018-2.392,4.37-4.987,7.223-7.839.2-.2.409-.3.611-.485l-4.494-4.495c-2.613,4.725-4.136,7.954-4.572,8.818Zm0,0" transform="translate(-59.218 -226.53)" fill="#eba40c"/>
    <path id="Path_1024" data-name="Path 1024" d="M170.717,390.174c-2.86,2.86-5.448,5.216-7.827,7.236l.946.946a2.855,2.855,0,0,0,3.326.521c1.48-.762,3.807-1.858,8.746-4.608l-4.706-4.706C171.017,389.765,170.919,389.972,170.717,390.174Zm0,0" transform="translate(-130.953 -312.878)" fill="#eba40c"/>
    <path id="Path_1025" data-name="Path 1025" d="M85.565,312.185c-2.064-2.064-7.87-.214-10.6,2.513-9.123,9.123-13.244,15.591-15.094,19.411a2.857,2.857,0,0,0,3.819,3.815c3.734-1.813,10.123-5.914,19.355-15.145,3-3,4.478-8.631,2.519-10.591Zm0,0" transform="translate(-48.24 -249.522)" fill="#eba40c"/>
    <path id="Path_1026" data-name="Path 1026" d="M8.917,170.626l-8.08,8.08a2.857,2.857,0,0,0,2.759,4.78c4.367-1.171,8.209-1.666,10.8-1a153.286,153.286,0,0,1,11.825-18.04c-2.423-1.553-10.43-.688-17.3,6.183Zm0,0" transform="translate(0 -131.59)" fill="#3f0366"/>
    <path id="Path_1027" data-name="Path 1027" d="M247.212,401.992a2.851,2.851,0,0,0,3.3-.53l8.08-8.08c6.255-6.257,7.356-14.33,5.937-16.89a163.055,163.055,0,0,1-18.054,11.735c.4,2.247.133,4.428-.808,10.8a2.851,2.851,0,0,0,1.541,2.969Zm0,0" transform="translate(-197.365 -302.297)" fill="#3f0366"/>
    <path id="Path_1028" data-name="Path 1028" d="M287.149,139.815a8.57,8.57,0,1,0,12.12,0A8.58,8.58,0,0,0,287.149,139.815Zm0,0" transform="translate(-228.753 -110.347)" fill="#eba40c"/>
    <path id="Path_1029" data-name="Path 1029" d="M411.263,2.788A2.852,2.852,0,0,0,408.627.153a56.473,56.473,0,0,0-20.854,2.43,23.983,23.983,0,0,0,7.105,13.954A23.907,23.907,0,0,0,409.1,23.63a59.074,59.074,0,0,0,2.158-20.842Zm0,0" transform="translate(-311.43 0)" fill="#3f0366"/>
    <path id="Path_1030" data-name="Path 1030" d="M169.477,40A30.01,30.01,0,0,1,160.89,24c-17.154,7.035-33.575,22.4-46.551,43.98l6.447,6.447c4.4-1.788,9.752-2.261,13.143,1.13s2.915,8.742,1.127,13.14l6.659,6.659C158.32,85.344,177.653,69.577,185.874,48.6a29.866,29.866,0,0,1-16.4-8.6ZM165.436,64.24a14.283,14.283,0,1,1,0-20.2A14.3,14.3,0,0,1,165.436,64.24Zm0,0" transform="translate(-90.069 -19.425)" fill="#3f0366"/>
  </g>
</svg>
