<svg xmlns="http://www.w3.org/2000/svg" width="100.001" height="100" viewBox="0 0 100.001 100">
  <g id="location-pin_1_" data-name="location-pin (1)" transform="translate(0 -0.5)">
    <path id="Path_989" data-name="Path 989" d="M112.459,47.858,133.187,75.09a2.975,2.975,0,0,0,4.6,0l20.728-27.232a28.446,28.446,0,0,0,6.456-18.131,29.485,29.485,0,0,0-58.967,0,28.445,28.445,0,0,0,6.455,18.131ZM135.487,15.21a14.518,14.518,0,1,1-14.742,14.517A14.648,14.648,0,0,1,135.487,15.21Zm0,0" transform="translate(-85.487)" fill="#eba40c"/>
    <path id="Path_990" data-name="Path 990" d="M219.71,123.919A8.71,8.71,0,1,0,211,115.21,8.719,8.719,0,0,0,219.71,123.919Zm0,0" transform="translate(-169.709 -85.257)" fill="#3f0366"/>
    <path id="Path_991" data-name="Path 991" d="M2.93,318.142H97.071a2.949,2.949,0,0,0,2.341-1.154,2.891,2.891,0,0,0,.478-2.546L87.975,273.6a2.929,2.929,0,0,0-2.818-2.106H76.349L58.785,294.722h0a2.9,2.9,0,1,1,0,5.807H41.211a2.9,2.9,0,1,1,0-5.807h.008L23.649,271.5h-8.8a2.928,2.928,0,0,0-2.818,2.106L.112,314.442a2.891,2.891,0,0,0,.478,2.546,2.949,2.949,0,0,0,2.341,1.154Zm65.507-28.375L74.3,283.96a2.941,2.941,0,0,1,2.071-.851h5.859a2.9,2.9,0,1,1,0,5.807H77.582l-5,4.956a2.948,2.948,0,0,1-4.143,0,2.884,2.884,0,0,1,0-4.105Zm2.071,10.763H82.228a2.9,2.9,0,1,1,0,5.807H70.509a2.9,2.9,0,1,1,0-5.807Zm-52.734-17.42h5.859a2.941,2.941,0,0,1,2.071.851l5.859,5.807a2.884,2.884,0,0,1,0,4.105,2.947,2.947,0,0,1-4.143,0l-5-4.956H17.775a2.9,2.9,0,1,1,0-5.807Zm0,17.42H29.493a2.9,2.9,0,1,1,0,5.807H17.775a2.9,2.9,0,1,1,0-5.807Zm0,0" transform="translate(0 -217.642)" fill="#3f0366"/>
  </g>
</svg>
