<svg xmlns="http://www.w3.org/2000/svg" width="81.605" height="100" viewBox="0 0 81.605 100">
  <g id="food-package" transform="translate(-47.09)">
    <g id="Group_4308" data-name="Group 4308" transform="translate(47.09)">
      <path id="Path_1066" data-name="Path 1066" d="M204.646,30.316,210.994,26l6.348,4.314a2.933,2.933,0,0,0,4.576-2.424V0H200.07V27.893A2.932,2.932,0,0,0,204.646,30.316Z" transform="translate(-170.191)" fill="#eba40c"/>
      <path id="Path_1067" data-name="Path 1067" d="M201.443,263.5H166.47v-1.082a11.5,11.5,0,0,1,4.791-9.336v2.17a2.93,2.93,0,0,0,5.859,0v-4.3c.6-.046.547-.035,3.906-.035v4.34a2.93,2.93,0,0,0,5.859,0v-4.34c3.362,0,3.3-.011,3.906.035v4.3a2.93,2.93,0,0,0,5.859,0v-2.17a11.5,11.5,0,0,1,4.791,9.336Z" transform="translate(-143.154 -201.908)" fill="#3f0366"/>
      <path id="Path_1068" data-name="Path 1068" d="M166.47,405.37h34.973v1.689a4.207,4.207,0,0,1-4.2,4.2H170.673a4.207,4.207,0,0,1-4.2-4.2Z" transform="translate(-143.154 -326.196)" fill="#3f0366"/>
      <path id="Path_1069" data-name="Path 1069" d="M186.732,348.3a2.932,2.932,0,0,1-2.93,2.93H145.26a2.93,2.93,0,0,1,0-5.859H183.8A2.932,2.932,0,0,1,186.732,348.3Z" transform="translate(-123.728 -277.915)" fill="#3f0366"/>
      <path id="Path_1070" data-name="Path 1070" d="M129.147,193.453,124.633,120H105.279v4.455a8.807,8.807,0,0,1-8.8,8.791c-3.3,0-5.021-1.586-7.98-3.6-3.068,2.086-4.744,3.6-7.982,3.6a8.808,8.808,0,0,1-8.8-8.793V120H52.36l-4.514,73.453a2.93,2.93,0,0,0,2.924,3.109h75.453a2.93,2.93,0,0,0,2.924-3.109Zm-17.3-18.723v2.7a10.073,10.073,0,0,1-10.062,10.063H75.213a10.073,10.073,0,0,1-10.062-10.062v-2.7a8.783,8.783,0,0,1,0-15.568v-2.086a17.385,17.385,0,0,1,17.365-17.365H94.477a17.385,17.385,0,0,1,17.365,17.365v2.086a8.783,8.783,0,0,1,0,15.568Z" transform="translate(-47.694 -96.562)" fill="#3f0366"/>
      <path id="Path_1071" data-name="Path 1071" d="M50.02,17.578H71.11V0H50.02a2.931,2.931,0,0,0-2.93,2.93V14.648A2.931,2.931,0,0,0,50.02,17.578Z" transform="translate(-47.09)" fill="#eba40c"/>
      <path id="Path_1072" data-name="Path 1072" d="M363.02,0H341.93V17.578h21.09a2.931,2.931,0,0,0,2.93-2.93V2.93A2.931,2.931,0,0,0,363.02,0Z" transform="translate(-284.344)" fill="#eba40c"/>
    </g>
  </g>
</svg>
