<svg xmlns="http://www.w3.org/2000/svg" width="129.279" height="100" viewBox="0 0 129.279 100">
  <g id="cereal" transform="translate(0 -57.978)">
    <g id="Group_4291" data-name="Group 4291" transform="translate(0 102.17)">
      <g id="Group_4290" data-name="Group 4290">
        <path id="Path_999" data-name="Path 999" d="M125.484,230.011H3.795A3.77,3.77,0,0,0,0,233.755c0,14.063,6.832,27.233,19.236,37.084,12.164,9.66,28.288,14.98,45.4,14.98s33.239-5.32,45.4-14.98c12.4-9.851,19.236-23.021,19.236-37.084A3.77,3.77,0,0,0,125.484,230.011Z" transform="translate(0 -230.011)" fill="#3f0366"/>
      </g>
    </g>
    <g id="Group_4293" data-name="Group 4293" transform="translate(107.644 57.978)">
      <g id="Group_4292" data-name="Group 4292" transform="translate(0 0)">
        <path id="Path_1000" data-name="Path 1000" d="M445.491,58.882a3.745,3.745,0,0,0-5.28.4L425.161,76.8a24.444,24.444,0,0,1,2.677,5.126q1.007.432,1.974.952l16.08-18.719A3.745,3.745,0,0,0,445.491,58.882Z" transform="translate(-425.161 -57.978)" fill="#eba40c"/>
      </g>
    </g>
    <g id="Group_4295" data-name="Group 4295" transform="translate(17.907 58.962)">
      <g id="Group_4294" data-name="Group 4294">
        <path id="Path_1001" data-name="Path 1001" d="M157.987,90.771a17.328,17.328,0,0,0-13.54-13.907,17.528,17.528,0,0,0-33.6-3.934,17.713,17.713,0,0,0-8.29-2.068A17.315,17.315,0,0,0,85.1,88q0,.09,0,.181a19.442,19.442,0,0,0-13.227,8.134h95.7A17.528,17.528,0,0,0,157.987,90.771Z" transform="translate(-71.877 -61.926)" fill="#eba40c"/>
      </g>
    </g>
  </g>
</svg>
