<svg id="employment" xmlns="http://www.w3.org/2000/svg" width="100" height="100" viewBox="0 0 100 100">
  <path id="Path_1012" data-name="Path 1012" d="M301,8.883V24.726h15.5Z" transform="translate(-242.211 -7.148)" fill="#3f0366"/>
  <circle id="Ellipse_20" data-name="Ellipse 20" cx="2.93" cy="2.93" r="2.93" transform="translate(35.254 17.783)" fill="#3f0366"/>
  <path id="Path_1013" data-name="Path 1013" d="M41.4,88.076H23.628a2.93,2.93,0,1,1,0-5.859H41.4v-5.85H23.628a2.93,2.93,0,1,1,0-5.859H41.4V64.844H23.628a2.93,2.93,0,1,1,0-5.859H41.9a8.8,8.8,0,0,1,8.285-5.859h2.789A12.62,12.62,0,0,1,65.546,41.416H76.367V23.438H55.859a2.93,2.93,0,0,1-2.93-2.93V0h-50A2.93,2.93,0,0,0,0,2.93V97.07A2.93,2.93,0,0,0,2.93,100h41.4C40.459,94.849,41.6,89.844,41.4,88.076ZM38.184,11.924a8.789,8.789,0,1,1-8.789,8.789A8.8,8.8,0,0,1,38.184,11.924Zm0,17.671A14.665,14.665,0,0,1,52.832,44.243a2.93,2.93,0,0,1-2.93,2.93H26.465a2.93,2.93,0,0,1-2.93-2.93A14.665,14.665,0,0,1,38.184,29.595ZM14.716,88.066a2.92,2.92,0,1,1,2.92-2.92A2.92,2.92,0,0,1,14.716,88.066Zm0-11.709a2.92,2.92,0,1,1,2.92-2.92A2.92,2.92,0,0,1,14.716,76.357Zm0-11.719a2.92,2.92,0,1,1,2.92-2.92A2.92,2.92,0,0,1,14.716,64.639Z" fill="#3f0366"/>
  <path id="Path_1014" data-name="Path 1014" d="M153.07,187.444h16.574A8.8,8.8,0,0,0,153.07,187.444Z" transform="translate(-123.174 -146.13)" fill="#3f0366"/>
  <path id="Path_1015" data-name="Path 1015" d="M271.208,408.455a2.93,2.93,0,0,1-5.859,0V408.1l-23.4-2.925v12.074a8.8,8.8,0,0,0,8.789,8.789h35.166a8.8,8.8,0,0,0,8.789-8.789V405.18l-23.486,2.938Z" transform="translate(-194.694 -326.042)" fill="#eba40c"/>
  <path id="Path_1016" data-name="Path 1016" d="M291.764,253.759H282.78c.021-.3,0,.236.01-4.873a6.844,6.844,0,0,0-6.836-6.836H260.24a6.755,6.755,0,0,0-6.747,6.747c.006,5.188-.011,4.659.01,4.962H244.88a2.93,2.93,0,0,0-2.93,2.93v11.318l23.426,2.928a2.927,2.927,0,0,1,5.806.014l23.512-2.941V256.689A2.93,2.93,0,0,0,291.764,253.759Zm-32.422,0c.021-.3,0,.227.01-4.962a.889.889,0,0,1,.888-.888h15.714a.978.978,0,0,1,.977.977c.006,5.1-.011,4.572.01,4.873Z" transform="translate(-194.694 -194.775)" fill="#eba40c"/>
</svg>
