<svg width="109" height="216" viewBox="0 0 109 216" fill="none" xmlns="http://www.w3.org/2000/svg">
<style>
    #graph{
        transform-origin: center;
        transform-box: fill-box;
        animation: sideClip 2s linear infinite alternate-reverse;
    }
    @keyframes sideClip {
        0% {
            clip-path: polygon(0 0, 100% 0, 0 0, 0 100%);
        }
        25% {
            clip-path: polygon(0 0, 100% 0, 0 100%, 0 100%);
        }
        50% {
            clip-path: polygon(0 0, 100% 0, 100% 100%, 0 100%);
        }
        75%{
            transform: scale(0.84);
            animation-timing-function: ease-out;
        }

        100%{
            transform: scale(1);
            animation-timing-function: ease-in;
        }
    }
</style>
<g id="aseer 1" clip-path="url(#clip0_309_313)">
<g id="graph" opacity="0.4">
<path id="Path 604" opacity="0.4" d="M61.613 22.813C61.6403 22.8157 61.6677 22.8157 61.695 22.813C61.6902 22.8187 61.6867 22.8255 61.6847 22.8327C61.6827 22.84 61.6823 22.8476 61.6835 22.855C61.6848 22.8624 61.6876 22.8695 61.6918 22.8757C61.6961 22.8819 61.7016 22.8871 61.708 22.891C62.249 23.191 62.658 23.32 62.776 24.052C62.795 24.166 62.701 24.301 62.73 24.416C62.8811 24.8926 63.067 25.3575 63.286 25.807C63.765 27.007 63.391 28.335 63.798 29.55C63.798 29.556 63.79 29.56 63.786 29.566C62.646 31.887 62.237 34.547 61.591 37.04C60.7548 40.135 59.7565 43.1839 58.6 46.174C56.5334 51.2872 54.8415 56.5441 53.538 61.903C52.012 61.547 50.55 60.98 49.03 60.612C47.6886 60.3771 46.3605 60.072 45.051 59.698C44.972 59.67 44.914 59.798 44.977 59.844C46.0154 60.4853 47.1812 60.8924 48.393 61.037C50.086 61.453 51.704 62.125 53.401 62.537C53.379 62.644 53.352 62.75 53.331 62.858C53.3133 62.9468 53.3211 63.0389 53.3536 63.1235C53.3861 63.2081 53.4419 63.2817 53.5146 63.3359C53.5873 63.39 53.6738 63.4224 53.7642 63.4293C53.8545 63.4363 53.945 63.4174 54.025 63.375C54.1357 63.5248 54.2542 63.6686 54.38 63.806C53.8077 64.1613 53.2611 64.5563 52.744 64.988C52.0175 65.492 51.3594 66.0879 50.786 66.761C50.713 66.853 50.817 66.99 50.921 66.921C51.677 66.421 52.368 65.828 53.121 65.315C53.654 64.95 54.293 64.636 54.809 64.215C55.5382 64.8462 56.4595 65.2121 57.423 65.253C58.548 65.4001 59.6877 65.1262 60.623 64.484C61.211 64.9404 61.844 65.3357 62.512 65.664C63.712 66.371 64.936 67.022 66.067 67.835C66.423 68.091 66.885 67.576 66.526 67.322C65.5129 66.6197 64.4561 65.9828 63.362 65.415C62.5489 64.896 61.7057 64.4255 60.837 64.006C60.8201 63.9506 60.7907 63.8997 60.7512 63.8573C60.7117 63.8148 60.6631 63.7819 60.609 63.761C60.796 63.361 60.955 62.945 61.109 62.524C62.7409 62.328 64.3503 61.976 65.915 61.473C66.15 61.411 66.077 61.012 65.833 61.047C64.28 61.27 62.76 61.811 61.226 62.184C61.74 60.65 62.091 59.029 62.575 57.507C65.085 58.728 67.893 59.307 70.421 60.581C73.1776 62.0676 75.7385 63.8913 78.045 66.01C78.1097 66.0627 78.1922 66.0884 78.2753 66.0817C78.3585 66.0751 78.4358 66.0367 78.4913 65.9745C78.5469 65.9122 78.5763 65.831 78.5734 65.7477C78.5706 65.6643 78.5357 65.5853 78.476 65.527C76.2277 63.247 73.628 61.3428 70.776 59.887C68.412 58.634 65.367 57.257 62.643 57.305C62.693 57.153 62.743 56.998 62.793 56.849C63.172 55.788 63.57 54.734 63.973 53.683C70.116 56.098 76.652 57.412 82.809 59.848C85.7525 60.9971 88.6165 62.3404 91.382 63.869C94.421 65.569 97.076 67.71 99.927 69.679C100.303 69.939 100.649 69.341 100.361 69.045C95.817 64.395 89.161 61.362 83.232 59.015C77.0859 56.4232 70.6733 54.5154 64.11 53.326C64.762 51.635 65.432 49.95 66.093 48.263C68.184 42.925 70.478 37.303 71.056 31.549C71.075 31.362 70.795 31.217 70.717 31.427C68.666 36.989 67.259 42.739 65.069 48.275C62.978 53.563 61.32 58.918 59.428 64.264C58.8015 64.4389 58.1504 64.5092 57.501 64.472C56.2823 64.3492 55.1521 63.7791 54.329 62.872C55.9124 56.9201 57.806 51.0551 60.002 45.301C61.9757 40.3661 63.3628 35.2165 64.135 29.958C64.1939 29.9712 64.2551 29.9712 64.314 29.958C64.3354 29.993 64.3635 30.0234 64.3969 30.0473C64.4302 30.0711 64.468 30.0881 64.508 30.097C64.639 30.128 64.808 30.165 65.008 30.202C66.1279 30.8488 67.332 31.3375 68.586 31.654C69.85 31.954 71.124 31.493 70.611 29.954C70.5943 29.9006 70.5634 29.8527 70.5217 29.8154C70.48 29.7781 70.429 29.7527 70.374 29.742C70.4923 29.5916 70.5728 29.4151 70.609 29.2272C70.6452 29.0394 70.636 28.8455 70.582 28.662C70.9266 28.3478 71.1734 27.9409 71.293 27.4901C71.4125 27.0394 71.3996 26.5637 71.256 26.12C71.3273 25.954 71.3839 25.782 71.425 25.606C71.6224 25.3953 71.7668 25.1406 71.846 24.863C71.9321 24.5243 71.9048 24.1667 71.7685 23.8449C71.6322 23.5231 71.3942 23.2548 71.091 23.081C71.163 22.331 70.974 21.669 70.213 21.697C70.2752 21.3816 70.243 21.0548 70.1204 20.7576C69.9979 20.4604 69.7904 20.2059 69.524 20.026C69.5177 19.7542 69.4406 19.4887 69.3003 19.2558C69.16 19.0229 68.9613 18.8306 68.724 18.698C68.661 17.669 68.254 16.66 67.114 16.713C67.0984 16.7151 67.0833 16.7202 67.0698 16.7283C67.0562 16.7363 67.0444 16.747 67.035 16.7597C67.0257 16.7724 67.019 16.7868 67.0154 16.8022C67.0118 16.8175 67.0113 16.8335 67.014 16.849C66.8598 16.4944 66.6419 16.171 66.371 15.895C66.288 15.808 66.113 15.914 66.171 16.03C67.4 18.605 65.544 20.852 64.012 22.837C64.8417 21.4995 65.5021 20.0642 65.978 18.564C66.278 17.612 66.596 15.364 65.093 15.526C65.068 15.419 65.043 15.312 65.01 15.208C64.948 15.016 64.61 15.008 64.593 15.233C64.5501 16.4425 64.3411 17.6404 63.972 18.793C63.7539 19.3529 63.4949 19.8961 63.197 20.418C63.8126 18.9216 64.1354 17.321 64.148 15.703C64.195 15.703 64.241 15.716 64.288 15.719C64.575 15.739 64.643 15.286 64.401 15.173C60.5039 13.5162 56.4888 12.1521 52.389 11.092C48.137 9.86099 43.825 8.85699 39.57 7.63499C30.602 5.05699 21.601 1.663 12.396 0.0559984C12.3749 0.0559319 12.354 0.060714 12.335 0.0699907C12.328 0.0649907 12.322 0.0569854 12.314 0.0519854C12.2684 0.0210351 12.2164 0.000613813 12.1619 -0.00782909C12.1073 -0.016272 12.0516 -0.0125142 11.9987 0.0031725C11.9458 0.0188592 11.8971 0.0460823 11.856 0.0828844C11.8149 0.119687 11.7824 0.165141 11.761 0.215987C10.635 0.427987 9.93199 2.09699 9.60999 3.01599C9.12599 4.40199 8.64601 6.40298 9.44501 7.76098C9.47829 7.81785 9.5237 7.86668 9.57801 7.90399C9.57497 7.97768 9.59777 8.05011 9.64252 8.10873C9.68726 8.16736 9.75112 8.20848 9.823 8.22499C18.696 10.506 27.386 13.371 36.191 15.888C44.602 18.302 53.068 20.963 61.613 22.813ZM70.063 29.065C69.794 29.808 68.563 29.944 67.316 29.872C68.2804 29.8108 69.219 29.5347 70.063 29.064V29.065ZM69.097 30.946C68.5264 30.8647 67.9691 30.7076 67.44 30.479C68.2993 30.5513 69.1634 30.4141 69.958 30.079C69.958 30.084 69.958 30.088 69.958 30.094C70.003 30.821 69.807 31.018 69.097 30.945V30.946ZM70.464 24.909C70.7085 24.5439 70.8845 24.1372 70.983 23.709C71.183 24.159 71.368 24.545 70.958 25.038C70.4186 25.5617 69.7553 25.9402 69.03 26.138C68.937 26.171 68.841 26.198 68.747 26.229C69.4168 25.9328 70.0054 25.4797 70.463 24.908L70.464 24.909ZM70.302 26.434C69.6034 27.0033 68.7377 27.3282 67.837 27.359C68.6918 27.1478 69.5187 26.837 70.301 26.433L70.302 26.434ZM69.885 23.065C70.0371 22.7373 70.1383 22.3883 70.185 22.03C71.285 22.903 69.958 24.706 69.085 25.239C68.2078 25.7601 67.2053 26.0328 66.185 26.028C67.7457 25.5381 69.0657 24.4804 69.884 23.064L69.885 23.065ZM66.244 23.929C67.4445 22.9075 68.2857 21.528 68.644 19.993C68.6832 19.7878 68.7099 19.5804 68.724 19.372C69.507 20.901 67.728 23.138 66.243 23.927L66.244 23.929ZM64.082 23.918C65.582 22.264 68.002 19.271 67.036 16.907C67.0446 16.9218 67.0575 16.9337 67.073 16.941C68.779 17.552 67.987 20.211 67.381 21.317C66.5266 22.5936 65.4056 23.6697 64.095 24.471C64.0424 24.5074 64.0044 24.5614 63.988 24.6233C63.9716 24.6852 63.9778 24.751 64.0055 24.8087C64.0332 24.8664 64.0807 24.9124 64.1392 24.9383C64.1978 24.9642 64.2637 24.9683 64.325 24.95C64.7989 24.831 65.249 24.6322 65.656 24.362C65.6484 24.4105 65.6535 24.46 65.6708 24.5059C65.6881 24.5518 65.717 24.5925 65.7547 24.6239C65.7924 24.6553 65.8375 24.6764 65.8857 24.6852C65.934 24.694 65.9837 24.6901 66.03 24.674C66.8533 24.2517 67.5833 23.6683 68.1768 22.9585C68.7703 22.2487 69.2151 21.427 69.485 20.542C70.179 21.589 68.854 23.4 68.105 24.014C67.0008 24.7538 65.7855 25.3125 64.505 25.669C64.4387 25.6966 64.3839 25.7463 64.35 25.8097C64.316 25.873 64.305 25.9462 64.3187 26.0167C64.3325 26.0873 64.3702 26.1509 64.4255 26.1969C64.4807 26.2428 64.5501 26.2683 64.622 26.269C64.722 26.269 64.822 26.269 64.929 26.264C64.9316 26.3033 64.9457 26.3409 64.9695 26.3722C64.9933 26.4035 65.0258 26.4271 65.063 26.44C65.7157 26.6937 66.4223 26.7767 67.116 26.681C66.506 26.821 65.891 26.938 65.279 27.043C65.2081 27.0547 65.1417 27.0856 65.087 27.1323C65.0324 27.179 64.9916 27.2397 64.969 27.308C64.631 27.384 64.538 27.923 64.94 27.972C66.763 28.195 69.412 28.283 70.724 26.925C70.688 28.99 67.678 29.065 65.973 29.225C65.9208 29.2271 65.8699 29.2423 65.825 29.2692C65.7802 29.2961 65.7427 29.3337 65.7162 29.3788C65.6896 29.4238 65.6748 29.4748 65.673 29.5271C65.6712 29.5794 65.6826 29.6312 65.706 29.678L65.606 29.661C65.2882 29.5252 64.9505 29.4418 64.606 29.414C64.334 28.386 64.48 27.356 64.288 26.323C64.154 25.601 63.588 25.044 63.467 24.363C63.4397 24.1511 63.426 23.9377 63.426 23.724L63.489 23.634C63.4759 23.7073 63.4873 23.7829 63.5214 23.8492C63.5554 23.9154 63.6102 23.9687 63.6775 24.0007C63.7447 24.0327 63.8207 24.0418 63.8936 24.0265C63.9665 24.0112 64.0323 23.9724 64.081 23.916L64.082 23.918ZM11.902 0.730986C12.281 1.98699 11.562 3.389 11.027 4.515C10.808 4.979 10.345 5.63999 10.066 6.28299C10.0046 4.27334 10.6545 2.30651 11.901 0.728987L11.902 0.730986ZM10.451 7.69099C10.4646 7.68754 10.478 7.6832 10.491 7.67799C10.969 7.40899 11.152 6.67799 11.391 6.20299C11.8144 5.37182 12.1874 4.51595 12.508 3.64C12.808 2.795 13.225 1.43999 12.745 0.552992C16.858 2.10199 21.245 3.08899 25.462 4.29399C29.978 5.58299 34.446 7.02399 38.949 8.35399C43.349 9.65399 47.811 10.699 52.215 11.977C54.542 12.652 56.824 13.421 59.102 14.246C60.5392 14.851 62.0301 15.3198 63.555 15.646C63.1796 17.4899 62.6934 19.3096 62.099 21.095C62.0738 21.1629 62.0666 21.2362 62.0781 21.3077C62.0897 21.3793 62.1196 21.4466 62.1649 21.5031C62.2103 21.5596 62.2695 21.6034 62.3368 21.6302C62.4041 21.657 62.4772 21.6659 62.549 21.656C62.476 21.799 62.4 21.94 62.332 22.086C62.2985 22.1553 62.2906 22.2343 62.31 22.3088C62.3294 22.3833 62.3747 22.4485 62.4377 22.4926C62.5008 22.5368 62.5775 22.5571 62.6542 22.5498C62.7308 22.5425 62.8024 22.5082 62.856 22.453C63.6604 21.5861 64.2809 20.5653 64.6801 19.4521C65.0794 18.339 65.2491 17.1565 65.179 15.976C66.716 17.037 64.261 21.261 63.141 23.091L63.129 23.077C62.9868 22.935 62.813 22.8286 62.6218 22.7666C62.4307 22.7046 62.2275 22.6886 62.029 22.72C62.1045 22.6589 62.1616 22.5779 62.1938 22.4862C62.226 22.3945 62.232 22.2957 62.2112 22.2008C62.1905 22.1059 62.1438 22.0186 62.0763 21.9487C62.0088 21.8788 61.9231 21.829 61.829 21.805C53.283 19.954 44.824 17.295 36.397 14.947C27.757 12.542 19.234 9.51199 10.45 7.68899L10.451 7.69099Z" fill="#3F0366"/>
<path id="Path 605" opacity="0.4" d="M38.077 55.135C38.308 55.102 38.292 54.745 38.054 54.769C33.254 55.258 25.495 57.286 27.048 63.879C27.684 66.579 29.916 68.397 32.277 69.604C35.9692 71.3826 39.7712 72.9234 43.66 74.217C50.9763 76.9659 58.6293 78.7176 66.413 79.425C70.2553 79.7287 74.1187 79.6319 77.941 79.136C80.721 78.762 83.985 78.344 86.163 76.394C87.126 75.4915 87.7698 74.3007 87.9976 73.0008C88.2253 71.7008 88.0248 70.3621 87.426 69.186C85.826 65.613 81.995 64.23 78.516 63.152C78.042 63.005 77.749 63.81 78.221 63.984C81.871 65.321 86.568 67.102 86.975 71.625C87.421 76.587 81.51 77.543 77.875 78.031C75.6229 78.3295 73.3537 78.4805 71.082 78.483C71.6355 76.8053 71.8781 75.0407 71.798 73.276C73.3643 73.1495 74.9025 72.7864 76.36 72.199C76.1696 72.7822 76.0523 73.3868 76.011 73.999C75.868 74.79 75.696 75.574 75.482 76.349C75.338 76.873 76.182 77.054 76.312 76.523C76.538 75.6315 76.6938 74.7237 76.778 73.808C76.8964 73.2254 76.8582 72.6219 76.667 72.059C77.2986 71.7627 77.8774 71.3648 78.38 70.881C77.907 72.96 77.526 75.068 77.173 77.134C77.1678 77.2294 77.197 77.3236 77.2552 77.3994C77.3134 77.4752 77.3969 77.5276 77.4904 77.5472C77.584 77.5668 77.6815 77.5522 77.7653 77.5061C77.849 77.46 77.9134 77.3855 77.947 77.296C78.569 74.559 79.173 71.733 79.547 68.919C79.6786 68.4302 79.7386 67.925 79.725 67.419C79.757 67.112 79.79 66.806 79.816 66.5C79.8201 66.4747 79.8162 66.4487 79.8049 66.4258C79.7935 66.4028 79.7753 66.3839 79.7527 66.3718C79.7302 66.3597 79.7044 66.3549 79.679 66.3582C79.6535 66.3614 79.6298 66.3725 79.611 66.39C79.5728 66.3102 79.5082 66.2461 79.4281 66.2086C79.348 66.171 79.2574 66.1624 79.1717 66.184C79.0859 66.2057 79.0103 66.2564 78.9577 66.3275C78.9051 66.3985 78.8787 66.4856 78.883 66.574C79.47 73.974 67.468 72.747 62.883 72.315C57.3463 71.7669 51.9165 70.429 46.759 68.342C44.3654 67.3821 42.0312 66.2801 39.769 65.042C38.5855 64.4627 37.4791 63.7373 36.476 62.883C36.0485 62.4958 35.7159 62.0156 35.5036 61.4795C35.2913 60.9433 35.2051 60.3655 35.2517 59.7907C35.2983 59.2159 35.4764 58.6595 35.7722 58.1646C36.0681 57.6696 36.4738 57.2492 36.958 56.936C39.367 55.408 43.281 55.359 46.064 55.195C48.847 55.031 51.638 55.214 54.426 55.129C54.4391 55.1299 54.4523 55.1282 54.4648 55.124C54.4773 55.1198 54.4888 55.1133 54.4987 55.1046C54.5087 55.096 54.5168 55.0855 54.5227 55.0737C54.5286 55.0619 54.532 55.0491 54.533 55.036C54.5339 55.0229 54.5323 55.0096 54.5281 54.9972C54.5239 54.9847 54.5173 54.9731 54.5087 54.9632C54.5 54.9533 54.4895 54.9451 54.4777 54.9393C54.4659 54.9334 54.4531 54.9299 54.44 54.929C50.4325 54.1659 46.3232 54.1023 42.294 54.741C39.614 55.072 36.257 55.43 34.746 58.015C34.292 58.7369 34.0855 59.5872 34.158 60.437C33.2509 62.5861 32.8648 64.9192 33.031 67.246C33.0365 67.3044 33.0625 67.359 33.1045 67.4001C33.1465 67.4411 33.2016 67.466 33.2601 67.4702C33.3187 67.4744 33.3769 67.4577 33.4243 67.423C33.4716 67.3884 33.5052 67.338 33.519 67.281C33.819 66.045 33.807 64.744 34.019 63.487C34.134 62.821 34.282 62.163 34.432 61.505C34.5703 61.8306 34.7433 62.1404 34.948 62.429C34.7013 63.1434 34.4992 63.8725 34.343 64.612C34.0621 65.4772 33.8786 66.3711 33.796 67.277C33.8023 67.3404 33.8288 67.4002 33.8715 67.4476C33.9141 67.495 33.9707 67.5276 34.0331 67.5406C34.0956 67.5537 34.1605 67.5465 34.2185 67.5201C34.2766 67.4937 34.3247 67.4496 34.356 67.394C34.6583 66.5357 34.8633 65.6461 34.967 64.742C35.085 64.121 35.225 63.502 35.296 62.875C35.4989 63.1138 35.7149 63.3411 35.943 63.556L35.937 63.562C35.6633 64.3549 35.4648 65.1718 35.344 66.002C35.0922 66.8185 34.9822 67.6722 35.019 68.526C35.0235 68.5744 35.0434 68.6201 35.0758 68.6564C35.1082 68.6927 35.1513 68.7177 35.1989 68.7278C35.2464 68.7378 35.296 68.7324 35.3403 68.7123C35.3846 68.6922 35.4213 68.6584 35.445 68.616C35.7536 67.8216 35.9227 66.9799 35.945 66.128C36.0824 65.3446 36.1556 64.5513 36.164 63.756C36.6538 64.1856 37.1734 64.5799 37.719 64.936C37.0701 66.5115 36.6441 68.1698 36.453 69.863C36.4364 69.9417 36.4518 70.0239 36.4958 70.0913C36.5398 70.1587 36.6087 70.2059 36.6875 70.2225C36.7663 70.2391 36.8484 70.2237 36.9158 70.1797C36.9832 70.1357 37.0304 70.0667 37.047 69.988C37.5805 68.414 37.899 66.7752 37.994 65.116C38.394 65.373 38.815 65.616 39.237 65.848C38.5595 67.3293 38.0026 68.863 37.572 70.434C37.442 70.827 38.087 70.968 38.209 70.567C38.7467 69.0705 39.1659 67.5341 39.463 65.972C39.908 66.212 40.355 66.436 40.794 66.648C40.2825 67.93 39.9006 69.2599 39.654 70.618C39.6416 70.7018 39.6616 70.7872 39.7101 70.8567C39.7586 70.9262 39.8318 70.9745 39.9148 70.9917C39.9978 71.009 40.0841 70.9939 40.1563 70.9495C40.2285 70.9051 40.281 70.8348 40.303 70.753C40.6853 69.4554 40.9408 68.1239 41.066 66.777C41.647 67.053 42.206 67.302 42.72 67.525C42.2001 68.6096 41.8536 69.769 41.693 70.961C41.633 71.433 42.352 71.594 42.426 71.114C42.5963 69.9643 42.83 68.8249 43.126 67.701C43.436 67.836 43.726 67.959 43.986 68.073C43.355 69.5 42.894 71.044 42.359 72.512C42.3535 72.535 42.3498 72.5584 42.348 72.582C39.864 71.6633 37.4066 70.6833 34.976 69.642C31.614 68.208 26.996 65.842 27.911 61.37C28.855 56.798 34.218 55.7 38.077 55.135ZM57.145 76.956C57.288 75.433 57.48 73.947 57.698 72.431C58.337 72.553 58.978 72.66 59.62 72.76C59.4627 73.348 59.3362 73.9438 59.241 74.545C59.088 75.302 58.864 76.045 58.741 76.812C58.683 77.181 59.253 77.438 59.4 77.046C59.9195 75.6966 60.0915 74.2382 59.9 72.805C60.7453 72.9323 61.5937 73.0403 62.445 73.129C61.7863 74.5797 61.4875 76.168 61.574 77.759C60.09 77.5356 58.6136 77.268 57.145 76.956V76.956ZM70.445 78.479C69.193 78.4676 67.942 78.4176 66.692 78.329C66.8591 77.592 66.9486 76.8396 66.959 76.084C67.0722 75.2329 67.1057 74.3732 67.059 73.516C67.0536 73.4791 67.038 73.4444 67.014 73.416C67.6 73.431 68.241 73.439 68.914 73.431C68.4546 74.7686 68.1392 76.1514 67.973 77.556C67.873 78.073 68.687 78.244 68.773 77.724C69.1226 76.3166 69.3098 74.8739 69.331 73.424C70.01 73.408 70.713 73.375 71.423 73.312C71.179 75.036 70.553 76.749 70.443 78.479H70.445ZM66.693 73.411C66.6685 73.4313 66.649 73.4569 66.636 73.486C66.3953 74.3443 66.2347 75.223 66.156 76.111C66.0042 76.8203 65.9337 77.5447 65.946 78.27C65.313 78.217 64.68 78.156 64.046 78.085C64.4147 76.5824 64.6288 75.0461 64.685 73.5C64.6881 73.4786 64.6829 73.4568 64.6705 73.4391C64.6582 73.4214 64.6395 73.4091 64.6184 73.4046C64.5973 73.4002 64.5752 73.4039 64.5568 73.4151C64.5383 73.4263 64.5248 73.4442 64.519 73.465C63.9894 74.9355 63.6173 76.458 63.409 78.007C62.9963 77.9563 62.584 77.902 62.172 77.844C62.172 77.831 62.185 77.821 62.189 77.807C62.323 76.9872 62.4148 76.1611 62.464 75.332C62.564 74.604 62.681 73.885 62.839 73.169C63.885 73.269 64.939 73.346 65.986 73.387L66.693 73.411ZM57.379 72.367C56.7749 73.7717 56.4776 75.2892 56.507 76.818C56.36 76.785 56.207 76.755 56.063 76.718C54.226 76.305 52.402 75.831 50.59 75.309C50.6596 75.2761 50.7148 75.2188 50.745 75.148C51.2881 73.7946 51.5362 72.3409 51.473 70.884C51.9663 71.034 52.4613 71.178 52.958 71.316C52.5027 72.4965 52.2028 73.7312 52.066 74.989C52.045 75.0898 52.065 75.1947 52.1214 75.2808C52.1778 75.3669 52.2662 75.427 52.367 75.448C52.4678 75.4689 52.5727 75.449 52.6588 75.3925C52.7449 75.3361 52.805 75.2478 52.826 75.147C53.1576 73.9332 53.333 72.6821 53.348 71.424C53.8273 71.5533 54.308 71.677 54.79 71.795C54.6041 72.3329 54.4882 72.8925 54.445 73.46C54.335 74.226 54.215 74.99 54.134 75.76C54.079 76.27 54.867 76.44 54.922 75.925C55.002 75.177 55.046 74.425 55.1 73.674C55.1834 73.0775 55.1948 72.4732 55.134 71.874C55.8773 72.054 56.6246 72.218 57.376 72.366L57.379 72.367ZM44.349 68.236C45.349 68.6773 46.3593 69.0926 47.38 69.482C47.169 70.893 46.957 72.295 46.634 73.688C46.6208 73.7903 46.6467 73.8938 46.7064 73.9778C46.7662 74.0619 46.8554 74.1204 46.9564 74.1416C47.0573 74.1628 47.1625 74.1452 47.251 74.0922C47.3396 74.0393 47.4049 73.9549 47.434 73.856C47.7417 72.4835 47.892 71.0805 47.882 69.674C48.336 69.8433 48.7923 70.0073 49.251 70.166C48.996 71.443 48.773 72.721 48.559 74.005C48.478 74.49 49.241 74.645 49.305 74.162C49.473 72.888 49.629 71.618 49.758 70.34C50.172 70.479 50.586 70.615 51.003 70.746C50.691 72.122 50.278 73.527 50.071 74.914C50.0574 75.0068 50.0807 75.1012 50.136 75.177C48.518 74.7023 46.91 74.1926 45.312 73.648C45.3416 73.6064 45.363 73.5596 45.375 73.51C45.562 72.745 45.682 71.97 45.812 71.194C45.9793 70.5201 46.0483 69.8256 46.017 69.132C46.0136 69.0988 45.9997 69.0676 45.9774 69.0428C45.9551 69.0181 45.9255 69.0011 45.8928 68.9943C45.8602 68.9875 45.8262 68.9912 45.7958 69.005C45.7655 69.0188 45.7404 69.0419 45.724 69.071C45.4297 69.6986 45.2276 70.3655 45.124 71.051C44.947 71.818 44.761 72.58 44.641 73.358C44.641 73.378 44.641 73.394 44.641 73.412C44.106 73.225 43.571 73.038 43.041 72.845C43.7145 71.386 44.1552 69.8304 44.347 68.235L44.349 68.236Z" fill="#3F0366"/>
<path id="Path 606" opacity="0.4" d="M107.226 85.171C107.191 85.1391 107.149 85.1156 107.103 85.1023C107.058 85.089 107.01 85.0861 106.963 85.094C106.903 84.384 106.755 83.666 106.763 82.954C106.777 82.18 106.838 81.4075 106.947 80.641C107.154 80.1324 107.284 79.5959 107.334 79.049C107.734 74.758 104.265 71.873 101.127 69.617C100.533 69.19 99.758 70.035 100.357 70.466C102.187 71.782 104.183 73.166 105.334 75.16C107.186 78.37 106.144 81.812 102.642 83.171C98.162 84.91 93.052 85.571 88.29 85.979C78.7042 86.652 69.0714 85.9209 59.697 83.809C49.8243 81.5631 40.076 78.802 30.492 75.537C25.9008 74.2271 21.4544 72.4547 17.221 70.247C13.533 68.161 4.62099 61.793 10.214 57.121C10.2294 57.1067 10.2406 57.0883 10.2462 57.068C10.2519 57.0477 10.2518 57.0263 10.246 57.006C15.418 51.515 23.729 50.87 30.882 50.315C39.2594 49.6803 47.6844 50.2209 55.912 51.921C56.0358 51.9403 56.1623 51.9113 56.2654 51.8401C56.3685 51.7688 56.4403 51.6606 56.4659 51.538C56.4916 51.4153 56.4692 51.2875 56.4033 51.1808C56.3375 51.0742 56.2332 50.997 56.112 50.965C47.0407 49.1046 37.7383 48.6413 28.527 49.591C22.627 50.212 13.004 50.868 9.99097 57.007C9.23957 57.4176 8.63294 58.0496 8.2536 58.8173C7.87427 59.5849 7.74065 60.4507 7.87098 61.297C7.20478 62.8274 6.45737 64.3212 5.63196 65.772C5.59728 65.7226 5.55099 65.6826 5.49714 65.6554C5.44328 65.6282 5.38356 65.6147 5.32325 65.6161C5.26293 65.6174 5.20392 65.6337 5.15137 65.6633C5.09882 65.6929 5.05435 65.7351 5.02198 65.786C2.33298 69.924 5.97002 74.386 9.71302 77.406C9.66402 77.73 9.62602 78.057 9.58002 78.381C9.53744 78.4012 9.4997 78.4304 9.46936 78.4665C9.43903 78.5025 9.41679 78.5447 9.40418 78.5901C9.39157 78.6356 9.38886 78.6832 9.39624 78.7297C9.40363 78.7763 9.42091 78.8207 9.44696 78.86C9.46496 78.883 9.48601 78.905 9.50501 78.929C8.22301 88.145 7.83899 97.564 7.09699 106.829C6.31032 116.653 5.52231 126.477 4.73298 136.301C3.15431 155.949 1.57865 175.598 0.00598535 195.247C-0.00585177 195.382 0.0215517 195.517 0.0849038 195.636C0.148256 195.756 0.24484 195.854 0.36298 195.92C1.90198 200.879 6.81298 204.274 11.092 206.763C16.7096 210.017 22.8036 212.367 29.151 213.729C40.312 216.135 53.574 216.183 62.988 208.865C63.616 208.376 62.939 207.333 62.306 207.826C53.267 214.853 40.581 214.852 29.837 212.639C18.958 210.397 7.32897 205.459 1.13697 195.899C1.24187 195.8 1.30336 195.663 1.30799 195.519C2.86132 175.697 4.39766 155.874 5.917 136.05C6.67633 126.221 7.43766 116.391 8.20099 106.561C8.44099 103.477 8.72198 100.382 9.00098 97.28C11.757 101.827 18.461 104.72 23.401 104.992C23.782 105.014 23.814 104.399 23.448 104.33C20.5797 103.886 17.8072 102.959 15.248 101.59C12.816 100.198 11.135 98.222 9.06299 96.49C9.12199 95.831 9.17699 95.172 9.23499 94.512C14.777 100.255 23.465 103.979 31.135 105.238C31.2226 105.254 31.3128 105.235 31.3865 105.185C31.4603 105.135 31.5118 105.059 31.5302 104.972C31.5485 104.885 31.5323 104.794 31.4848 104.719C31.4374 104.644 31.3625 104.59 31.276 104.569C27.1072 103.648 23.0637 102.23 19.232 100.347C15.7481 98.395 12.4282 96.1637 9.305 93.675C9.377 92.831 9.44634 91.987 9.513 91.143C13.6123 95.1548 18.6376 98.0939 24.144 99.7C24.459 99.791 24.644 99.278 24.344 99.152C21.6944 98.1381 19.1211 96.935 16.644 95.552C14.1781 93.9921 11.8171 92.2725 9.57599 90.404C9.62999 89.72 9.68498 89.036 9.73298 88.352C19.025 97.147 33.091 101.918 45.713 101.808C46.141 101.808 46.088 101.169 45.671 101.153C38.948 100.97 32.3036 99.6581 26.016 97.271C19.996 94.924 14.887 91.424 9.78199 87.563C9.86799 86.283 9.94234 85.0033 10.005 83.724C17.44 90.524 28.251 94.4 38.014 96.024C38.599 96.124 38.791 95.224 38.203 95.124C32.9661 94.2542 27.8594 92.7292 23.003 90.585C18.346 88.517 14.323 85.678 10.043 82.976C10.062 82.546 10.084 82.116 10.1 81.687C13.409 84.877 17.955 87.148 22.108 88.921C26.6678 90.8989 31.4891 92.2084 36.423 92.809C37.066 92.882 37.291 91.918 36.633 91.809C31.6684 91.0786 26.8137 89.735 22.18 87.809C17.854 85.948 14.167 83.261 10.13 80.932C10.144 80.519 10.146 80.106 10.156 79.693C13.505 83.331 19.029 85.633 23.709 86.542C23.8435 86.5632 23.981 86.532 24.0931 86.4547C24.2053 86.3773 24.2834 86.2599 24.3114 86.1266C24.3394 85.9934 24.3151 85.8544 24.2436 85.7385C24.172 85.6226 24.0587 85.5387 23.927 85.504C21.2446 84.8395 18.6483 83.8663 16.19 82.604C14.041 81.456 12.21 79.889 10.18 78.581C10.18 78.318 10.194 78.053 10.196 77.79C11.2097 78.5759 12.2707 79.299 13.373 79.955C20.405 84.116 28.807 86.474 36.555 88.928C53.438 94.276 71.337 97.738 89.074 95.399C92.5584 95.0392 95.998 94.3307 99.341 93.284C95.814 102.155 93.123 111.391 90.204 120.474C87.1373 130.015 84.0706 139.557 81.004 149.098C77.9373 158.639 74.8707 168.181 71.804 177.723C70.5767 181.548 69.3516 185.374 68.129 189.2C68.0363 189.153 67.9291 189.142 67.829 189.171C58.512 191.725 49.678 190.808 40.518 188.19C40.4607 188.179 40.4014 188.19 40.3509 188.219C40.3004 188.248 40.2619 188.294 40.2424 188.349C40.2229 188.404 40.2236 188.464 40.2444 188.518C40.2652 188.573 40.3048 188.618 40.356 188.646C48.81 192.497 59.016 192.41 67.856 190.039C67.668 190.628 67.4797 191.216 67.291 191.803C67.252 191.926 67.209 192.05 67.169 192.173C59.7182 193.703 52.0393 193.754 44.569 192.322C44.5231 192.322 44.4788 192.338 44.4433 192.367C44.4078 192.396 44.3833 192.436 44.3739 192.481C44.3645 192.526 44.3708 192.573 44.3918 192.613C44.4127 192.654 44.4471 192.687 44.489 192.705C51.8303 194.585 59.5149 194.679 66.9 192.979C66.7493 193.432 66.5967 193.887 66.442 194.342C58.129 196.221 50.017 195.342 41.961 192.723C41.721 192.645 41.584 193.038 41.813 193.14C49.387 196.551 58.09 196.931 66.147 195.202C65.9036 195.906 65.6593 196.612 65.414 197.32C63.344 197.556 61.314 198.03 59.214 198.175C56.5095 198.363 53.7933 198.294 51.102 197.968C46.015 197.349 41.44 195.603 36.702 193.768C36.6713 193.756 36.6372 193.755 36.6061 193.767C36.5751 193.778 36.5495 193.801 36.5342 193.83C36.519 193.859 36.5152 193.893 36.5237 193.925C36.5321 193.957 36.5523 193.985 36.58 194.003C40.92 196.768 46.317 198.142 51.388 198.72C55.724 199.214 60.855 199.395 65.147 198.095C64.935 198.714 64.7266 199.335 64.522 199.956C57.134 201.756 50.235 201.71 42.676 201.195C42.553 201.187 42.553 201.373 42.661 201.402C49.543 203.222 57.396 202.561 64.261 200.746C64.007 201.536 63.761 202.329 63.533 203.122C63.4447 203.075 63.3417 203.063 63.245 203.089C55.2359 205.149 46.8157 204.976 38.898 202.589C38.681 202.527 38.548 202.889 38.764 202.967H38.777C38.784 202.967 38.788 202.98 38.798 202.982C38.808 202.984 38.807 202.982 38.813 202.982C46.6996 205.782 55.2553 206.096 63.326 203.882C63.152 204.519 62.9903 205.158 62.841 205.797C56.401 208.839 49.77 208.997 42.872 207.539C42.685 207.5 42.572 207.792 42.756 207.866C49.132 210.366 56.438 209.525 62.61 206.799L62.601 206.838C62.481 207.416 63.357 207.762 63.608 207.195C65.593 202.68 66.78 197.695 68.281 193.003C69.782 188.311 71.281 183.615 72.781 178.92C75.8283 169.376 78.8693 159.829 81.904 150.28L91.027 121.64C94.032 112.203 97.345 102.771 99.69 93.14C103.352 91.801 106.547 89.657 108.096 85.979C108.144 85.8597 108.154 85.7286 108.126 85.6031C108.098 85.4777 108.033 85.3637 107.939 85.2762C107.844 85.1887 107.726 85.1318 107.599 85.113C107.471 85.0942 107.341 85.1145 107.226 85.171V85.171ZM83.536 94.744C73.6066 95.3049 63.6471 94.5014 53.936 92.356C43.9808 90.1494 34.1907 87.2551 24.636 83.694C20.6453 82.4002 16.8023 80.6888 13.171 78.588C10.044 76.642 4.93202 72.599 5.04902 68.37C5.09716 68.3372 5.13884 68.2959 5.172 68.248C6.40862 66.4038 7.3773 64.3934 8.04902 62.277C8.13268 62.5921 8.24028 62.9003 8.37098 63.199C9.77898 66.411 13.198 68.824 16.104 70.583C24.13 75.441 34.016 77.743 42.924 80.43C61.095 85.911 80.593 89.866 99.402 85.168C101.793 84.568 104.502 83.854 106.058 82.083C105.706 83.4224 105.819 84.8417 106.38 86.108C106.4 86.1507 106.431 86.1872 106.47 86.2137C106.509 86.2401 106.555 86.2554 106.602 86.258C102.553 93.607 90.886 94.246 83.536 94.74V94.744Z" fill="#3F0366"/>
<path id="Path 607" opacity="0.4" d="M104.049 84.914C87.539 90.097 70.523 89.968 53.718 86.191C44.6699 84.0704 35.7909 81.2834 27.154 77.853C20.1 75.124 11.571 72.723 7.68399 65.594C7.56099 65.37 7.19296 65.55 7.28396 65.794C9.96296 72.822 18.741 75.339 25.014 77.82C33.8355 81.4098 42.9056 84.3555 52.153 86.634C69.086 90.634 87.663 91.607 104.284 85.628C104.379 85.5968 104.457 85.5293 104.502 85.4403C104.547 85.3513 104.555 85.2482 104.523 85.1535C104.492 85.0588 104.425 84.9804 104.336 84.9355C104.247 84.8905 104.144 84.8828 104.049 84.914Z" fill="#3F0366"/>
<path id="Path 608" opacity="0.4" d="M73.481 77.857C73.932 76.53 74.41 74.565 73.944 73.181C73.9384 73.1655 73.9283 73.152 73.9152 73.1421C73.902 73.1321 73.8863 73.1261 73.8699 73.1249C73.8534 73.1236 73.837 73.1271 73.8225 73.1349C73.8079 73.1427 73.796 73.1546 73.788 73.169C73.5595 73.8505 73.4046 74.5545 73.326 75.269C73.169 76.089 72.938 76.89 72.734 77.699C72.612 78.188 73.328 78.309 73.481 77.857Z" fill="#3F0366"/>
</g>
</g>
<defs>
<clipPath id="clip0_309_313">
<rect width="108.15" height="215.177" fill="white"/>
</clipPath>
</defs>
</svg>
