<svg width="437" height="350" viewBox="0 0 437 350" fill="none" xmlns="http://www.w3.org/2000/svg">
<style>
    #man , #rotate , #sandwitch{
        transform-origin: center;
        transform-box: fill-box;
    }
    #man{
        animation: translateY 4s linear infinite reverse;
    }
    #rotate {
        animation: rotation 4s linear infinite reverse;
    }
    #sandwitch{
        animation: translateX 4s linear infinite reverse;
    }
    @keyframes rotation {
        0% {
            transform: rotate(0deg) translateY(0px);
        }

        50% {
            transform: rotate(10deg)  translateY(-40px);
        }

        100% {
            transform: rotate(0deg) translateY(0px);
        }
    }

    @keyframes translateY {
        0%,
        100% {
            transform: translateY(4px) translateX(5px);
        }

        50% {
            transform: translateY(-4px) translateX(-5px);
        }
    }

    @keyframes translateX {
        0%,
        100% {
            transform: translateX(0px);
        }

        50% {
            transform: translateX(-10px);
        }
    }

</style>
<g id="undraw_hamburger_-8-ge6 1" clip-path="url(#clip0_264_7)">
<g id="sandwitch">
<path id="Path 3" d="M412.356 301.754C412.356 301.754 436.728 349.979 415.986 349.979C395.244 349.979 133.898 351.016 126.638 337.534C121.552 328.088 124.356 294.462 126.491 275.174C126.906 271.426 128.742 267.979 131.62 265.543C134.498 263.106 138.201 261.865 141.966 262.074C198.488 265.194 409.644 276.755 408.727 275.312C406.912 272.46 408.209 273.238 408.209 273.238C408.209 273.238 416.504 299.683 412.356 301.754Z" fill="#3F3D56"/>
<path id="Path 4" opacity="0.1" d="M125.973 275.177C126.389 271.429 128.224 267.983 131.102 265.546C133.981 263.11 137.683 261.868 141.448 262.077C197.97 265.197 409.126 276.758 408.209 275.315C406.394 272.463 407.69 273.241 407.69 273.241C407.69 273.241 409.542 279.141 411.058 285.592C410.843 285.571 410.682 285.773 411.383 287.005C411.445 287.283 411.506 287.561 411.567 287.839C403.11 288.675 200.298 277.569 145.078 274.521C141.313 274.312 137.61 275.553 134.732 277.99C131.854 280.426 130.018 283.873 129.603 287.621C128.016 301.961 126.059 324.221 127.25 338.587C126.791 338.338 126.402 337.976 126.12 337.536C121.033 328.092 123.837 294.465 125.973 275.177Z" fill="black"/>
<path id="Path 5" d="M383.307 229.515C386.007 228.687 389.428 227.615 389.12 225.874C388.956 224.948 387.72 224.225 386.82 223.448C385.089 221.948 384.62 219.842 386.481 218.396C388.342 216.95 392.82 216.757 394.46 218.287C395.304 219.074 395.253 220.061 395.689 220.95C397.048 223.723 402.549 224.941 407.221 226.019C411.893 227.097 417.121 229.101 416.682 231.97C416.203 235.1 408.995 237.877 411.895 240.545C412.947 241.513 415.159 242.053 415.63 243.16C415.961 243.939 415.296 244.731 414.65 245.443L410.06 250.5C408.234 252.512 406.352 254.7 406.96 256.941C408.172 261.38 418.026 263.078 425.837 262.579C428.697 262.396 432.059 262.146 434.024 263.348C434.628 263.698 435.072 264.27 435.26 264.943C435.449 265.615 435.367 266.335 435.033 266.948C433.733 270.126 429.592 272.879 424.287 274.083C430.233 275.256 432.568 280.201 428.463 282.925C430.812 283.733 433.352 283.806 435.744 283.134C437.775 285.003 436.581 287.568 434.006 289.204C431.431 290.84 427.783 291.759 424.25 292.633L427.556 295.724C425.164 297.592 419.997 296.934 416.513 295.753C413.029 294.572 409.249 292.986 405.345 293.604C401.684 294.183 398.915 296.625 395.188 296.204C394.076 296.068 393.017 295.648 392.113 294.986C391.209 294.324 390.49 293.441 390.025 292.421L386.199 285.609C380.753 286.461 375.027 282.729 377.214 279.753C371.12 280.407 365.121 276.453 367.122 273.094C364.156 275.235 361.852 278.167 360.473 281.555C359.973 282.918 359.673 284.355 358.309 285.513C357.419 286.175 356.389 286.622 355.298 286.819C354.207 287.017 353.085 286.959 352.02 286.651C353.131 288.806 354.031 291.32 351.748 293.151C349.465 294.982 342.874 294.461 343.165 292.22C339.483 293.971 335.497 294.994 331.427 295.235C327.075 295.347 322.311 293.69 321.915 291.21C315.781 293.233 309.365 294.266 302.906 294.27C302.357 292.61 298.52 292.07 295.651 292.479C292.782 292.888 290.121 293.859 287.166 293.861C284.211 293.863 281.033 292.084 282.546 290.633C276.323 291.935 269.936 292.257 263.614 291.588C257.65 290.955 251.999 289.45 245.96 289.126C239.834 288.753 233.701 289.722 227.988 291.965C226.008 292.795 223.548 293.84 221.373 293.189C220.368 292.779 219.459 292.166 218.702 291.389C215.095 288.652 207.719 289.177 202.028 290.253C196.337 291.329 189.718 292.624 184.728 290.723C182.847 290.005 181.46 288.897 179.459 288.294C172.29 286.136 163.709 291.665 156.1 290.074C153.622 289.556 151.612 288.316 148.987 288.164C144.331 287.893 141.255 291.048 136.728 291.727C132.028 292.427 126.939 289.573 128.085 286.876C123.57 286.976 119.069 286.351 114.753 285.023L116.885 281.185C111.572 281.099 107.663 277.291 110.125 274.597C104.797 273.582 100.584 270.851 99.488 267.702C98.392 264.553 100.458 261.108 104.702 259.002C107.202 257.761 110.496 256.888 111.928 255.179C112.959 253.948 112.809 252.517 113.21 251.171C114.088 248.227 117.892 245.627 122.81 244.613C124.968 244.319 127.106 243.889 129.21 243.326C131.143 242.646 132.538 241.173 131.423 240.044C130.635 239.495 129.813 238.996 128.961 238.551C125.98 236.351 131.091 233.564 135.455 232.328L125.035 231.987L122.799 221.85C126.922 225.203 137.616 224.498 140.299 220.696C136.952 221.796 132.462 220.39 130.826 218.396C129.19 216.402 129.592 214.074 130.026 211.882C130.067 211.337 130.249 210.813 130.554 210.36C130.858 209.906 131.275 209.539 131.763 209.295C132.783 208.809 134.408 208.606 134.742 207.872C135.076 207.138 133.764 206.46 133.568 205.694C133.192 204.223 136.573 203.575 138.857 202.864C144.244 201.186 146.857 196.469 152.981 196.623C159.062 196.775 160.762 201.423 160.766 204.898C160.77 208.373 162.828 213.032 168.914 212.968C171.173 212.835 173.381 212.245 175.404 211.232L192.835 203.714C195.14 202.641 197.538 201.78 199.999 201.143C203.688 200.434 207.438 200.099 211.194 200.143L235.578 199.589C236.82 199.491 238.07 199.599 239.278 199.907C240.319 200.346 241.238 201.032 241.953 201.907C245.353 205.095 253.332 206.344 259.093 204.588C260.62 204.122 261.993 203.481 263.608 203.13C268.708 202.03 274.057 204.069 279.354 204.808C288.038 206.019 298.829 203.935 305.09 207.582C307.177 208.798 308.284 210.461 310.219 211.757C312.154 213.053 315.643 213.932 318.083 212.957C317.777 215.335 317.497 217.817 319.108 220.017C320.719 222.217 324.847 224.017 328.908 223.458C331.061 222.889 330.891 221.079 329.873 219.858C328.855 218.637 327.293 217.382 327.8 216.058C328.307 214.734 330.609 213.98 332.332 213.063C334.055 212.146 335.205 210.411 333.374 209.563C334.608 207.978 339.041 208.171 340.991 209.501C342.941 210.831 343.136 212.701 343.349 214.433C343.562 216.165 344.025 218.06 346.285 219.218C350.136 221.192 357.529 220.168 360.085 222.739C360.896 223.556 360.944 224.539 361.408 225.439C363.48 229.461 372.424 230.502 379.736 230.831C379.89 231.668 379.923 232.523 379.836 233.369C377.327 232.274 381.499 230.071 383.307 229.515Z" fill="#EBA40C"/>
<path id="Path 6" opacity="0.1" d="M130.154 224.941C129.717 227.133 129.315 229.457 130.954 231.455C131.197 231.743 131.472 232.003 131.773 232.23L125.173 232.014L122.936 221.869C124.644 223.258 127.48 223.949 130.406 224.013C130.302 224.316 130.22 224.625 130.161 224.94L130.154 224.941Z" fill="black"/>
<path id="Path 7" opacity="0.1" d="M128.227 236.887C128.487 235.516 130.748 234.124 133.28 233.129C135.508 234.187 138.043 234.41 140.421 233.756C138.574 236.378 132.914 237.526 128.227 236.887Z" fill="black"/>
<path id="Path 8" opacity="0.1" d="M125.001 244.267L125.172 245.043L135.592 245.384C131.228 246.62 126.117 249.406 129.098 251.607C129.949 252.052 130.772 252.551 131.56 253.1C132.675 254.23 131.279 255.7 129.347 256.382C127.243 256.945 125.105 257.375 122.947 257.669C118.033 258.683 114.228 261.282 113.347 264.227C112.947 265.572 113.096 267.004 112.065 268.235C110.633 269.944 107.344 270.817 104.839 272.058C104.598 272.178 104.366 272.303 104.139 272.431C102.122 271.443 100.522 269.77 99.625 267.711C98.525 264.562 100.595 261.117 104.839 259.011C107.339 257.77 110.633 256.897 112.065 255.188C113.096 253.957 112.946 252.526 113.347 251.18C114.225 248.236 118.029 245.636 122.947 244.622C123.617 244.487 124.309 244.376 125.001 244.267Z" fill="black"/>
<path id="Path 9" opacity="0.1" d="M430.151 290.95C429.34 289.223 427.268 287.689 424.29 287.102C427.135 286.511 429.816 285.302 432.142 283.56C433.358 283.595 434.572 283.443 435.742 283.109C437.772 284.978 436.579 287.543 434.004 289.179C432.791 289.914 431.498 290.508 430.151 290.95Z" fill="black"/>
<path id="Path 10" opacity="0.1" d="M411.771 240.438C410.287 239.883 408.767 239.43 407.221 239.082C402.549 238.005 397.049 236.782 395.689 234.013C395.253 233.124 395.304 232.137 394.46 231.35C392.819 229.82 388.34 230.013 386.481 231.459C384.622 232.905 385.088 235.014 386.82 236.511C387.72 237.288 388.958 238.011 389.12 238.937C389.428 240.68 386.009 241.75 383.307 242.578C382.035 242.987 380.845 243.615 379.789 244.433C379.766 244.248 379.744 244.064 379.726 243.881C372.415 243.553 363.47 242.511 361.398 238.489C360.934 237.589 360.886 236.603 360.075 235.789C357.521 233.218 350.128 234.242 346.275 232.268C344.015 231.11 343.552 229.214 343.339 227.483C343.126 225.752 342.932 223.883 340.981 222.55C339.03 221.217 334.597 221.027 333.364 222.613C335.194 223.458 334.045 225.195 332.322 226.113C330.599 227.031 328.294 227.793 327.79 229.107C327.286 230.421 328.844 231.683 329.862 232.907C330.88 234.131 331.05 235.941 328.897 236.507C324.84 237.062 320.711 235.266 319.097 233.066C317.483 230.866 317.766 228.384 318.072 226.006C315.633 226.985 312.143 226.106 310.208 224.806C308.273 223.506 307.167 221.847 305.079 220.631C298.819 216.984 288.027 219.068 279.343 217.857C274.043 217.118 268.695 215.074 263.597 216.179C261.978 216.53 260.61 217.172 259.082 217.637C253.32 219.393 245.337 218.144 241.942 214.956C241.226 214.083 240.308 213.398 239.267 212.961C238.059 212.653 236.809 212.545 235.567 212.643L211.182 213.197C207.426 213.153 203.675 213.488 199.987 214.197C197.528 214.833 195.131 215.692 192.828 216.763L175.409 224.29C173.386 225.303 171.178 225.894 168.919 226.026C162.833 226.089 160.775 221.436 160.771 217.956C160.767 214.476 159.071 209.833 152.986 209.681C146.857 209.528 144.248 214.244 138.861 215.922C136.578 216.633 133.197 217.282 133.573 218.752C133.747 219.435 134.81 220.035 134.8 220.688C133.283 220.331 131.903 219.539 130.829 218.411C129.192 216.411 129.595 214.089 130.029 211.897C130.07 211.352 130.252 210.828 130.557 210.375C130.861 209.921 131.278 209.554 131.766 209.31C132.786 208.824 134.411 208.621 134.745 207.887C135.079 207.153 133.767 206.475 133.571 205.709C133.195 204.238 136.576 203.59 138.859 202.879C144.246 201.201 146.859 196.484 152.984 196.638C159.065 196.79 160.765 201.438 160.769 204.913C160.773 208.388 162.831 213.047 168.917 212.983C171.176 212.851 173.384 212.26 175.407 211.247L192.838 203.729C195.141 202.658 197.538 201.799 199.997 201.163C203.686 200.454 207.436 200.119 211.192 200.163L235.577 199.609C236.819 199.511 238.069 199.619 239.277 199.927C240.318 200.364 241.236 201.049 241.952 201.922C245.352 205.11 253.33 206.359 259.092 204.603C260.62 204.137 261.992 203.496 263.607 203.145C268.707 202.045 274.056 204.084 279.353 204.823C288.037 206.034 298.828 203.95 305.089 207.597C307.176 208.813 308.283 210.476 310.218 211.772C312.153 213.068 315.642 213.947 318.082 212.972C317.776 215.35 317.496 217.832 319.107 220.032C320.718 222.232 324.846 224.032 328.907 223.473C331.06 222.904 330.89 221.094 329.872 219.873C328.854 218.652 327.292 217.397 327.8 216.073C328.308 214.749 330.609 213.994 332.332 213.078C334.055 212.162 335.205 210.426 333.374 209.578C334.607 207.993 339.041 208.186 340.991 209.515C342.941 210.844 343.136 212.715 343.349 214.447C343.562 216.179 344.025 218.074 346.285 219.232C350.136 221.206 357.529 220.182 360.085 222.753C360.896 223.57 360.944 224.553 361.408 225.453C363.48 229.475 372.424 230.516 379.736 230.844C379.754 231.027 379.776 231.211 379.799 231.396C380.855 230.577 382.045 229.949 383.317 229.54C386.017 228.712 389.438 227.64 389.13 225.899C388.966 224.973 387.73 224.25 386.83 223.473C385.098 221.973 384.63 219.867 386.491 218.421C388.352 216.975 392.83 216.782 394.47 218.312C395.314 219.099 395.263 220.086 395.699 220.975C397.058 223.748 402.558 224.966 407.231 226.044C411.904 227.122 417.131 229.126 416.692 231.995C416.209 235.071 409.23 237.809 411.771 240.438Z" fill="black"/>
<path id="Path 11" opacity="0.1" d="M424.29 274.09C425.575 274.327 426.803 274.808 427.907 275.506C427.207 275.537 426.507 275.583 425.841 275.625C418.031 276.125 408.177 274.425 406.964 269.986C406.352 267.747 408.234 265.557 410.064 263.545L412.264 261.119C416.664 262.426 421.265 262.921 425.842 262.581C428.702 262.398 432.064 262.148 434.029 263.35C434.633 263.7 435.077 264.272 435.265 264.945C435.454 265.617 435.372 266.337 435.038 266.95C433.737 270.133 429.595 272.885 424.29 274.09Z" fill="black"/>
<path id="Ellipse 1" d="M265.277 253.816C308.235 253.816 343.059 230.832 343.059 202.48C343.059 174.128 308.235 151.144 265.277 151.144C222.319 151.144 187.495 174.128 187.495 202.48C187.495 230.832 222.319 253.816 265.277 253.816Z" fill="#EA565C"/>
<path id="Path 12" opacity="0.2" d="M291.716 198.862C291.716 198.862 326.977 202.492 316.606 187.454C306.235 172.416 293.268 167.235 287.049 171.379C280.83 175.523 278.234 186.935 279.268 186.935C280.302 186.935 295.343 178.12 300.528 184.861C305.713 191.602 291.716 198.862 291.716 198.862Z" fill="white"/>
<path id="Path 13" opacity="0.2" d="M261.179 200.319C261.179 200.319 232.061 220.534 249.725 225.188C267.389 229.842 280.603 225.332 282.625 218.131C284.647 210.93 279.18 200.586 278.393 201.261C277.606 201.936 271.939 218.421 263.613 216.684C255.287 214.947 261.179 200.319 261.179 200.319Z" fill="white"/>
<path id="Path 14" opacity="0.2" d="M254.392 187.663C254.392 187.663 252.092 152.29 238.992 165.022C225.892 177.754 222.941 191.401 228.068 196.845C233.195 202.289 244.876 202.945 244.703 201.922C244.53 200.899 233.332 187.541 239.114 181.305C244.896 175.069 254.392 187.663 254.392 187.663Z" fill="white"/>
<path id="Ellipse 2" d="M359.074 249.67C402.032 249.67 436.856 226.686 436.856 198.334C436.856 169.982 402.032 146.998 359.074 146.998C316.116 146.998 281.292 169.982 281.292 198.334C281.292 226.686 316.116 249.67 359.074 249.67Z" fill="#EA565C"/>
<path id="Path 15" opacity="0.2" d="M385.52 194.715C385.52 194.715 420.781 198.345 410.41 183.307C400.039 168.269 387.078 163.084 380.853 167.232C374.628 171.38 372.038 182.789 373.078 182.789C374.118 182.789 389.153 173.974 394.338 180.715C399.523 187.456 385.52 194.715 385.52 194.715Z" fill="white"/>
<path id="Path 16" opacity="0.2" d="M354.962 196.172C354.962 196.172 325.844 216.387 343.508 221.041C361.172 225.695 374.386 221.185 376.408 213.984C378.43 206.783 372.963 196.439 372.176 197.114C371.389 197.789 365.722 214.274 357.396 212.537C349.07 210.8 354.962 196.172 354.962 196.172Z" fill="white"/>
<path id="Path 17" opacity="0.2" d="M348.208 183.517C348.208 183.517 345.908 148.144 332.808 160.876C319.708 173.608 316.757 187.255 321.884 192.699C327.011 198.143 338.692 198.799 338.519 197.776C338.346 196.753 327.148 183.395 332.93 177.159C338.712 170.923 348.208 183.517 348.208 183.517Z" fill="white"/>
<path id="Path 18" opacity="0.1" d="M318.595 154.643C301.653 164.057 290.883 178.157 290.883 193.924C290.883 222.276 325.707 245.26 368.665 245.26C382.417 245.356 396.064 242.849 408.884 237.872C395.354 245.393 377.884 249.927 358.813 249.927C315.855 249.927 281.031 226.943 281.031 198.591C281.033 179.957 296.083 163.638 318.595 154.643Z" fill="black"/>
<path id="Path 19" opacity="0.1" d="M224.808 158.271C207.866 167.688 197.098 181.789 197.098 197.552C197.098 225.904 231.922 248.888 274.879 248.888C288.631 248.984 302.278 246.477 315.098 241.5C301.568 249.021 284.098 253.555 265.027 253.555C222.069 253.555 187.246 230.571 187.246 202.219C187.246 183.582 202.29 167.266 224.808 158.271Z" fill="black"/>
<path id="Path 20" d="M406.344 188.506C406.344 188.506 339.452 116.947 175.592 146.506C46.059 169.871 152.428 210.086 202.679 225.906C217.258 230.495 232.362 233.214 247.626 233.998C304.317 236.92 446.911 239.53 406.344 188.506Z" fill="#714B4F"/>
<path id="Path 21" opacity="0.1" d="M202.679 209.827C217.258 214.416 232.362 217.135 247.626 217.919C293.552 220.284 395.849 222.444 411.478 196.053C431.213 238.71 301.143 236.231 247.626 233.475C232.362 232.691 217.258 229.972 202.679 225.383C165.846 213.783 98.867 189.083 116.733 167.514C128.761 184.439 174.525 200.961 202.679 209.827Z" fill="black"/>
<path id="Line 1" opacity="0.1" d="M263.558 146.774L245.409 182.554" stroke="black" stroke-width="2" stroke-miterlimit="10"/>
<path id="Line 2" opacity="0.1" d="M319.537 159.733L303.981 189.809" stroke="black" stroke-width="2" stroke-miterlimit="10"/>
<path id="Line 3" opacity="0.1" d="M230.905 146.774L206.533 182.554" stroke="black" stroke-width="2" stroke-miterlimit="10"/>
<path id="Line 4" opacity="0.1" d="M319.563 192.917L156.222 172.175" stroke="black" stroke-width="2" stroke-miterlimit="10"/>
<path id="Line 5" opacity="0.1" d="M162.483 153.517L151.075 169.592" stroke="black" stroke-width="2" stroke-miterlimit="10"/>
<path id="Line 6" opacity="0.1" d="M351.672 172.176L344.412 187.214" stroke="black" stroke-width="2" stroke-miterlimit="10"/>
<path id="Path 22" d="M327.254 123.443C327.254 123.443 178.09 122.768 176.721 121.419C175.352 120.07 143.878 119.354 137.721 128.127C131.564 136.9 129.51 140.949 137.721 142.298C145.932 143.647 416.204 281.987 416.204 281.987C416.204 281.987 431.257 283.337 423.731 268.487C416.205 253.637 327.254 123.443 327.254 123.443Z" fill="#F6C964"/>
<path id="Path 23" d="M264.632 185.16C264.632 190.745 291.563 204.346 324.783 204.346C358.003 204.346 384.934 190.746 384.934 185.16C384.934 179.574 358.004 177.382 324.783 177.382C291.562 177.382 264.632 179.571 264.632 185.16Z" fill="#61AB43"/>
<path id="Ellipse 3" d="M324.783 195.016C358.003 195.016 384.934 190.489 384.934 184.904C384.934 179.319 358.003 174.792 324.783 174.792C291.563 174.792 264.632 179.319 264.632 184.904C264.632 190.489 291.563 195.016 324.783 195.016Z" fill="#EBA40C"/>
<path id="Path 24" d="M192.105 175.83C192.105 181.414 219.036 195.016 252.256 195.016C285.476 195.016 312.407 181.416 312.407 175.83C312.407 170.244 285.477 168.052 252.256 168.052C219.035 168.052 192.105 170.246 192.105 175.83Z" fill="#EBA40C"/>
<path id="Ellipse 4" d="M252.256 185.686C285.476 185.686 312.407 181.159 312.407 175.574C312.407 169.989 285.476 165.462 252.256 165.462C219.036 165.462 192.105 169.989 192.105 175.574C192.105 181.159 219.036 185.686 252.256 185.686Z" fill="#61AB43"/>
<path id="Path 25" d="M119.549 166.501C119.549 172.086 146.479 185.687 179.7 185.687C212.921 185.687 239.851 172.087 239.851 166.501C239.851 160.915 212.92 158.723 179.7 158.723C146.48 158.723 119.549 160.916 119.549 166.501Z" fill="#EBA40C"/>
<path id="Ellipse 5" d="M179.7 176.357C212.92 176.357 239.851 171.83 239.851 166.245C239.851 160.66 212.92 156.133 179.7 156.133C146.48 156.133 119.549 160.66 119.549 166.245C119.549 171.83 146.48 176.357 179.7 176.357Z" fill="#61AB43"/>
<g id="rotate">
<path id="Path 26" d="M401.116 169.443C401.116 169.443 425.855 165.416 413.198 145.279C400.541 125.142 396.284 102.57 390.76 97.527C384.585 91.889 257.131 -6.96301 157.839 102.427C147.32 114.154 138.769 127.507 132.518 141.967C131.608 144.322 130.317 146.512 128.698 148.449C124.671 152.476 121.219 163.983 128.698 169.736C136.177 175.489 356.528 197.922 401.116 169.443Z" fill="#3F3D56"/>
<path id="Path 27" d="M285.246 85.698C286.771 86.7582 288.568 87.3574 290.424 87.424C293.284 87.424 295.602 86.651 295.602 85.698C295.602 84.745 293.284 83.972 290.424 83.972C288.568 84.0386 286.771 84.6378 285.246 85.698V85.698Z" fill="#F2F2F2"/>
<path id="Path 28" d="M326.652 74.771C328.177 75.8312 329.974 76.4304 331.83 76.497C334.69 76.497 337.008 75.724 337.008 74.771C337.008 73.818 334.69 73.045 331.83 73.045C329.974 73.1116 328.177 73.7107 326.652 74.771V74.771Z" fill="#F2F2F2"/>
<path id="Path 29" d="M214.171 90.695C215.943 91.2513 217.837 91.286 219.628 90.795C222.357 89.941 224.339 88.512 224.054 87.602C223.769 86.692 221.326 86.647 218.597 87.502C216.846 88.1197 215.309 89.2281 214.171 90.695V90.695Z" fill="#F2F2F2"/>
<path id="Path 30" d="M290.658 61.389C292.43 61.9452 294.324 61.9799 296.115 61.489C298.844 60.635 300.826 59.206 300.542 58.296C300.258 57.386 297.814 57.341 295.085 58.196C293.334 58.8136 291.797 59.9221 290.659 61.389H290.658Z" fill="#F2F2F2"/>
<path id="Path 31" d="M207.27 71.717C209.042 72.2732 210.936 72.308 212.727 71.817C215.456 70.963 217.438 69.534 217.154 68.624C216.87 67.714 214.426 67.669 211.697 68.524C209.946 69.1415 208.409 70.25 207.27 71.717V71.717Z" fill="#F2F2F2"/>
<path id="Path 32" d="M224.286 70.171C225.811 71.2312 227.608 71.8304 229.464 71.897C232.324 71.897 234.642 71.124 234.642 70.171C234.642 69.218 232.324 68.445 229.464 68.445C227.608 68.5116 225.811 69.1108 224.286 70.171V70.171Z" fill="#F2F2F2"/>
<path id="Path 33" d="M273.744 59.843C275.269 60.9032 277.066 61.5024 278.922 61.569C281.782 61.569 284.1 60.796 284.1 59.843C284.1 58.89 281.782 58.117 278.922 58.117C277.066 58.1836 275.269 58.7828 273.744 59.843V59.843Z" fill="#F2F2F2"/>
<path id="Path 34" d="M235.788 59.843C237.313 60.9032 239.11 61.5024 240.966 61.569C243.826 61.569 246.144 60.796 246.144 59.843C246.144 58.89 243.826 58.117 240.966 58.117C239.11 58.1836 237.313 58.7828 235.788 59.843V59.843Z" fill="#F2F2F2"/>
<path id="Path 35" d="M250.165 82.247C251.69 83.3072 253.487 83.9064 255.343 83.973C258.203 83.973 260.521 83.2 260.521 82.247C260.521 81.294 258.203 80.521 255.343 80.521C253.487 80.5876 251.69 81.1867 250.165 82.247Z" fill="#F2F2F2"/>
<path id="Path 36" d="M291.986 78.219C291.554 76.413 290.612 74.7693 289.272 73.484C287.138 71.584 284.894 70.613 284.259 71.325C283.624 72.037 284.84 74.156 286.974 76.06C288.403 77.2457 290.143 77.9952 291.987 78.219H291.986Z" fill="#F2F2F2"/>
<path id="Path 37" d="M317.867 71.893C317.435 70.0868 316.493 68.4431 315.152 67.158C313.018 65.258 310.774 64.287 310.139 64.999C309.504 65.711 310.72 67.83 312.854 69.734C314.283 70.9197 316.023 71.6692 317.867 71.893V71.893Z" fill="#F2F2F2"/>
<path id="Path 38" d="M362.693 102.948C362.261 101.142 361.319 99.4982 359.978 98.213C357.844 96.313 355.6 95.342 354.965 96.054C354.33 96.766 355.546 98.885 357.679 100.789C359.108 101.975 360.848 102.724 362.692 102.948H362.693Z" fill="#F2F2F2"/>
<path id="Path 39" d="M263.233 68.468C262.801 66.6619 261.859 65.0182 260.518 63.733C258.384 61.833 256.14 60.862 255.505 61.574C254.87 62.286 256.086 64.405 258.22 66.309C259.649 67.4947 261.389 68.2442 263.233 68.468V68.468Z" fill="#F2F2F2"/>
<path id="Path 40" d="M273.585 89.146C273.153 87.3399 272.211 85.6962 270.87 84.411C268.736 82.511 266.492 81.54 265.857 82.252C265.222 82.964 266.438 85.083 268.572 86.987C270.001 88.1728 271.742 88.9223 273.585 89.146V89.146Z" fill="#F2F2F2"/>
</g>
</g>
<g id="man">
<path id="Path 41" d="M82.589 314.495C82.589 314.495 90.466 316.858 94.405 321.584C94.405 321.584 101.494 324.735 105.827 323.947C110.16 323.159 118.037 331.036 111.735 333.4C105.433 335.764 66.835 342.065 66.047 340.1C65.259 338.135 65.259 318.044 65.259 318.044L82.589 314.495Z" fill="#EBA40C"/>
<path id="Path 42" d="M20.711 311.113C20.711 311.113 28.069 314.787 31.142 320.113C31.142 320.113 37.5889 324.428 41.9919 324.392C46.3949 324.356 52.811 333.463 46.199 334.715C39.587 335.967 0.479002 335.583 0.039002 333.508C-0.400998 331.433 3.02997 311.641 3.02997 311.641L20.711 311.113Z" fill="#EBA40C"/>
<path id="Ellipse 6" d="M69.789 44.252C79.5777 44.252 87.513 36.3167 87.513 26.528C87.513 16.7393 79.5777 8.804 69.789 8.804C60.0003 8.804 52.065 16.7393 52.065 26.528C52.065 36.3167 60.0003 44.252 69.789 44.252Z" fill="#FFB9B9"/>
<path id="Path 43" d="M55.414 29.482C55.414 29.482 53.445 42.873 49.9 44.449C47.4322 45.6625 45.1711 47.2574 43.2 49.175L53.046 53.901L72.346 52.719C72.346 52.719 70.77 44.054 73.528 39.719C76.286 35.384 55.414 29.482 55.414 29.482Z" fill="#FFB9B9"/>
<path id="Path 44" d="M18.784 92.846C18.784 92.846 9.72497 116.084 18.784 138.534C27.843 160.984 31.784 164.529 31.784 164.529L34.541 134.989L31.3709 132.113C31.3709 132.113 29.4509 123.151 31.0119 117.845C32.5729 112.539 30.212 95.997 30.212 95.997L18.784 92.846Z" fill="#FFB9B9"/>
<path id="Path 45" d="M86.527 143.166C86.527 143.166 97.949 169.161 96.767 181.766C95.585 194.371 86.527 247.541 86.527 247.541C86.527 247.541 87.709 316.073 84.164 316.073C80.619 316.073 63.683 322.373 63.683 318.042C63.683 313.711 60.138 209.73 60.138 209.73C60.138 209.73 40.051 255.418 38.082 258.963C36.113 262.508 23.509 318.042 19.177 318.042C14.845 318.042 1.45305 314.103 2.63505 311.342C3.81705 308.581 17.208 247.142 24.691 231.389C32.174 215.636 30.599 156.161 30.599 156.161L43.199 128.591L86.527 143.166Z" fill="#3F3D56"/>
<path id="Path 46" d="M75.105 18.454C75.105 18.454 86.1329 17.666 86.9209 14.909C87.7089 12.152 89.284 9.789 88.496 9.789C87.708 9.789 87.3139 7.81999 87.3139 7.81999C87.3139 7.81999 86.526 7.42599 86.132 7.81999C85.738 8.21399 85.344 5.063 85.344 5.063C85.344 5.063 84.95 3.88101 84.556 4.66901C84.162 5.45701 84.162 5.063 83.768 3.881C83.374 2.699 81.405 1.912 81.405 1.912C81.405 1.912 73.922 2.30599 72.74 0.729995C71.558 -0.846005 58.167 0.335992 55.41 2.30499C52.653 4.27399 40.443 11.364 42.41 17.272C44.377 23.18 51.469 36.177 51.469 38.147C51.469 40.117 54.226 39.722 55.014 37.753C55.802 35.784 62.103 33.421 62.103 32.239C62.103 31.057 65.648 20.029 67.617 20.817C69.586 21.605 71.949 27.906 72.737 26.725C73.525 25.544 75.105 18.454 75.105 18.454Z" fill="#3F3D56"/>
<path id="Path 47" d="M20.756 72.413C20.756 72.413 36.901 48.781 41.628 47.6C46.355 46.419 56.989 43.268 56.989 43.268C56.989 43.268 67.623 44.843 70.774 46.419C73.925 47.995 85.741 50.751 86.134 55.478C86.527 60.205 82.983 105.498 84.952 109.831C86.921 114.164 93.617 155.519 90.466 154.731C87.315 153.943 89.678 143.703 75.893 143.309C62.108 142.915 54.625 134.644 49.504 144.491C44.383 154.338 29.811 161.821 29.811 161.821C29.4445 158.646 28.9185 155.491 28.235 152.368C27.054 146.854 31.386 133.463 31.386 133.463C31.386 133.463 30.992 102.348 29.417 98.803C27.842 95.258 20.756 72.413 20.756 72.413Z" fill="#EBA40C"/>
<path id="Path 48" d="M26.66 71.592L20.752 72.38C20.752 72.38 21.146 80.257 19.57 82.62C17.994 84.983 15.238 97.192 16.813 97.592C18.388 97.992 32.568 100.349 32.568 100.349L33.357 82.232L26.66 71.592Z" fill="#EBA40C"/>
<path id="Path 49" d="M90.435 85.756C90.435 85.756 94.374 111.356 96.343 114.508C98.312 117.66 108.159 161.769 108.159 161.769C108.159 161.769 124.351 184.286 116.473 183.892C108.595 183.498 100.281 163.344 100.281 163.344C100.281 163.344 75.862 118.838 75.862 114.111C75.862 109.384 69.954 85.753 69.954 85.753L90.435 85.756Z" fill="#FFB9B9"/>
<path id="Path 50" d="M79.0161 51.144L86.106 53.901C86.106 53.901 95.1651 86.201 93.1951 88.955C91.2251 91.709 67.595 87.773 67.2 86.592C66.805 85.411 71.5331 51.144 79.0161 51.144Z" fill="#EBA40C"/>
</g>
</g>
<defs>
<clipPath id="clip0_264_7">
<rect width="436.855" height="350" fill="white"/>
</clipPath>
</defs>
</svg>
