<svg width="161" height="150" viewBox="0 0 161 150" fill="none" xmlns="http://www.w3.org/2000/svg">
<style>
    #man , #rotate{
        transform-origin: center;
        transform-box: fill-box;
    }
    #man{
        animation: translateY 4s linear infinite reverse;
    }
    #rotate{
        animation: rotate 4s linear infinite reverse;
    }
    @keyframes rotate {
        0%,
        100% {
            transform: rotate(0deg);
        }

        50% {
            transform: rotate(10deg);
        }
    }

    @keyframes translateY {
        0%,
        100% {
            transform: translateY(4px) translateX(5px);
        }

        50% {
            transform: translateY(-4px) translateX(0px);
        }
    }
</style>
<g id="undraw_hamburger_-8-ge6 2" clip-path="url(#clip0_424_116)">
<g id="rotate">
<g id="Group 3749">
<path id="Path 455" d="M126.954 91.045C126.178 91.0461 125.404 91.1299 124.646 91.295C124.594 91.477 124.513 91.6496 124.406 91.806L123.839 92.634C123.721 92.795 123.608 92.959 123.5 93.128L117.786 102.149C117.786 102.149 110.757 109.691 104.998 112.349L103.047 114.376C103.377 114.611 103.73 114.812 104.1 114.976C109.49 117.351 122.893 107.701 122.893 107.701L127.505 95.127C127.612 94.957 127.726 94.793 127.844 94.633L128.411 93.805C128.592 93.5398 128.697 93.2303 128.715 92.9099C128.733 92.5896 128.663 92.2703 128.513 91.9866C128.363 91.7028 128.139 91.4652 127.864 91.2993C127.59 91.1334 127.275 91.0455 126.954 91.045V91.045Z" fill="#D7A379"/>
<path id="Path 456" d="M91.775 138.06H96.206C101.13 134.735 114.648 124.196 118.364 119.56L126.155 109.18C128.36 106.438 130.305 103.497 131.964 100.394L135.129 93.459C135.483 92.784 134.554 91.537 133.692 91.059C132.44 91.2417 131.241 91.6928 130.179 92.3814C129.117 93.0701 128.217 93.98 127.539 95.049L121.825 104.07C121.825 104.07 109.525 117.27 104.134 114.898C103.257 114.504 102.482 113.913 101.869 113.172C100.887 112.537 100.595 112.372 100.129 112.045C95.765 108.981 96.629 101.938 96.044 94.989C95.913 93.442 94.444 91.98 92.312 91.009C92.0558 90.9783 91.798 90.9626 91.54 90.962C91.002 90.962 90.4837 91.1646 90.0882 91.5295C89.6928 91.8943 89.4492 92.3947 89.406 92.931L88.668 102.092C88.2915 106.443 86.9397 110.654 84.713 114.411C82.5344 118.483 81.3862 123.027 81.369 127.645L83.02 136.514L91.775 138.06Z" fill="#F0C69E"/>
<g id="Group 3748">
<path id="Path 457" d="M94.072 94.984C94.659 101.933 94.966 110.63 100.097 112.89C100.647 113.119 101.243 113.214 101.837 113.167C98.858 109.654 98.562 102.726 98.077 96.986C97.9476 95.4733 97.2997 94.0517 96.2428 92.9616C95.186 91.8716 93.785 91.1801 92.277 91.004C93.3126 92.0865 93.9462 93.4912 94.072 94.984V94.984Z" fill="#E6BA94"/>
<path id="Path 458" d="M134.929 90.957C134.503 90.9594 134.079 90.9928 133.658 91.057C133.846 91.7436 133.764 92.4759 133.429 93.104L129.929 99.758C128.34 102.784 126.465 105.651 124.329 108.319L116.367 118.256C112.652 122.893 108.257 126.943 103.333 130.268L91.746 138.068L91.28 141.254L94.553 140.877L107.338 132.277C112.262 128.952 116.656 124.902 120.372 120.265L128.334 110.328C130.47 107.66 132.345 104.793 133.934 101.767L137.434 95.113C137.663 94.6814 137.776 94.1979 137.763 93.7095C137.749 93.2211 137.61 92.7445 137.358 92.3261C137.105 91.9077 136.749 91.5616 136.324 91.3217C135.898 91.0818 135.418 90.9562 134.929 90.957V90.957Z" fill="#E6BA94"/>
</g>
<path id="Path 459" d="M116.693 44.619V44.214C116.693 43.059 116.234 41.9513 115.417 41.1346C114.601 40.3178 113.493 39.859 112.338 39.859C111.183 39.859 110.075 40.3178 109.259 41.1346C108.442 41.9513 107.983 43.059 107.983 44.214V44.619L112.338 46.273L116.693 44.619Z" fill="#F3B328"/>
<path id="Path 460" d="M107.986 44.619V48.624L112.338 50.342L116.693 48.624V44.624C113.797 44.3285 110.879 44.3285 107.983 44.624L107.986 44.619Z" fill="#EBA40C"/>
<path id="Path 461" d="M153.376 79.421C150.843 70.4891 145.466 62.6273 138.059 57.0291C130.653 51.4309 121.622 48.4019 112.338 48.4019C103.054 48.4019 94.0233 51.4309 86.6169 57.0291C79.2105 62.6273 73.8328 70.4891 71.3 79.421L112.338 81.361L153.376 79.421Z" fill="#3F3D56"/>
<path id="Path 462" d="M71.297 79.34C70.9243 80.6507 70.6123 81.9857 70.361 83.345H154.313C154.065 81.9863 153.753 80.6513 153.378 79.34H71.297Z" fill="#F3B328"/>
<path id="Path 463" d="M64.723 85.21C64.7378 86.1327 65.0774 87.0207 65.682 87.7178C66.2867 88.415 67.1177 88.8768 68.029 89.022H156.647C157.568 88.8987 158.412 88.4433 159.021 87.7413C159.63 87.0393 159.961 86.1392 159.953 85.21C159.61 84.6393 159.126 84.167 158.546 83.839C157.967 83.5109 157.313 83.3384 156.647 83.338H68.029C67.3633 83.3384 66.709 83.5109 66.1297 83.839C65.5504 84.167 65.0658 84.6393 64.723 85.21V85.21Z" fill="#714B4F"/>
<path id="Path 464" d="M86.49 147.714L91.976 146.108L93.997 140.208L80.297 126.508C79.9722 126.183 79.5318 126.001 79.0725 126.001C78.6133 126.001 78.1728 126.183 77.848 126.508L72.79 131.566C72.4653 131.891 72.2829 132.331 72.2829 132.79C72.2829 133.25 72.4653 133.69 72.79 134.015L86.49 147.714Z" fill="#3F3D56"/>
<path id="Path 465" d="M93.948 140.207L86.441 147.714L88.22 149.493C88.5448 149.818 88.9853 150 89.4445 150C89.9038 150 90.3442 149.818 90.669 149.493L95.727 144.435C96.0517 144.11 96.2341 143.67 96.2341 143.211C96.2341 142.751 96.0517 142.311 95.727 141.986L93.948 140.207Z" fill="#F3B328"/>
<path id="Path 466" d="M156.648 87.076H68.028C67.3623 87.0756 66.708 86.903 66.1287 86.575C65.5494 86.247 65.0648 85.7747 64.722 85.204C64.3662 85.7907 64.1727 86.4615 64.1614 87.1475C64.1502 87.8336 64.3215 88.5103 64.658 89.1084C64.9944 89.7064 65.4838 90.2043 66.076 90.5509C66.6681 90.8975 67.3418 91.0805 68.028 91.081H156.648C157.334 91.0805 158.008 90.8975 158.6 90.5509C159.192 90.2043 159.682 89.7064 160.018 89.1084C160.354 88.5103 160.526 87.8336 160.515 87.1475C160.503 86.4615 160.31 85.7907 159.954 85.204C159.611 85.7746 159.127 86.2469 158.547 86.5749C157.968 86.9029 157.314 87.0755 156.648 87.076V87.076Z" fill="#664347"/>
</g>
<g id="Group 3750">
<path id="Path 467" d="M79.894 131.388C79.5804 131.074 79.155 130.898 78.7115 130.898C78.268 130.898 77.8426 131.074 77.529 131.388C77.2154 131.702 77.0392 132.127 77.0392 132.571C77.0392 133.014 77.2154 133.439 77.529 133.753L79.141 135.365C79.2963 135.52 79.4807 135.643 79.6835 135.728C79.8864 135.812 80.1039 135.855 80.3235 135.855C80.5431 135.855 80.7606 135.812 80.9635 135.728C81.1664 135.643 81.3507 135.52 81.506 135.365C81.6613 135.21 81.7845 135.025 81.8685 134.822C81.9526 134.62 81.9958 134.402 81.9958 134.183C81.9958 133.963 81.9526 133.745 81.8685 133.543C81.7845 133.34 81.6613 133.155 81.506 133L79.894 131.388Z" fill="#F3B328"/>
</g>
</g>
<g id="man">
<path id="Path 531" d="M55.886 85.771C55.6028 85.4892 55.3849 85.1487 55.2475 84.7736C55.1101 84.3984 55.0567 83.9977 55.0909 83.5997C55.1252 83.2017 55.2462 82.816 55.4456 82.4698C55.645 82.1236 55.9179 81.8253 56.245 81.596L51.784 60.005L56.597 61.523L60.186 82.411C60.534 82.9862 60.6592 83.669 60.5378 84.3302C60.4163 84.9914 60.0567 85.5851 59.527 85.9991C58.9972 86.413 58.3341 86.6184 57.6631 86.5764C56.9922 86.5343 56.3599 86.2478 55.886 85.771V85.771Z" fill="#FFB6B6"/>
<path id="Path 532" d="M45.567 27.992L48.549 25.741C48.549 25.741 51.179 25.555 51.649 30.298C52.119 35.041 55.031 53.246 55.031 53.246L59.593 74.377L53.277 75.763L48.39 52.963L43.498 37.231L45.567 27.992Z" fill="#EBA40C"/>
<path id="Path 533" d="M47.838 67.115L62.138 55.994C62.3609 55.8205 62.5058 55.5655 62.5409 55.2852C62.5759 55.0049 62.4983 54.7221 62.325 54.499L52.594 41.984C52.4205 41.7611 52.1655 41.6162 51.8852 41.5811C51.6049 41.5461 51.3221 41.6237 51.099 41.797L36.799 52.917C36.5761 53.0906 36.4312 53.3455 36.3962 53.6258C36.3611 53.9061 36.4387 54.1889 36.612 54.412L46.343 66.927C46.5166 67.1499 46.7714 67.2948 47.0517 67.33C47.3319 67.3652 47.6147 67.2879 47.838 67.115V67.115Z" fill="#3F3D56"/>
<path id="Path 534" d="M47.916 65.965L61.005 55.788C61.2027 55.6338 61.3312 55.4076 61.3623 55.1588C61.3934 54.91 61.3246 54.6591 61.171 54.461L52.35 43.116C52.1958 42.9183 51.9695 42.7898 51.7208 42.7587C51.472 42.7276 51.2211 42.7964 51.023 42.95L37.934 53.127C37.7363 53.2812 37.6078 53.5074 37.5767 53.7562C37.5456 54.0049 37.6144 54.2559 37.768 54.454L46.591 65.802C46.7451 65.9997 46.9714 66.1282 47.2202 66.1593C47.4689 66.1904 47.7199 66.1216 47.918 65.968L47.916 65.965Z" fill="white"/>
<path id="Path 535" d="M59.297 55.502C59.3465 55.4635 59.3788 55.4069 59.3866 55.3447C59.3945 55.2824 59.3774 55.2196 59.339 55.17L54.889 49.447C54.8506 49.3975 54.794 49.3654 54.7318 49.3576C54.6697 49.3498 54.6069 49.367 54.5575 49.4055C54.508 49.444 54.4759 49.5005 54.4681 49.5627C54.4603 49.6248 54.4775 49.6875 54.516 49.737L58.966 55.46C59.0045 55.5092 59.0608 55.5412 59.1228 55.5491C59.1848 55.557 59.2474 55.54 59.297 55.502V55.502Z" fill="#E4E4E4"/>
<path id="Path 536" d="M58.558 56.077C58.6075 56.0385 58.6397 55.9819 58.6476 55.9197C58.6555 55.8574 58.6384 55.7946 58.6 55.745L54.15 50.022C54.1115 49.9725 54.055 49.9404 53.9928 49.9326C53.9307 49.9248 53.868 49.942 53.8185 49.9805C53.769 50.019 53.7369 50.0755 53.7291 50.1377C53.7213 50.1998 53.7386 50.2625 53.777 50.312L58.227 56.035C58.2657 56.0844 58.3223 56.1164 58.3846 56.1241C58.4468 56.1318 58.5095 56.1145 58.559 56.076L58.558 56.077Z" fill="#E4E4E4"/>
<path id="Path 537" d="M55.295 53.407C55.3445 53.3685 55.3767 53.3119 55.3846 53.2497C55.3925 53.1874 55.3754 53.1246 55.337 53.075L53.408 50.594C53.3695 50.5445 53.313 50.5124 53.2508 50.5046C53.1887 50.4968 53.126 50.514 53.0765 50.5525C53.027 50.591 52.9949 50.6475 52.9871 50.7097C52.9793 50.7718 52.9965 50.8345 53.035 50.884L54.964 53.365C55.0025 53.4142 55.0589 53.4463 55.1209 53.4541C55.1829 53.462 55.2454 53.445 55.295 53.407V53.407Z" fill="#E4E4E4"/>
<path id="Path 538" d="M54.295 58.276C54.3445 58.2375 54.3767 58.1809 54.3846 58.1187C54.3925 58.0564 54.3753 57.9936 54.337 57.944L47.312 48.909C47.293 48.8845 47.2693 48.864 47.2423 48.8487C47.2153 48.8333 47.1856 48.8235 47.1548 48.8196C47.1241 48.8158 47.0928 48.818 47.0629 48.8262C47.033 48.8344 47.005 48.8485 46.9805 48.8675C46.956 48.8866 46.9355 48.9102 46.9202 48.9372C46.9048 48.9642 46.895 48.9939 46.8911 49.0247C46.8873 49.0554 46.8895 49.0867 46.8977 49.1166C46.9059 49.1465 46.92 49.1745 46.939 49.199L53.964 58.234C54.0025 58.2832 54.0589 58.3153 54.1209 58.3231C54.1828 58.331 54.2454 58.314 54.295 58.276V58.276Z" fill="#E4E4E4"/>
<path id="Path 539" d="M53.556 58.851C53.6055 58.8125 53.6378 58.7559 53.6456 58.6937C53.6535 58.6314 53.6364 58.5686 53.598 58.519L46.572 49.484C46.5336 49.4345 46.477 49.4024 46.4149 49.3946C46.3527 49.3868 46.29 49.404 46.2405 49.4425C46.1911 49.4809 46.1589 49.5375 46.1511 49.5997C46.1433 49.6618 46.1606 49.7245 46.199 49.774L53.224 58.809C53.2625 58.8585 53.3191 58.8907 53.3813 58.8986C53.4436 58.9065 53.5064 58.8894 53.556 58.851Z" fill="#E4E4E4"/>
<path id="Path 540" d="M51.878 60.155C51.9275 60.1165 51.9597 60.0599 51.9676 59.9977C51.9755 59.9354 51.9584 59.8726 51.92 59.823L44.894 50.788C44.8556 50.7385 44.799 50.7064 44.7368 50.6986C44.6747 50.6908 44.6119 50.708 44.5625 50.7465C44.513 50.785 44.4809 50.8415 44.4731 50.9036C44.4653 50.9658 44.4826 51.0285 44.521 51.078L51.546 60.113C51.5845 60.1625 51.6411 60.1947 51.7033 60.2026C51.7656 60.2105 51.8284 60.1934 51.878 60.155Z" fill="#E4E4E4"/>
<path id="Path 541" d="M51.14 60.73C51.1895 60.6915 51.2217 60.6349 51.2296 60.5727C51.2375 60.5104 51.2203 60.4476 51.182 60.398L44.157 51.363C44.1186 51.3136 44.062 51.2814 43.9998 51.2736C43.9377 51.2658 43.8749 51.2831 43.8255 51.3215C43.776 51.36 43.7438 51.4165 43.7361 51.4786C43.7283 51.5408 43.7455 51.6035 43.784 51.653L50.809 60.688C50.8475 60.7372 50.9039 60.7692 50.9658 60.7771C51.0278 60.785 51.0904 60.768 51.14 60.73V60.73Z" fill="#E4E4E4"/>
<path id="Path 542" d="M49.462 62.034C49.5115 61.9955 49.5438 61.9389 49.5516 61.8767C49.5595 61.8145 49.5424 61.7516 49.504 61.702L42.479 52.667C42.4405 52.6175 42.384 52.5854 42.3218 52.5776C42.2597 52.5698 42.197 52.587 42.1475 52.6255C42.0981 52.664 42.0659 52.7205 42.0581 52.7827C42.0503 52.8448 42.0676 52.9075 42.106 52.957L49.131 61.992C49.1695 62.0412 49.2259 62.0733 49.2878 62.0811C49.3498 62.089 49.4124 62.0721 49.462 62.034V62.034Z" fill="#E4E4E4"/>
<path id="Path 543" d="M48.723 62.606C48.7725 62.5675 48.8047 62.5109 48.8126 62.4487C48.8205 62.3864 48.8034 62.3236 48.765 62.274L41.739 53.239C41.7006 53.1895 41.644 53.1574 41.5818 53.1496C41.5197 53.1418 41.457 53.1591 41.4075 53.1975C41.3581 53.236 41.3259 53.2925 41.3181 53.3546C41.3103 53.4168 41.3276 53.4795 41.366 53.529L48.392 62.564C48.4305 62.6135 48.4871 62.6457 48.5493 62.6536C48.6115 62.6615 48.6744 62.6443 48.724 62.606H48.723Z" fill="#E4E4E4"/>
<path id="Path 544" d="M46.308 6.103C46.6495 7.93756 47.2095 9.72462 47.976 11.426C52.365 20.71 39.866 17.684 35.4 17.684C30.517 17.684 25.844 20.252 26.558 8.842C26.858 3.968 30.517 4.04085e-07 35.4 4.04085e-07C39.57 -0.000999596 45.435 1.854 46.308 6.103Z" fill="#3F3D56"/>
<path id="Path 545" d="M30.836 142.583H34.997L36.977 126.534H30.836V142.583Z" fill="#FFB9B9"/>
<path id="Path 546" d="M28.646 149.791H31.63L32.163 146.974L33.527 149.791H41.441C41.8204 149.791 42.1899 149.67 42.4955 149.445C42.8011 149.22 43.0268 148.904 43.1397 148.541C43.2526 148.179 43.2467 147.791 43.123 147.432C42.9993 147.073 42.7642 146.764 42.452 146.548L36.132 142.183V139.335L29.485 139.735L28.646 149.791Z" fill="#EBA40C"/>
<path id="Path 547" d="M6.077 137.278L9.41599 139.761L20.581 128.061L15.653 124.396L6.077 137.278Z" fill="#FFB9B9"/>
<path id="Path 548" d="M-3.05176e-05 141.806L2.39401 143.586L4.50198 141.643L3.91599 144.718L10.266 149.44C10.5705 149.666 10.9393 149.79 11.3188 149.791C11.6982 149.793 12.0683 149.674 12.375 149.451C12.6817 149.227 12.9089 148.912 13.0235 148.55C13.1381 148.188 13.1341 147.799 13.012 147.44L10.545 140.166L12.245 137.881L6.67398 134.233L-3.05176e-05 141.806Z" fill="#EBA40C"/>
<path id="Path 549" d="M44.467 68.522L24.716 65.446L28.644 53.63H44.467V68.522Z" fill="#FFB9B9"/>
<path id="Path 550" d="M25.988 59.663C25.988 59.663 18.094 66.483 21.736 85.927L26.183 104.978L14.067 126.012L20.227 129.372L35.157 108.621L41.989 92.596L45.603 64.51L25.988 59.663Z" fill="#3F3D56"/>
<path id="Path 551" d="M38.229 97.194L38.704 104.548L37.314 126.324L30.414 128.7L29.107 106.389L38.229 97.194Z" fill="#3F3D56"/>
<path id="Path 552" d="M40.357 20.127L32.722 20.427L29.679 25.478L22.737 26.833L26.881 47.799L26.119 59.733L33.032 59.691C38.0138 59.6604 42.8314 61.4701 46.561 64.773L46.354 49.282L49.327 37.718L48.659 25.593L43.074 24.893L40.357 20.127Z" fill="#EBA40C"/>
<path id="Ellipse 13" d="M36.125 17.682C40.0932 17.682 43.31 14.4652 43.31 10.497C43.31 6.52883 40.0932 3.312 36.125 3.312C32.1568 3.312 28.94 6.52883 28.94 10.497C28.94 14.4652 32.1568 17.682 36.125 17.682Z" fill="#FFB9B9"/>
<path id="Path 553" d="M41.007 3.172C39.7479 2.40467 38.3058 1.98965 36.8314 1.97033C35.357 1.951 33.9046 2.32809 32.6258 3.06217C31.347 3.79624 30.2889 4.86035 29.5621 6.14325C28.8352 7.42616 28.4663 8.88076 28.494 10.355C32.155 11.274 36.002 11.978 39.906 10.575L40.828 8.31801L41.372 10.576C42.561 11.062 43.753 11.476 44.945 10.576C44.9948 9.10506 44.6572 7.64684 43.966 6.34742C43.2749 5.04799 42.2545 3.95296 41.007 3.172V3.172Z" fill="#3F3D56"/>
<path id="Path 555" d="M17.294 83.905C17.5759 83.6218 17.7923 83.2801 17.9278 82.9042C18.0634 82.5283 18.1149 82.1272 18.0787 81.7293C18.0424 81.3313 17.9194 80.9461 17.7181 80.6009C17.5169 80.2556 17.2424 79.9587 16.914 79.731L21.265 58.119L16.46 59.662L12.977 80.568C12.6312 81.1449 12.5089 81.8287 12.6334 82.4897C12.7579 83.1507 13.1206 83.7431 13.6526 84.1547C14.1847 84.5662 14.8493 84.7683 15.5204 84.7227C16.1915 84.677 16.8225 84.3868 17.294 83.907V83.905Z" fill="#FFB6B6"/>
<path id="Path 556" d="M25.685 29.159L22.703 26.908C22.703 26.908 20.073 26.722 19.603 31.465C19.133 36.208 16.221 54.413 16.221 54.413L11.659 75.544L17.974 76.93L22.861 54.13L27.753 38.397L25.685 29.159Z" fill="#EBA40C"/>
<path id="Ellipse 14" d="M51.478 48.849C52.4103 48.849 53.166 48.0933 53.166 47.161C53.166 46.2287 52.4103 45.473 51.478 45.473C50.5458 45.473 49.79 46.2287 49.79 47.161C49.79 48.0933 50.5458 48.849 51.478 48.849Z" fill="#EA565C"/>
</g>
</g>
<defs>
<clipPath id="clip0_424_116">
<rect width="160.516" height="150" fill="white"/>
</clipPath>
</defs>
</svg>
