<svg width="189" height="150" viewBox="0 0 189 150" fill="none" xmlns="http://www.w3.org/2000/svg">
<style>
    #man , #chair{
        transform-origin: center;
        transform-box: fill-box;
    }
    #man{
        animation: translateY 4s linear infinite reverse;
    }
    #chair{
        animation: translateX 4s linear infinite reverse;
    }
    @keyframes translateY {
        0%,
        100% {
            transform: translateY(4px) translateX(5px);
        }

        50% {
            transform: translateY(-4px) translateX(0px);
        }
    }

    @keyframes translateX {
        0%,
        100% {
            transform: translateX(0px);
        }

        50% {
            transform: translateX(-10px);
        }
    }

</style>
<g id="undraw_hamburger_-8-ge6 1" clip-path="url(#clip0_424_59)">
<g id="undraw_hamburger_-8-ge6">
<g id="restaurant">
<path id="Path 468" d="M146.692 80.439H136.231V61.011C136.231 59.339 136.887 57.7338 138.059 56.541L141.459 53.077L144.859 56.541C146.031 57.7339 146.687 59.339 146.687 61.011L146.692 80.439Z" fill="white"/>
<g id="Group 3754">
<path id="Path 469" d="M146.692 82.802H136.231C135.603 82.802 135 82.5524 134.556 82.1081C134.112 81.6639 133.862 81.0613 133.862 80.433V61.01C133.857 58.7161 134.758 56.5129 136.369 54.88L139.769 51.416C139.99 51.1917 140.253 51.0135 140.543 50.8918C140.833 50.7702 141.144 50.7076 141.459 50.7076C141.774 50.7076 142.085 50.7702 142.375 50.8918C142.665 51.0135 142.928 51.1917 143.149 51.416L146.549 54.88C148.16 56.5129 149.061 58.7161 149.056 61.01V80.433C149.056 81.0604 148.807 81.6622 148.364 82.1064C147.921 82.5505 147.319 82.8007 146.692 82.802ZM138.6 78.064H144.323V61.01C144.326 59.9585 143.913 58.9485 143.174 58.2L141.461 56.456L139.748 58.2C139.009 58.9485 138.596 59.9585 138.599 61.01L138.6 78.064Z" fill="#3F3D56"/>
</g>
<g id="Group 3755">
<path id="Path 470" d="M116.5 66.248C115.238 66.248 114.028 65.7467 113.136 64.8544C112.243 63.9621 111.742 62.7519 111.742 61.49V58.006C111.742 57.6682 111.877 57.3443 112.115 57.1054C112.354 56.8666 112.678 56.7323 113.016 56.732H119.984C120.322 56.732 120.646 56.8662 120.885 57.1051C121.124 57.344 121.259 57.668 121.259 58.006V61.49C121.259 62.1149 121.136 62.7337 120.897 63.311C120.658 63.8884 120.307 64.4129 119.865 64.8548C119.423 65.2966 118.898 65.6471 118.321 65.8861C117.744 66.1252 117.125 66.2481 116.5 66.248V66.248Z" fill="white"/>
</g>
<g id="Group 3756">
<path id="Path 471" d="M166.412 66.248C165.15 66.248 163.94 65.7467 163.048 64.8544C162.155 63.9621 161.654 62.7519 161.654 61.49V58.006C161.654 57.6682 161.789 57.3443 162.027 57.1054C162.266 56.8666 162.59 56.7323 162.928 56.732H169.896C170.234 56.732 170.558 56.8662 170.797 57.1051C171.036 57.344 171.171 57.668 171.171 58.006V61.49C171.171 62.1149 171.048 62.7337 170.809 63.311C170.57 63.8884 170.219 64.4129 169.777 64.8548C169.335 65.2966 168.81 65.6471 168.233 65.8861C167.656 66.1252 167.037 66.2481 166.412 66.248V66.248Z" fill="white"/>
</g>
<g id="Group 3759">
<g id="Group 3757">
<path id="Path 472" d="M116.5 68.617C114.61 68.6149 112.799 67.8633 111.463 66.5272C110.127 65.1911 109.375 63.3795 109.373 61.49V58.006C109.374 57.0402 109.759 56.1144 110.441 55.4315C111.124 54.7486 112.05 54.3643 113.016 54.363H119.984C120.95 54.3643 121.876 54.7486 122.559 55.4315C123.241 56.1144 123.626 57.0402 123.627 58.006V61.49C123.625 63.3795 122.873 65.1911 121.537 66.5272C120.201 67.8633 118.39 68.6149 116.5 68.617V68.617ZM114.111 59.1V61.489C114.111 62.1227 114.363 62.7305 114.811 63.1786C115.259 63.6267 115.867 63.8785 116.5 63.8785C117.134 63.8785 117.742 63.6267 118.19 63.1786C118.638 62.7305 118.89 62.1227 118.89 61.489V59.1H114.111Z" fill="#EBA40C"/>
</g>
<g id="Group 3758">
<path id="Path 473" d="M116.5 80.326C115.872 80.326 115.269 80.0764 114.825 79.6321C114.381 79.1879 114.131 78.5853 114.131 77.957V66.249C114.131 65.6207 114.381 65.0181 114.825 64.5739C115.269 64.1296 115.872 63.88 116.5 63.88C117.128 63.88 117.731 64.1296 118.175 64.5739C118.619 65.0181 118.869 65.6207 118.869 66.249V77.957C118.869 78.5853 118.619 79.1879 118.175 79.6321C117.731 80.0764 117.128 80.326 116.5 80.326Z" fill="#EBA40C"/>
</g>
</g>
<g id="Group 3762">
<g id="Group 3760">
<path id="Path 474" d="M166.415 68.617C164.525 68.6149 162.714 67.8633 161.378 66.5272C160.042 65.1911 159.29 63.3795 159.288 61.49V58.006C159.289 57.0401 159.673 56.1141 160.356 55.4312C161.039 54.7482 161.965 54.3641 162.931 54.363H169.899C170.865 54.3643 171.791 54.7486 172.474 55.4315C173.156 56.1144 173.541 57.0402 173.542 58.006V61.49C173.54 63.3795 172.788 65.1911 171.452 66.5272C170.116 67.8633 168.305 68.6149 166.415 68.617V68.617ZM164.026 59.1V61.489C164.026 62.1227 164.278 62.7305 164.726 63.1786C165.174 63.6267 165.782 63.8785 166.415 63.8785C167.049 63.8785 167.657 63.6267 168.105 63.1786C168.553 62.7305 168.805 62.1227 168.805 61.489V59.1H164.026Z" fill="#EBA40C"/>
</g>
<g id="Group 3761">
<path id="Path 475" d="M166.415 80.326C165.787 80.326 165.184 80.0764 164.74 79.6321C164.296 79.1879 164.046 78.5853 164.046 77.957V66.249C164.046 65.6207 164.296 65.0181 164.74 64.5739C165.184 64.1296 165.787 63.88 166.415 63.88C167.043 63.88 167.646 64.1296 168.09 64.5739C168.534 65.0181 168.784 65.6207 168.784 66.249V77.957C168.784 78.5853 168.534 79.1879 168.09 79.6321C167.646 80.0764 167.043 80.326 166.415 80.326Z" fill="#EBA40C"/>
</g>
</g>
<path id="Union 1" d="M129.471 147.862L137.685 141.251L139.151 140.069V102.923H135.688C134.468 102.923 133.298 102.438 132.435 101.576C131.573 100.713 131.088 99.543 131.088 98.323V90.529H151.951V98.329C151.951 99.549 151.466 100.719 150.604 101.582C149.741 102.444 148.571 102.929 147.351 102.929H143.892V140.094L153.573 147.849C153.733 147.952 153.865 148.094 153.956 148.262C154.047 148.43 154.094 148.617 154.093 148.808C154.095 148.963 154.067 149.116 154.009 149.26C153.951 149.403 153.865 149.534 153.756 149.644C153.647 149.754 153.517 149.841 153.374 149.9C153.231 149.959 153.078 149.989 152.923 149.988L130.123 150C129.872 150 129.629 149.92 129.427 149.771C129.226 149.622 129.078 149.412 129.004 149.173C128.931 148.933 128.937 148.676 129.021 148.44C129.105 148.204 129.263 148.002 129.471 147.862V147.862Z" fill="#3F3D56"/>
<path id="Path 477" d="M177.024 77.957H106.024C103.63 77.957 101.291 78.6818 99.3163 80.036C97.3415 81.3902 95.8228 83.3104 94.96 85.544C94.7454 86.0993 94.6694 86.6985 94.7384 87.2898C94.8074 87.8811 95.0194 88.4467 95.356 88.9377C95.6927 89.4287 96.1439 89.8302 96.6706 90.1077C97.1973 90.3851 97.7837 90.5301 98.379 90.53H184.679C185.274 90.5301 185.861 90.3851 186.387 90.1077C186.914 89.8302 187.365 89.4287 187.702 88.9377C188.039 88.4467 188.251 87.8811 188.32 87.2898C188.389 86.6985 188.313 86.0993 188.098 85.544C187.235 83.3088 185.714 81.3875 183.738 80.0332C181.761 78.6789 179.42 77.955 177.024 77.957V77.957Z" fill="#664347"/>
<path id="Path 478" d="M188.089 85.544C187.226 83.3104 185.707 81.3902 183.733 80.036C181.758 78.6818 179.419 77.957 177.025 77.957H169.373C171.767 77.957 174.106 78.6818 176.081 80.036C178.055 81.3902 179.574 83.3104 180.437 85.544C180.652 86.0993 180.728 86.6985 180.659 87.2898C180.59 87.8811 180.378 88.4467 180.041 88.9377C179.704 89.4286 179.253 89.8302 178.726 90.1077C178.2 90.3851 177.613 90.5301 177.018 90.53H184.67C185.265 90.5301 185.852 90.3851 186.378 90.1077C186.905 89.8302 187.356 89.4286 187.693 88.9377C188.03 88.4467 188.242 87.8811 188.311 87.2898C188.38 86.6985 188.304 86.0993 188.089 85.544V85.544Z" fill="#664347"/>
<path id="Path 485" d="M144.301 90.529V98.329C144.301 99.549 143.816 100.719 142.954 101.582C142.091 102.444 140.921 102.929 139.701 102.929H147.353C148.573 102.929 149.743 102.444 150.606 101.582C151.468 100.719 151.953 99.549 151.953 98.329V90.529H144.301Z" fill="#3F3D56"/>
<g id="chair">
<g id="Group 3766">
<path id="Path 480" d="M68.485 60.881V102.311C68.4855 102.854 68.7014 103.374 69.0851 103.758C69.4689 104.142 69.9893 104.357 70.532 104.358H75.322C74.7793 104.357 74.2589 104.142 73.8751 103.758C73.4914 103.374 73.2755 102.854 73.275 102.311V60.881C73.2756 60.0243 73.052 59.1823 72.6265 58.4387C72.201 57.6951 71.5884 57.0757 70.8495 56.6421C70.1106 56.2085 69.2711 55.9758 68.4144 55.967C67.5577 55.9582 66.7137 56.1737 65.966 56.592C66.7298 57.0178 67.366 57.6399 67.8088 58.3939C68.2516 59.1479 68.4851 60.0065 68.485 60.881Z" fill="#F3B328"/>
<path id="Path 481" d="M100.855 104.355H96.065C96.7103 104.355 97.3493 104.482 97.9455 104.729C98.5417 104.976 99.0834 105.338 99.5397 105.794C99.996 106.251 100.358 106.792 100.605 107.388C100.852 107.985 100.979 108.624 100.979 109.269C100.979 109.914 100.852 110.553 100.605 111.15C100.358 111.746 99.996 112.287 99.5397 112.744C99.0834 113.2 98.5417 113.562 97.9455 113.809C97.3493 114.056 96.7103 114.183 96.065 114.183H100.855C102.158 114.183 103.408 113.665 104.33 112.744C105.251 111.822 105.769 110.572 105.769 109.269C105.769 107.966 105.251 106.716 104.33 105.794C103.408 104.873 102.158 104.355 100.855 104.355V104.355Z" fill="#EBA40C"/>
</g>
<g id="Group 3774">
<g id="Group 3765">
<g id="Group 3764">
<path id="Path 479" d="M100.855 114.181H91.719L86.86 114.751L81.742 114.181H75.318C72.1699 114.178 69.1516 112.926 66.9253 110.7C64.6989 108.474 63.4462 105.456 63.442 102.308V60.881C63.442 59.5777 63.9597 58.3278 64.8813 57.4063C65.8028 56.4847 67.0527 55.967 68.356 55.967C69.6593 55.967 70.9092 56.4847 71.8307 57.4063C72.7523 58.3278 73.27 59.5777 73.27 60.881V102.311C73.2705 102.854 73.4864 103.374 73.8701 103.758C74.2539 104.142 74.7743 104.357 75.317 104.358H100.855C102.158 104.358 103.408 104.876 104.33 105.797C105.251 106.719 105.769 107.969 105.769 109.272C105.769 110.575 105.251 111.825 104.33 112.747C103.408 113.668 102.158 114.186 100.855 114.186V114.181Z" fill="#EBA40C"/>
</g>
</g>
<g id="Group 3770">
<g id="Group 3769">
<path id="Path 488" d="M107.189 150C106.705 150 106.233 149.852 105.836 149.575C105.439 149.299 105.136 148.908 104.968 148.454L94.938 121.395C94.6669 120.67 94.1815 120.046 93.5464 119.604C92.9113 119.162 92.1567 118.924 91.383 118.922H81.74C80.9425 118.921 80.1651 119.172 79.5186 119.639C78.8722 120.105 78.3897 120.765 78.14 121.522L69.256 148.375C69.1579 148.67 69.0026 148.944 68.7989 149.179C68.5952 149.415 68.3471 149.608 68.0688 149.747C67.7905 149.887 67.4874 149.97 67.1769 149.993C66.8664 150.015 66.5545 149.976 66.259 149.878C65.9635 149.78 65.6903 149.625 65.4548 149.421C65.2194 149.217 65.0264 148.969 64.8868 148.691C64.7472 148.412 64.6638 148.109 64.6414 147.799C64.619 147.488 64.6579 147.176 64.756 146.881L73.641 120.028C74.2027 118.324 75.2883 116.841 76.7429 115.79C78.1975 114.74 79.9467 114.175 81.741 114.178H91.383C93.1241 114.182 94.8224 114.717 96.2517 115.712C97.681 116.706 98.7733 118.112 99.383 119.743L109.413 146.802C109.545 147.16 109.589 147.545 109.541 147.924C109.493 148.303 109.354 148.664 109.136 148.978C108.918 149.291 108.627 149.547 108.289 149.724C107.951 149.902 107.575 149.994 107.193 149.995L107.189 150Z" fill="#3F3D56"/>
</g>
</g>
</g>
</g>
<g id="Group 3773">
<path id="Path 490" d="M141.462 55.445C140.834 55.445 140.231 55.1954 139.787 54.7511C139.343 54.3069 139.093 53.7043 139.093 53.076V43.276C139.093 42.6477 139.343 42.0451 139.787 41.6009C140.231 41.1566 140.834 40.907 141.462 40.907C142.09 40.907 142.693 41.1566 143.137 41.6009C143.581 42.0451 143.831 42.6477 143.831 43.276V53.076C143.831 53.7043 143.581 54.3069 143.137 54.7511C142.693 55.1954 142.09 55.445 141.462 55.445V55.445Z" fill="#3F3D56"/>
</g>
</g>
<g id="man">
<path id="Path 523" d="M43.353 118.603C42.5128 117.899 41.9501 116.919 41.7653 115.838C41.5805 114.758 41.7856 113.646 42.344 112.703C42.458 112.512 42.759 112.68 42.644 112.871C42.1215 113.749 41.9301 114.785 42.1043 115.792C42.2785 116.798 42.8068 117.71 43.594 118.361C43.766 118.499 43.524 118.742 43.353 118.603Z" fill="white"/>
<path id="Path 557" d="M17.827 146.351H21.377L23.066 132.657H17.826L17.827 146.351Z" fill="#FFB9B9"/>
<path id="Path 558" d="M16.921 145.192H17.921L21.821 143.605L23.912 145.191C25.0936 145.191 26.2269 145.66 27.0625 146.496C27.8981 147.331 28.3677 148.464 28.368 149.646V149.791H16.921V145.192Z" fill="#EBA40C"/>
<path id="Path 559" d="M31.585 144.114L35.048 144.896L39.712 131.91L34.601 130.756L31.585 144.114Z" fill="#FFB9B9"/>
<path id="Path 560" d="M30.956 142.779L31.931 142.999L36.086 142.311L37.776 144.319C38.9288 144.579 39.9309 145.287 40.5619 146.286C41.193 147.285 41.4013 148.494 41.141 149.647L41.109 149.788L29.942 147.267L30.956 142.779Z" fill="#EBA40C"/>
<path id="Path 561" d="M11.327 75.914L14.538 111.884C14.538 111.884 13.338 133.478 17.217 141.078H22.846L25.633 109.912L25.983 88.993L38.052 106.641L30.365 140.567L37.293 141.186L49.767 104.368L36.067 69.805L11.327 75.914Z" fill="#3F3D56"/>
<path id="Ellipse 15" d="M14.69 18.318C19.2629 18.318 22.97 14.6109 22.97 10.038C22.97 5.46508 19.2629 1.758 14.69 1.758C10.1171 1.758 6.40999 5.46508 6.40999 10.038C6.40999 14.6109 10.1171 18.318 14.69 18.318Z" fill="#FFB9B9"/>
<path id="Path 562" d="M29.245 26.314L22.452 23.4L19.145 19.893L10.885 21.225L8.69299 24.983L1.59799 31.583L9.91 69.168L9.65799 77.377C9.65799 77.377 14.978 79.777 38.051 74.258C38.328 74.192 37.751 73.902 37.751 73.902L29.245 26.314Z" fill="#EBA40C"/>
<path id="Path 563" d="M6.07899 14.736C6.02099 14.6573 5.96397 14.578 5.90797 14.498C5.88497 14.546 5.86699 14.598 5.84099 14.643L6.07899 14.736Z" fill="#2F2E41"/>
<path id="Path 564" d="M22.926 3.98099C22.3725 2.77556 21.3858 1.82245 20.162 1.31099C18.9493 0.820746 17.5936 0.820746 16.381 1.31099C15.3143 0.576741 14.078 0.126565 12.789 0.00299082C12.1434 -0.0487808 11.4949 0.0563113 10.8987 0.309311C10.3025 0.562311 9.77632 0.955719 9.365 1.45599C9.18817 1.73209 8.98739 1.99208 8.76499 2.23299C8.41076 2.47159 8.00847 2.62956 7.58653 2.69574C7.16458 2.76192 6.73325 2.7347 6.32298 2.616L7.45799 3.58899L6.08399 3.948L7.684 4.92C6.931 5.45454 6.33957 6.18595 5.97447 7.03415C5.60936 7.88235 5.48465 8.81465 5.61399 9.72899C5.8675 11.4657 6.56613 13.1073 7.64198 14.494C7.9515 13.5879 8.05703 12.6246 7.951 11.673C7.88922 11.1741 7.94584 10.6677 8.11628 10.1948C8.28672 9.72188 8.56616 9.29576 8.93198 8.95099C9.51221 8.62722 10.178 8.48968 10.839 8.55699C14.1607 8.57508 17.4788 8.78208 20.777 9.17699C21.2244 9.19649 21.6606 9.32304 22.049 9.54599C22.3719 9.85827 22.6235 10.2366 22.7866 10.6552C22.9497 11.0737 23.0205 11.5226 22.994 11.971C23.3793 10.4837 23.5679 8.95231 23.555 7.41599C23.5883 6.23956 23.374 5.06928 22.926 3.98099Z" fill="#3F3D56"/>
<path id="Ellipse 16" d="M25.503 101.019C32.7004 101.019 38.535 95.1844 38.535 87.987C38.535 80.7896 32.7004 74.955 25.503 74.955C18.3056 74.955 12.471 80.7896 12.471 87.987C12.471 95.1844 18.3056 101.019 25.503 101.019Z" fill="white"/>
<path id="Path 565" d="M25.503 74.665C24.8335 74.665 24.165 74.7151 23.503 74.815C23.163 74.864 22.833 74.928 22.503 75.006C20.0989 75.56 17.8959 76.7712 16.14 78.5043C14.3842 80.2374 13.1444 82.4244 12.559 84.8211C11.9737 87.2178 12.0658 89.73 12.825 92.0774C13.5843 94.4248 14.9809 96.5151 16.859 98.115C17.082 98.303 17.308 98.486 17.542 98.659C19.2329 99.918 21.1985 100.758 23.2772 101.109C25.3559 101.46 27.4882 101.313 29.4989 100.679C31.5095 100.046 33.341 98.9436 34.8428 97.4641C36.3445 95.9845 37.4735 94.1696 38.137 92.1686C38.8005 90.1676 38.9796 88.0377 38.6593 85.954C38.3391 83.8703 37.5288 81.8924 36.2951 80.183C35.0613 78.4736 33.4394 77.0814 31.5627 76.1211C29.686 75.1608 27.6081 74.6597 25.5 74.659L25.503 74.665ZM25.503 100.728C22.7938 100.731 20.155 99.8652 17.974 98.258C17.737 98.084 17.508 97.905 17.285 97.714C15.4553 96.1706 14.0977 94.1427 13.3678 91.863C12.638 89.5832 12.5655 87.1439 13.1587 84.8249C13.7519 82.5058 14.9867 80.4009 16.7215 78.7516C18.4564 77.1023 20.6209 75.9753 22.967 75.5C23.291 75.433 23.616 75.381 23.946 75.341C25.6722 75.1279 27.4237 75.2704 29.0928 75.7599C30.7618 76.2493 32.313 77.0753 33.6507 78.1869C34.9884 79.2985 36.0844 80.6722 36.8711 82.2234C37.6579 83.7746 38.1187 85.4705 38.2252 87.2065C38.3318 88.9426 38.0818 90.682 37.4906 92.3178C36.8994 93.9536 35.9796 95.451 34.7879 96.7178C33.5961 97.9846 32.1576 98.9941 30.5609 99.6839C28.9643 100.374 27.2433 100.729 25.504 100.729L25.503 100.728Z" fill="#3F3D56"/>
<path id="Rectangle 54" d="M19.133 85.366H31.874C32.3539 85.366 32.743 84.9769 32.743 84.497C32.743 84.0171 32.3539 83.628 31.874 83.628H19.133C18.6531 83.628 18.264 84.0171 18.264 84.497C18.264 84.9769 18.6531 85.366 19.133 85.366Z" fill="#EA565C"/>
<path id="Rectangle 55" d="M19.133 88.848H31.874C32.3539 88.848 32.743 88.4589 32.743 87.979C32.743 87.4991 32.3539 87.11 31.874 87.11H19.133C18.6531 87.11 18.264 87.4991 18.264 87.979C18.264 88.4589 18.6531 88.848 19.133 88.848Z" fill="#EA565C"/>
<path id="Rectangle 56" d="M19.133 92.329H31.874C32.3539 92.329 32.743 91.9399 32.743 91.46C32.743 90.9801 32.3539 90.591 31.874 90.591H19.133C18.6531 90.591 18.264 90.9801 18.264 91.46C18.264 91.9399 18.6531 92.329 19.133 92.329Z" fill="#EA565C"/>
<path id="Path 579" d="M20.331 82.579C20.5067 82.1333 20.5825 81.6544 20.5532 81.1762C20.5239 80.698 20.3901 80.232 20.1613 79.811C19.9326 79.3901 19.6143 79.0244 19.229 78.7396C18.8436 78.4549 18.4006 78.2581 17.931 78.163L16.359 66.619L11.801 70.604L13.993 80.956C13.8946 81.7524 14.0897 82.5575 14.5419 83.2204C14.9942 83.8834 15.6725 84.3588 16.4499 84.5578C17.2274 84.7567 18.0507 84.6656 18.7658 84.3014C19.4809 83.9371 20.0387 83.3248 20.335 82.579H20.331Z" fill="#FFB8B8"/>
<path id="Path 1101" d="M2.47401 31.387L1.23802 31.624L0.491012 32.564C0.491012 32.564 -0.716989 37.303 0.659011 40.615C2.03501 43.927 11.986 77.215 11.986 77.215L19.134 77.422L13.566 50.431L2.47401 31.387Z" fill="#EBA40C"/>
<path id="Path 580" d="M30.651 80.881C30.3219 80.5327 30.0731 80.1164 29.9222 79.6615C29.7713 79.2066 29.722 78.7242 29.7777 78.2482C29.8333 77.7722 29.9927 77.3142 30.2445 76.9064C30.4962 76.4986 30.8344 76.151 31.235 75.888L28.389 64.588L34.104 66.588L35.93 77.011C36.319 77.7134 36.4386 78.5335 36.2664 79.3177C36.0941 80.102 35.6419 80.7965 34.9944 81.2712C34.3468 81.746 33.5484 81.9683 32.7487 81.8967C31.949 81.825 31.2028 81.4643 30.65 80.882L30.651 80.881Z" fill="#FFB8B8"/>
<path id="Path 1101_2" d="M28.154 26.713L29.389 26.472L30.433 27.066C30.433 27.066 33.321 31.013 33.279 34.599C33.237 38.185 36.416 72.785 36.416 72.785L29.861 75.642L24.961 48.521L28.154 26.713Z" fill="#EBA40C"/>
</g>
</g>
</g>
<defs>
<clipPath id="clip0_424_59">
<rect width="188.338" height="150" fill="white"/>
</clipPath>
</defs>
</svg>
