<svg id="Iconly_Bulk_Setting" data-name="Iconly/Bulk/Setting" xmlns="http://www.w3.org/2000/svg" width="18" height="18.947" viewBox="0 0 18 18.947">
  <g id="Setting">
    <path id="Path" d="M2.75,5.353A2.7,2.7,0,0,1,0,2.681,2.711,2.711,0,0,1,2.75,0a2.677,2.677,0,1,1,0,5.353" transform="translate(6.262 6.802)" fill="#3f0366"/>
    <path id="Path-2" data-name="Path" d="M17.744,11.719a2.181,2.181,0,0,0-.784-.748,1.466,1.466,0,0,1-.6-.606A1.726,1.726,0,0,1,16.979,8,1.921,1.921,0,0,0,17.7,5.315L17.047,4.2a2,2,0,0,0-2.721-.72,1.869,1.869,0,0,1-2.44-.654,1.464,1.464,0,0,1-.223-.834,1.685,1.685,0,0,0-.261-1A2.039,2.039,0,0,0,9.679,0H8.314A2.079,2.079,0,0,0,6.6.985a1.691,1.691,0,0,0-.271,1,1.464,1.464,0,0,1-.223.834,1.86,1.86,0,0,1-2.43.654,2.013,2.013,0,0,0-2.73.72L.3,5.315A1.936,1.936,0,0,0,1.014,8a1.737,1.737,0,0,1,.629,2.368,1.548,1.548,0,0,1-.61.606,2.007,2.007,0,0,0-.775.748,1.89,1.89,0,0,0,.019,1.942L.947,14.8a2.021,2.021,0,0,0,1.723.985A2.047,2.047,0,0,0,3.7,15.5a1.5,1.5,0,0,1,.852-.218A1.793,1.793,0,0,1,6.33,17.005a1.961,1.961,0,0,0,2.014,1.942H9.66a1.959,1.959,0,0,0,2-1.942,1.808,1.808,0,0,1,1.791-1.724,1.544,1.544,0,0,1,.852.218,1.987,1.987,0,0,0,2.74-.7l.678-1.137a1.912,1.912,0,0,0,.019-1.942" fill="#3f0366" opacity="0.4"/>
  </g>
</svg>
