<svg id="Iconly_Bulk_Ticket_Star" data-name="Iconly/Bulk/Ticket Star" xmlns="http://www.w3.org/2000/svg" width="18" height="16" viewBox="0 0 18 16">
  <g id="Ticket_Star" data-name="Ticket Star">
    <path id="Fill_1" data-name="Fill 1" d="M17.325,9.312a1.312,1.312,0,1,1,0-2.624A.683.683,0,0,0,17.8,6.5a.654.654,0,0,0,.2-.468V3.648A3.693,3.693,0,0,0,14.27,0H3.73A3.693,3.693,0,0,0,0,3.648V6.1a.654.654,0,0,0,.2.468.683.683,0,0,0,.477.193A1.263,1.263,0,0,1,2.015,8,1.328,1.328,0,0,1,.675,9.312.668.668,0,0,0,0,9.973v2.378A3.694,3.694,0,0,0,3.729,16H14.271A3.694,3.694,0,0,0,18,12.351V9.973a.668.668,0,0,0-.675-.661" fill="#3f0366" opacity="0.4"/>
    <path id="Fill_4" data-name="Fill 4" d="M6.377,3.012,5.316,4.032l.251,1.443a.647.647,0,0,1-.266.644.664.664,0,0,1-.7.049L3.29,5.487l-1.312.681a.662.662,0,0,1-.7-.049.651.651,0,0,1-.266-.644l.25-1.443L.2,3.012a.648.648,0,0,1-.168-.676.661.661,0,0,1,.54-.446l1.463-.211L2.693.366A.665.665,0,0,1,3.29,0h0a.663.663,0,0,1,.6.367l.656,1.312,1.466.212a.656.656,0,0,1,.536.445.644.644,0,0,1-.168.676" transform="translate(5.71 4.623)" fill="#3f0366"/>
  </g>
</svg>
