<svg xmlns="http://www.w3.org/2000/svg" width="22.137" height="15.565" viewBox="0 0 22.137 15.565">
  <path id="FontAwsome_youtube_" data-name="FontAwsome (youtube)" d="M36.607,66.435a2.782,2.782,0,0,0-1.957-1.97C32.924,64,26,64,26,64s-6.922,0-8.649.466a2.782,2.782,0,0,0-1.957,1.97,31.318,31.318,0,0,0,0,10.726A2.74,2.74,0,0,0,17.353,79.1c1.726.466,8.649.466,8.649.466s6.922,0,8.649-.466a2.74,2.74,0,0,0,1.957-1.938,31.318,31.318,0,0,0,0-10.726ZM23.737,75.09V68.507L29.523,71.8Z" transform="translate(-14.933 -64)"/>
</svg>
